M48
;DRILL file {KiCad (5.0.0)} date 02/11/21 09:18:14
;FORMAT={-:-/ absolute / inch / decimal}
FMAT,2
INCH,TZ
T1C0.0138
T2C0.0157
%
G90
G05
M72
T1
X6.4528Y-2.7283
X6.4528Y-2.8071
X6.4528Y-2.8858
X6.4528Y-2.9646
X6.4528Y-3.0433
X6.4528Y-3.122
X6.4528Y-3.2008
X6.4528Y-3.437
X6.4528Y-3.5157
X6.4547Y-3.2815
X6.4547Y-3.3602
X6.5138Y-2.6122
X6.5197Y-3.4803
X6.5197Y-3.5118
X6.5197Y-3.5433
X6.5217Y-2.6929
X6.5276Y-2.9665
X6.5276Y-3.3937
X6.5413Y-3.0354
X6.5433Y-3.1545
X6.5512Y-3.2362
X6.5512Y-3.4488
X6.563Y-2.7087
X6.5728Y-2.9193
X6.5787Y-2.6102
X6.5827Y-3.4488
X6.5906Y-2.8898
X6.5998Y-3.158
X6.6122Y-3.0472
X6.6142Y-3.4488
X6.6217Y-3.1353
X6.626Y-2.7185
X6.6417Y-2.748
X6.6417Y-3.2854
X6.6457Y-2.8937
X6.6457Y-3.4488
X6.6457Y-2.7993
X6.6484Y-3.1185
X6.6535Y-2.6102
X6.6713Y-2.6969
X6.6732Y-3.4488
X6.6781Y-2.9919
X6.6952Y-2.7739
X6.6954Y-2.7406
X6.7008Y-3.4488
X6.7067Y-3.2018
X6.7091Y-3.0039
X6.7244Y-2.8484
X6.7283Y-3.4488
X6.7323Y-2.6102
X6.747Y-3.1585
X6.747Y-3.2431
X6.748Y-3.2008
X6.7923Y-3.1998
X6.7948Y-3.0461
X6.7972Y-2.7795
X6.8091Y-2.6949
X6.811Y-2.6102
X6.811Y-2.8386
X6.811Y-2.9173
X6.8266Y-3.0785
X6.8366Y-3.311
X6.8465Y-2.6949
X6.8484Y-3.3839
X6.8622Y-3.4488
X6.8661Y-2.998
X6.8722Y-2.8053
X6.8799Y-2.7559
X6.8819Y-3.0787
X6.8819Y-3.0787
X6.8898Y-2.6102
X6.8898Y-3.4488
X6.9075Y-2.813
X6.9099Y-2.9994
X6.9213Y-3.4488
X6.9232Y-2.8799
X6.9288Y-3.2008
X6.935Y-2.7539
X6.9449Y-2.6339
X6.9469Y-2.6791
X6.9528Y-3.4488
X6.9528Y-3.4803
X6.9528Y-3.5118
X6.9528Y-3.5433
X7.0197Y-2.6496
X7.0197Y-2.8071
X7.0197Y-2.8858
X7.0197Y-2.9646
X7.0197Y-3.0433
X7.0197Y-3.122
X7.0197Y-3.2008
X7.0197Y-3.2795
X7.0197Y-3.3583
X7.0197Y-3.437
X7.0197Y-3.5157
T2
X6.4528Y-2.6496
X6.7303Y-3.3583
X6.7539Y-3.0531
X6.8346Y-3.3484
X6.8925Y-3.1343
X6.9134Y-2.7028
X6.9646Y-3.3228
X7.0197Y-2.7283
T0
M30
