M48
; DRILL file {KiCad (5.1.2-1)-1} date Friday, 18 December 2020 at 00:06:09
; FORMAT={-:-/ absolute / inch / decimal}
; #@! TF.CreationDate,2020-12-18T00:06:09+00:00
; #@! TF.GenerationSoftware,Kicad,Pcbnew,(5.1.2-1)-1
; #@! TF.FileFunction,Plated,1,2,PTH
FMAT,2
INCH
T1C0.0138
T2C0.0157
T3C0.0300
%
G90
G05
T1
X6.4961Y-3.2402
X6.5138Y-2.6122
X6.5197Y-3.4803
X6.5197Y-3.5118
X6.5197Y-3.5433
X6.5217Y-2.7008
X6.5217Y-3.2736
X6.5276Y-2.9665
X6.5413Y-3.0354
X6.546Y-3.1523
X6.5512Y-3.2362
X6.5512Y-3.4488
X6.563Y-2.7087
X6.5728Y-2.9193
X6.5827Y-3.4488
X6.5906Y-2.8898
X6.5998Y-3.158
X6.6122Y-3.0472
X6.6142Y-3.4488
X6.6217Y-3.1353
X6.626Y-2.7185
X6.6417Y-2.748
X6.6417Y-3.2854
X6.6457Y-2.8937
X6.6457Y-3.4488
X6.6457Y-2.7993
X6.6484Y-3.1185
X6.6713Y-2.6969
X6.6732Y-3.4488
X6.6781Y-2.9919
X6.6952Y-2.7739
X6.6954Y-2.7406
X6.7008Y-3.4488
X6.7067Y-3.2018
X6.7091Y-3.0039
X6.7283Y-3.4488
X6.7382Y-2.6998
X6.747Y-3.1585
X6.747Y-3.2431
X6.748Y-3.2008
X6.7559Y-3.4488
X6.7697Y-2.6427
X6.7923Y-3.1998
X6.7948Y-3.0461
X6.8012Y-2.7795
X6.8071Y-2.9173
X6.8091Y-2.6949
X6.811Y-2.8386
X6.8266Y-3.0785
X6.8366Y-3.311
X6.8465Y-2.6949
X6.8484Y-3.3839
X6.8622Y-3.4488
X6.8661Y-2.998
X6.8722Y-2.8053
X6.8799Y-2.7559
X6.8819Y-3.0787
X6.8819Y-3.0787
X6.8898Y-3.4488
X6.9075Y-2.813
X6.9099Y-2.9994
X6.9213Y-3.4488
X6.9232Y-2.8799
X6.9288Y-3.2008
X6.937Y-2.7539
X6.9449Y-2.6339
X6.9469Y-2.6791
X6.9528Y-3.4488
X6.9528Y-3.4803
X6.9528Y-3.5118
X6.9528Y-3.5433
T2
X6.7303Y-3.3583
X6.7539Y-3.0531
X6.8346Y-3.3484
X6.8925Y-3.1343
X6.9134Y-2.7028
X6.9646Y-3.3228
T3
X6.9921Y-2.6535
X6.9921Y-2.7323
X6.9921Y-2.811
X6.9921Y-2.8898
X6.9921Y-2.9685
X6.9921Y-3.0472
X6.9921Y-3.126
X6.9921Y-3.2047
X6.9921Y-3.2835
X6.9921Y-3.3622
X6.9921Y-3.4409
X6.9921Y-3.5197
X7.0512Y-2.6535
X7.0512Y-2.7323
X7.0512Y-2.811
X7.0512Y-2.8898
X7.0512Y-2.9685
X7.0512Y-3.0472
X7.0512Y-3.126
X7.0512Y-3.2047
X7.0512Y-3.2835
X7.0512Y-3.3622
X7.0512Y-3.4409
X7.0512Y-3.5197
X6.4193Y-2.6516
X6.4193Y-2.7303
X6.4193Y-2.8091
X6.4193Y-2.8878
X6.4193Y-2.9665
X6.4193Y-3.0453
X6.4193Y-3.124
X6.4193Y-3.2028
X6.4193Y-3.2815
X6.4193Y-3.3602
X6.4193Y-3.439
X6.4193Y-3.5177
X6.4783Y-2.6516
X6.4783Y-2.7303
X6.4783Y-2.8091
X6.4783Y-2.8878
X6.4783Y-2.9665
X6.4783Y-3.0453
X6.4783Y-3.124
X6.4783Y-3.2028
X6.4783Y-3.2815
X6.4783Y-3.3602
X6.4783Y-3.439
X6.4783Y-3.5177
X6.5728Y-2.5787
X6.5728Y-2.6378
X6.6516Y-2.5787
X6.6516Y-2.6378
X6.7303Y-2.5787
X6.7303Y-2.6378
X6.8091Y-2.5787
X6.8091Y-2.6378
X6.8878Y-2.5787
X6.8878Y-2.6378
T0
M30
