G04 #@! TF.GenerationSoftware,KiCad,Pcbnew,(5.0.0)*
G04 #@! TF.CreationDate,2021-02-11T08:38:10+00:00*
G04 #@! TF.ProjectId,ESPV-BUG,455350562D4255472E6B696361645F70,rev?*
G04 #@! TF.SameCoordinates,Original*
G04 #@! TF.FileFunction,Soldermask,Top*
G04 #@! TF.FilePolarity,Negative*
%FSLAX46Y46*%
G04 Gerber Fmt 4.6, Leading zero omitted, Abs format (unit mm)*
G04 Created by KiCad (PCBNEW (5.0.0)) date 02/11/21 08:38:10*
%MOMM*%
%LPD*%
G01*
G04 APERTURE LIST*
%ADD10C,0.150000*%
%ADD11C,0.100000*%
G04 APERTURE END LIST*
D10*
G04 #@! TO.C,AE1*
G36*
X166100000Y-91150000D02*
X176100000Y-91150000D01*
X176100000Y-87700000D01*
X166100000Y-87700000D01*
X166100000Y-91150000D01*
G37*
X166100000Y-91150000D02*
X176100000Y-91150000D01*
X176100000Y-87700000D01*
X166100000Y-87700000D01*
X166100000Y-91150000D01*
D11*
G36*
X175801000Y-90576000D02*
X172199000Y-90576000D01*
X172199000Y-89124000D01*
X175801000Y-89124000D01*
X175801000Y-90576000D01*
X175801000Y-90576000D01*
G37*
G36*
X167101000Y-90576000D02*
X166199000Y-90576000D01*
X166199000Y-89124000D01*
X167101000Y-89124000D01*
X167101000Y-90576000D01*
X167101000Y-90576000D01*
G37*
G36*
X179651000Y-89951000D02*
X177494298Y-89951000D01*
X177493446Y-89950301D01*
X177471835Y-89938750D01*
X177448385Y-89931636D01*
X177439279Y-89929825D01*
X177439277Y-89929824D01*
X177439276Y-89929824D01*
X177339005Y-89888291D01*
X177248755Y-89827988D01*
X177172012Y-89751245D01*
X177111709Y-89660995D01*
X177070174Y-89560721D01*
X177049000Y-89454270D01*
X177049000Y-89345730D01*
X177070174Y-89239279D01*
X177111709Y-89139005D01*
X177172012Y-89048755D01*
X177248755Y-88972012D01*
X177339005Y-88911709D01*
X177439276Y-88870176D01*
X177439277Y-88870176D01*
X177439279Y-88870175D01*
X177448385Y-88868364D01*
X177471834Y-88861251D01*
X177493445Y-88849700D01*
X177494298Y-88849000D01*
X179651000Y-88849000D01*
X179651000Y-89951000D01*
X179651000Y-89951000D01*
G37*
G36*
X164656554Y-88799699D02*
X164678165Y-88811250D01*
X164701615Y-88818364D01*
X164710721Y-88820175D01*
X164710723Y-88820176D01*
X164710724Y-88820176D01*
X164810995Y-88861709D01*
X164901245Y-88922012D01*
X164977988Y-88998755D01*
X165038291Y-89089005D01*
X165079826Y-89189279D01*
X165101000Y-89295730D01*
X165101000Y-89404270D01*
X165079826Y-89510721D01*
X165038291Y-89610995D01*
X164977988Y-89701245D01*
X164901245Y-89777988D01*
X164810995Y-89838291D01*
X164710724Y-89879824D01*
X164710723Y-89879824D01*
X164710721Y-89879825D01*
X164701615Y-89881636D01*
X164678166Y-89888749D01*
X164656555Y-89900300D01*
X164655702Y-89901000D01*
X162499000Y-89901000D01*
X162499000Y-88799000D01*
X164655702Y-88799000D01*
X164656554Y-88799699D01*
X164656554Y-88799699D01*
G37*
G36*
X179651000Y-87951000D02*
X177494298Y-87951000D01*
X177493446Y-87950301D01*
X177471835Y-87938750D01*
X177448385Y-87931636D01*
X177439279Y-87929825D01*
X177439277Y-87929824D01*
X177439276Y-87929824D01*
X177339005Y-87888291D01*
X177248755Y-87827988D01*
X177172012Y-87751245D01*
X177111709Y-87660995D01*
X177070174Y-87560721D01*
X177049000Y-87454270D01*
X177049000Y-87345730D01*
X177070174Y-87239279D01*
X177111709Y-87139005D01*
X177172012Y-87048755D01*
X177248755Y-86972012D01*
X177339005Y-86911709D01*
X177439276Y-86870176D01*
X177439277Y-86870176D01*
X177439279Y-86870175D01*
X177448385Y-86868364D01*
X177471834Y-86861251D01*
X177493445Y-86849700D01*
X177494298Y-86849000D01*
X179651000Y-86849000D01*
X179651000Y-87951000D01*
X179651000Y-87951000D01*
G37*
G36*
X164656554Y-86799699D02*
X164678165Y-86811250D01*
X164701615Y-86818364D01*
X164710721Y-86820175D01*
X164710723Y-86820176D01*
X164710724Y-86820176D01*
X164810995Y-86861709D01*
X164901245Y-86922012D01*
X164977988Y-86998755D01*
X165038291Y-87089005D01*
X165079826Y-87189279D01*
X165101000Y-87295730D01*
X165101000Y-87404270D01*
X165079826Y-87510721D01*
X165038291Y-87610995D01*
X164977988Y-87701245D01*
X164901245Y-87777988D01*
X164810995Y-87838291D01*
X164710724Y-87879824D01*
X164710723Y-87879824D01*
X164710721Y-87879825D01*
X164701615Y-87881636D01*
X164678166Y-87888749D01*
X164656555Y-87900300D01*
X164655702Y-87901000D01*
X162499000Y-87901000D01*
X162499000Y-86799000D01*
X164655702Y-86799000D01*
X164656554Y-86799699D01*
X164656554Y-86799699D01*
G37*
G36*
X169667866Y-86427385D02*
X169688484Y-86433639D01*
X169707484Y-86443795D01*
X169728909Y-86461378D01*
X170088622Y-86821091D01*
X170106205Y-86842516D01*
X170116361Y-86861516D01*
X170122615Y-86882134D01*
X170124726Y-86903572D01*
X170122615Y-86925010D01*
X170116361Y-86945628D01*
X170106205Y-86964628D01*
X170088622Y-86986053D01*
X169764265Y-87310410D01*
X169742840Y-87327993D01*
X169723840Y-87338149D01*
X169703222Y-87344403D01*
X169681784Y-87346514D01*
X169660346Y-87344403D01*
X169639728Y-87338149D01*
X169620728Y-87327993D01*
X169599303Y-87310410D01*
X169239590Y-86950697D01*
X169222007Y-86929272D01*
X169211851Y-86910272D01*
X169205597Y-86889654D01*
X169203486Y-86868216D01*
X169205597Y-86846778D01*
X169211851Y-86826160D01*
X169222007Y-86807160D01*
X169239590Y-86785735D01*
X169563947Y-86461378D01*
X169585372Y-86443795D01*
X169604372Y-86433639D01*
X169624990Y-86427385D01*
X169646428Y-86425274D01*
X169667866Y-86427385D01*
X169667866Y-86427385D01*
G37*
G36*
X174206938Y-86481716D02*
X174227556Y-86487970D01*
X174246556Y-86498126D01*
X174263208Y-86511792D01*
X174276874Y-86528444D01*
X174287030Y-86547444D01*
X174293284Y-86568062D01*
X174295705Y-86592642D01*
X174300486Y-86616675D01*
X174309863Y-86639314D01*
X174323477Y-86659689D01*
X174340805Y-86677016D01*
X174361179Y-86690630D01*
X174383818Y-86700007D01*
X174407852Y-86704787D01*
X174432356Y-86704787D01*
X174456389Y-86700006D01*
X174479028Y-86690629D01*
X174499403Y-86677015D01*
X174516730Y-86659687D01*
X174530344Y-86639313D01*
X174535128Y-86627761D01*
X174548126Y-86603444D01*
X174561792Y-86586792D01*
X174578444Y-86573126D01*
X174597444Y-86562970D01*
X174618062Y-86556716D01*
X174645640Y-86554000D01*
X175154360Y-86554000D01*
X175181938Y-86556716D01*
X175202556Y-86562970D01*
X175221556Y-86573126D01*
X175238208Y-86586792D01*
X175251874Y-86603444D01*
X175262030Y-86622444D01*
X175268284Y-86643062D01*
X175271000Y-86670640D01*
X175271000Y-87129360D01*
X175268284Y-87156938D01*
X175262030Y-87177556D01*
X175251874Y-87196556D01*
X175238208Y-87213208D01*
X175221556Y-87226874D01*
X175202556Y-87237030D01*
X175181938Y-87243284D01*
X175154360Y-87246000D01*
X174645640Y-87246000D01*
X174618062Y-87243284D01*
X174597444Y-87237030D01*
X174578444Y-87226874D01*
X174561792Y-87213208D01*
X174548126Y-87196556D01*
X174537971Y-87177557D01*
X174528326Y-87145762D01*
X174518948Y-87123123D01*
X174505334Y-87102749D01*
X174488007Y-87085422D01*
X174467633Y-87071808D01*
X174444994Y-87062430D01*
X174420960Y-87057650D01*
X174396456Y-87057650D01*
X174372422Y-87062430D01*
X174349783Y-87071808D01*
X174329409Y-87085422D01*
X174312082Y-87102749D01*
X174298468Y-87123123D01*
X174289090Y-87145765D01*
X174287031Y-87152554D01*
X174276874Y-87171556D01*
X174263208Y-87188208D01*
X174246556Y-87201874D01*
X174227556Y-87212030D01*
X174206938Y-87218284D01*
X174179360Y-87221000D01*
X173720640Y-87221000D01*
X173693062Y-87218284D01*
X173672444Y-87212030D01*
X173653444Y-87201874D01*
X173636792Y-87188208D01*
X173623126Y-87171556D01*
X173612970Y-87152556D01*
X173606716Y-87131938D01*
X173604000Y-87104360D01*
X173604000Y-86595640D01*
X173606716Y-86568062D01*
X173612970Y-86547444D01*
X173623126Y-86528444D01*
X173636792Y-86511792D01*
X173653444Y-86498126D01*
X173672444Y-86487970D01*
X173693062Y-86481716D01*
X173720640Y-86479000D01*
X174179360Y-86479000D01*
X174206938Y-86481716D01*
X174206938Y-86481716D01*
G37*
G36*
X176196938Y-86541716D02*
X176217556Y-86547970D01*
X176236556Y-86558126D01*
X176253208Y-86571792D01*
X176266874Y-86588444D01*
X176277030Y-86607444D01*
X176283284Y-86628062D01*
X176286000Y-86655640D01*
X176286000Y-87114360D01*
X176283284Y-87141938D01*
X176277030Y-87162556D01*
X176266874Y-87181556D01*
X176253208Y-87198208D01*
X176236556Y-87211874D01*
X176217556Y-87222030D01*
X176196938Y-87228284D01*
X176169360Y-87231000D01*
X175660640Y-87231000D01*
X175633062Y-87228284D01*
X175612444Y-87222030D01*
X175593444Y-87211874D01*
X175576792Y-87198208D01*
X175563126Y-87181556D01*
X175552970Y-87162556D01*
X175546716Y-87141938D01*
X175544000Y-87114360D01*
X175544000Y-86655640D01*
X175546716Y-86628062D01*
X175552970Y-86607444D01*
X175563126Y-86588444D01*
X175576792Y-86571792D01*
X175593444Y-86558126D01*
X175612444Y-86547970D01*
X175633062Y-86541716D01*
X175660640Y-86539000D01*
X176169360Y-86539000D01*
X176196938Y-86541716D01*
X176196938Y-86541716D01*
G37*
G36*
X172256938Y-86481716D02*
X172277556Y-86487970D01*
X172296556Y-86498126D01*
X172313208Y-86511792D01*
X172326874Y-86528444D01*
X172337030Y-86547444D01*
X172343284Y-86568062D01*
X172346000Y-86595640D01*
X172346000Y-87104360D01*
X172343284Y-87131938D01*
X172337030Y-87152556D01*
X172326874Y-87171556D01*
X172313208Y-87188208D01*
X172296556Y-87201874D01*
X172277556Y-87212030D01*
X172256938Y-87218284D01*
X172229360Y-87221000D01*
X171770640Y-87221000D01*
X171743062Y-87218284D01*
X171722444Y-87212030D01*
X171703444Y-87201874D01*
X171686792Y-87188208D01*
X171673126Y-87171556D01*
X171662970Y-87152556D01*
X171656716Y-87131938D01*
X171654000Y-87104360D01*
X171654000Y-86595640D01*
X171656716Y-86568062D01*
X171662970Y-86547444D01*
X171673126Y-86528444D01*
X171686792Y-86511792D01*
X171703444Y-86498126D01*
X171722444Y-86487970D01*
X171743062Y-86481716D01*
X171770640Y-86479000D01*
X172229360Y-86479000D01*
X172256938Y-86481716D01*
X172256938Y-86481716D01*
G37*
G36*
X170353760Y-85741491D02*
X170374378Y-85747745D01*
X170393378Y-85757901D01*
X170414803Y-85775484D01*
X170774516Y-86135197D01*
X170792099Y-86156622D01*
X170802255Y-86175622D01*
X170808509Y-86196240D01*
X170810620Y-86217678D01*
X170808509Y-86239116D01*
X170802255Y-86259734D01*
X170789641Y-86283333D01*
X170781792Y-86295080D01*
X170772416Y-86317720D01*
X170767636Y-86341754D01*
X170767637Y-86366258D01*
X170772419Y-86390291D01*
X170781798Y-86412930D01*
X170795412Y-86433304D01*
X170812740Y-86450630D01*
X170833115Y-86464243D01*
X170855755Y-86473619D01*
X170892035Y-86479000D01*
X171259360Y-86479000D01*
X171286938Y-86481716D01*
X171307556Y-86487970D01*
X171326556Y-86498126D01*
X171343208Y-86511792D01*
X171356874Y-86528444D01*
X171367030Y-86547444D01*
X171373284Y-86568062D01*
X171376000Y-86595640D01*
X171376000Y-87104360D01*
X171373284Y-87131938D01*
X171367030Y-87152556D01*
X171356874Y-87171556D01*
X171343208Y-87188208D01*
X171326556Y-87201874D01*
X171307556Y-87212030D01*
X171286938Y-87218284D01*
X171259360Y-87221000D01*
X170800640Y-87221000D01*
X170773062Y-87218284D01*
X170752444Y-87212030D01*
X170733444Y-87201874D01*
X170716792Y-87188208D01*
X170703126Y-87171556D01*
X170692970Y-87152556D01*
X170686716Y-87131938D01*
X170684000Y-87104360D01*
X170684000Y-86692451D01*
X170681598Y-86668065D01*
X170674485Y-86644616D01*
X170662934Y-86623005D01*
X170647388Y-86604063D01*
X170628446Y-86588517D01*
X170606835Y-86576966D01*
X170583386Y-86569853D01*
X170559000Y-86567451D01*
X170534614Y-86569853D01*
X170511165Y-86576966D01*
X170489554Y-86588517D01*
X170470612Y-86604063D01*
X170450159Y-86624516D01*
X170428734Y-86642099D01*
X170409734Y-86652255D01*
X170389116Y-86658509D01*
X170367678Y-86660620D01*
X170346240Y-86658509D01*
X170325622Y-86652255D01*
X170306622Y-86642099D01*
X170285197Y-86624516D01*
X169925484Y-86264803D01*
X169907901Y-86243378D01*
X169897745Y-86224378D01*
X169891491Y-86203760D01*
X169889380Y-86182322D01*
X169891491Y-86160884D01*
X169897745Y-86140266D01*
X169907901Y-86121266D01*
X169925484Y-86099841D01*
X170249841Y-85775484D01*
X170271266Y-85757901D01*
X170290266Y-85747745D01*
X170310884Y-85741491D01*
X170332322Y-85739380D01*
X170353760Y-85741491D01*
X170353760Y-85741491D01*
G37*
G36*
X173236938Y-86481716D02*
X173257556Y-86487970D01*
X173276556Y-86498126D01*
X173293208Y-86511792D01*
X173306874Y-86528444D01*
X173317030Y-86547444D01*
X173323284Y-86568062D01*
X173326000Y-86595640D01*
X173326000Y-87104360D01*
X173323284Y-87131938D01*
X173317030Y-87152556D01*
X173306874Y-87171556D01*
X173293208Y-87188208D01*
X173276556Y-87201874D01*
X173257556Y-87212030D01*
X173236938Y-87218284D01*
X173209360Y-87221000D01*
X172750640Y-87221000D01*
X172723062Y-87218284D01*
X172702444Y-87212030D01*
X172683444Y-87201874D01*
X172666792Y-87188208D01*
X172653126Y-87171556D01*
X172642970Y-87152556D01*
X172636716Y-87131938D01*
X172634000Y-87104360D01*
X172634000Y-86595640D01*
X172636716Y-86568062D01*
X172642970Y-86547444D01*
X172653126Y-86528444D01*
X172666792Y-86511792D01*
X172683444Y-86498126D01*
X172702444Y-86487970D01*
X172723062Y-86481716D01*
X172750640Y-86479000D01*
X173209360Y-86479000D01*
X173236938Y-86481716D01*
X173236938Y-86481716D01*
G37*
G36*
X168789587Y-86435660D02*
X168151776Y-87073471D01*
X167443255Y-86364950D01*
X168081066Y-85727139D01*
X168789587Y-86435660D01*
X168789587Y-86435660D01*
G37*
G36*
X175181938Y-85586716D02*
X175202556Y-85592970D01*
X175221556Y-85603126D01*
X175238208Y-85616792D01*
X175251874Y-85633444D01*
X175262030Y-85652444D01*
X175268284Y-85673062D01*
X175271000Y-85700640D01*
X175271000Y-86159360D01*
X175268284Y-86186938D01*
X175262030Y-86207556D01*
X175251874Y-86226556D01*
X175238208Y-86243208D01*
X175221556Y-86256874D01*
X175202556Y-86267030D01*
X175181938Y-86273284D01*
X175154360Y-86276000D01*
X174645640Y-86276000D01*
X174618062Y-86273284D01*
X174597444Y-86267030D01*
X174578444Y-86256874D01*
X174561792Y-86243208D01*
X174548126Y-86226556D01*
X174537970Y-86207556D01*
X174531716Y-86186938D01*
X174529000Y-86159360D01*
X174529000Y-85700640D01*
X174531716Y-85673062D01*
X174537970Y-85652444D01*
X174548126Y-85633444D01*
X174561792Y-85616792D01*
X174578444Y-85603126D01*
X174597444Y-85592970D01*
X174618062Y-85586716D01*
X174645640Y-85584000D01*
X175154360Y-85584000D01*
X175181938Y-85586716D01*
X175181938Y-85586716D01*
G37*
G36*
X176196938Y-85571716D02*
X176217556Y-85577970D01*
X176236556Y-85588126D01*
X176253208Y-85601792D01*
X176266874Y-85618444D01*
X176277030Y-85637444D01*
X176283284Y-85658062D01*
X176286000Y-85685640D01*
X176286000Y-86144360D01*
X176283284Y-86171938D01*
X176277030Y-86192556D01*
X176266874Y-86211556D01*
X176253208Y-86228208D01*
X176236556Y-86241874D01*
X176217556Y-86252030D01*
X176196938Y-86258284D01*
X176169360Y-86261000D01*
X175660640Y-86261000D01*
X175633062Y-86258284D01*
X175612444Y-86252030D01*
X175593444Y-86241874D01*
X175576792Y-86228208D01*
X175563126Y-86211556D01*
X175552970Y-86192556D01*
X175546716Y-86171938D01*
X175544000Y-86144360D01*
X175544000Y-85685640D01*
X175546716Y-85658062D01*
X175552970Y-85637444D01*
X175563126Y-85618444D01*
X175576792Y-85601792D01*
X175593444Y-85588126D01*
X175612444Y-85577970D01*
X175633062Y-85571716D01*
X175660640Y-85569000D01*
X176169360Y-85569000D01*
X176196938Y-85571716D01*
X176196938Y-85571716D01*
G37*
G36*
X172286938Y-85481716D02*
X172307556Y-85487970D01*
X172326556Y-85498126D01*
X172343208Y-85511792D01*
X172356874Y-85528444D01*
X172367030Y-85547444D01*
X172373284Y-85568062D01*
X172376000Y-85595640D01*
X172376000Y-86104360D01*
X172373284Y-86131938D01*
X172367030Y-86152556D01*
X172356874Y-86171556D01*
X172343208Y-86188208D01*
X172326556Y-86201874D01*
X172307556Y-86212030D01*
X172286938Y-86218284D01*
X172259360Y-86221000D01*
X171800640Y-86221000D01*
X171773062Y-86218284D01*
X171752444Y-86212030D01*
X171733444Y-86201874D01*
X171716792Y-86188208D01*
X171703126Y-86171556D01*
X171692970Y-86152556D01*
X171686716Y-86131938D01*
X171684000Y-86104360D01*
X171684000Y-85595640D01*
X171686716Y-85568062D01*
X171692970Y-85547444D01*
X171703126Y-85528444D01*
X171716792Y-85511792D01*
X171733444Y-85498126D01*
X171752444Y-85487970D01*
X171773062Y-85481716D01*
X171800640Y-85479000D01*
X172259360Y-85479000D01*
X172286938Y-85481716D01*
X172286938Y-85481716D01*
G37*
G36*
X173256938Y-85481716D02*
X173277556Y-85487970D01*
X173296556Y-85498126D01*
X173313208Y-85511792D01*
X173326874Y-85528444D01*
X173337030Y-85547444D01*
X173343284Y-85568062D01*
X173346000Y-85595640D01*
X173346000Y-86104360D01*
X173343284Y-86131938D01*
X173337030Y-86152556D01*
X173326874Y-86171556D01*
X173313208Y-86188208D01*
X173296556Y-86201874D01*
X173277556Y-86212030D01*
X173256938Y-86218284D01*
X173229360Y-86221000D01*
X172770640Y-86221000D01*
X172743062Y-86218284D01*
X172722444Y-86212030D01*
X172703444Y-86201874D01*
X172686792Y-86188208D01*
X172673126Y-86171556D01*
X172662970Y-86152556D01*
X172656716Y-86131938D01*
X172654000Y-86104360D01*
X172654000Y-85595640D01*
X172656716Y-85568062D01*
X172662970Y-85547444D01*
X172673126Y-85528444D01*
X172686792Y-85511792D01*
X172703444Y-85498126D01*
X172722444Y-85487970D01*
X172743062Y-85481716D01*
X172770640Y-85479000D01*
X173229360Y-85479000D01*
X173256938Y-85481716D01*
X173256938Y-85481716D01*
G37*
G36*
X169673471Y-85551776D02*
X169035660Y-86189587D01*
X168327139Y-85481066D01*
X168964950Y-84843255D01*
X169673471Y-85551776D01*
X169673471Y-85551776D01*
G37*
G36*
X179651000Y-85951000D02*
X177494298Y-85951000D01*
X177493446Y-85950301D01*
X177471835Y-85938750D01*
X177448385Y-85931636D01*
X177439279Y-85929825D01*
X177439277Y-85929824D01*
X177439276Y-85929824D01*
X177339005Y-85888291D01*
X177248755Y-85827988D01*
X177172012Y-85751245D01*
X177111709Y-85660995D01*
X177070174Y-85560721D01*
X177049000Y-85454270D01*
X177049000Y-85345730D01*
X177070174Y-85239279D01*
X177111709Y-85139005D01*
X177172012Y-85048755D01*
X177248755Y-84972012D01*
X177339005Y-84911709D01*
X177439276Y-84870176D01*
X177439277Y-84870176D01*
X177439279Y-84870175D01*
X177448385Y-84868364D01*
X177471834Y-84861251D01*
X177493445Y-84849700D01*
X177494298Y-84849000D01*
X179651000Y-84849000D01*
X179651000Y-85951000D01*
X179651000Y-85951000D01*
G37*
G36*
X167622861Y-85268934D02*
X166985050Y-85906745D01*
X166276529Y-85198224D01*
X166914340Y-84560413D01*
X167622861Y-85268934D01*
X167622861Y-85268934D01*
G37*
G36*
X164656554Y-84799699D02*
X164678165Y-84811250D01*
X164701615Y-84818364D01*
X164710721Y-84820175D01*
X164710723Y-84820176D01*
X164710724Y-84820176D01*
X164810995Y-84861709D01*
X164901245Y-84922012D01*
X164977988Y-84998755D01*
X165038291Y-85089005D01*
X165079826Y-85189279D01*
X165101000Y-85295730D01*
X165101000Y-85404270D01*
X165079826Y-85510721D01*
X165038291Y-85610995D01*
X164977988Y-85701245D01*
X164901245Y-85777988D01*
X164810995Y-85838291D01*
X164710724Y-85879824D01*
X164710723Y-85879824D01*
X164710721Y-85879825D01*
X164701615Y-85881636D01*
X164678166Y-85888749D01*
X164656555Y-85900300D01*
X164655702Y-85901000D01*
X162499000Y-85901000D01*
X162499000Y-84799000D01*
X164655702Y-84799000D01*
X164656554Y-84799699D01*
X164656554Y-84799699D01*
G37*
G36*
X175181938Y-84556716D02*
X175202556Y-84562970D01*
X175221556Y-84573126D01*
X175238208Y-84586792D01*
X175251874Y-84603444D01*
X175262030Y-84622444D01*
X175268284Y-84643062D01*
X175271000Y-84670640D01*
X175271000Y-85129360D01*
X175268284Y-85156938D01*
X175262030Y-85177556D01*
X175251874Y-85196556D01*
X175238208Y-85213208D01*
X175221556Y-85226874D01*
X175202556Y-85237030D01*
X175181938Y-85243284D01*
X175154360Y-85246000D01*
X174645640Y-85246000D01*
X174618062Y-85243284D01*
X174597444Y-85237030D01*
X174578444Y-85226874D01*
X174561792Y-85213208D01*
X174548126Y-85196556D01*
X174537970Y-85177556D01*
X174531716Y-85156938D01*
X174529000Y-85129360D01*
X174529000Y-84670640D01*
X174531716Y-84643062D01*
X174537970Y-84622444D01*
X174548126Y-84603444D01*
X174561792Y-84586792D01*
X174578444Y-84573126D01*
X174597444Y-84562970D01*
X174618062Y-84556716D01*
X174645640Y-84554000D01*
X175154360Y-84554000D01*
X175181938Y-84556716D01*
X175181938Y-84556716D01*
G37*
G36*
X176181938Y-84556716D02*
X176202556Y-84562970D01*
X176221556Y-84573126D01*
X176238208Y-84586792D01*
X176251874Y-84603444D01*
X176262030Y-84622444D01*
X176268284Y-84643062D01*
X176271000Y-84670640D01*
X176271000Y-85129360D01*
X176268284Y-85156938D01*
X176262030Y-85177556D01*
X176251874Y-85196556D01*
X176238208Y-85213208D01*
X176221556Y-85226874D01*
X176202556Y-85237030D01*
X176181938Y-85243284D01*
X176154360Y-85246000D01*
X175645640Y-85246000D01*
X175618062Y-85243284D01*
X175597444Y-85237030D01*
X175578444Y-85226874D01*
X175561792Y-85213208D01*
X175548126Y-85196556D01*
X175537970Y-85177556D01*
X175531716Y-85156938D01*
X175529000Y-85129360D01*
X175529000Y-84670640D01*
X175531716Y-84643062D01*
X175537970Y-84622444D01*
X175548126Y-84603444D01*
X175561792Y-84586792D01*
X175578444Y-84573126D01*
X175597444Y-84562970D01*
X175618062Y-84556716D01*
X175645640Y-84554000D01*
X176154360Y-84554000D01*
X176181938Y-84556716D01*
X176181938Y-84556716D01*
G37*
G36*
X168506745Y-84385050D02*
X167868934Y-85022861D01*
X167160413Y-84314340D01*
X167798224Y-83676529D01*
X168506745Y-84385050D01*
X168506745Y-84385050D01*
G37*
G36*
X172061964Y-77880763D02*
X172066635Y-77882180D01*
X172070937Y-77884480D01*
X172079487Y-77891496D01*
X172283630Y-78095639D01*
X172290646Y-78104189D01*
X172292946Y-78108491D01*
X172294363Y-78113162D01*
X172295171Y-78121366D01*
X172299952Y-78145400D01*
X172309330Y-78168039D01*
X172322945Y-78188413D01*
X172340272Y-78205739D01*
X172360647Y-78219353D01*
X172383287Y-78228730D01*
X172407313Y-78233509D01*
X172415517Y-78234317D01*
X172420188Y-78235734D01*
X172424490Y-78238034D01*
X172433040Y-78245050D01*
X172637183Y-78449193D01*
X172644199Y-78457743D01*
X172646499Y-78462045D01*
X172647916Y-78466716D01*
X172648724Y-78474920D01*
X172653506Y-78498953D01*
X172662884Y-78521592D01*
X172676498Y-78541966D01*
X172693826Y-78559293D01*
X172714201Y-78572906D01*
X172736840Y-78582283D01*
X172760867Y-78587062D01*
X172769071Y-78587870D01*
X172773742Y-78589287D01*
X172778044Y-78591587D01*
X172786594Y-78598603D01*
X172990737Y-78802746D01*
X172997753Y-78811296D01*
X173000053Y-78815598D01*
X173001470Y-78820269D01*
X173002278Y-78828473D01*
X173007059Y-78852507D01*
X173016437Y-78875146D01*
X173030052Y-78895520D01*
X173047379Y-78912846D01*
X173067754Y-78926460D01*
X173090394Y-78935837D01*
X173114420Y-78940616D01*
X173122624Y-78941424D01*
X173127295Y-78942841D01*
X173131597Y-78945141D01*
X173140147Y-78952157D01*
X173344290Y-79156300D01*
X173351306Y-79164850D01*
X173353606Y-79169152D01*
X173355023Y-79173823D01*
X173355831Y-79182027D01*
X173360613Y-79206060D01*
X173369991Y-79228699D01*
X173383605Y-79249073D01*
X173400933Y-79266400D01*
X173421308Y-79280013D01*
X173443947Y-79289390D01*
X173467973Y-79294169D01*
X173476177Y-79294977D01*
X173480848Y-79296394D01*
X173485150Y-79298694D01*
X173493700Y-79305710D01*
X173697843Y-79509853D01*
X173704859Y-79518403D01*
X173707159Y-79522705D01*
X173708576Y-79527376D01*
X173709384Y-79535580D01*
X173714166Y-79559613D01*
X173723544Y-79582252D01*
X173737158Y-79602626D01*
X173754486Y-79619953D01*
X173774861Y-79633566D01*
X173797500Y-79642943D01*
X173821527Y-79647722D01*
X173829731Y-79648530D01*
X173834402Y-79649947D01*
X173838704Y-79652247D01*
X173847254Y-79659263D01*
X174051397Y-79863406D01*
X174058413Y-79871956D01*
X174060713Y-79876258D01*
X174062130Y-79880929D01*
X174062938Y-79889133D01*
X174067719Y-79913167D01*
X174077097Y-79935806D01*
X174090712Y-79956180D01*
X174108039Y-79973506D01*
X174128414Y-79987120D01*
X174151054Y-79996497D01*
X174175080Y-80001276D01*
X174183284Y-80002084D01*
X174187955Y-80003501D01*
X174192257Y-80005801D01*
X174200807Y-80012817D01*
X174404950Y-80216960D01*
X174411966Y-80225510D01*
X174414266Y-80229812D01*
X174415683Y-80234483D01*
X174416491Y-80242687D01*
X174421273Y-80266720D01*
X174430651Y-80289359D01*
X174444265Y-80309733D01*
X174461593Y-80327060D01*
X174481968Y-80340673D01*
X174504607Y-80350050D01*
X174528634Y-80354829D01*
X174536838Y-80355637D01*
X174541509Y-80357054D01*
X174545811Y-80359354D01*
X174554361Y-80366370D01*
X174758504Y-80570513D01*
X174765520Y-80579063D01*
X174767820Y-80583365D01*
X174769237Y-80588036D01*
X174769715Y-80592893D01*
X174769237Y-80597750D01*
X174767820Y-80602421D01*
X174765520Y-80606723D01*
X174758504Y-80615273D01*
X174162165Y-81211612D01*
X174146619Y-81230554D01*
X174135068Y-81252165D01*
X174127955Y-81275614D01*
X174125553Y-81300000D01*
X174127955Y-81324386D01*
X174135068Y-81347835D01*
X174146619Y-81369446D01*
X174162165Y-81388388D01*
X174758504Y-81984727D01*
X174765520Y-81993277D01*
X174767820Y-81997579D01*
X174769237Y-82002250D01*
X174769715Y-82007107D01*
X174769237Y-82011964D01*
X174767820Y-82016635D01*
X174765520Y-82020937D01*
X174758504Y-82029487D01*
X174554361Y-82233630D01*
X174545811Y-82240646D01*
X174541509Y-82242946D01*
X174536838Y-82244363D01*
X174528634Y-82245171D01*
X174504600Y-82249952D01*
X174481961Y-82259330D01*
X174461587Y-82272945D01*
X174444261Y-82290272D01*
X174430647Y-82310647D01*
X174421270Y-82333287D01*
X174416491Y-82357313D01*
X174415683Y-82365517D01*
X174414266Y-82370188D01*
X174411966Y-82374490D01*
X174404950Y-82383040D01*
X174200807Y-82587183D01*
X174192257Y-82594199D01*
X174187955Y-82596499D01*
X174183284Y-82597916D01*
X174175080Y-82598724D01*
X174151047Y-82603506D01*
X174128408Y-82612884D01*
X174108034Y-82626498D01*
X174090707Y-82643826D01*
X174077094Y-82664201D01*
X174067717Y-82686840D01*
X174062938Y-82710867D01*
X174062130Y-82719071D01*
X174060713Y-82723742D01*
X174058413Y-82728044D01*
X174051397Y-82736594D01*
X173847254Y-82940737D01*
X173838704Y-82947753D01*
X173834402Y-82950053D01*
X173829731Y-82951470D01*
X173821527Y-82952278D01*
X173797493Y-82957059D01*
X173774854Y-82966437D01*
X173754480Y-82980052D01*
X173737154Y-82997379D01*
X173723540Y-83017754D01*
X173714163Y-83040394D01*
X173709384Y-83064420D01*
X173708576Y-83072624D01*
X173707159Y-83077295D01*
X173704859Y-83081597D01*
X173697843Y-83090147D01*
X173493700Y-83294290D01*
X173485150Y-83301306D01*
X173480848Y-83303606D01*
X173476177Y-83305023D01*
X173467973Y-83305831D01*
X173443940Y-83310613D01*
X173421301Y-83319991D01*
X173400927Y-83333605D01*
X173383600Y-83350933D01*
X173369987Y-83371308D01*
X173360610Y-83393947D01*
X173355831Y-83417973D01*
X173355023Y-83426177D01*
X173353606Y-83430848D01*
X173351306Y-83435150D01*
X173344290Y-83443700D01*
X173140147Y-83647843D01*
X173131597Y-83654859D01*
X173127295Y-83657159D01*
X173122624Y-83658576D01*
X173114420Y-83659384D01*
X173090387Y-83664166D01*
X173067748Y-83673544D01*
X173047374Y-83687158D01*
X173030047Y-83704486D01*
X173016434Y-83724861D01*
X173007057Y-83747500D01*
X173002278Y-83771527D01*
X173001470Y-83779731D01*
X173000053Y-83784402D01*
X172997753Y-83788704D01*
X172990737Y-83797254D01*
X172786594Y-84001397D01*
X172778044Y-84008413D01*
X172773742Y-84010713D01*
X172769071Y-84012130D01*
X172760867Y-84012938D01*
X172736833Y-84017719D01*
X172714194Y-84027097D01*
X172693820Y-84040712D01*
X172676494Y-84058039D01*
X172662880Y-84078414D01*
X172653503Y-84101054D01*
X172648724Y-84125080D01*
X172647916Y-84133284D01*
X172646499Y-84137955D01*
X172644199Y-84142257D01*
X172637183Y-84150807D01*
X172433040Y-84354950D01*
X172424490Y-84361966D01*
X172420188Y-84364266D01*
X172415517Y-84365683D01*
X172407313Y-84366491D01*
X172383280Y-84371273D01*
X172360641Y-84380651D01*
X172340267Y-84394265D01*
X172322940Y-84411593D01*
X172309327Y-84431968D01*
X172299950Y-84454607D01*
X172295171Y-84478634D01*
X172294363Y-84486838D01*
X172292946Y-84491509D01*
X172290646Y-84495811D01*
X172283630Y-84504361D01*
X172079487Y-84708504D01*
X172070937Y-84715520D01*
X172066635Y-84717820D01*
X172061964Y-84719237D01*
X172057107Y-84719715D01*
X172052250Y-84719237D01*
X172047579Y-84717820D01*
X172043277Y-84715520D01*
X172034727Y-84708504D01*
X171438388Y-84112165D01*
X171419446Y-84096619D01*
X171397835Y-84085068D01*
X171374386Y-84077955D01*
X171350000Y-84075553D01*
X171325614Y-84077955D01*
X171302165Y-84085068D01*
X171280554Y-84096619D01*
X171261612Y-84112165D01*
X170665273Y-84708504D01*
X170656723Y-84715520D01*
X170652421Y-84717820D01*
X170647750Y-84719237D01*
X170642893Y-84719715D01*
X170638036Y-84719237D01*
X170633365Y-84717820D01*
X170629063Y-84715520D01*
X170620513Y-84708504D01*
X170416370Y-84504361D01*
X170409354Y-84495811D01*
X170407054Y-84491509D01*
X170405637Y-84486838D01*
X170404829Y-84478634D01*
X170400048Y-84454600D01*
X170390670Y-84431961D01*
X170377055Y-84411587D01*
X170359728Y-84394261D01*
X170339353Y-84380647D01*
X170316713Y-84371270D01*
X170292687Y-84366491D01*
X170284483Y-84365683D01*
X170279812Y-84364266D01*
X170275510Y-84361966D01*
X170266960Y-84354950D01*
X170062817Y-84150807D01*
X170055801Y-84142257D01*
X170053501Y-84137955D01*
X170052084Y-84133284D01*
X170051276Y-84125080D01*
X170046494Y-84101047D01*
X170037116Y-84078408D01*
X170023502Y-84058034D01*
X170006174Y-84040707D01*
X169985799Y-84027094D01*
X169963160Y-84017717D01*
X169939133Y-84012938D01*
X169930929Y-84012130D01*
X169926258Y-84010713D01*
X169921956Y-84008413D01*
X169913406Y-84001397D01*
X169797986Y-83885977D01*
X171219806Y-83885977D01*
X171224586Y-83910011D01*
X171233962Y-83932650D01*
X171247575Y-83953025D01*
X171255817Y-83962118D01*
X171261612Y-83967913D01*
X171280554Y-83983459D01*
X171302165Y-83995010D01*
X171325614Y-84002123D01*
X171350000Y-84004525D01*
X171374386Y-84002123D01*
X171397835Y-83995010D01*
X171419446Y-83983459D01*
X171438388Y-83967913D01*
X171444183Y-83962118D01*
X171459729Y-83943176D01*
X171471280Y-83921565D01*
X171478393Y-83898116D01*
X171480795Y-83873730D01*
X171478393Y-83849344D01*
X171471280Y-83825895D01*
X171459729Y-83804284D01*
X171444183Y-83785342D01*
X171425241Y-83769796D01*
X171403630Y-83758245D01*
X171380181Y-83751132D01*
X171355795Y-83748730D01*
X171343549Y-83749331D01*
X171331958Y-83749331D01*
X171307924Y-83754111D01*
X171285285Y-83763487D01*
X171264910Y-83777100D01*
X171247582Y-83794427D01*
X171233967Y-83814801D01*
X171224589Y-83837439D01*
X171219807Y-83861473D01*
X171219806Y-83885977D01*
X169797986Y-83885977D01*
X169709263Y-83797254D01*
X169702247Y-83788704D01*
X169699947Y-83784402D01*
X169698530Y-83779731D01*
X169697722Y-83771527D01*
X169692941Y-83747493D01*
X169683563Y-83724854D01*
X169669948Y-83704480D01*
X169652621Y-83687154D01*
X169632246Y-83673540D01*
X169609606Y-83664163D01*
X169585580Y-83659384D01*
X169577376Y-83658576D01*
X169572705Y-83657159D01*
X169568403Y-83654859D01*
X169559853Y-83647843D01*
X169355710Y-83443700D01*
X169348694Y-83435150D01*
X169346394Y-83430848D01*
X169344977Y-83426177D01*
X169344169Y-83417973D01*
X169339387Y-83393940D01*
X169330009Y-83371301D01*
X169316395Y-83350927D01*
X169299067Y-83333600D01*
X169278692Y-83319987D01*
X169256053Y-83310610D01*
X169232027Y-83305831D01*
X169223823Y-83305023D01*
X169219152Y-83303606D01*
X169214850Y-83301306D01*
X169206300Y-83294290D01*
X169002157Y-83090147D01*
X168995141Y-83081597D01*
X168992841Y-83077295D01*
X168991424Y-83072624D01*
X168990616Y-83064420D01*
X168985834Y-83040387D01*
X168976456Y-83017748D01*
X168962842Y-82997374D01*
X168945514Y-82980047D01*
X168925139Y-82966434D01*
X168902500Y-82957057D01*
X168878473Y-82952278D01*
X168870269Y-82951470D01*
X168865598Y-82950053D01*
X168861296Y-82947753D01*
X168852746Y-82940737D01*
X168648603Y-82736594D01*
X168641587Y-82728044D01*
X168639287Y-82723742D01*
X168637870Y-82719071D01*
X168637062Y-82710867D01*
X168632281Y-82686833D01*
X168622903Y-82664194D01*
X168609288Y-82643820D01*
X168591961Y-82626494D01*
X168571586Y-82612880D01*
X168548946Y-82603503D01*
X168524920Y-82598724D01*
X168516716Y-82597916D01*
X168512045Y-82596499D01*
X168507743Y-82594199D01*
X168499193Y-82587183D01*
X168295050Y-82383040D01*
X168288034Y-82374490D01*
X168285734Y-82370188D01*
X168284317Y-82365517D01*
X168283509Y-82357313D01*
X168278727Y-82333280D01*
X168269349Y-82310641D01*
X168255735Y-82290267D01*
X168238407Y-82272940D01*
X168218032Y-82259327D01*
X168195393Y-82249950D01*
X168171366Y-82245171D01*
X168163162Y-82244363D01*
X168158491Y-82242946D01*
X168154189Y-82240646D01*
X168145639Y-82233630D01*
X167941496Y-82029487D01*
X167934480Y-82020937D01*
X167932180Y-82016635D01*
X167930763Y-82011964D01*
X167930285Y-82007107D01*
X167930763Y-82002250D01*
X167932180Y-81997579D01*
X167934480Y-81993277D01*
X167941496Y-81984727D01*
X168537835Y-81388388D01*
X168553381Y-81369446D01*
X168564932Y-81347835D01*
X168572045Y-81324386D01*
X168574447Y-81300000D01*
X168645475Y-81300000D01*
X168647877Y-81324386D01*
X168654990Y-81347835D01*
X168666541Y-81369446D01*
X168682087Y-81388388D01*
X168687882Y-81394183D01*
X168706824Y-81409729D01*
X168728435Y-81421280D01*
X168751884Y-81428393D01*
X168776270Y-81430795D01*
X168800656Y-81428393D01*
X168824105Y-81421280D01*
X168845716Y-81409729D01*
X168864658Y-81394183D01*
X168880204Y-81375241D01*
X168891755Y-81353630D01*
X168898868Y-81330181D01*
X168901270Y-81305795D01*
X168900702Y-81294205D01*
X173798730Y-81294205D01*
X173799331Y-81306451D01*
X173799331Y-81318042D01*
X173804111Y-81342076D01*
X173813487Y-81364715D01*
X173827100Y-81385090D01*
X173844427Y-81402418D01*
X173864801Y-81416033D01*
X173887439Y-81425411D01*
X173911473Y-81430193D01*
X173935977Y-81430194D01*
X173960011Y-81425414D01*
X173982650Y-81416038D01*
X174003025Y-81402425D01*
X174012118Y-81394183D01*
X174017913Y-81388388D01*
X174033459Y-81369446D01*
X174045010Y-81347835D01*
X174052123Y-81324386D01*
X174054525Y-81300000D01*
X174052123Y-81275614D01*
X174045010Y-81252165D01*
X174033459Y-81230554D01*
X174017913Y-81211612D01*
X174012118Y-81205817D01*
X173993176Y-81190271D01*
X173971565Y-81178720D01*
X173948116Y-81171607D01*
X173923730Y-81169205D01*
X173899344Y-81171607D01*
X173875895Y-81178720D01*
X173854284Y-81190271D01*
X173835342Y-81205817D01*
X173819796Y-81224759D01*
X173808245Y-81246370D01*
X173801132Y-81269819D01*
X173798730Y-81294205D01*
X168900702Y-81294205D01*
X168900669Y-81293549D01*
X168900669Y-81281958D01*
X168895889Y-81257924D01*
X168886513Y-81235285D01*
X168872900Y-81214910D01*
X168855573Y-81197582D01*
X168835199Y-81183967D01*
X168812561Y-81174589D01*
X168788527Y-81169807D01*
X168764023Y-81169806D01*
X168739989Y-81174586D01*
X168717350Y-81183962D01*
X168696975Y-81197575D01*
X168687882Y-81205817D01*
X168682087Y-81211612D01*
X168666541Y-81230554D01*
X168654990Y-81252165D01*
X168647877Y-81275614D01*
X168645475Y-81300000D01*
X168574447Y-81300000D01*
X168572045Y-81275614D01*
X168564932Y-81252165D01*
X168553381Y-81230554D01*
X168537835Y-81211612D01*
X167941496Y-80615273D01*
X167934480Y-80606723D01*
X167932180Y-80602421D01*
X167930763Y-80597750D01*
X167930285Y-80592893D01*
X167930763Y-80588036D01*
X167932180Y-80583365D01*
X167934480Y-80579063D01*
X167941496Y-80570513D01*
X168145639Y-80366370D01*
X168154189Y-80359354D01*
X168158491Y-80357054D01*
X168163162Y-80355637D01*
X168171366Y-80354829D01*
X168195400Y-80350048D01*
X168218039Y-80340670D01*
X168238413Y-80327055D01*
X168255739Y-80309728D01*
X168269353Y-80289353D01*
X168278730Y-80266713D01*
X168283509Y-80242687D01*
X168284317Y-80234483D01*
X168285734Y-80229812D01*
X168288034Y-80225510D01*
X168295050Y-80216960D01*
X168499193Y-80012817D01*
X168507743Y-80005801D01*
X168512045Y-80003501D01*
X168516716Y-80002084D01*
X168524920Y-80001276D01*
X168548953Y-79996494D01*
X168571592Y-79987116D01*
X168591966Y-79973502D01*
X168609293Y-79956174D01*
X168622906Y-79935799D01*
X168632283Y-79913160D01*
X168637062Y-79889133D01*
X168637870Y-79880929D01*
X168639287Y-79876258D01*
X168641587Y-79871956D01*
X168648603Y-79863406D01*
X168852746Y-79659263D01*
X168861296Y-79652247D01*
X168865598Y-79649947D01*
X168870269Y-79648530D01*
X168878473Y-79647722D01*
X168902507Y-79642941D01*
X168925146Y-79633563D01*
X168945520Y-79619948D01*
X168962846Y-79602621D01*
X168976460Y-79582246D01*
X168985837Y-79559606D01*
X168990616Y-79535580D01*
X168991424Y-79527376D01*
X168992841Y-79522705D01*
X168995141Y-79518403D01*
X169002157Y-79509853D01*
X169206300Y-79305710D01*
X169214850Y-79298694D01*
X169219152Y-79296394D01*
X169223823Y-79294977D01*
X169232027Y-79294169D01*
X169256060Y-79289387D01*
X169278699Y-79280009D01*
X169299073Y-79266395D01*
X169316400Y-79249067D01*
X169330013Y-79228692D01*
X169339390Y-79206053D01*
X169344169Y-79182027D01*
X169344977Y-79173823D01*
X169346394Y-79169152D01*
X169348694Y-79164850D01*
X169355710Y-79156300D01*
X169559853Y-78952157D01*
X169568403Y-78945141D01*
X169572705Y-78942841D01*
X169577376Y-78941424D01*
X169585580Y-78940616D01*
X169609613Y-78935834D01*
X169632252Y-78926456D01*
X169652626Y-78912842D01*
X169669953Y-78895514D01*
X169683566Y-78875139D01*
X169692943Y-78852500D01*
X169697722Y-78828473D01*
X169698530Y-78820269D01*
X169699947Y-78815598D01*
X169702247Y-78811296D01*
X169709263Y-78802746D01*
X169785739Y-78726270D01*
X171219205Y-78726270D01*
X171221607Y-78750656D01*
X171228720Y-78774105D01*
X171240271Y-78795716D01*
X171255817Y-78814658D01*
X171274759Y-78830204D01*
X171296370Y-78841755D01*
X171319819Y-78848868D01*
X171344205Y-78851270D01*
X171356451Y-78850669D01*
X171368042Y-78850669D01*
X171392076Y-78845889D01*
X171414715Y-78836513D01*
X171435090Y-78822900D01*
X171452418Y-78805573D01*
X171466033Y-78785199D01*
X171475411Y-78762561D01*
X171480193Y-78738527D01*
X171480194Y-78714023D01*
X171475414Y-78689989D01*
X171466038Y-78667350D01*
X171452425Y-78646975D01*
X171444183Y-78637882D01*
X171438388Y-78632087D01*
X171419446Y-78616541D01*
X171397835Y-78604990D01*
X171374386Y-78597877D01*
X171350000Y-78595475D01*
X171325614Y-78597877D01*
X171302165Y-78604990D01*
X171280554Y-78616541D01*
X171261612Y-78632087D01*
X171255817Y-78637882D01*
X171240271Y-78656824D01*
X171228720Y-78678435D01*
X171221607Y-78701884D01*
X171219205Y-78726270D01*
X169785739Y-78726270D01*
X169913406Y-78598603D01*
X169921956Y-78591587D01*
X169926258Y-78589287D01*
X169930929Y-78587870D01*
X169939133Y-78587062D01*
X169963167Y-78582281D01*
X169985806Y-78572903D01*
X170006180Y-78559288D01*
X170023506Y-78541961D01*
X170037120Y-78521586D01*
X170046497Y-78498946D01*
X170051276Y-78474920D01*
X170052084Y-78466716D01*
X170053501Y-78462045D01*
X170055801Y-78457743D01*
X170062817Y-78449193D01*
X170266960Y-78245050D01*
X170275510Y-78238034D01*
X170279812Y-78235734D01*
X170284483Y-78234317D01*
X170292687Y-78233509D01*
X170316720Y-78228727D01*
X170339359Y-78219349D01*
X170359733Y-78205735D01*
X170377060Y-78188407D01*
X170390673Y-78168032D01*
X170400050Y-78145393D01*
X170404829Y-78121366D01*
X170405637Y-78113162D01*
X170407054Y-78108491D01*
X170409354Y-78104189D01*
X170416370Y-78095639D01*
X170620513Y-77891496D01*
X170629063Y-77884480D01*
X170633365Y-77882180D01*
X170638036Y-77880763D01*
X170642893Y-77880285D01*
X170647750Y-77880763D01*
X170652421Y-77882180D01*
X170656723Y-77884480D01*
X170665273Y-77891496D01*
X171261612Y-78487835D01*
X171280554Y-78503381D01*
X171302165Y-78514932D01*
X171325614Y-78522045D01*
X171350000Y-78524447D01*
X171374386Y-78522045D01*
X171397835Y-78514932D01*
X171419446Y-78503381D01*
X171438388Y-78487835D01*
X172034727Y-77891496D01*
X172043277Y-77884480D01*
X172047579Y-77882180D01*
X172052250Y-77880763D01*
X172057107Y-77880285D01*
X172061964Y-77880763D01*
X172061964Y-77880763D01*
G37*
G36*
X175181938Y-83586716D02*
X175202556Y-83592970D01*
X175221556Y-83603126D01*
X175238208Y-83616792D01*
X175251874Y-83633444D01*
X175262030Y-83652444D01*
X175268284Y-83673062D01*
X175271000Y-83700640D01*
X175271000Y-84159360D01*
X175268284Y-84186938D01*
X175262030Y-84207556D01*
X175251874Y-84226556D01*
X175238208Y-84243208D01*
X175221556Y-84256874D01*
X175202556Y-84267030D01*
X175181938Y-84273284D01*
X175154360Y-84276000D01*
X174645640Y-84276000D01*
X174618062Y-84273284D01*
X174597444Y-84267030D01*
X174578444Y-84256874D01*
X174561792Y-84243208D01*
X174548126Y-84226556D01*
X174537970Y-84207556D01*
X174531716Y-84186938D01*
X174529000Y-84159360D01*
X174529000Y-83700640D01*
X174531716Y-83673062D01*
X174537970Y-83652444D01*
X174548126Y-83633444D01*
X174561792Y-83616792D01*
X174578444Y-83603126D01*
X174597444Y-83592970D01*
X174618062Y-83586716D01*
X174645640Y-83584000D01*
X175154360Y-83584000D01*
X175181938Y-83586716D01*
X175181938Y-83586716D01*
G37*
G36*
X176181938Y-83586716D02*
X176202556Y-83592970D01*
X176221556Y-83603126D01*
X176238208Y-83616792D01*
X176251874Y-83633444D01*
X176262030Y-83652444D01*
X176268284Y-83673062D01*
X176271000Y-83700640D01*
X176271000Y-84159360D01*
X176268284Y-84186938D01*
X176262030Y-84207556D01*
X176251874Y-84226556D01*
X176238208Y-84243208D01*
X176221556Y-84256874D01*
X176202556Y-84267030D01*
X176181938Y-84273284D01*
X176154360Y-84276000D01*
X175645640Y-84276000D01*
X175618062Y-84273284D01*
X175597444Y-84267030D01*
X175578444Y-84256874D01*
X175561792Y-84243208D01*
X175548126Y-84226556D01*
X175537970Y-84207556D01*
X175531716Y-84186938D01*
X175529000Y-84159360D01*
X175529000Y-83700640D01*
X175531716Y-83673062D01*
X175537970Y-83652444D01*
X175548126Y-83633444D01*
X175561792Y-83616792D01*
X175578444Y-83603126D01*
X175597444Y-83592970D01*
X175618062Y-83586716D01*
X175645640Y-83584000D01*
X176154360Y-83584000D01*
X176181938Y-83586716D01*
X176181938Y-83586716D01*
G37*
G36*
X166267866Y-83327385D02*
X166288484Y-83333639D01*
X166307484Y-83343795D01*
X166328909Y-83361378D01*
X166688622Y-83721091D01*
X166706205Y-83742516D01*
X166716361Y-83761516D01*
X166722615Y-83782134D01*
X166724726Y-83803572D01*
X166722615Y-83825010D01*
X166716361Y-83845628D01*
X166706205Y-83864628D01*
X166688622Y-83886053D01*
X166364265Y-84210410D01*
X166342840Y-84227993D01*
X166323840Y-84238149D01*
X166303222Y-84244403D01*
X166281784Y-84246514D01*
X166260346Y-84244403D01*
X166239728Y-84238149D01*
X166220728Y-84227993D01*
X166199303Y-84210410D01*
X165839590Y-83850697D01*
X165822007Y-83829272D01*
X165811851Y-83810272D01*
X165805597Y-83789654D01*
X165803486Y-83768216D01*
X165805597Y-83746778D01*
X165811851Y-83726160D01*
X165822007Y-83707160D01*
X165839590Y-83685735D01*
X166163947Y-83361378D01*
X166185372Y-83343795D01*
X166204372Y-83333639D01*
X166224990Y-83327385D01*
X166246428Y-83325274D01*
X166267866Y-83327385D01*
X166267866Y-83327385D01*
G37*
G36*
X179651000Y-83951000D02*
X177494298Y-83951000D01*
X177493446Y-83950301D01*
X177471835Y-83938750D01*
X177448385Y-83931636D01*
X177439279Y-83929825D01*
X177439277Y-83929824D01*
X177439276Y-83929824D01*
X177339005Y-83888291D01*
X177248755Y-83827988D01*
X177172012Y-83751245D01*
X177111709Y-83660995D01*
X177070174Y-83560721D01*
X177049000Y-83454270D01*
X177049000Y-83345730D01*
X177070174Y-83239279D01*
X177111709Y-83139005D01*
X177172012Y-83048755D01*
X177248755Y-82972012D01*
X177339005Y-82911709D01*
X177439276Y-82870176D01*
X177439277Y-82870176D01*
X177439279Y-82870175D01*
X177448385Y-82868364D01*
X177471834Y-82861251D01*
X177493445Y-82849700D01*
X177494298Y-82849000D01*
X179651000Y-82849000D01*
X179651000Y-83951000D01*
X179651000Y-83951000D01*
G37*
G36*
X164656554Y-82799699D02*
X164678165Y-82811250D01*
X164701615Y-82818364D01*
X164710721Y-82820175D01*
X164710723Y-82820176D01*
X164710724Y-82820176D01*
X164810995Y-82861709D01*
X164901245Y-82922012D01*
X164977988Y-82998755D01*
X165038291Y-83089005D01*
X165079826Y-83189279D01*
X165101000Y-83295730D01*
X165101000Y-83404270D01*
X165079826Y-83510721D01*
X165038291Y-83610995D01*
X164977988Y-83701245D01*
X164901245Y-83777988D01*
X164810995Y-83838291D01*
X164710724Y-83879824D01*
X164710723Y-83879824D01*
X164710721Y-83879825D01*
X164701615Y-83881636D01*
X164678166Y-83888749D01*
X164656555Y-83900300D01*
X164655702Y-83901000D01*
X162499000Y-83901000D01*
X162499000Y-82799000D01*
X164655702Y-82799000D01*
X164656554Y-82799699D01*
X164656554Y-82799699D01*
G37*
G36*
X166953760Y-82641491D02*
X166974378Y-82647745D01*
X166993378Y-82657901D01*
X167014803Y-82675484D01*
X167374516Y-83035197D01*
X167392099Y-83056622D01*
X167402255Y-83075622D01*
X167408509Y-83096240D01*
X167410620Y-83117678D01*
X167408509Y-83139116D01*
X167402255Y-83159734D01*
X167392099Y-83178734D01*
X167374516Y-83200159D01*
X167050159Y-83524516D01*
X167028734Y-83542099D01*
X167009734Y-83552255D01*
X166989116Y-83558509D01*
X166967678Y-83560620D01*
X166946240Y-83558509D01*
X166925622Y-83552255D01*
X166906622Y-83542099D01*
X166885197Y-83524516D01*
X166525484Y-83164803D01*
X166507901Y-83143378D01*
X166497745Y-83124378D01*
X166491491Y-83103760D01*
X166489380Y-83082322D01*
X166491491Y-83060884D01*
X166497745Y-83040266D01*
X166507901Y-83021266D01*
X166525484Y-82999841D01*
X166849841Y-82675484D01*
X166871266Y-82657901D01*
X166890266Y-82647745D01*
X166910884Y-82641491D01*
X166932322Y-82639380D01*
X166953760Y-82641491D01*
X166953760Y-82641491D01*
G37*
G36*
X179651000Y-81951000D02*
X177494298Y-81951000D01*
X177493446Y-81950301D01*
X177471835Y-81938750D01*
X177448385Y-81931636D01*
X177439279Y-81929825D01*
X177439277Y-81929824D01*
X177439276Y-81929824D01*
X177339005Y-81888291D01*
X177248755Y-81827988D01*
X177172012Y-81751245D01*
X177111709Y-81660995D01*
X177070174Y-81560721D01*
X177049000Y-81454270D01*
X177049000Y-81345730D01*
X177070174Y-81239279D01*
X177111709Y-81139005D01*
X177172012Y-81048755D01*
X177248755Y-80972012D01*
X177339005Y-80911709D01*
X177439276Y-80870176D01*
X177439277Y-80870176D01*
X177439279Y-80870175D01*
X177448385Y-80868364D01*
X177471834Y-80861251D01*
X177493445Y-80849700D01*
X177494298Y-80849000D01*
X179651000Y-80849000D01*
X179651000Y-81951000D01*
X179651000Y-81951000D01*
G37*
G36*
X164656554Y-80799699D02*
X164678165Y-80811250D01*
X164701615Y-80818364D01*
X164710721Y-80820175D01*
X164710723Y-80820176D01*
X164710724Y-80820176D01*
X164810995Y-80861709D01*
X164901245Y-80922012D01*
X164977988Y-80998755D01*
X165038291Y-81089005D01*
X165079826Y-81189279D01*
X165101000Y-81295730D01*
X165101000Y-81404270D01*
X165079826Y-81510721D01*
X165038291Y-81610995D01*
X164977988Y-81701245D01*
X164901245Y-81777988D01*
X164810995Y-81838291D01*
X164710724Y-81879824D01*
X164710723Y-81879824D01*
X164710721Y-81879825D01*
X164701615Y-81881636D01*
X164678166Y-81888749D01*
X164656555Y-81900300D01*
X164655702Y-81901000D01*
X162499000Y-81901000D01*
X162499000Y-80799000D01*
X164655702Y-80799000D01*
X164656554Y-80799699D01*
X164656554Y-80799699D01*
G37*
G36*
X179651000Y-79951000D02*
X177494298Y-79951000D01*
X177493446Y-79950301D01*
X177471835Y-79938750D01*
X177448385Y-79931636D01*
X177439279Y-79929825D01*
X177439277Y-79929824D01*
X177439276Y-79929824D01*
X177339005Y-79888291D01*
X177248755Y-79827988D01*
X177172012Y-79751245D01*
X177111709Y-79660995D01*
X177070174Y-79560721D01*
X177049000Y-79454270D01*
X177049000Y-79345730D01*
X177070174Y-79239279D01*
X177111709Y-79139005D01*
X177172012Y-79048755D01*
X177248755Y-78972012D01*
X177339005Y-78911709D01*
X177439276Y-78870176D01*
X177439277Y-78870176D01*
X177439279Y-78870175D01*
X177448385Y-78868364D01*
X177471834Y-78861251D01*
X177493445Y-78849700D01*
X177494298Y-78849000D01*
X179651000Y-78849000D01*
X179651000Y-79951000D01*
X179651000Y-79951000D01*
G37*
G36*
X164656554Y-78799699D02*
X164678165Y-78811250D01*
X164701615Y-78818364D01*
X164710721Y-78820175D01*
X164710723Y-78820176D01*
X164710724Y-78820176D01*
X164810995Y-78861709D01*
X164901245Y-78922012D01*
X164977988Y-78998755D01*
X165038291Y-79089005D01*
X165079826Y-79189279D01*
X165101000Y-79295730D01*
X165101000Y-79404270D01*
X165079826Y-79510721D01*
X165038291Y-79610995D01*
X164977988Y-79701245D01*
X164901245Y-79777988D01*
X164810995Y-79838291D01*
X164710724Y-79879824D01*
X164710723Y-79879824D01*
X164710721Y-79879825D01*
X164701615Y-79881636D01*
X164678166Y-79888749D01*
X164656555Y-79900300D01*
X164655702Y-79901000D01*
X162499000Y-79901000D01*
X162499000Y-78799000D01*
X164655702Y-78799000D01*
X164656554Y-78799699D01*
X164656554Y-78799699D01*
G37*
G36*
X169898992Y-76745926D02*
X169296536Y-77348382D01*
X169261180Y-77313026D01*
X169242238Y-77297480D01*
X169220627Y-77285929D01*
X169197178Y-77278816D01*
X169172792Y-77276414D01*
X169148406Y-77278816D01*
X169124957Y-77285929D01*
X169103346Y-77297480D01*
X169084404Y-77313026D01*
X167813026Y-78584404D01*
X167797480Y-78603346D01*
X167785929Y-78624957D01*
X167778816Y-78648406D01*
X167776414Y-78672792D01*
X167778816Y-78697178D01*
X167785929Y-78720627D01*
X167797480Y-78742238D01*
X167813026Y-78761180D01*
X167848382Y-78796536D01*
X167245926Y-79398992D01*
X165901008Y-78054074D01*
X166503464Y-77451618D01*
X166538820Y-77486974D01*
X166557762Y-77502520D01*
X166579373Y-77514071D01*
X166602822Y-77521184D01*
X166627208Y-77523586D01*
X166651594Y-77521184D01*
X166675043Y-77514071D01*
X166696654Y-77502520D01*
X166715596Y-77486974D01*
X167986974Y-76215596D01*
X168002520Y-76196654D01*
X168014071Y-76175043D01*
X168021184Y-76151594D01*
X168023586Y-76127208D01*
X168021184Y-76102822D01*
X168014071Y-76079373D01*
X168002520Y-76057762D01*
X167986974Y-76038820D01*
X167951618Y-76003464D01*
X168554074Y-75401008D01*
X169898992Y-76745926D01*
X169898992Y-76745926D01*
G37*
G36*
X179651000Y-77951000D02*
X177494298Y-77951000D01*
X177493446Y-77950301D01*
X177471835Y-77938750D01*
X177448385Y-77931636D01*
X177439279Y-77929825D01*
X177439277Y-77929824D01*
X177439276Y-77929824D01*
X177339005Y-77888291D01*
X177248755Y-77827988D01*
X177172012Y-77751245D01*
X177111709Y-77660995D01*
X177070174Y-77560721D01*
X177049000Y-77454270D01*
X177049000Y-77345730D01*
X177070174Y-77239279D01*
X177111709Y-77139005D01*
X177172012Y-77048755D01*
X177248755Y-76972012D01*
X177339005Y-76911709D01*
X177439276Y-76870176D01*
X177439277Y-76870176D01*
X177439279Y-76870175D01*
X177448385Y-76868364D01*
X177471834Y-76861251D01*
X177493445Y-76849700D01*
X177494298Y-76849000D01*
X179651000Y-76849000D01*
X179651000Y-77951000D01*
X179651000Y-77951000D01*
G37*
G36*
X164656554Y-76799699D02*
X164678165Y-76811250D01*
X164701615Y-76818364D01*
X164710721Y-76820175D01*
X164710723Y-76820176D01*
X164710724Y-76820176D01*
X164810995Y-76861709D01*
X164901245Y-76922012D01*
X164977988Y-76998755D01*
X165038291Y-77089005D01*
X165079826Y-77189279D01*
X165101000Y-77295730D01*
X165101000Y-77404270D01*
X165079826Y-77510721D01*
X165038291Y-77610995D01*
X164977988Y-77701245D01*
X164901245Y-77777988D01*
X164810995Y-77838291D01*
X164710724Y-77879824D01*
X164710723Y-77879824D01*
X164710721Y-77879825D01*
X164701615Y-77881636D01*
X164678166Y-77888749D01*
X164656555Y-77900300D01*
X164655702Y-77901000D01*
X162499000Y-77901000D01*
X162499000Y-76799000D01*
X164655702Y-76799000D01*
X164656554Y-76799699D01*
X164656554Y-76799699D01*
G37*
G36*
X166417866Y-75777385D02*
X166438484Y-75783639D01*
X166457484Y-75793795D01*
X166478909Y-75811378D01*
X166838622Y-76171091D01*
X166856205Y-76192516D01*
X166866361Y-76211516D01*
X166872615Y-76232134D01*
X166874726Y-76253572D01*
X166872615Y-76275010D01*
X166866361Y-76295628D01*
X166856205Y-76314628D01*
X166838622Y-76336053D01*
X166514265Y-76660410D01*
X166492840Y-76677993D01*
X166473840Y-76688149D01*
X166453222Y-76694403D01*
X166431784Y-76696514D01*
X166410346Y-76694403D01*
X166389728Y-76688149D01*
X166370728Y-76677993D01*
X166349303Y-76660410D01*
X165989590Y-76300697D01*
X165972007Y-76279272D01*
X165961851Y-76260272D01*
X165955597Y-76239654D01*
X165953486Y-76218216D01*
X165955597Y-76196778D01*
X165961851Y-76176160D01*
X165972007Y-76157160D01*
X165989590Y-76135735D01*
X166313947Y-75811378D01*
X166335372Y-75793795D01*
X166354372Y-75783639D01*
X166374990Y-75777385D01*
X166396428Y-75775274D01*
X166417866Y-75777385D01*
X166417866Y-75777385D01*
G37*
G36*
X172086938Y-75731716D02*
X172107556Y-75737970D01*
X172126556Y-75748126D01*
X172143208Y-75761792D01*
X172156874Y-75778444D01*
X172167030Y-75797444D01*
X172173284Y-75818062D01*
X172176000Y-75845640D01*
X172176000Y-76354360D01*
X172173284Y-76381938D01*
X172167030Y-76402556D01*
X172156874Y-76421556D01*
X172143208Y-76438208D01*
X172126556Y-76451874D01*
X172107556Y-76462030D01*
X172086938Y-76468284D01*
X172059360Y-76471000D01*
X171600640Y-76471000D01*
X171573062Y-76468284D01*
X171552444Y-76462030D01*
X171533444Y-76451874D01*
X171516792Y-76438208D01*
X171503126Y-76421556D01*
X171492970Y-76402556D01*
X171486716Y-76381938D01*
X171484000Y-76354360D01*
X171484000Y-75845640D01*
X171486716Y-75818062D01*
X171492970Y-75797444D01*
X171503126Y-75778444D01*
X171516792Y-75761792D01*
X171533444Y-75748126D01*
X171552444Y-75737970D01*
X171573062Y-75731716D01*
X171600640Y-75729000D01*
X172059360Y-75729000D01*
X172086938Y-75731716D01*
X172086938Y-75731716D01*
G37*
G36*
X173056938Y-75731716D02*
X173077556Y-75737970D01*
X173096556Y-75748126D01*
X173113208Y-75761792D01*
X173126874Y-75778444D01*
X173137030Y-75797444D01*
X173143284Y-75818062D01*
X173146000Y-75845640D01*
X173146000Y-76354360D01*
X173143284Y-76381938D01*
X173137030Y-76402556D01*
X173126874Y-76421556D01*
X173113208Y-76438208D01*
X173096556Y-76451874D01*
X173077556Y-76462030D01*
X173056938Y-76468284D01*
X173029360Y-76471000D01*
X172570640Y-76471000D01*
X172543062Y-76468284D01*
X172522444Y-76462030D01*
X172503444Y-76451874D01*
X172486792Y-76438208D01*
X172473126Y-76421556D01*
X172462970Y-76402556D01*
X172456716Y-76381938D01*
X172454000Y-76354360D01*
X172454000Y-75845640D01*
X172456716Y-75818062D01*
X172462970Y-75797444D01*
X172473126Y-75778444D01*
X172486792Y-75761792D01*
X172503444Y-75748126D01*
X172522444Y-75737970D01*
X172543062Y-75731716D01*
X172570640Y-75729000D01*
X173029360Y-75729000D01*
X173056938Y-75731716D01*
X173056938Y-75731716D01*
G37*
G36*
X167103760Y-75091491D02*
X167124378Y-75097745D01*
X167143378Y-75107901D01*
X167164803Y-75125484D01*
X167524516Y-75485197D01*
X167542099Y-75506622D01*
X167552255Y-75525622D01*
X167558509Y-75546240D01*
X167560620Y-75567678D01*
X167558509Y-75589116D01*
X167552255Y-75609734D01*
X167542099Y-75628734D01*
X167524516Y-75650159D01*
X167200159Y-75974516D01*
X167178734Y-75992099D01*
X167159734Y-76002255D01*
X167139116Y-76008509D01*
X167117678Y-76010620D01*
X167096240Y-76008509D01*
X167075622Y-76002255D01*
X167056622Y-75992099D01*
X167035197Y-75974516D01*
X166675484Y-75614803D01*
X166657901Y-75593378D01*
X166647745Y-75574378D01*
X166641491Y-75553760D01*
X166639380Y-75532322D01*
X166641491Y-75510884D01*
X166647745Y-75490266D01*
X166657901Y-75471266D01*
X166675484Y-75449841D01*
X166999841Y-75125484D01*
X167021266Y-75107901D01*
X167040266Y-75097745D01*
X167060884Y-75091491D01*
X167082322Y-75089380D01*
X167103760Y-75091491D01*
X167103760Y-75091491D01*
G37*
G36*
X179651000Y-75951000D02*
X177494298Y-75951000D01*
X177493446Y-75950301D01*
X177471835Y-75938750D01*
X177448385Y-75931636D01*
X177439279Y-75929825D01*
X177439277Y-75929824D01*
X177439276Y-75929824D01*
X177339005Y-75888291D01*
X177248755Y-75827988D01*
X177172012Y-75751245D01*
X177111709Y-75660995D01*
X177070174Y-75560721D01*
X177049000Y-75454270D01*
X177049000Y-75345730D01*
X177070174Y-75239279D01*
X177111709Y-75139005D01*
X177172012Y-75048755D01*
X177248755Y-74972012D01*
X177339005Y-74911709D01*
X177439276Y-74870176D01*
X177439277Y-74870176D01*
X177439279Y-74870175D01*
X177448385Y-74868364D01*
X177471834Y-74861251D01*
X177493445Y-74849700D01*
X177494298Y-74849000D01*
X179651000Y-74849000D01*
X179651000Y-75951000D01*
X179651000Y-75951000D01*
G37*
G36*
X164656554Y-74799699D02*
X164678165Y-74811250D01*
X164701615Y-74818364D01*
X164710721Y-74820175D01*
X164710723Y-74820176D01*
X164710724Y-74820176D01*
X164810995Y-74861709D01*
X164901245Y-74922012D01*
X164977988Y-74998755D01*
X165038291Y-75089005D01*
X165079826Y-75189279D01*
X165101000Y-75295730D01*
X165101000Y-75404270D01*
X165079826Y-75510721D01*
X165038291Y-75610995D01*
X164977988Y-75701245D01*
X164901245Y-75777988D01*
X164810995Y-75838291D01*
X164710724Y-75879824D01*
X164710723Y-75879824D01*
X164710721Y-75879825D01*
X164701615Y-75881636D01*
X164678166Y-75888749D01*
X164656555Y-75900300D01*
X164655702Y-75901000D01*
X162499000Y-75901000D01*
X162499000Y-74799000D01*
X164655702Y-74799000D01*
X164656554Y-74799699D01*
X164656554Y-74799699D01*
G37*
G36*
X175651000Y-75701000D02*
X173649000Y-75701000D01*
X173649000Y-75099000D01*
X175651000Y-75099000D01*
X175651000Y-75701000D01*
X175651000Y-75701000D01*
G37*
G36*
X172086938Y-74731716D02*
X172107556Y-74737970D01*
X172126556Y-74748126D01*
X172143208Y-74761792D01*
X172156874Y-74778444D01*
X172167030Y-74797444D01*
X172173284Y-74818062D01*
X172176000Y-74845640D01*
X172176000Y-75354360D01*
X172173284Y-75381938D01*
X172167030Y-75402556D01*
X172156874Y-75421556D01*
X172143208Y-75438208D01*
X172126556Y-75451874D01*
X172107556Y-75462030D01*
X172086938Y-75468284D01*
X172059360Y-75471000D01*
X171600640Y-75471000D01*
X171573062Y-75468284D01*
X171552444Y-75462030D01*
X171533444Y-75451874D01*
X171516792Y-75438208D01*
X171503126Y-75421556D01*
X171492970Y-75402556D01*
X171486716Y-75381938D01*
X171484000Y-75354360D01*
X171484000Y-74845640D01*
X171486716Y-74818062D01*
X171492970Y-74797444D01*
X171503126Y-74778444D01*
X171516792Y-74761792D01*
X171533444Y-74748126D01*
X171552444Y-74737970D01*
X171573062Y-74731716D01*
X171600640Y-74729000D01*
X172059360Y-74729000D01*
X172086938Y-74731716D01*
X172086938Y-74731716D01*
G37*
G36*
X173056938Y-74731716D02*
X173077556Y-74737970D01*
X173096556Y-74748126D01*
X173113208Y-74761792D01*
X173126874Y-74778444D01*
X173137030Y-74797444D01*
X173143284Y-74818062D01*
X173146000Y-74845640D01*
X173146000Y-75354360D01*
X173143284Y-75381938D01*
X173137030Y-75402556D01*
X173126874Y-75421556D01*
X173113208Y-75438208D01*
X173096556Y-75451874D01*
X173077556Y-75462030D01*
X173056938Y-75468284D01*
X173029360Y-75471000D01*
X172570640Y-75471000D01*
X172543062Y-75468284D01*
X172522444Y-75462030D01*
X172503444Y-75451874D01*
X172486792Y-75438208D01*
X172473126Y-75421556D01*
X172462970Y-75402556D01*
X172456716Y-75381938D01*
X172454000Y-75354360D01*
X172454000Y-74845640D01*
X172456716Y-74818062D01*
X172462970Y-74797444D01*
X172473126Y-74778444D01*
X172486792Y-74761792D01*
X172503444Y-74748126D01*
X172522444Y-74737970D01*
X172543062Y-74731716D01*
X172570640Y-74729000D01*
X173029360Y-74729000D01*
X173056938Y-74731716D01*
X173056938Y-74731716D01*
G37*
G36*
X175651000Y-74701000D02*
X173649000Y-74701000D01*
X173649000Y-74099000D01*
X175651000Y-74099000D01*
X175651000Y-74701000D01*
X175651000Y-74701000D01*
G37*
G36*
X172063677Y-72753465D02*
X172101364Y-72764898D01*
X172136103Y-72783466D01*
X172166548Y-72808452D01*
X172191534Y-72838897D01*
X172210102Y-72873636D01*
X172221535Y-72911323D01*
X172226000Y-72956661D01*
X172226000Y-74043339D01*
X172221535Y-74088677D01*
X172210102Y-74126364D01*
X172191534Y-74161103D01*
X172166548Y-74191548D01*
X172136103Y-74216534D01*
X172101364Y-74235102D01*
X172063677Y-74246535D01*
X172018339Y-74251000D01*
X171181661Y-74251000D01*
X171136323Y-74246535D01*
X171098636Y-74235102D01*
X171063897Y-74216534D01*
X171033452Y-74191548D01*
X171008466Y-74161103D01*
X170989898Y-74126364D01*
X170978465Y-74088677D01*
X170974000Y-74043339D01*
X170974000Y-72956661D01*
X170978465Y-72911323D01*
X170989898Y-72873636D01*
X171008466Y-72838897D01*
X171033452Y-72808452D01*
X171063897Y-72783466D01*
X171098636Y-72764898D01*
X171136323Y-72753465D01*
X171181661Y-72749000D01*
X172018339Y-72749000D01*
X172063677Y-72753465D01*
X172063677Y-72753465D01*
G37*
G36*
X170013677Y-72753465D02*
X170051364Y-72764898D01*
X170086103Y-72783466D01*
X170116548Y-72808452D01*
X170141534Y-72838897D01*
X170160102Y-72873636D01*
X170171535Y-72911323D01*
X170176000Y-72956661D01*
X170176000Y-74043339D01*
X170171535Y-74088677D01*
X170160102Y-74126364D01*
X170141534Y-74161103D01*
X170116548Y-74191548D01*
X170086103Y-74216534D01*
X170051364Y-74235102D01*
X170013677Y-74246535D01*
X169968339Y-74251000D01*
X169131661Y-74251000D01*
X169086323Y-74246535D01*
X169048636Y-74235102D01*
X169013897Y-74216534D01*
X168983452Y-74191548D01*
X168958466Y-74161103D01*
X168939898Y-74126364D01*
X168928465Y-74088677D01*
X168924000Y-74043339D01*
X168924000Y-72956661D01*
X168928465Y-72911323D01*
X168939898Y-72873636D01*
X168958466Y-72838897D01*
X168983452Y-72808452D01*
X169013897Y-72783466D01*
X169048636Y-72764898D01*
X169086323Y-72753465D01*
X169131661Y-72749000D01*
X169968339Y-72749000D01*
X170013677Y-72753465D01*
X170013677Y-72753465D01*
G37*
G36*
X179651000Y-73951000D02*
X177494298Y-73951000D01*
X177493446Y-73950301D01*
X177471835Y-73938750D01*
X177448385Y-73931636D01*
X177439279Y-73929825D01*
X177439277Y-73929824D01*
X177439276Y-73929824D01*
X177339005Y-73888291D01*
X177248755Y-73827988D01*
X177172012Y-73751245D01*
X177111709Y-73660995D01*
X177070174Y-73560721D01*
X177049000Y-73454270D01*
X177049000Y-73345730D01*
X177070174Y-73239279D01*
X177111709Y-73139005D01*
X177172012Y-73048755D01*
X177248755Y-72972012D01*
X177339005Y-72911709D01*
X177439276Y-72870176D01*
X177439277Y-72870176D01*
X177439279Y-72870175D01*
X177448385Y-72868364D01*
X177471834Y-72861251D01*
X177493445Y-72849700D01*
X177494298Y-72849000D01*
X179651000Y-72849000D01*
X179651000Y-73951000D01*
X179651000Y-73951000D01*
G37*
G36*
X164656554Y-72799699D02*
X164678165Y-72811250D01*
X164701615Y-72818364D01*
X164710721Y-72820175D01*
X164710723Y-72820176D01*
X164710724Y-72820176D01*
X164810995Y-72861709D01*
X164901245Y-72922012D01*
X164977988Y-72998755D01*
X165038291Y-73089005D01*
X165079826Y-73189279D01*
X165101000Y-73295730D01*
X165101000Y-73404270D01*
X165079826Y-73510721D01*
X165038291Y-73610995D01*
X164977988Y-73701245D01*
X164901245Y-73777988D01*
X164810995Y-73838291D01*
X164710724Y-73879824D01*
X164710723Y-73879824D01*
X164710721Y-73879825D01*
X164701615Y-73881636D01*
X164678166Y-73888749D01*
X164656555Y-73900300D01*
X164655702Y-73901000D01*
X162499000Y-73901000D01*
X162499000Y-72799000D01*
X164655702Y-72799000D01*
X164656554Y-72799699D01*
X164656554Y-72799699D01*
G37*
G36*
X175056938Y-71831716D02*
X175077556Y-71837970D01*
X175096556Y-71848126D01*
X175113208Y-71861792D01*
X175126874Y-71878444D01*
X175137030Y-71897444D01*
X175143284Y-71918062D01*
X175146000Y-71945640D01*
X175146000Y-72454360D01*
X175143284Y-72481938D01*
X175137030Y-72502556D01*
X175126874Y-72521556D01*
X175113208Y-72538208D01*
X175096556Y-72551874D01*
X175077556Y-72562030D01*
X175056938Y-72568284D01*
X175029360Y-72571000D01*
X174570640Y-72571000D01*
X174543062Y-72568284D01*
X174522444Y-72562030D01*
X174503444Y-72551874D01*
X174486792Y-72538208D01*
X174473126Y-72521556D01*
X174462970Y-72502556D01*
X174456716Y-72481938D01*
X174454000Y-72454360D01*
X174454000Y-71945640D01*
X174456716Y-71918062D01*
X174462970Y-71897444D01*
X174473126Y-71878444D01*
X174486792Y-71861792D01*
X174503444Y-71848126D01*
X174522444Y-71837970D01*
X174543062Y-71831716D01*
X174570640Y-71829000D01*
X175029360Y-71829000D01*
X175056938Y-71831716D01*
X175056938Y-71831716D01*
G37*
G36*
X176026938Y-71831716D02*
X176047556Y-71837970D01*
X176066556Y-71848126D01*
X176083208Y-71861792D01*
X176096874Y-71878444D01*
X176107030Y-71897444D01*
X176113284Y-71918062D01*
X176116000Y-71945640D01*
X176116000Y-72454360D01*
X176113284Y-72481938D01*
X176107030Y-72502556D01*
X176096874Y-72521556D01*
X176083208Y-72538208D01*
X176066556Y-72551874D01*
X176047556Y-72562030D01*
X176026938Y-72568284D01*
X175999360Y-72571000D01*
X175540640Y-72571000D01*
X175513062Y-72568284D01*
X175492444Y-72562030D01*
X175473444Y-72551874D01*
X175456792Y-72538208D01*
X175443126Y-72521556D01*
X175432970Y-72502556D01*
X175426716Y-72481938D01*
X175424000Y-72454360D01*
X175424000Y-71945640D01*
X175426716Y-71918062D01*
X175432970Y-71897444D01*
X175443126Y-71878444D01*
X175456792Y-71861792D01*
X175473444Y-71848126D01*
X175492444Y-71837970D01*
X175513062Y-71831716D01*
X175540640Y-71829000D01*
X175999360Y-71829000D01*
X176026938Y-71831716D01*
X176026938Y-71831716D01*
G37*
G36*
X179651000Y-71951000D02*
X177494298Y-71951000D01*
X177493446Y-71950301D01*
X177471835Y-71938750D01*
X177448385Y-71931636D01*
X177439279Y-71929825D01*
X177439277Y-71929824D01*
X177439276Y-71929824D01*
X177339005Y-71888291D01*
X177248755Y-71827988D01*
X177172012Y-71751245D01*
X177111709Y-71660995D01*
X177070174Y-71560721D01*
X177049000Y-71454270D01*
X177049000Y-71345730D01*
X177070174Y-71239279D01*
X177111709Y-71139005D01*
X177172012Y-71048755D01*
X177248755Y-70972012D01*
X177339005Y-70911709D01*
X177439276Y-70870176D01*
X177439277Y-70870176D01*
X177439279Y-70870175D01*
X177448385Y-70868364D01*
X177471834Y-70861251D01*
X177493445Y-70849700D01*
X177494298Y-70849000D01*
X179651000Y-70849000D01*
X179651000Y-71951000D01*
X179651000Y-71951000D01*
G37*
G36*
X164656554Y-70799699D02*
X164678165Y-70811250D01*
X164701615Y-70818364D01*
X164710721Y-70820175D01*
X164710723Y-70820176D01*
X164710724Y-70820176D01*
X164810995Y-70861709D01*
X164901245Y-70922012D01*
X164977988Y-70998755D01*
X165038291Y-71089005D01*
X165079826Y-71189279D01*
X165101000Y-71295730D01*
X165101000Y-71404270D01*
X165079826Y-71510721D01*
X165038291Y-71610995D01*
X164977988Y-71701245D01*
X164901245Y-71777988D01*
X164810995Y-71838291D01*
X164710724Y-71879824D01*
X164710723Y-71879824D01*
X164710721Y-71879825D01*
X164701615Y-71881636D01*
X164678166Y-71888749D01*
X164656555Y-71900300D01*
X164655702Y-71901000D01*
X162499000Y-71901000D01*
X162499000Y-70799000D01*
X164655702Y-70799000D01*
X164656554Y-70799699D01*
X164656554Y-70799699D01*
G37*
G36*
X172151000Y-71701000D02*
X170649000Y-71701000D01*
X170649000Y-69299000D01*
X172151000Y-69299000D01*
X172151000Y-71701000D01*
X172151000Y-71701000D01*
G37*
G36*
X167751000Y-71701000D02*
X166249000Y-71701000D01*
X166249000Y-69299000D01*
X167751000Y-69299000D01*
X167751000Y-71701000D01*
X167751000Y-71701000D01*
G37*
G36*
X176001000Y-70976000D02*
X175299000Y-70976000D01*
X175299000Y-70424000D01*
X176001000Y-70424000D01*
X176001000Y-70976000D01*
X176001000Y-70976000D01*
G37*
G36*
X173901000Y-70976000D02*
X173199000Y-70976000D01*
X173199000Y-70424000D01*
X173901000Y-70424000D01*
X173901000Y-70976000D01*
X173901000Y-70976000D01*
G37*
G36*
X179651000Y-69951000D02*
X177494298Y-69951000D01*
X177493446Y-69950301D01*
X177471835Y-69938750D01*
X177448385Y-69931636D01*
X177439279Y-69929825D01*
X177439277Y-69929824D01*
X177439276Y-69929824D01*
X177339005Y-69888291D01*
X177248755Y-69827988D01*
X177172012Y-69751245D01*
X177111709Y-69660995D01*
X177070174Y-69560721D01*
X177049000Y-69454270D01*
X177049000Y-69345730D01*
X177070174Y-69239279D01*
X177111709Y-69139005D01*
X177172012Y-69048755D01*
X177248755Y-68972012D01*
X177339005Y-68911709D01*
X177439276Y-68870176D01*
X177439277Y-68870176D01*
X177439279Y-68870175D01*
X177448385Y-68868364D01*
X177471834Y-68861251D01*
X177493445Y-68849700D01*
X177494298Y-68849000D01*
X179651000Y-68849000D01*
X179651000Y-69951000D01*
X179651000Y-69951000D01*
G37*
G36*
X164656554Y-68799699D02*
X164678165Y-68811250D01*
X164701615Y-68818364D01*
X164710721Y-68820175D01*
X164710723Y-68820176D01*
X164710724Y-68820176D01*
X164810995Y-68861709D01*
X164901245Y-68922012D01*
X164977988Y-68998755D01*
X165038291Y-69089005D01*
X165079826Y-69189279D01*
X165101000Y-69295730D01*
X165101000Y-69404270D01*
X165079826Y-69510721D01*
X165038291Y-69610995D01*
X164977988Y-69701245D01*
X164901245Y-69777988D01*
X164810995Y-69838291D01*
X164710724Y-69879824D01*
X164710723Y-69879824D01*
X164710721Y-69879825D01*
X164701615Y-69881636D01*
X164678166Y-69888749D01*
X164656555Y-69900300D01*
X164655702Y-69901000D01*
X162499000Y-69901000D01*
X162499000Y-68799000D01*
X164655702Y-68799000D01*
X164656554Y-68799699D01*
X164656554Y-68799699D01*
G37*
G36*
X174986938Y-68781716D02*
X175007556Y-68787970D01*
X175026556Y-68798126D01*
X175043208Y-68811792D01*
X175056874Y-68828444D01*
X175067030Y-68847444D01*
X175073284Y-68868062D01*
X175076000Y-68895640D01*
X175076000Y-69404360D01*
X175073284Y-69431938D01*
X175067030Y-69452556D01*
X175056874Y-69471556D01*
X175043208Y-69488208D01*
X175026556Y-69501874D01*
X175007556Y-69512030D01*
X174986938Y-69518284D01*
X174959360Y-69521000D01*
X174500640Y-69521000D01*
X174473062Y-69518284D01*
X174452444Y-69512030D01*
X174433444Y-69501874D01*
X174416792Y-69488208D01*
X174403126Y-69471556D01*
X174392970Y-69452556D01*
X174386716Y-69431938D01*
X174384000Y-69404360D01*
X174384000Y-68895640D01*
X174386716Y-68868062D01*
X174392970Y-68847444D01*
X174403126Y-68828444D01*
X174416792Y-68811792D01*
X174433444Y-68798126D01*
X174452444Y-68787970D01*
X174473062Y-68781716D01*
X174500640Y-68779000D01*
X174959360Y-68779000D01*
X174986938Y-68781716D01*
X174986938Y-68781716D01*
G37*
G36*
X175956938Y-68781716D02*
X175977556Y-68787970D01*
X175996556Y-68798126D01*
X176013208Y-68811792D01*
X176026874Y-68828444D01*
X176037030Y-68847444D01*
X176043284Y-68868062D01*
X176046000Y-68895640D01*
X176046000Y-69404360D01*
X176043284Y-69431938D01*
X176037030Y-69452556D01*
X176026874Y-69471556D01*
X176013208Y-69488208D01*
X175996556Y-69501874D01*
X175977556Y-69512030D01*
X175956938Y-69518284D01*
X175929360Y-69521000D01*
X175470640Y-69521000D01*
X175443062Y-69518284D01*
X175422444Y-69512030D01*
X175403444Y-69501874D01*
X175386792Y-69488208D01*
X175373126Y-69471556D01*
X175362970Y-69452556D01*
X175356716Y-69431938D01*
X175354000Y-69404360D01*
X175354000Y-68895640D01*
X175356716Y-68868062D01*
X175362970Y-68847444D01*
X175373126Y-68828444D01*
X175386792Y-68811792D01*
X175403444Y-68798126D01*
X175422444Y-68787970D01*
X175443062Y-68781716D01*
X175470640Y-68779000D01*
X175929360Y-68779000D01*
X175956938Y-68781716D01*
X175956938Y-68781716D01*
G37*
G36*
X179651000Y-67951000D02*
X177494298Y-67951000D01*
X177493446Y-67950301D01*
X177471835Y-67938750D01*
X177448385Y-67931636D01*
X177439279Y-67929825D01*
X177439277Y-67929824D01*
X177439276Y-67929824D01*
X177339005Y-67888291D01*
X177248755Y-67827988D01*
X177172012Y-67751245D01*
X177111709Y-67660995D01*
X177070174Y-67560721D01*
X177049000Y-67454270D01*
X177049000Y-67345730D01*
X177070174Y-67239279D01*
X177111709Y-67139005D01*
X177172012Y-67048755D01*
X177248755Y-66972012D01*
X177339005Y-66911709D01*
X177439276Y-66870176D01*
X177439277Y-66870176D01*
X177439279Y-66870175D01*
X177448385Y-66868364D01*
X177471834Y-66861251D01*
X177493445Y-66849700D01*
X177494298Y-66849000D01*
X179651000Y-66849000D01*
X179651000Y-67951000D01*
X179651000Y-67951000D01*
G37*
G36*
X164656554Y-66799699D02*
X164678165Y-66811250D01*
X164701615Y-66818364D01*
X164710721Y-66820175D01*
X164710723Y-66820176D01*
X164710724Y-66820176D01*
X164810995Y-66861709D01*
X164901245Y-66922012D01*
X164977988Y-66998755D01*
X165038291Y-67089005D01*
X165079826Y-67189279D01*
X165101000Y-67295730D01*
X165101000Y-67404270D01*
X165079826Y-67510721D01*
X165038291Y-67610995D01*
X164977988Y-67701245D01*
X164901245Y-67777988D01*
X164810995Y-67838291D01*
X164710724Y-67879824D01*
X164710723Y-67879824D01*
X164710721Y-67879825D01*
X164701615Y-67881636D01*
X164678166Y-67888749D01*
X164656555Y-67900300D01*
X164655702Y-67901000D01*
X162499000Y-67901000D01*
X162499000Y-66799000D01*
X164655702Y-66799000D01*
X164656554Y-66799699D01*
X164656554Y-66799699D01*
G37*
G36*
X175501000Y-67105702D02*
X175500301Y-67106554D01*
X175488750Y-67128165D01*
X175481636Y-67151616D01*
X175479824Y-67160724D01*
X175438291Y-67260995D01*
X175377988Y-67351245D01*
X175301245Y-67427988D01*
X175210995Y-67488291D01*
X175110721Y-67529826D01*
X175004270Y-67551000D01*
X174895730Y-67551000D01*
X174789279Y-67529826D01*
X174689005Y-67488291D01*
X174598755Y-67427988D01*
X174522012Y-67351245D01*
X174461709Y-67260995D01*
X174420176Y-67160724D01*
X174418364Y-67151616D01*
X174411251Y-67128166D01*
X174399700Y-67106555D01*
X174399000Y-67105702D01*
X174399000Y-64949000D01*
X175501000Y-64949000D01*
X175501000Y-67105702D01*
X175501000Y-67105702D01*
G37*
G36*
X167501000Y-67105702D02*
X167500301Y-67106554D01*
X167488750Y-67128165D01*
X167481636Y-67151616D01*
X167479824Y-67160724D01*
X167438291Y-67260995D01*
X167377988Y-67351245D01*
X167301245Y-67427988D01*
X167210995Y-67488291D01*
X167110721Y-67529826D01*
X167004270Y-67551000D01*
X166895730Y-67551000D01*
X166789279Y-67529826D01*
X166689005Y-67488291D01*
X166598755Y-67427988D01*
X166522012Y-67351245D01*
X166461709Y-67260995D01*
X166420176Y-67160724D01*
X166418364Y-67151616D01*
X166411251Y-67128166D01*
X166399700Y-67106555D01*
X166399000Y-67105702D01*
X166399000Y-64949000D01*
X167501000Y-64949000D01*
X167501000Y-67105702D01*
X167501000Y-67105702D01*
G37*
G36*
X169501000Y-67105702D02*
X169500301Y-67106554D01*
X169488750Y-67128165D01*
X169481636Y-67151616D01*
X169479824Y-67160724D01*
X169438291Y-67260995D01*
X169377988Y-67351245D01*
X169301245Y-67427988D01*
X169210995Y-67488291D01*
X169110721Y-67529826D01*
X169004270Y-67551000D01*
X168895730Y-67551000D01*
X168789279Y-67529826D01*
X168689005Y-67488291D01*
X168598755Y-67427988D01*
X168522012Y-67351245D01*
X168461709Y-67260995D01*
X168420176Y-67160724D01*
X168418364Y-67151616D01*
X168411251Y-67128166D01*
X168399700Y-67106555D01*
X168399000Y-67105702D01*
X168399000Y-64949000D01*
X169501000Y-64949000D01*
X169501000Y-67105702D01*
X169501000Y-67105702D01*
G37*
G36*
X173501000Y-67105702D02*
X173500301Y-67106554D01*
X173488750Y-67128165D01*
X173481636Y-67151616D01*
X173479824Y-67160724D01*
X173438291Y-67260995D01*
X173377988Y-67351245D01*
X173301245Y-67427988D01*
X173210995Y-67488291D01*
X173110721Y-67529826D01*
X173004270Y-67551000D01*
X172895730Y-67551000D01*
X172789279Y-67529826D01*
X172689005Y-67488291D01*
X172598755Y-67427988D01*
X172522012Y-67351245D01*
X172461709Y-67260995D01*
X172420176Y-67160724D01*
X172418364Y-67151616D01*
X172411251Y-67128166D01*
X172399700Y-67106555D01*
X172399000Y-67105702D01*
X172399000Y-64949000D01*
X173501000Y-64949000D01*
X173501000Y-67105702D01*
X173501000Y-67105702D01*
G37*
G36*
X171501000Y-67105702D02*
X171500301Y-67106554D01*
X171488750Y-67128165D01*
X171481636Y-67151616D01*
X171479824Y-67160724D01*
X171438291Y-67260995D01*
X171377988Y-67351245D01*
X171301245Y-67427988D01*
X171210995Y-67488291D01*
X171110721Y-67529826D01*
X171004270Y-67551000D01*
X170895730Y-67551000D01*
X170789279Y-67529826D01*
X170689005Y-67488291D01*
X170598755Y-67427988D01*
X170522012Y-67351245D01*
X170461709Y-67260995D01*
X170420176Y-67160724D01*
X170418364Y-67151616D01*
X170411251Y-67128166D01*
X170399700Y-67106555D01*
X170399000Y-67105702D01*
X170399000Y-64949000D01*
X171501000Y-64949000D01*
X171501000Y-67105702D01*
X171501000Y-67105702D01*
G37*
M02*
