G04 #@! TF.GenerationSoftware,KiCad,Pcbnew,(5.1.2-1)-1*
G04 #@! TF.CreationDate,2020-12-18T00:06:06+00:00*
G04 #@! TF.ProjectId,ESPV-BUG,45535056-2d42-4554-972e-6b696361645f,rev?*
G04 #@! TF.SameCoordinates,Original*
G04 #@! TF.FileFunction,Legend,Top*
G04 #@! TF.FilePolarity,Positive*
%FSLAX46Y46*%
G04 Gerber Fmt 4.6, Leading zero omitted, Abs format (unit mm)*
G04 Created by KiCad (PCBNEW (5.1.2-1)-1) date 2020-12-18 00:06:06*
%MOMM*%
%LPD*%
G04 APERTURE LIST*
%ADD10C,0.150000*%
%ADD11C,0.120000*%
G04 APERTURE END LIST*
D10*
X193722380Y-77357142D02*
X193770000Y-77404761D01*
X193817619Y-77500000D01*
X193817619Y-77738095D01*
X193770000Y-77833333D01*
X193722380Y-77880952D01*
X193627142Y-77928571D01*
X193531904Y-77928571D01*
X193389047Y-77880952D01*
X192817619Y-77309523D01*
X192817619Y-77928571D01*
X193817619Y-78547619D02*
X193817619Y-78642857D01*
X193770000Y-78738095D01*
X193722380Y-78785714D01*
X193627142Y-78833333D01*
X193436666Y-78880952D01*
X193198571Y-78880952D01*
X193008095Y-78833333D01*
X192912857Y-78785714D01*
X192865238Y-78738095D01*
X192817619Y-78642857D01*
X192817619Y-78547619D01*
X192865238Y-78452380D01*
X192912857Y-78404761D01*
X193008095Y-78357142D01*
X193198571Y-78309523D01*
X193436666Y-78309523D01*
X193627142Y-78357142D01*
X193722380Y-78404761D01*
X193770000Y-78452380D01*
X193817619Y-78547619D01*
X192912857Y-79309523D02*
X192865238Y-79357142D01*
X192817619Y-79309523D01*
X192865238Y-79261904D01*
X192912857Y-79309523D01*
X192817619Y-79309523D01*
X193817619Y-79976190D02*
X193817619Y-80071428D01*
X193770000Y-80166666D01*
X193722380Y-80214285D01*
X193627142Y-80261904D01*
X193436666Y-80309523D01*
X193198571Y-80309523D01*
X193008095Y-80261904D01*
X192912857Y-80214285D01*
X192865238Y-80166666D01*
X192817619Y-80071428D01*
X192817619Y-79976190D01*
X192865238Y-79880952D01*
X192912857Y-79833333D01*
X193008095Y-79785714D01*
X193198571Y-79738095D01*
X193436666Y-79738095D01*
X193627142Y-79785714D01*
X193722380Y-79833333D01*
X193770000Y-79880952D01*
X193817619Y-79976190D01*
X193817619Y-80928571D02*
X193817619Y-81023809D01*
X193770000Y-81119047D01*
X193722380Y-81166666D01*
X193627142Y-81214285D01*
X193436666Y-81261904D01*
X193198571Y-81261904D01*
X193008095Y-81214285D01*
X192912857Y-81166666D01*
X192865238Y-81119047D01*
X192817619Y-81023809D01*
X192817619Y-80928571D01*
X192865238Y-80833333D01*
X192912857Y-80785714D01*
X193008095Y-80738095D01*
X193198571Y-80690476D01*
X193436666Y-80690476D01*
X193627142Y-80738095D01*
X193722380Y-80785714D01*
X193770000Y-80833333D01*
X193817619Y-80928571D01*
X193817619Y-81880952D02*
X193817619Y-81976190D01*
X193770000Y-82071428D01*
X193722380Y-82119047D01*
X193627142Y-82166666D01*
X193436666Y-82214285D01*
X193198571Y-82214285D01*
X193008095Y-82166666D01*
X192912857Y-82119047D01*
X192865238Y-82071428D01*
X192817619Y-81976190D01*
X192817619Y-81880952D01*
X192865238Y-81785714D01*
X192912857Y-81738095D01*
X193008095Y-81690476D01*
X193198571Y-81642857D01*
X193436666Y-81642857D01*
X193627142Y-81690476D01*
X193722380Y-81738095D01*
X193770000Y-81785714D01*
X193817619Y-81880952D01*
X192817619Y-83404761D02*
X193484285Y-83404761D01*
X193389047Y-83404761D02*
X193436666Y-83452380D01*
X193484285Y-83547619D01*
X193484285Y-83690476D01*
X193436666Y-83785714D01*
X193341428Y-83833333D01*
X192817619Y-83833333D01*
X193341428Y-83833333D02*
X193436666Y-83880952D01*
X193484285Y-83976190D01*
X193484285Y-84119047D01*
X193436666Y-84214285D01*
X193341428Y-84261904D01*
X192817619Y-84261904D01*
X192817619Y-84738095D02*
X193484285Y-84738095D01*
X193389047Y-84738095D02*
X193436666Y-84785714D01*
X193484285Y-84880952D01*
X193484285Y-85023809D01*
X193436666Y-85119047D01*
X193341428Y-85166666D01*
X192817619Y-85166666D01*
X193341428Y-85166666D02*
X193436666Y-85214285D01*
X193484285Y-85309523D01*
X193484285Y-85452380D01*
X193436666Y-85547619D01*
X193341428Y-85595238D01*
X192817619Y-85595238D01*
D11*
X192000000Y-71500000D02*
X192000000Y-91500000D01*
X179000000Y-71500000D02*
X192586421Y-71500000D01*
X179000000Y-91500000D02*
X192586421Y-91500000D01*
X192000000Y-91500000D02*
X191413579Y-90373496D01*
X192000000Y-91500000D02*
X192586421Y-90373496D01*
X192000000Y-71500000D02*
X191413579Y-72626504D01*
X192000000Y-71500000D02*
X192586421Y-72626504D01*
D10*
X167178571Y-65182380D02*
X166607142Y-65182380D01*
X166892857Y-65182380D02*
X166892857Y-64182380D01*
X166797619Y-64325238D01*
X166702380Y-64420476D01*
X166607142Y-64468095D01*
X168035714Y-64182380D02*
X167845238Y-64182380D01*
X167750000Y-64230000D01*
X167702380Y-64277619D01*
X167607142Y-64420476D01*
X167559523Y-64610952D01*
X167559523Y-64991904D01*
X167607142Y-65087142D01*
X167654761Y-65134761D01*
X167750000Y-65182380D01*
X167940476Y-65182380D01*
X168035714Y-65134761D01*
X168083333Y-65087142D01*
X168130952Y-64991904D01*
X168130952Y-64753809D01*
X168083333Y-64658571D01*
X168035714Y-64610952D01*
X167940476Y-64563333D01*
X167750000Y-64563333D01*
X167654761Y-64610952D01*
X167607142Y-64658571D01*
X167559523Y-64753809D01*
X168559523Y-65087142D02*
X168607142Y-65134761D01*
X168559523Y-65182380D01*
X168511904Y-65134761D01*
X168559523Y-65087142D01*
X168559523Y-65182380D01*
X169511904Y-64182380D02*
X169035714Y-64182380D01*
X168988095Y-64658571D01*
X169035714Y-64610952D01*
X169130952Y-64563333D01*
X169369047Y-64563333D01*
X169464285Y-64610952D01*
X169511904Y-64658571D01*
X169559523Y-64753809D01*
X169559523Y-64991904D01*
X169511904Y-65087142D01*
X169464285Y-65134761D01*
X169369047Y-65182380D01*
X169130952Y-65182380D01*
X169035714Y-65134761D01*
X168988095Y-65087142D01*
X170178571Y-64182380D02*
X170273809Y-64182380D01*
X170369047Y-64230000D01*
X170416666Y-64277619D01*
X170464285Y-64372857D01*
X170511904Y-64563333D01*
X170511904Y-64801428D01*
X170464285Y-64991904D01*
X170416666Y-65087142D01*
X170369047Y-65134761D01*
X170273809Y-65182380D01*
X170178571Y-65182380D01*
X170083333Y-65134761D01*
X170035714Y-65087142D01*
X169988095Y-64991904D01*
X169940476Y-64801428D01*
X169940476Y-64563333D01*
X169988095Y-64372857D01*
X170035714Y-64277619D01*
X170083333Y-64230000D01*
X170178571Y-64182380D01*
X171130952Y-64182380D02*
X171226190Y-64182380D01*
X171321428Y-64230000D01*
X171369047Y-64277619D01*
X171416666Y-64372857D01*
X171464285Y-64563333D01*
X171464285Y-64801428D01*
X171416666Y-64991904D01*
X171369047Y-65087142D01*
X171321428Y-65134761D01*
X171226190Y-65182380D01*
X171130952Y-65182380D01*
X171035714Y-65134761D01*
X170988095Y-65087142D01*
X170940476Y-64991904D01*
X170892857Y-64801428D01*
X170892857Y-64563333D01*
X170940476Y-64372857D01*
X170988095Y-64277619D01*
X171035714Y-64230000D01*
X171130952Y-64182380D01*
X172654761Y-65182380D02*
X172654761Y-64515714D01*
X172654761Y-64610952D02*
X172702380Y-64563333D01*
X172797619Y-64515714D01*
X172940476Y-64515714D01*
X173035714Y-64563333D01*
X173083333Y-64658571D01*
X173083333Y-65182380D01*
X173083333Y-64658571D02*
X173130952Y-64563333D01*
X173226190Y-64515714D01*
X173369047Y-64515714D01*
X173464285Y-64563333D01*
X173511904Y-64658571D01*
X173511904Y-65182380D01*
X173988095Y-65182380D02*
X173988095Y-64515714D01*
X173988095Y-64610952D02*
X174035714Y-64563333D01*
X174130952Y-64515714D01*
X174273809Y-64515714D01*
X174369047Y-64563333D01*
X174416666Y-64658571D01*
X174416666Y-65182380D01*
X174416666Y-64658571D02*
X174464285Y-64563333D01*
X174559523Y-64515714D01*
X174702380Y-64515714D01*
X174797619Y-64563333D01*
X174845238Y-64658571D01*
X174845238Y-65182380D01*
D11*
X162500000Y-66000000D02*
X179000000Y-66000000D01*
X162500000Y-71500000D02*
X162500000Y-65413579D01*
X179000000Y-71500000D02*
X179000000Y-65413579D01*
X179000000Y-66000000D02*
X177873496Y-66586421D01*
X179000000Y-66000000D02*
X177873496Y-65413579D01*
X162500000Y-66000000D02*
X163626504Y-66586421D01*
X162500000Y-66000000D02*
X163626504Y-65413579D01*
D10*
X142277619Y-92059523D02*
X142277619Y-92678571D01*
X141896666Y-92345238D01*
X141896666Y-92488095D01*
X141849047Y-92583333D01*
X141801428Y-92630952D01*
X141706190Y-92678571D01*
X141468095Y-92678571D01*
X141372857Y-92630952D01*
X141325238Y-92583333D01*
X141277619Y-92488095D01*
X141277619Y-92202380D01*
X141325238Y-92107142D01*
X141372857Y-92059523D01*
X142277619Y-93011904D02*
X142277619Y-93678571D01*
X141277619Y-93250000D01*
X141372857Y-94059523D02*
X141325238Y-94107142D01*
X141277619Y-94059523D01*
X141325238Y-94011904D01*
X141372857Y-94059523D01*
X141277619Y-94059523D01*
X142277619Y-95011904D02*
X142277619Y-94535714D01*
X141801428Y-94488095D01*
X141849047Y-94535714D01*
X141896666Y-94630952D01*
X141896666Y-94869047D01*
X141849047Y-94964285D01*
X141801428Y-95011904D01*
X141706190Y-95059523D01*
X141468095Y-95059523D01*
X141372857Y-95011904D01*
X141325238Y-94964285D01*
X141277619Y-94869047D01*
X141277619Y-94630952D01*
X141325238Y-94535714D01*
X141372857Y-94488095D01*
X142277619Y-95678571D02*
X142277619Y-95773809D01*
X142230000Y-95869047D01*
X142182380Y-95916666D01*
X142087142Y-95964285D01*
X141896666Y-96011904D01*
X141658571Y-96011904D01*
X141468095Y-95964285D01*
X141372857Y-95916666D01*
X141325238Y-95869047D01*
X141277619Y-95773809D01*
X141277619Y-95678571D01*
X141325238Y-95583333D01*
X141372857Y-95535714D01*
X141468095Y-95488095D01*
X141658571Y-95440476D01*
X141896666Y-95440476D01*
X142087142Y-95488095D01*
X142182380Y-95535714D01*
X142230000Y-95583333D01*
X142277619Y-95678571D01*
X142277619Y-96630952D02*
X142277619Y-96726190D01*
X142230000Y-96821428D01*
X142182380Y-96869047D01*
X142087142Y-96916666D01*
X141896666Y-96964285D01*
X141658571Y-96964285D01*
X141468095Y-96916666D01*
X141372857Y-96869047D01*
X141325238Y-96821428D01*
X141277619Y-96726190D01*
X141277619Y-96630952D01*
X141325238Y-96535714D01*
X141372857Y-96488095D01*
X141468095Y-96440476D01*
X141658571Y-96392857D01*
X141896666Y-96392857D01*
X142087142Y-96440476D01*
X142182380Y-96488095D01*
X142230000Y-96535714D01*
X142277619Y-96630952D01*
X141277619Y-98154761D02*
X141944285Y-98154761D01*
X141849047Y-98154761D02*
X141896666Y-98202380D01*
X141944285Y-98297619D01*
X141944285Y-98440476D01*
X141896666Y-98535714D01*
X141801428Y-98583333D01*
X141277619Y-98583333D01*
X141801428Y-98583333D02*
X141896666Y-98630952D01*
X141944285Y-98726190D01*
X141944285Y-98869047D01*
X141896666Y-98964285D01*
X141801428Y-99011904D01*
X141277619Y-99011904D01*
X141277619Y-99488095D02*
X141944285Y-99488095D01*
X141849047Y-99488095D02*
X141896666Y-99535714D01*
X141944285Y-99630952D01*
X141944285Y-99773809D01*
X141896666Y-99869047D01*
X141801428Y-99916666D01*
X141277619Y-99916666D01*
X141801428Y-99916666D02*
X141896666Y-99964285D01*
X141944285Y-100059523D01*
X141944285Y-100202380D01*
X141896666Y-100297619D01*
X141801428Y-100345238D01*
X141277619Y-100345238D01*
D11*
X143000000Y-77500000D02*
X143000000Y-115000000D01*
X143000000Y-77500000D02*
X142413579Y-77500000D01*
X143000000Y-115000000D02*
X142413579Y-115000000D01*
X143000000Y-115000000D02*
X142413579Y-113873496D01*
X143000000Y-115000000D02*
X143586421Y-113873496D01*
X143000000Y-77500000D02*
X142413579Y-78626504D01*
X143000000Y-77500000D02*
X143586421Y-78626504D01*
X175830000Y-74650000D02*
X175830000Y-75150000D01*
X173470000Y-74650000D02*
X173470000Y-75150000D01*
X170836252Y-72790000D02*
X170313748Y-72790000D01*
X170836252Y-74210000D02*
X170313748Y-74210000D01*
X173100000Y-69850000D02*
X173100000Y-71550000D01*
X173100000Y-71550000D02*
X175650000Y-71550000D01*
X173100000Y-69850000D02*
X175650000Y-69850000D01*
D10*
X170875000Y-72175000D02*
X170875000Y-71950000D01*
X167525000Y-72175000D02*
X167525000Y-71875000D01*
X167525000Y-68825000D02*
X167525000Y-69125000D01*
X170875000Y-68825000D02*
X170875000Y-69125000D01*
X170875000Y-72175000D02*
X167525000Y-72175000D01*
X170875000Y-68825000D02*
X167525000Y-68825000D01*
X170875000Y-71950000D02*
X172100000Y-71950000D01*
X167935355Y-78955635D02*
X169455635Y-77435355D01*
X165761002Y-77948008D02*
X167864645Y-75844365D01*
D11*
X167994778Y-81635876D02*
X167658903Y-81300000D01*
X167658903Y-81300000D02*
X167994778Y-80964124D01*
X174705222Y-80964124D02*
X175041097Y-81300000D01*
X175041097Y-81300000D02*
X174705222Y-81635876D01*
X171685876Y-77944778D02*
X171350000Y-77608903D01*
X171350000Y-77608903D02*
X171014124Y-77944778D01*
X171014124Y-84655222D02*
X171350000Y-84991097D01*
X166532502Y-85756838D02*
X165973888Y-85198223D01*
X167112330Y-86082107D02*
X167267893Y-86237670D01*
X168682107Y-84512330D02*
X168837670Y-84667893D01*
X166532502Y-84639609D02*
X165973888Y-85198223D01*
D10*
X172348333Y-85252380D02*
X171872142Y-85252380D01*
X171872142Y-84252380D01*
X173205476Y-85252380D02*
X172634047Y-85252380D01*
X172919761Y-85252380D02*
X172919761Y-84252380D01*
X172824523Y-84395238D01*
X172729285Y-84490476D01*
X172634047Y-84538095D01*
X167902903Y-77274499D02*
X167902903Y-77341842D01*
X167835559Y-77476529D01*
X167768216Y-77543873D01*
X167633528Y-77611216D01*
X167498841Y-77611216D01*
X167397826Y-77577545D01*
X167229467Y-77476529D01*
X167128452Y-77375514D01*
X167027437Y-77207155D01*
X166993765Y-77106140D01*
X166993765Y-76971453D01*
X167061109Y-76836766D01*
X167128452Y-76769422D01*
X167263139Y-76702079D01*
X167330483Y-76702079D01*
X168643681Y-76668407D02*
X168239620Y-77072468D01*
X168441651Y-76870438D02*
X167734544Y-76163331D01*
X167768216Y-76331690D01*
X167768216Y-76466377D01*
X167734544Y-76567392D01*
X173827142Y-84581666D02*
X173874761Y-84629285D01*
X173922380Y-84772142D01*
X173922380Y-84867380D01*
X173874761Y-85010238D01*
X173779523Y-85105476D01*
X173684285Y-85153095D01*
X173493809Y-85200714D01*
X173350952Y-85200714D01*
X173160476Y-85153095D01*
X173065238Y-85105476D01*
X172970000Y-85010238D01*
X172922380Y-84867380D01*
X172922380Y-84772142D01*
X172970000Y-84629285D01*
X173017619Y-84581666D01*
X173350952Y-84010238D02*
X173303333Y-84105476D01*
X173255714Y-84153095D01*
X173160476Y-84200714D01*
X173112857Y-84200714D01*
X173017619Y-84153095D01*
X172970000Y-84105476D01*
X172922380Y-84010238D01*
X172922380Y-83819761D01*
X172970000Y-83724523D01*
X173017619Y-83676904D01*
X173112857Y-83629285D01*
X173160476Y-83629285D01*
X173255714Y-83676904D01*
X173303333Y-83724523D01*
X173350952Y-83819761D01*
X173350952Y-84010238D01*
X173398571Y-84105476D01*
X173446190Y-84153095D01*
X173541428Y-84200714D01*
X173731904Y-84200714D01*
X173827142Y-84153095D01*
X173874761Y-84105476D01*
X173922380Y-84010238D01*
X173922380Y-83819761D01*
X173874761Y-83724523D01*
X173827142Y-83676904D01*
X173731904Y-83629285D01*
X173541428Y-83629285D01*
X173446190Y-83676904D01*
X173398571Y-83724523D01*
X173350952Y-83819761D01*
X174827142Y-85057857D02*
X174874761Y-85105476D01*
X174922380Y-85248333D01*
X174922380Y-85343571D01*
X174874761Y-85486428D01*
X174779523Y-85581666D01*
X174684285Y-85629285D01*
X174493809Y-85676904D01*
X174350952Y-85676904D01*
X174160476Y-85629285D01*
X174065238Y-85581666D01*
X173970000Y-85486428D01*
X173922380Y-85343571D01*
X173922380Y-85248333D01*
X173970000Y-85105476D01*
X174017619Y-85057857D01*
X174922380Y-84105476D02*
X174922380Y-84676904D01*
X174922380Y-84391190D02*
X173922380Y-84391190D01*
X174065238Y-84486428D01*
X174160476Y-84581666D01*
X174208095Y-84676904D01*
X174255714Y-83248333D02*
X174922380Y-83248333D01*
X173874761Y-83486428D02*
X174589047Y-83724523D01*
X174589047Y-83105476D01*
X165730577Y-82802173D02*
X165730577Y-82869516D01*
X165663233Y-83004203D01*
X165595890Y-83071547D01*
X165461202Y-83138890D01*
X165326515Y-83138890D01*
X165225500Y-83105219D01*
X165057141Y-83004203D01*
X164956126Y-82903188D01*
X164855111Y-82734829D01*
X164821439Y-82633814D01*
X164821439Y-82499127D01*
X164888783Y-82364440D01*
X164956126Y-82297096D01*
X165090813Y-82229753D01*
X165158157Y-82229753D01*
X165427531Y-81960379D02*
X165427531Y-81893035D01*
X165461202Y-81792020D01*
X165629561Y-81623661D01*
X165730577Y-81589990D01*
X165797920Y-81589990D01*
X165898935Y-81623661D01*
X165966279Y-81691005D01*
X166033622Y-81825692D01*
X166033622Y-82633814D01*
X166471355Y-82196081D01*
X171152903Y-87924499D02*
X171152903Y-87991842D01*
X171085559Y-88126529D01*
X171018216Y-88193873D01*
X170883528Y-88261216D01*
X170748841Y-88261216D01*
X170647826Y-88227545D01*
X170479467Y-88126529D01*
X170378452Y-88025514D01*
X170277437Y-87857155D01*
X170243765Y-87756140D01*
X170243765Y-87621453D01*
X170311109Y-87486766D01*
X170378452Y-87419422D01*
X170513139Y-87352079D01*
X170580483Y-87352079D01*
X171152903Y-86644972D02*
X170816185Y-86981690D01*
X171119231Y-87352079D01*
X171119231Y-87284735D01*
X171152903Y-87183720D01*
X171321261Y-87015361D01*
X171422277Y-86981690D01*
X171489620Y-86981690D01*
X171590635Y-87015361D01*
X171758994Y-87183720D01*
X171792666Y-87284735D01*
X171792666Y-87352079D01*
X171758994Y-87453094D01*
X171590635Y-87621453D01*
X171489620Y-87655125D01*
X171422277Y-87655125D01*
X171672142Y-74027142D02*
X171624523Y-74074761D01*
X171481666Y-74122380D01*
X171386428Y-74122380D01*
X171243571Y-74074761D01*
X171148333Y-73979523D01*
X171100714Y-73884285D01*
X171053095Y-73693809D01*
X171053095Y-73550952D01*
X171100714Y-73360476D01*
X171148333Y-73265238D01*
X171243571Y-73170000D01*
X171386428Y-73122380D01*
X171481666Y-73122380D01*
X171624523Y-73170000D01*
X171672142Y-73217619D01*
X172624523Y-74122380D02*
X172053095Y-74122380D01*
X172338809Y-74122380D02*
X172338809Y-73122380D01*
X172243571Y-73265238D01*
X172148333Y-73360476D01*
X172053095Y-73408095D01*
X172957857Y-73122380D02*
X173576904Y-73122380D01*
X173243571Y-73503333D01*
X173386428Y-73503333D01*
X173481666Y-73550952D01*
X173529285Y-73598571D01*
X173576904Y-73693809D01*
X173576904Y-73931904D01*
X173529285Y-74027142D01*
X173481666Y-74074761D01*
X173386428Y-74122380D01*
X173100714Y-74122380D01*
X173005476Y-74074761D01*
X172957857Y-74027142D01*
X177702142Y-87042857D02*
X177749761Y-87090476D01*
X177797380Y-87233333D01*
X177797380Y-87328571D01*
X177749761Y-87471428D01*
X177654523Y-87566666D01*
X177559285Y-87614285D01*
X177368809Y-87661904D01*
X177225952Y-87661904D01*
X177035476Y-87614285D01*
X176940238Y-87566666D01*
X176845000Y-87471428D01*
X176797380Y-87328571D01*
X176797380Y-87233333D01*
X176845000Y-87090476D01*
X176892619Y-87042857D01*
X177797380Y-86090476D02*
X177797380Y-86661904D01*
X177797380Y-86376190D02*
X176797380Y-86376190D01*
X176940238Y-86471428D01*
X177035476Y-86566666D01*
X177083095Y-86661904D01*
X176797380Y-85471428D02*
X176797380Y-85376190D01*
X176845000Y-85280952D01*
X176892619Y-85233333D01*
X176987857Y-85185714D01*
X177178333Y-85138095D01*
X177416428Y-85138095D01*
X177606904Y-85185714D01*
X177702142Y-85233333D01*
X177749761Y-85280952D01*
X177797380Y-85376190D01*
X177797380Y-85471428D01*
X177749761Y-85566666D01*
X177702142Y-85614285D01*
X177606904Y-85661904D01*
X177416428Y-85709523D01*
X177178333Y-85709523D01*
X176987857Y-85661904D01*
X176892619Y-85614285D01*
X176845000Y-85566666D01*
X176797380Y-85471428D01*
X171672142Y-75027142D02*
X171624523Y-75074761D01*
X171481666Y-75122380D01*
X171386428Y-75122380D01*
X171243571Y-75074761D01*
X171148333Y-74979523D01*
X171100714Y-74884285D01*
X171053095Y-74693809D01*
X171053095Y-74550952D01*
X171100714Y-74360476D01*
X171148333Y-74265238D01*
X171243571Y-74170000D01*
X171386428Y-74122380D01*
X171481666Y-74122380D01*
X171624523Y-74170000D01*
X171672142Y-74217619D01*
X172624523Y-75122380D02*
X172053095Y-75122380D01*
X172338809Y-75122380D02*
X172338809Y-74122380D01*
X172243571Y-74265238D01*
X172148333Y-74360476D01*
X172053095Y-74408095D01*
X173576904Y-75122380D02*
X173005476Y-75122380D01*
X173291190Y-75122380D02*
X173291190Y-74122380D01*
X173195952Y-74265238D01*
X173100714Y-74360476D01*
X173005476Y-74408095D01*
X170872142Y-88637142D02*
X170824523Y-88684761D01*
X170681666Y-88732380D01*
X170586428Y-88732380D01*
X170443571Y-88684761D01*
X170348333Y-88589523D01*
X170300714Y-88494285D01*
X170253095Y-88303809D01*
X170253095Y-88160952D01*
X170300714Y-87970476D01*
X170348333Y-87875238D01*
X170443571Y-87780000D01*
X170586428Y-87732380D01*
X170681666Y-87732380D01*
X170824523Y-87780000D01*
X170872142Y-87827619D01*
X171824523Y-88732380D02*
X171253095Y-88732380D01*
X171538809Y-88732380D02*
X171538809Y-87732380D01*
X171443571Y-87875238D01*
X171348333Y-87970476D01*
X171253095Y-88018095D01*
X172157857Y-87732380D02*
X172824523Y-87732380D01*
X172395952Y-88732380D01*
X172822142Y-85777142D02*
X172774523Y-85824761D01*
X172631666Y-85872380D01*
X172536428Y-85872380D01*
X172393571Y-85824761D01*
X172298333Y-85729523D01*
X172250714Y-85634285D01*
X172203095Y-85443809D01*
X172203095Y-85300952D01*
X172250714Y-85110476D01*
X172298333Y-85015238D01*
X172393571Y-84920000D01*
X172536428Y-84872380D01*
X172631666Y-84872380D01*
X172774523Y-84920000D01*
X172822142Y-84967619D01*
X173774523Y-85872380D02*
X173203095Y-85872380D01*
X173488809Y-85872380D02*
X173488809Y-84872380D01*
X173393571Y-85015238D01*
X173298333Y-85110476D01*
X173203095Y-85158095D01*
X174631666Y-84872380D02*
X174441190Y-84872380D01*
X174345952Y-84920000D01*
X174298333Y-84967619D01*
X174203095Y-85110476D01*
X174155476Y-85300952D01*
X174155476Y-85681904D01*
X174203095Y-85777142D01*
X174250714Y-85824761D01*
X174345952Y-85872380D01*
X174536428Y-85872380D01*
X174631666Y-85824761D01*
X174679285Y-85777142D01*
X174726904Y-85681904D01*
X174726904Y-85443809D01*
X174679285Y-85348571D01*
X174631666Y-85300952D01*
X174536428Y-85253333D01*
X174345952Y-85253333D01*
X174250714Y-85300952D01*
X174203095Y-85348571D01*
X174155476Y-85443809D01*
X176687142Y-86581666D02*
X176734761Y-86629285D01*
X176782380Y-86772142D01*
X176782380Y-86867380D01*
X176734761Y-87010238D01*
X176639523Y-87105476D01*
X176544285Y-87153095D01*
X176353809Y-87200714D01*
X176210952Y-87200714D01*
X176020476Y-87153095D01*
X175925238Y-87105476D01*
X175830000Y-87010238D01*
X175782380Y-86867380D01*
X175782380Y-86772142D01*
X175830000Y-86629285D01*
X175877619Y-86581666D01*
X175782380Y-85724523D02*
X175782380Y-85915000D01*
X175830000Y-86010238D01*
X175877619Y-86057857D01*
X176020476Y-86153095D01*
X176210952Y-86200714D01*
X176591904Y-86200714D01*
X176687142Y-86153095D01*
X176734761Y-86105476D01*
X176782380Y-86010238D01*
X176782380Y-85819761D01*
X176734761Y-85724523D01*
X176687142Y-85676904D01*
X176591904Y-85629285D01*
X176353809Y-85629285D01*
X176258571Y-85676904D01*
X176210952Y-85724523D01*
X176163333Y-85819761D01*
X176163333Y-86010238D01*
X176210952Y-86105476D01*
X176258571Y-86153095D01*
X176353809Y-86200714D01*
X175048333Y-68172380D02*
X174715000Y-67696190D01*
X174476904Y-68172380D02*
X174476904Y-67172380D01*
X174857857Y-67172380D01*
X174953095Y-67220000D01*
X175000714Y-67267619D01*
X175048333Y-67362857D01*
X175048333Y-67505714D01*
X175000714Y-67600952D01*
X174953095Y-67648571D01*
X174857857Y-67696190D01*
X174476904Y-67696190D01*
X176000714Y-68172380D02*
X175429285Y-68172380D01*
X175715000Y-68172380D02*
X175715000Y-67172380D01*
X175619761Y-67315238D01*
X175524523Y-67410476D01*
X175429285Y-67458095D01*
X175118333Y-74082380D02*
X174785000Y-73606190D01*
X174546904Y-74082380D02*
X174546904Y-73082380D01*
X174927857Y-73082380D01*
X175023095Y-73130000D01*
X175070714Y-73177619D01*
X175118333Y-73272857D01*
X175118333Y-73415714D01*
X175070714Y-73510952D01*
X175023095Y-73558571D01*
X174927857Y-73606190D01*
X174546904Y-73606190D01*
X175499285Y-73177619D02*
X175546904Y-73130000D01*
X175642142Y-73082380D01*
X175880238Y-73082380D01*
X175975476Y-73130000D01*
X176023095Y-73177619D01*
X176070714Y-73272857D01*
X176070714Y-73368095D01*
X176023095Y-73510952D01*
X175451666Y-74082380D01*
X176070714Y-74082380D01*
X172302380Y-75590476D02*
X171826190Y-75923809D01*
X172302380Y-76161904D02*
X171302380Y-76161904D01*
X171302380Y-75780952D01*
X171350000Y-75685714D01*
X171397619Y-75638095D01*
X171492857Y-75590476D01*
X171635714Y-75590476D01*
X171730952Y-75638095D01*
X171778571Y-75685714D01*
X171826190Y-75780952D01*
X171826190Y-76161904D01*
X172302380Y-75161904D02*
X171302380Y-75161904D01*
X172302380Y-74590476D01*
X171302380Y-74590476D01*
X172302380Y-73590476D02*
X172302380Y-74161904D01*
X172302380Y-73876190D02*
X171302380Y-73876190D01*
X171445238Y-73971428D01*
X171540476Y-74066666D01*
X171588095Y-74161904D01*
X170408333Y-75507142D02*
X170360714Y-75554761D01*
X170217857Y-75602380D01*
X170122619Y-75602380D01*
X169979761Y-75554761D01*
X169884523Y-75459523D01*
X169836904Y-75364285D01*
X169789285Y-75173809D01*
X169789285Y-75030952D01*
X169836904Y-74840476D01*
X169884523Y-74745238D01*
X169979761Y-74650000D01*
X170122619Y-74602380D01*
X170217857Y-74602380D01*
X170360714Y-74650000D01*
X170408333Y-74697619D01*
X170741666Y-74602380D02*
X171408333Y-74602380D01*
X170979761Y-75602380D01*
X173861904Y-69302380D02*
X173861904Y-68302380D01*
X174100000Y-68302380D01*
X174242857Y-68350000D01*
X174338095Y-68445238D01*
X174385714Y-68540476D01*
X174433333Y-68730952D01*
X174433333Y-68873809D01*
X174385714Y-69064285D01*
X174338095Y-69159523D01*
X174242857Y-69254761D01*
X174100000Y-69302380D01*
X173861904Y-69302380D01*
X175385714Y-69302380D02*
X174814285Y-69302380D01*
X175100000Y-69302380D02*
X175100000Y-68302380D01*
X175004761Y-68445238D01*
X174909523Y-68540476D01*
X174814285Y-68588095D01*
X161512380Y-68373333D02*
X162226666Y-68373333D01*
X162369523Y-68420952D01*
X162464761Y-68516190D01*
X162512380Y-68659047D01*
X162512380Y-68754285D01*
X161512380Y-67992380D02*
X161512380Y-67373333D01*
X161893333Y-67706666D01*
X161893333Y-67563809D01*
X161940952Y-67468571D01*
X161988571Y-67420952D01*
X162083809Y-67373333D01*
X162321904Y-67373333D01*
X162417142Y-67420952D01*
X162464761Y-67468571D01*
X162512380Y-67563809D01*
X162512380Y-67849523D01*
X162464761Y-67944761D01*
X162417142Y-67992380D01*
X168438095Y-72552380D02*
X168438095Y-73361904D01*
X168485714Y-73457142D01*
X168533333Y-73504761D01*
X168628571Y-73552380D01*
X168819047Y-73552380D01*
X168914285Y-73504761D01*
X168961904Y-73457142D01*
X169009523Y-73361904D01*
X169009523Y-72552380D01*
X170009523Y-73552380D02*
X169438095Y-73552380D01*
X169723809Y-73552380D02*
X169723809Y-72552380D01*
X169628571Y-72695238D01*
X169533333Y-72790476D01*
X169438095Y-72838095D01*
X165524457Y-76101953D02*
X166096877Y-76674373D01*
X166197892Y-76708045D01*
X166265236Y-76708045D01*
X166366251Y-76674373D01*
X166500938Y-76539686D01*
X166534610Y-76438671D01*
X166534610Y-76371327D01*
X166500938Y-76270312D01*
X165928518Y-75697892D01*
X166298908Y-75462190D02*
X166298908Y-75394847D01*
X166332579Y-75293831D01*
X166500938Y-75125473D01*
X166601953Y-75091801D01*
X166669297Y-75091801D01*
X166770312Y-75125473D01*
X166837656Y-75192816D01*
X166904999Y-75327503D01*
X166904999Y-76135625D01*
X167342732Y-75697892D01*
X168497329Y-83075174D02*
X167924909Y-83647594D01*
X167891237Y-83748609D01*
X167891237Y-83815953D01*
X167924909Y-83916968D01*
X168059596Y-84051655D01*
X168160611Y-84085327D01*
X168227955Y-84085327D01*
X168328970Y-84051655D01*
X168901390Y-83479235D01*
X169170764Y-83748609D02*
X169608496Y-84186342D01*
X169103420Y-84220014D01*
X169204435Y-84321029D01*
X169238107Y-84422044D01*
X169238107Y-84489388D01*
X169204435Y-84590403D01*
X169036077Y-84758762D01*
X168935061Y-84792434D01*
X168867718Y-84792434D01*
X168766703Y-84758762D01*
X168564672Y-84556731D01*
X168531000Y-84455716D01*
X168531000Y-84388373D01*
X165853679Y-83927114D02*
X166190397Y-84263832D01*
X165247588Y-83792427D02*
X165853679Y-83927114D01*
X165718992Y-83321023D01*
X167032190Y-83422038D02*
X166628129Y-83826099D01*
X166830160Y-83624068D02*
X166123053Y-82916962D01*
X166156725Y-83085320D01*
X166156725Y-83220007D01*
X166123053Y-83321023D01*
M02*
