G04 #@! TF.GenerationSoftware,KiCad,Pcbnew,(5.0.0)*
G04 #@! TF.CreationDate,2021-02-11T08:38:10+00:00*
G04 #@! TF.ProjectId,ESPV-BUG,455350562D4255472E6B696361645F70,rev?*
G04 #@! TF.SameCoordinates,Original*
G04 #@! TF.FileFunction,Paste,Top*
G04 #@! TF.FilePolarity,Positive*
%FSLAX46Y46*%
G04 Gerber Fmt 4.6, Leading zero omitted, Abs format (unit mm)*
G04 Created by KiCad (PCBNEW (5.0.0)) date 02/11/21 08:38:10*
%MOMM*%
%LPD*%
G01*
G04 APERTURE LIST*
%ADD10R,0.800000X1.350000*%
%ADD11R,3.500000X1.350000*%
%ADD12C,0.100000*%
%ADD13C,0.590000*%
%ADD14R,0.400000X0.500000*%
%ADD15R,0.300000X0.500000*%
%ADD16C,1.150000*%
%ADD17R,0.600000X0.450000*%
%ADD18R,1.400000X0.300000*%
%ADD19C,0.300000*%
%ADD20C,0.580000*%
%ADD21C,0.930000*%
%ADD22C,0.250000*%
%ADD23C,0.800000*%
G04 APERTURE END LIST*
D10*
G04 #@! TO.C,AE1*
X166650000Y-89850000D03*
D11*
X174000000Y-89850000D03*
G04 #@! TD*
D12*
G04 #@! TO.C,L1*
G36*
X173161958Y-85530710D02*
X173176276Y-85532834D01*
X173190317Y-85536351D01*
X173203946Y-85541228D01*
X173217031Y-85547417D01*
X173229447Y-85554858D01*
X173241073Y-85563481D01*
X173251798Y-85573202D01*
X173261519Y-85583927D01*
X173270142Y-85595553D01*
X173277583Y-85607969D01*
X173283772Y-85621054D01*
X173288649Y-85634683D01*
X173292166Y-85648724D01*
X173294290Y-85663042D01*
X173295000Y-85677500D01*
X173295000Y-86022500D01*
X173294290Y-86036958D01*
X173292166Y-86051276D01*
X173288649Y-86065317D01*
X173283772Y-86078946D01*
X173277583Y-86092031D01*
X173270142Y-86104447D01*
X173261519Y-86116073D01*
X173251798Y-86126798D01*
X173241073Y-86136519D01*
X173229447Y-86145142D01*
X173217031Y-86152583D01*
X173203946Y-86158772D01*
X173190317Y-86163649D01*
X173176276Y-86167166D01*
X173161958Y-86169290D01*
X173147500Y-86170000D01*
X172852500Y-86170000D01*
X172838042Y-86169290D01*
X172823724Y-86167166D01*
X172809683Y-86163649D01*
X172796054Y-86158772D01*
X172782969Y-86152583D01*
X172770553Y-86145142D01*
X172758927Y-86136519D01*
X172748202Y-86126798D01*
X172738481Y-86116073D01*
X172729858Y-86104447D01*
X172722417Y-86092031D01*
X172716228Y-86078946D01*
X172711351Y-86065317D01*
X172707834Y-86051276D01*
X172705710Y-86036958D01*
X172705000Y-86022500D01*
X172705000Y-85677500D01*
X172705710Y-85663042D01*
X172707834Y-85648724D01*
X172711351Y-85634683D01*
X172716228Y-85621054D01*
X172722417Y-85607969D01*
X172729858Y-85595553D01*
X172738481Y-85583927D01*
X172748202Y-85573202D01*
X172758927Y-85563481D01*
X172770553Y-85554858D01*
X172782969Y-85547417D01*
X172796054Y-85541228D01*
X172809683Y-85536351D01*
X172823724Y-85532834D01*
X172838042Y-85530710D01*
X172852500Y-85530000D01*
X173147500Y-85530000D01*
X173161958Y-85530710D01*
X173161958Y-85530710D01*
G37*
D13*
X173000000Y-85850000D03*
D12*
G36*
X172191958Y-85530710D02*
X172206276Y-85532834D01*
X172220317Y-85536351D01*
X172233946Y-85541228D01*
X172247031Y-85547417D01*
X172259447Y-85554858D01*
X172271073Y-85563481D01*
X172281798Y-85573202D01*
X172291519Y-85583927D01*
X172300142Y-85595553D01*
X172307583Y-85607969D01*
X172313772Y-85621054D01*
X172318649Y-85634683D01*
X172322166Y-85648724D01*
X172324290Y-85663042D01*
X172325000Y-85677500D01*
X172325000Y-86022500D01*
X172324290Y-86036958D01*
X172322166Y-86051276D01*
X172318649Y-86065317D01*
X172313772Y-86078946D01*
X172307583Y-86092031D01*
X172300142Y-86104447D01*
X172291519Y-86116073D01*
X172281798Y-86126798D01*
X172271073Y-86136519D01*
X172259447Y-86145142D01*
X172247031Y-86152583D01*
X172233946Y-86158772D01*
X172220317Y-86163649D01*
X172206276Y-86167166D01*
X172191958Y-86169290D01*
X172177500Y-86170000D01*
X171882500Y-86170000D01*
X171868042Y-86169290D01*
X171853724Y-86167166D01*
X171839683Y-86163649D01*
X171826054Y-86158772D01*
X171812969Y-86152583D01*
X171800553Y-86145142D01*
X171788927Y-86136519D01*
X171778202Y-86126798D01*
X171768481Y-86116073D01*
X171759858Y-86104447D01*
X171752417Y-86092031D01*
X171746228Y-86078946D01*
X171741351Y-86065317D01*
X171737834Y-86051276D01*
X171735710Y-86036958D01*
X171735000Y-86022500D01*
X171735000Y-85677500D01*
X171735710Y-85663042D01*
X171737834Y-85648724D01*
X171741351Y-85634683D01*
X171746228Y-85621054D01*
X171752417Y-85607969D01*
X171759858Y-85595553D01*
X171768481Y-85583927D01*
X171778202Y-85573202D01*
X171788927Y-85563481D01*
X171800553Y-85554858D01*
X171812969Y-85547417D01*
X171826054Y-85541228D01*
X171839683Y-85536351D01*
X171853724Y-85532834D01*
X171868042Y-85530710D01*
X171882500Y-85530000D01*
X172177500Y-85530000D01*
X172191958Y-85530710D01*
X172191958Y-85530710D01*
G37*
D13*
X172030000Y-85850000D03*
G04 #@! TD*
D12*
G04 #@! TO.C,C1*
G36*
X166410886Y-75862830D02*
X166425204Y-75864954D01*
X166439245Y-75868471D01*
X166452874Y-75873348D01*
X166465959Y-75879537D01*
X166478375Y-75886978D01*
X166490001Y-75895601D01*
X166500726Y-75905322D01*
X166744678Y-76149274D01*
X166754399Y-76159999D01*
X166763022Y-76171625D01*
X166770463Y-76184041D01*
X166776652Y-76197126D01*
X166781529Y-76210755D01*
X166785046Y-76224796D01*
X166787170Y-76239114D01*
X166787880Y-76253572D01*
X166787170Y-76268030D01*
X166785046Y-76282348D01*
X166781529Y-76296389D01*
X166776652Y-76310018D01*
X166770463Y-76323103D01*
X166763022Y-76335519D01*
X166754399Y-76347145D01*
X166744678Y-76357870D01*
X166536082Y-76566466D01*
X166525357Y-76576187D01*
X166513731Y-76584810D01*
X166501315Y-76592251D01*
X166488230Y-76598440D01*
X166474601Y-76603317D01*
X166460560Y-76606834D01*
X166446242Y-76608958D01*
X166431784Y-76609668D01*
X166417326Y-76608958D01*
X166403008Y-76606834D01*
X166388967Y-76603317D01*
X166375338Y-76598440D01*
X166362253Y-76592251D01*
X166349837Y-76584810D01*
X166338211Y-76576187D01*
X166327486Y-76566466D01*
X166083534Y-76322514D01*
X166073813Y-76311789D01*
X166065190Y-76300163D01*
X166057749Y-76287747D01*
X166051560Y-76274662D01*
X166046683Y-76261033D01*
X166043166Y-76246992D01*
X166041042Y-76232674D01*
X166040332Y-76218216D01*
X166041042Y-76203758D01*
X166043166Y-76189440D01*
X166046683Y-76175399D01*
X166051560Y-76161770D01*
X166057749Y-76148685D01*
X166065190Y-76136269D01*
X166073813Y-76124643D01*
X166083534Y-76113918D01*
X166292130Y-75905322D01*
X166302855Y-75895601D01*
X166314481Y-75886978D01*
X166326897Y-75879537D01*
X166339982Y-75873348D01*
X166353611Y-75868471D01*
X166367652Y-75864954D01*
X166381970Y-75862830D01*
X166396428Y-75862120D01*
X166410886Y-75862830D01*
X166410886Y-75862830D01*
G37*
D13*
X166414106Y-76235894D03*
D12*
G36*
X167096780Y-75176936D02*
X167111098Y-75179060D01*
X167125139Y-75182577D01*
X167138768Y-75187454D01*
X167151853Y-75193643D01*
X167164269Y-75201084D01*
X167175895Y-75209707D01*
X167186620Y-75219428D01*
X167430572Y-75463380D01*
X167440293Y-75474105D01*
X167448916Y-75485731D01*
X167456357Y-75498147D01*
X167462546Y-75511232D01*
X167467423Y-75524861D01*
X167470940Y-75538902D01*
X167473064Y-75553220D01*
X167473774Y-75567678D01*
X167473064Y-75582136D01*
X167470940Y-75596454D01*
X167467423Y-75610495D01*
X167462546Y-75624124D01*
X167456357Y-75637209D01*
X167448916Y-75649625D01*
X167440293Y-75661251D01*
X167430572Y-75671976D01*
X167221976Y-75880572D01*
X167211251Y-75890293D01*
X167199625Y-75898916D01*
X167187209Y-75906357D01*
X167174124Y-75912546D01*
X167160495Y-75917423D01*
X167146454Y-75920940D01*
X167132136Y-75923064D01*
X167117678Y-75923774D01*
X167103220Y-75923064D01*
X167088902Y-75920940D01*
X167074861Y-75917423D01*
X167061232Y-75912546D01*
X167048147Y-75906357D01*
X167035731Y-75898916D01*
X167024105Y-75890293D01*
X167013380Y-75880572D01*
X166769428Y-75636620D01*
X166759707Y-75625895D01*
X166751084Y-75614269D01*
X166743643Y-75601853D01*
X166737454Y-75588768D01*
X166732577Y-75575139D01*
X166729060Y-75561098D01*
X166726936Y-75546780D01*
X166726226Y-75532322D01*
X166726936Y-75517864D01*
X166729060Y-75503546D01*
X166732577Y-75489505D01*
X166737454Y-75475876D01*
X166743643Y-75462791D01*
X166751084Y-75450375D01*
X166759707Y-75438749D01*
X166769428Y-75428024D01*
X166978024Y-75219428D01*
X166988749Y-75209707D01*
X167000375Y-75201084D01*
X167012791Y-75193643D01*
X167025876Y-75187454D01*
X167039505Y-75182577D01*
X167053546Y-75179060D01*
X167067864Y-75176936D01*
X167082322Y-75176226D01*
X167096780Y-75176936D01*
X167096780Y-75176936D01*
G37*
D13*
X167100000Y-75550000D03*
G04 #@! TD*
D12*
G04 #@! TO.C,C8*
G36*
X175086958Y-83635710D02*
X175101276Y-83637834D01*
X175115317Y-83641351D01*
X175128946Y-83646228D01*
X175142031Y-83652417D01*
X175154447Y-83659858D01*
X175166073Y-83668481D01*
X175176798Y-83678202D01*
X175186519Y-83688927D01*
X175195142Y-83700553D01*
X175202583Y-83712969D01*
X175208772Y-83726054D01*
X175213649Y-83739683D01*
X175217166Y-83753724D01*
X175219290Y-83768042D01*
X175220000Y-83782500D01*
X175220000Y-84077500D01*
X175219290Y-84091958D01*
X175217166Y-84106276D01*
X175213649Y-84120317D01*
X175208772Y-84133946D01*
X175202583Y-84147031D01*
X175195142Y-84159447D01*
X175186519Y-84171073D01*
X175176798Y-84181798D01*
X175166073Y-84191519D01*
X175154447Y-84200142D01*
X175142031Y-84207583D01*
X175128946Y-84213772D01*
X175115317Y-84218649D01*
X175101276Y-84222166D01*
X175086958Y-84224290D01*
X175072500Y-84225000D01*
X174727500Y-84225000D01*
X174713042Y-84224290D01*
X174698724Y-84222166D01*
X174684683Y-84218649D01*
X174671054Y-84213772D01*
X174657969Y-84207583D01*
X174645553Y-84200142D01*
X174633927Y-84191519D01*
X174623202Y-84181798D01*
X174613481Y-84171073D01*
X174604858Y-84159447D01*
X174597417Y-84147031D01*
X174591228Y-84133946D01*
X174586351Y-84120317D01*
X174582834Y-84106276D01*
X174580710Y-84091958D01*
X174580000Y-84077500D01*
X174580000Y-83782500D01*
X174580710Y-83768042D01*
X174582834Y-83753724D01*
X174586351Y-83739683D01*
X174591228Y-83726054D01*
X174597417Y-83712969D01*
X174604858Y-83700553D01*
X174613481Y-83688927D01*
X174623202Y-83678202D01*
X174633927Y-83668481D01*
X174645553Y-83659858D01*
X174657969Y-83652417D01*
X174671054Y-83646228D01*
X174684683Y-83641351D01*
X174698724Y-83637834D01*
X174713042Y-83635710D01*
X174727500Y-83635000D01*
X175072500Y-83635000D01*
X175086958Y-83635710D01*
X175086958Y-83635710D01*
G37*
D13*
X174900000Y-83930000D03*
D12*
G36*
X175086958Y-84605710D02*
X175101276Y-84607834D01*
X175115317Y-84611351D01*
X175128946Y-84616228D01*
X175142031Y-84622417D01*
X175154447Y-84629858D01*
X175166073Y-84638481D01*
X175176798Y-84648202D01*
X175186519Y-84658927D01*
X175195142Y-84670553D01*
X175202583Y-84682969D01*
X175208772Y-84696054D01*
X175213649Y-84709683D01*
X175217166Y-84723724D01*
X175219290Y-84738042D01*
X175220000Y-84752500D01*
X175220000Y-85047500D01*
X175219290Y-85061958D01*
X175217166Y-85076276D01*
X175213649Y-85090317D01*
X175208772Y-85103946D01*
X175202583Y-85117031D01*
X175195142Y-85129447D01*
X175186519Y-85141073D01*
X175176798Y-85151798D01*
X175166073Y-85161519D01*
X175154447Y-85170142D01*
X175142031Y-85177583D01*
X175128946Y-85183772D01*
X175115317Y-85188649D01*
X175101276Y-85192166D01*
X175086958Y-85194290D01*
X175072500Y-85195000D01*
X174727500Y-85195000D01*
X174713042Y-85194290D01*
X174698724Y-85192166D01*
X174684683Y-85188649D01*
X174671054Y-85183772D01*
X174657969Y-85177583D01*
X174645553Y-85170142D01*
X174633927Y-85161519D01*
X174623202Y-85151798D01*
X174613481Y-85141073D01*
X174604858Y-85129447D01*
X174597417Y-85117031D01*
X174591228Y-85103946D01*
X174586351Y-85090317D01*
X174582834Y-85076276D01*
X174580710Y-85061958D01*
X174580000Y-85047500D01*
X174580000Y-84752500D01*
X174580710Y-84738042D01*
X174582834Y-84723724D01*
X174586351Y-84709683D01*
X174591228Y-84696054D01*
X174597417Y-84682969D01*
X174604858Y-84670553D01*
X174613481Y-84658927D01*
X174623202Y-84648202D01*
X174633927Y-84638481D01*
X174645553Y-84629858D01*
X174657969Y-84622417D01*
X174671054Y-84616228D01*
X174684683Y-84611351D01*
X174698724Y-84607834D01*
X174713042Y-84605710D01*
X174727500Y-84605000D01*
X175072500Y-84605000D01*
X175086958Y-84605710D01*
X175086958Y-84605710D01*
G37*
D13*
X174900000Y-84900000D03*
G04 #@! TD*
D12*
G04 #@! TO.C,C14*
G36*
X176086958Y-83635710D02*
X176101276Y-83637834D01*
X176115317Y-83641351D01*
X176128946Y-83646228D01*
X176142031Y-83652417D01*
X176154447Y-83659858D01*
X176166073Y-83668481D01*
X176176798Y-83678202D01*
X176186519Y-83688927D01*
X176195142Y-83700553D01*
X176202583Y-83712969D01*
X176208772Y-83726054D01*
X176213649Y-83739683D01*
X176217166Y-83753724D01*
X176219290Y-83768042D01*
X176220000Y-83782500D01*
X176220000Y-84077500D01*
X176219290Y-84091958D01*
X176217166Y-84106276D01*
X176213649Y-84120317D01*
X176208772Y-84133946D01*
X176202583Y-84147031D01*
X176195142Y-84159447D01*
X176186519Y-84171073D01*
X176176798Y-84181798D01*
X176166073Y-84191519D01*
X176154447Y-84200142D01*
X176142031Y-84207583D01*
X176128946Y-84213772D01*
X176115317Y-84218649D01*
X176101276Y-84222166D01*
X176086958Y-84224290D01*
X176072500Y-84225000D01*
X175727500Y-84225000D01*
X175713042Y-84224290D01*
X175698724Y-84222166D01*
X175684683Y-84218649D01*
X175671054Y-84213772D01*
X175657969Y-84207583D01*
X175645553Y-84200142D01*
X175633927Y-84191519D01*
X175623202Y-84181798D01*
X175613481Y-84171073D01*
X175604858Y-84159447D01*
X175597417Y-84147031D01*
X175591228Y-84133946D01*
X175586351Y-84120317D01*
X175582834Y-84106276D01*
X175580710Y-84091958D01*
X175580000Y-84077500D01*
X175580000Y-83782500D01*
X175580710Y-83768042D01*
X175582834Y-83753724D01*
X175586351Y-83739683D01*
X175591228Y-83726054D01*
X175597417Y-83712969D01*
X175604858Y-83700553D01*
X175613481Y-83688927D01*
X175623202Y-83678202D01*
X175633927Y-83668481D01*
X175645553Y-83659858D01*
X175657969Y-83652417D01*
X175671054Y-83646228D01*
X175684683Y-83641351D01*
X175698724Y-83637834D01*
X175713042Y-83635710D01*
X175727500Y-83635000D01*
X176072500Y-83635000D01*
X176086958Y-83635710D01*
X176086958Y-83635710D01*
G37*
D13*
X175900000Y-83930000D03*
D12*
G36*
X176086958Y-84605710D02*
X176101276Y-84607834D01*
X176115317Y-84611351D01*
X176128946Y-84616228D01*
X176142031Y-84622417D01*
X176154447Y-84629858D01*
X176166073Y-84638481D01*
X176176798Y-84648202D01*
X176186519Y-84658927D01*
X176195142Y-84670553D01*
X176202583Y-84682969D01*
X176208772Y-84696054D01*
X176213649Y-84709683D01*
X176217166Y-84723724D01*
X176219290Y-84738042D01*
X176220000Y-84752500D01*
X176220000Y-85047500D01*
X176219290Y-85061958D01*
X176217166Y-85076276D01*
X176213649Y-85090317D01*
X176208772Y-85103946D01*
X176202583Y-85117031D01*
X176195142Y-85129447D01*
X176186519Y-85141073D01*
X176176798Y-85151798D01*
X176166073Y-85161519D01*
X176154447Y-85170142D01*
X176142031Y-85177583D01*
X176128946Y-85183772D01*
X176115317Y-85188649D01*
X176101276Y-85192166D01*
X176086958Y-85194290D01*
X176072500Y-85195000D01*
X175727500Y-85195000D01*
X175713042Y-85194290D01*
X175698724Y-85192166D01*
X175684683Y-85188649D01*
X175671054Y-85183772D01*
X175657969Y-85177583D01*
X175645553Y-85170142D01*
X175633927Y-85161519D01*
X175623202Y-85151798D01*
X175613481Y-85141073D01*
X175604858Y-85129447D01*
X175597417Y-85117031D01*
X175591228Y-85103946D01*
X175586351Y-85090317D01*
X175582834Y-85076276D01*
X175580710Y-85061958D01*
X175580000Y-85047500D01*
X175580000Y-84752500D01*
X175580710Y-84738042D01*
X175582834Y-84723724D01*
X175586351Y-84709683D01*
X175591228Y-84696054D01*
X175597417Y-84682969D01*
X175604858Y-84670553D01*
X175613481Y-84658927D01*
X175623202Y-84648202D01*
X175633927Y-84638481D01*
X175645553Y-84629858D01*
X175657969Y-84622417D01*
X175671054Y-84616228D01*
X175684683Y-84611351D01*
X175698724Y-84607834D01*
X175713042Y-84605710D01*
X175727500Y-84605000D01*
X176072500Y-84605000D01*
X176086958Y-84605710D01*
X176086958Y-84605710D01*
G37*
D13*
X175900000Y-84900000D03*
G04 #@! TD*
D12*
G04 #@! TO.C,C2*
G36*
X166946780Y-82726936D02*
X166961098Y-82729060D01*
X166975139Y-82732577D01*
X166988768Y-82737454D01*
X167001853Y-82743643D01*
X167014269Y-82751084D01*
X167025895Y-82759707D01*
X167036620Y-82769428D01*
X167280572Y-83013380D01*
X167290293Y-83024105D01*
X167298916Y-83035731D01*
X167306357Y-83048147D01*
X167312546Y-83061232D01*
X167317423Y-83074861D01*
X167320940Y-83088902D01*
X167323064Y-83103220D01*
X167323774Y-83117678D01*
X167323064Y-83132136D01*
X167320940Y-83146454D01*
X167317423Y-83160495D01*
X167312546Y-83174124D01*
X167306357Y-83187209D01*
X167298916Y-83199625D01*
X167290293Y-83211251D01*
X167280572Y-83221976D01*
X167071976Y-83430572D01*
X167061251Y-83440293D01*
X167049625Y-83448916D01*
X167037209Y-83456357D01*
X167024124Y-83462546D01*
X167010495Y-83467423D01*
X166996454Y-83470940D01*
X166982136Y-83473064D01*
X166967678Y-83473774D01*
X166953220Y-83473064D01*
X166938902Y-83470940D01*
X166924861Y-83467423D01*
X166911232Y-83462546D01*
X166898147Y-83456357D01*
X166885731Y-83448916D01*
X166874105Y-83440293D01*
X166863380Y-83430572D01*
X166619428Y-83186620D01*
X166609707Y-83175895D01*
X166601084Y-83164269D01*
X166593643Y-83151853D01*
X166587454Y-83138768D01*
X166582577Y-83125139D01*
X166579060Y-83111098D01*
X166576936Y-83096780D01*
X166576226Y-83082322D01*
X166576936Y-83067864D01*
X166579060Y-83053546D01*
X166582577Y-83039505D01*
X166587454Y-83025876D01*
X166593643Y-83012791D01*
X166601084Y-83000375D01*
X166609707Y-82988749D01*
X166619428Y-82978024D01*
X166828024Y-82769428D01*
X166838749Y-82759707D01*
X166850375Y-82751084D01*
X166862791Y-82743643D01*
X166875876Y-82737454D01*
X166889505Y-82732577D01*
X166903546Y-82729060D01*
X166917864Y-82726936D01*
X166932322Y-82726226D01*
X166946780Y-82726936D01*
X166946780Y-82726936D01*
G37*
D13*
X166950000Y-83100000D03*
D12*
G36*
X166260886Y-83412830D02*
X166275204Y-83414954D01*
X166289245Y-83418471D01*
X166302874Y-83423348D01*
X166315959Y-83429537D01*
X166328375Y-83436978D01*
X166340001Y-83445601D01*
X166350726Y-83455322D01*
X166594678Y-83699274D01*
X166604399Y-83709999D01*
X166613022Y-83721625D01*
X166620463Y-83734041D01*
X166626652Y-83747126D01*
X166631529Y-83760755D01*
X166635046Y-83774796D01*
X166637170Y-83789114D01*
X166637880Y-83803572D01*
X166637170Y-83818030D01*
X166635046Y-83832348D01*
X166631529Y-83846389D01*
X166626652Y-83860018D01*
X166620463Y-83873103D01*
X166613022Y-83885519D01*
X166604399Y-83897145D01*
X166594678Y-83907870D01*
X166386082Y-84116466D01*
X166375357Y-84126187D01*
X166363731Y-84134810D01*
X166351315Y-84142251D01*
X166338230Y-84148440D01*
X166324601Y-84153317D01*
X166310560Y-84156834D01*
X166296242Y-84158958D01*
X166281784Y-84159668D01*
X166267326Y-84158958D01*
X166253008Y-84156834D01*
X166238967Y-84153317D01*
X166225338Y-84148440D01*
X166212253Y-84142251D01*
X166199837Y-84134810D01*
X166188211Y-84126187D01*
X166177486Y-84116466D01*
X165933534Y-83872514D01*
X165923813Y-83861789D01*
X165915190Y-83850163D01*
X165907749Y-83837747D01*
X165901560Y-83824662D01*
X165896683Y-83811033D01*
X165893166Y-83796992D01*
X165891042Y-83782674D01*
X165890332Y-83768216D01*
X165891042Y-83753758D01*
X165893166Y-83739440D01*
X165896683Y-83725399D01*
X165901560Y-83711770D01*
X165907749Y-83698685D01*
X165915190Y-83686269D01*
X165923813Y-83674643D01*
X165933534Y-83663918D01*
X166142130Y-83455322D01*
X166152855Y-83445601D01*
X166164481Y-83436978D01*
X166176897Y-83429537D01*
X166189982Y-83423348D01*
X166203611Y-83418471D01*
X166217652Y-83414954D01*
X166231970Y-83412830D01*
X166246428Y-83412120D01*
X166260886Y-83412830D01*
X166260886Y-83412830D01*
G37*
D13*
X166264106Y-83785894D03*
G04 #@! TD*
D12*
G04 #@! TO.C,C5*
G36*
X169660886Y-86512830D02*
X169675204Y-86514954D01*
X169689245Y-86518471D01*
X169702874Y-86523348D01*
X169715959Y-86529537D01*
X169728375Y-86536978D01*
X169740001Y-86545601D01*
X169750726Y-86555322D01*
X169994678Y-86799274D01*
X170004399Y-86809999D01*
X170013022Y-86821625D01*
X170020463Y-86834041D01*
X170026652Y-86847126D01*
X170031529Y-86860755D01*
X170035046Y-86874796D01*
X170037170Y-86889114D01*
X170037880Y-86903572D01*
X170037170Y-86918030D01*
X170035046Y-86932348D01*
X170031529Y-86946389D01*
X170026652Y-86960018D01*
X170020463Y-86973103D01*
X170013022Y-86985519D01*
X170004399Y-86997145D01*
X169994678Y-87007870D01*
X169786082Y-87216466D01*
X169775357Y-87226187D01*
X169763731Y-87234810D01*
X169751315Y-87242251D01*
X169738230Y-87248440D01*
X169724601Y-87253317D01*
X169710560Y-87256834D01*
X169696242Y-87258958D01*
X169681784Y-87259668D01*
X169667326Y-87258958D01*
X169653008Y-87256834D01*
X169638967Y-87253317D01*
X169625338Y-87248440D01*
X169612253Y-87242251D01*
X169599837Y-87234810D01*
X169588211Y-87226187D01*
X169577486Y-87216466D01*
X169333534Y-86972514D01*
X169323813Y-86961789D01*
X169315190Y-86950163D01*
X169307749Y-86937747D01*
X169301560Y-86924662D01*
X169296683Y-86911033D01*
X169293166Y-86896992D01*
X169291042Y-86882674D01*
X169290332Y-86868216D01*
X169291042Y-86853758D01*
X169293166Y-86839440D01*
X169296683Y-86825399D01*
X169301560Y-86811770D01*
X169307749Y-86798685D01*
X169315190Y-86786269D01*
X169323813Y-86774643D01*
X169333534Y-86763918D01*
X169542130Y-86555322D01*
X169552855Y-86545601D01*
X169564481Y-86536978D01*
X169576897Y-86529537D01*
X169589982Y-86523348D01*
X169603611Y-86518471D01*
X169617652Y-86514954D01*
X169631970Y-86512830D01*
X169646428Y-86512120D01*
X169660886Y-86512830D01*
X169660886Y-86512830D01*
G37*
D13*
X169664106Y-86885894D03*
D12*
G36*
X170346780Y-85826936D02*
X170361098Y-85829060D01*
X170375139Y-85832577D01*
X170388768Y-85837454D01*
X170401853Y-85843643D01*
X170414269Y-85851084D01*
X170425895Y-85859707D01*
X170436620Y-85869428D01*
X170680572Y-86113380D01*
X170690293Y-86124105D01*
X170698916Y-86135731D01*
X170706357Y-86148147D01*
X170712546Y-86161232D01*
X170717423Y-86174861D01*
X170720940Y-86188902D01*
X170723064Y-86203220D01*
X170723774Y-86217678D01*
X170723064Y-86232136D01*
X170720940Y-86246454D01*
X170717423Y-86260495D01*
X170712546Y-86274124D01*
X170706357Y-86287209D01*
X170698916Y-86299625D01*
X170690293Y-86311251D01*
X170680572Y-86321976D01*
X170471976Y-86530572D01*
X170461251Y-86540293D01*
X170449625Y-86548916D01*
X170437209Y-86556357D01*
X170424124Y-86562546D01*
X170410495Y-86567423D01*
X170396454Y-86570940D01*
X170382136Y-86573064D01*
X170367678Y-86573774D01*
X170353220Y-86573064D01*
X170338902Y-86570940D01*
X170324861Y-86567423D01*
X170311232Y-86562546D01*
X170298147Y-86556357D01*
X170285731Y-86548916D01*
X170274105Y-86540293D01*
X170263380Y-86530572D01*
X170019428Y-86286620D01*
X170009707Y-86275895D01*
X170001084Y-86264269D01*
X169993643Y-86251853D01*
X169987454Y-86238768D01*
X169982577Y-86225139D01*
X169979060Y-86211098D01*
X169976936Y-86196780D01*
X169976226Y-86182322D01*
X169976936Y-86167864D01*
X169979060Y-86153546D01*
X169982577Y-86139505D01*
X169987454Y-86125876D01*
X169993643Y-86112791D01*
X170001084Y-86100375D01*
X170009707Y-86088749D01*
X170019428Y-86078024D01*
X170228024Y-85869428D01*
X170238749Y-85859707D01*
X170250375Y-85851084D01*
X170262791Y-85843643D01*
X170275876Y-85837454D01*
X170289505Y-85832577D01*
X170303546Y-85829060D01*
X170317864Y-85826936D01*
X170332322Y-85826226D01*
X170346780Y-85826936D01*
X170346780Y-85826936D01*
G37*
D13*
X170350000Y-86200000D03*
G04 #@! TD*
D12*
G04 #@! TO.C,C13*
G36*
X172961958Y-74780710D02*
X172976276Y-74782834D01*
X172990317Y-74786351D01*
X173003946Y-74791228D01*
X173017031Y-74797417D01*
X173029447Y-74804858D01*
X173041073Y-74813481D01*
X173051798Y-74823202D01*
X173061519Y-74833927D01*
X173070142Y-74845553D01*
X173077583Y-74857969D01*
X173083772Y-74871054D01*
X173088649Y-74884683D01*
X173092166Y-74898724D01*
X173094290Y-74913042D01*
X173095000Y-74927500D01*
X173095000Y-75272500D01*
X173094290Y-75286958D01*
X173092166Y-75301276D01*
X173088649Y-75315317D01*
X173083772Y-75328946D01*
X173077583Y-75342031D01*
X173070142Y-75354447D01*
X173061519Y-75366073D01*
X173051798Y-75376798D01*
X173041073Y-75386519D01*
X173029447Y-75395142D01*
X173017031Y-75402583D01*
X173003946Y-75408772D01*
X172990317Y-75413649D01*
X172976276Y-75417166D01*
X172961958Y-75419290D01*
X172947500Y-75420000D01*
X172652500Y-75420000D01*
X172638042Y-75419290D01*
X172623724Y-75417166D01*
X172609683Y-75413649D01*
X172596054Y-75408772D01*
X172582969Y-75402583D01*
X172570553Y-75395142D01*
X172558927Y-75386519D01*
X172548202Y-75376798D01*
X172538481Y-75366073D01*
X172529858Y-75354447D01*
X172522417Y-75342031D01*
X172516228Y-75328946D01*
X172511351Y-75315317D01*
X172507834Y-75301276D01*
X172505710Y-75286958D01*
X172505000Y-75272500D01*
X172505000Y-74927500D01*
X172505710Y-74913042D01*
X172507834Y-74898724D01*
X172511351Y-74884683D01*
X172516228Y-74871054D01*
X172522417Y-74857969D01*
X172529858Y-74845553D01*
X172538481Y-74833927D01*
X172548202Y-74823202D01*
X172558927Y-74813481D01*
X172570553Y-74804858D01*
X172582969Y-74797417D01*
X172596054Y-74791228D01*
X172609683Y-74786351D01*
X172623724Y-74782834D01*
X172638042Y-74780710D01*
X172652500Y-74780000D01*
X172947500Y-74780000D01*
X172961958Y-74780710D01*
X172961958Y-74780710D01*
G37*
D13*
X172800000Y-75100000D03*
D12*
G36*
X171991958Y-74780710D02*
X172006276Y-74782834D01*
X172020317Y-74786351D01*
X172033946Y-74791228D01*
X172047031Y-74797417D01*
X172059447Y-74804858D01*
X172071073Y-74813481D01*
X172081798Y-74823202D01*
X172091519Y-74833927D01*
X172100142Y-74845553D01*
X172107583Y-74857969D01*
X172113772Y-74871054D01*
X172118649Y-74884683D01*
X172122166Y-74898724D01*
X172124290Y-74913042D01*
X172125000Y-74927500D01*
X172125000Y-75272500D01*
X172124290Y-75286958D01*
X172122166Y-75301276D01*
X172118649Y-75315317D01*
X172113772Y-75328946D01*
X172107583Y-75342031D01*
X172100142Y-75354447D01*
X172091519Y-75366073D01*
X172081798Y-75376798D01*
X172071073Y-75386519D01*
X172059447Y-75395142D01*
X172047031Y-75402583D01*
X172033946Y-75408772D01*
X172020317Y-75413649D01*
X172006276Y-75417166D01*
X171991958Y-75419290D01*
X171977500Y-75420000D01*
X171682500Y-75420000D01*
X171668042Y-75419290D01*
X171653724Y-75417166D01*
X171639683Y-75413649D01*
X171626054Y-75408772D01*
X171612969Y-75402583D01*
X171600553Y-75395142D01*
X171588927Y-75386519D01*
X171578202Y-75376798D01*
X171568481Y-75366073D01*
X171559858Y-75354447D01*
X171552417Y-75342031D01*
X171546228Y-75328946D01*
X171541351Y-75315317D01*
X171537834Y-75301276D01*
X171535710Y-75286958D01*
X171535000Y-75272500D01*
X171535000Y-74927500D01*
X171535710Y-74913042D01*
X171537834Y-74898724D01*
X171541351Y-74884683D01*
X171546228Y-74871054D01*
X171552417Y-74857969D01*
X171559858Y-74845553D01*
X171568481Y-74833927D01*
X171578202Y-74823202D01*
X171588927Y-74813481D01*
X171600553Y-74804858D01*
X171612969Y-74797417D01*
X171626054Y-74791228D01*
X171639683Y-74786351D01*
X171653724Y-74782834D01*
X171668042Y-74780710D01*
X171682500Y-74780000D01*
X171977500Y-74780000D01*
X171991958Y-74780710D01*
X171991958Y-74780710D01*
G37*
D13*
X171830000Y-75100000D03*
G04 #@! TD*
D12*
G04 #@! TO.C,C10*
G36*
X176101958Y-86590710D02*
X176116276Y-86592834D01*
X176130317Y-86596351D01*
X176143946Y-86601228D01*
X176157031Y-86607417D01*
X176169447Y-86614858D01*
X176181073Y-86623481D01*
X176191798Y-86633202D01*
X176201519Y-86643927D01*
X176210142Y-86655553D01*
X176217583Y-86667969D01*
X176223772Y-86681054D01*
X176228649Y-86694683D01*
X176232166Y-86708724D01*
X176234290Y-86723042D01*
X176235000Y-86737500D01*
X176235000Y-87032500D01*
X176234290Y-87046958D01*
X176232166Y-87061276D01*
X176228649Y-87075317D01*
X176223772Y-87088946D01*
X176217583Y-87102031D01*
X176210142Y-87114447D01*
X176201519Y-87126073D01*
X176191798Y-87136798D01*
X176181073Y-87146519D01*
X176169447Y-87155142D01*
X176157031Y-87162583D01*
X176143946Y-87168772D01*
X176130317Y-87173649D01*
X176116276Y-87177166D01*
X176101958Y-87179290D01*
X176087500Y-87180000D01*
X175742500Y-87180000D01*
X175728042Y-87179290D01*
X175713724Y-87177166D01*
X175699683Y-87173649D01*
X175686054Y-87168772D01*
X175672969Y-87162583D01*
X175660553Y-87155142D01*
X175648927Y-87146519D01*
X175638202Y-87136798D01*
X175628481Y-87126073D01*
X175619858Y-87114447D01*
X175612417Y-87102031D01*
X175606228Y-87088946D01*
X175601351Y-87075317D01*
X175597834Y-87061276D01*
X175595710Y-87046958D01*
X175595000Y-87032500D01*
X175595000Y-86737500D01*
X175595710Y-86723042D01*
X175597834Y-86708724D01*
X175601351Y-86694683D01*
X175606228Y-86681054D01*
X175612417Y-86667969D01*
X175619858Y-86655553D01*
X175628481Y-86643927D01*
X175638202Y-86633202D01*
X175648927Y-86623481D01*
X175660553Y-86614858D01*
X175672969Y-86607417D01*
X175686054Y-86601228D01*
X175699683Y-86596351D01*
X175713724Y-86592834D01*
X175728042Y-86590710D01*
X175742500Y-86590000D01*
X176087500Y-86590000D01*
X176101958Y-86590710D01*
X176101958Y-86590710D01*
G37*
D13*
X175915000Y-86885000D03*
D12*
G36*
X176101958Y-85620710D02*
X176116276Y-85622834D01*
X176130317Y-85626351D01*
X176143946Y-85631228D01*
X176157031Y-85637417D01*
X176169447Y-85644858D01*
X176181073Y-85653481D01*
X176191798Y-85663202D01*
X176201519Y-85673927D01*
X176210142Y-85685553D01*
X176217583Y-85697969D01*
X176223772Y-85711054D01*
X176228649Y-85724683D01*
X176232166Y-85738724D01*
X176234290Y-85753042D01*
X176235000Y-85767500D01*
X176235000Y-86062500D01*
X176234290Y-86076958D01*
X176232166Y-86091276D01*
X176228649Y-86105317D01*
X176223772Y-86118946D01*
X176217583Y-86132031D01*
X176210142Y-86144447D01*
X176201519Y-86156073D01*
X176191798Y-86166798D01*
X176181073Y-86176519D01*
X176169447Y-86185142D01*
X176157031Y-86192583D01*
X176143946Y-86198772D01*
X176130317Y-86203649D01*
X176116276Y-86207166D01*
X176101958Y-86209290D01*
X176087500Y-86210000D01*
X175742500Y-86210000D01*
X175728042Y-86209290D01*
X175713724Y-86207166D01*
X175699683Y-86203649D01*
X175686054Y-86198772D01*
X175672969Y-86192583D01*
X175660553Y-86185142D01*
X175648927Y-86176519D01*
X175638202Y-86166798D01*
X175628481Y-86156073D01*
X175619858Y-86144447D01*
X175612417Y-86132031D01*
X175606228Y-86118946D01*
X175601351Y-86105317D01*
X175597834Y-86091276D01*
X175595710Y-86076958D01*
X175595000Y-86062500D01*
X175595000Y-85767500D01*
X175595710Y-85753042D01*
X175597834Y-85738724D01*
X175601351Y-85724683D01*
X175606228Y-85711054D01*
X175612417Y-85697969D01*
X175619858Y-85685553D01*
X175628481Y-85673927D01*
X175638202Y-85663202D01*
X175648927Y-85653481D01*
X175660553Y-85644858D01*
X175672969Y-85637417D01*
X175686054Y-85631228D01*
X175699683Y-85626351D01*
X175713724Y-85622834D01*
X175728042Y-85620710D01*
X175742500Y-85620000D01*
X176087500Y-85620000D01*
X176101958Y-85620710D01*
X176101958Y-85620710D01*
G37*
D13*
X175915000Y-85915000D03*
G04 #@! TD*
D12*
G04 #@! TO.C,C11*
G36*
X172961958Y-75780710D02*
X172976276Y-75782834D01*
X172990317Y-75786351D01*
X173003946Y-75791228D01*
X173017031Y-75797417D01*
X173029447Y-75804858D01*
X173041073Y-75813481D01*
X173051798Y-75823202D01*
X173061519Y-75833927D01*
X173070142Y-75845553D01*
X173077583Y-75857969D01*
X173083772Y-75871054D01*
X173088649Y-75884683D01*
X173092166Y-75898724D01*
X173094290Y-75913042D01*
X173095000Y-75927500D01*
X173095000Y-76272500D01*
X173094290Y-76286958D01*
X173092166Y-76301276D01*
X173088649Y-76315317D01*
X173083772Y-76328946D01*
X173077583Y-76342031D01*
X173070142Y-76354447D01*
X173061519Y-76366073D01*
X173051798Y-76376798D01*
X173041073Y-76386519D01*
X173029447Y-76395142D01*
X173017031Y-76402583D01*
X173003946Y-76408772D01*
X172990317Y-76413649D01*
X172976276Y-76417166D01*
X172961958Y-76419290D01*
X172947500Y-76420000D01*
X172652500Y-76420000D01*
X172638042Y-76419290D01*
X172623724Y-76417166D01*
X172609683Y-76413649D01*
X172596054Y-76408772D01*
X172582969Y-76402583D01*
X172570553Y-76395142D01*
X172558927Y-76386519D01*
X172548202Y-76376798D01*
X172538481Y-76366073D01*
X172529858Y-76354447D01*
X172522417Y-76342031D01*
X172516228Y-76328946D01*
X172511351Y-76315317D01*
X172507834Y-76301276D01*
X172505710Y-76286958D01*
X172505000Y-76272500D01*
X172505000Y-75927500D01*
X172505710Y-75913042D01*
X172507834Y-75898724D01*
X172511351Y-75884683D01*
X172516228Y-75871054D01*
X172522417Y-75857969D01*
X172529858Y-75845553D01*
X172538481Y-75833927D01*
X172548202Y-75823202D01*
X172558927Y-75813481D01*
X172570553Y-75804858D01*
X172582969Y-75797417D01*
X172596054Y-75791228D01*
X172609683Y-75786351D01*
X172623724Y-75782834D01*
X172638042Y-75780710D01*
X172652500Y-75780000D01*
X172947500Y-75780000D01*
X172961958Y-75780710D01*
X172961958Y-75780710D01*
G37*
D13*
X172800000Y-76100000D03*
D12*
G36*
X171991958Y-75780710D02*
X172006276Y-75782834D01*
X172020317Y-75786351D01*
X172033946Y-75791228D01*
X172047031Y-75797417D01*
X172059447Y-75804858D01*
X172071073Y-75813481D01*
X172081798Y-75823202D01*
X172091519Y-75833927D01*
X172100142Y-75845553D01*
X172107583Y-75857969D01*
X172113772Y-75871054D01*
X172118649Y-75884683D01*
X172122166Y-75898724D01*
X172124290Y-75913042D01*
X172125000Y-75927500D01*
X172125000Y-76272500D01*
X172124290Y-76286958D01*
X172122166Y-76301276D01*
X172118649Y-76315317D01*
X172113772Y-76328946D01*
X172107583Y-76342031D01*
X172100142Y-76354447D01*
X172091519Y-76366073D01*
X172081798Y-76376798D01*
X172071073Y-76386519D01*
X172059447Y-76395142D01*
X172047031Y-76402583D01*
X172033946Y-76408772D01*
X172020317Y-76413649D01*
X172006276Y-76417166D01*
X171991958Y-76419290D01*
X171977500Y-76420000D01*
X171682500Y-76420000D01*
X171668042Y-76419290D01*
X171653724Y-76417166D01*
X171639683Y-76413649D01*
X171626054Y-76408772D01*
X171612969Y-76402583D01*
X171600553Y-76395142D01*
X171588927Y-76386519D01*
X171578202Y-76376798D01*
X171568481Y-76366073D01*
X171559858Y-76354447D01*
X171552417Y-76342031D01*
X171546228Y-76328946D01*
X171541351Y-76315317D01*
X171537834Y-76301276D01*
X171535710Y-76286958D01*
X171535000Y-76272500D01*
X171535000Y-75927500D01*
X171535710Y-75913042D01*
X171537834Y-75898724D01*
X171541351Y-75884683D01*
X171546228Y-75871054D01*
X171552417Y-75857969D01*
X171559858Y-75845553D01*
X171568481Y-75833927D01*
X171578202Y-75823202D01*
X171588927Y-75813481D01*
X171600553Y-75804858D01*
X171612969Y-75797417D01*
X171626054Y-75791228D01*
X171639683Y-75786351D01*
X171653724Y-75782834D01*
X171668042Y-75780710D01*
X171682500Y-75780000D01*
X171977500Y-75780000D01*
X171991958Y-75780710D01*
X171991958Y-75780710D01*
G37*
D13*
X171830000Y-76100000D03*
G04 #@! TD*
D12*
G04 #@! TO.C,C17*
G36*
X171191958Y-86530710D02*
X171206276Y-86532834D01*
X171220317Y-86536351D01*
X171233946Y-86541228D01*
X171247031Y-86547417D01*
X171259447Y-86554858D01*
X171271073Y-86563481D01*
X171281798Y-86573202D01*
X171291519Y-86583927D01*
X171300142Y-86595553D01*
X171307583Y-86607969D01*
X171313772Y-86621054D01*
X171318649Y-86634683D01*
X171322166Y-86648724D01*
X171324290Y-86663042D01*
X171325000Y-86677500D01*
X171325000Y-87022500D01*
X171324290Y-87036958D01*
X171322166Y-87051276D01*
X171318649Y-87065317D01*
X171313772Y-87078946D01*
X171307583Y-87092031D01*
X171300142Y-87104447D01*
X171291519Y-87116073D01*
X171281798Y-87126798D01*
X171271073Y-87136519D01*
X171259447Y-87145142D01*
X171247031Y-87152583D01*
X171233946Y-87158772D01*
X171220317Y-87163649D01*
X171206276Y-87167166D01*
X171191958Y-87169290D01*
X171177500Y-87170000D01*
X170882500Y-87170000D01*
X170868042Y-87169290D01*
X170853724Y-87167166D01*
X170839683Y-87163649D01*
X170826054Y-87158772D01*
X170812969Y-87152583D01*
X170800553Y-87145142D01*
X170788927Y-87136519D01*
X170778202Y-87126798D01*
X170768481Y-87116073D01*
X170759858Y-87104447D01*
X170752417Y-87092031D01*
X170746228Y-87078946D01*
X170741351Y-87065317D01*
X170737834Y-87051276D01*
X170735710Y-87036958D01*
X170735000Y-87022500D01*
X170735000Y-86677500D01*
X170735710Y-86663042D01*
X170737834Y-86648724D01*
X170741351Y-86634683D01*
X170746228Y-86621054D01*
X170752417Y-86607969D01*
X170759858Y-86595553D01*
X170768481Y-86583927D01*
X170778202Y-86573202D01*
X170788927Y-86563481D01*
X170800553Y-86554858D01*
X170812969Y-86547417D01*
X170826054Y-86541228D01*
X170839683Y-86536351D01*
X170853724Y-86532834D01*
X170868042Y-86530710D01*
X170882500Y-86530000D01*
X171177500Y-86530000D01*
X171191958Y-86530710D01*
X171191958Y-86530710D01*
G37*
D13*
X171030000Y-86850000D03*
D12*
G36*
X172161958Y-86530710D02*
X172176276Y-86532834D01*
X172190317Y-86536351D01*
X172203946Y-86541228D01*
X172217031Y-86547417D01*
X172229447Y-86554858D01*
X172241073Y-86563481D01*
X172251798Y-86573202D01*
X172261519Y-86583927D01*
X172270142Y-86595553D01*
X172277583Y-86607969D01*
X172283772Y-86621054D01*
X172288649Y-86634683D01*
X172292166Y-86648724D01*
X172294290Y-86663042D01*
X172295000Y-86677500D01*
X172295000Y-87022500D01*
X172294290Y-87036958D01*
X172292166Y-87051276D01*
X172288649Y-87065317D01*
X172283772Y-87078946D01*
X172277583Y-87092031D01*
X172270142Y-87104447D01*
X172261519Y-87116073D01*
X172251798Y-87126798D01*
X172241073Y-87136519D01*
X172229447Y-87145142D01*
X172217031Y-87152583D01*
X172203946Y-87158772D01*
X172190317Y-87163649D01*
X172176276Y-87167166D01*
X172161958Y-87169290D01*
X172147500Y-87170000D01*
X171852500Y-87170000D01*
X171838042Y-87169290D01*
X171823724Y-87167166D01*
X171809683Y-87163649D01*
X171796054Y-87158772D01*
X171782969Y-87152583D01*
X171770553Y-87145142D01*
X171758927Y-87136519D01*
X171748202Y-87126798D01*
X171738481Y-87116073D01*
X171729858Y-87104447D01*
X171722417Y-87092031D01*
X171716228Y-87078946D01*
X171711351Y-87065317D01*
X171707834Y-87051276D01*
X171705710Y-87036958D01*
X171705000Y-87022500D01*
X171705000Y-86677500D01*
X171705710Y-86663042D01*
X171707834Y-86648724D01*
X171711351Y-86634683D01*
X171716228Y-86621054D01*
X171722417Y-86607969D01*
X171729858Y-86595553D01*
X171738481Y-86583927D01*
X171748202Y-86573202D01*
X171758927Y-86563481D01*
X171770553Y-86554858D01*
X171782969Y-86547417D01*
X171796054Y-86541228D01*
X171809683Y-86536351D01*
X171823724Y-86532834D01*
X171838042Y-86530710D01*
X171852500Y-86530000D01*
X172147500Y-86530000D01*
X172161958Y-86530710D01*
X172161958Y-86530710D01*
G37*
D13*
X172000000Y-86850000D03*
G04 #@! TD*
D12*
G04 #@! TO.C,C16*
G36*
X174111958Y-86530710D02*
X174126276Y-86532834D01*
X174140317Y-86536351D01*
X174153946Y-86541228D01*
X174167031Y-86547417D01*
X174179447Y-86554858D01*
X174191073Y-86563481D01*
X174201798Y-86573202D01*
X174211519Y-86583927D01*
X174220142Y-86595553D01*
X174227583Y-86607969D01*
X174233772Y-86621054D01*
X174238649Y-86634683D01*
X174242166Y-86648724D01*
X174244290Y-86663042D01*
X174245000Y-86677500D01*
X174245000Y-87022500D01*
X174244290Y-87036958D01*
X174242166Y-87051276D01*
X174238649Y-87065317D01*
X174233772Y-87078946D01*
X174227583Y-87092031D01*
X174220142Y-87104447D01*
X174211519Y-87116073D01*
X174201798Y-87126798D01*
X174191073Y-87136519D01*
X174179447Y-87145142D01*
X174167031Y-87152583D01*
X174153946Y-87158772D01*
X174140317Y-87163649D01*
X174126276Y-87167166D01*
X174111958Y-87169290D01*
X174097500Y-87170000D01*
X173802500Y-87170000D01*
X173788042Y-87169290D01*
X173773724Y-87167166D01*
X173759683Y-87163649D01*
X173746054Y-87158772D01*
X173732969Y-87152583D01*
X173720553Y-87145142D01*
X173708927Y-87136519D01*
X173698202Y-87126798D01*
X173688481Y-87116073D01*
X173679858Y-87104447D01*
X173672417Y-87092031D01*
X173666228Y-87078946D01*
X173661351Y-87065317D01*
X173657834Y-87051276D01*
X173655710Y-87036958D01*
X173655000Y-87022500D01*
X173655000Y-86677500D01*
X173655710Y-86663042D01*
X173657834Y-86648724D01*
X173661351Y-86634683D01*
X173666228Y-86621054D01*
X173672417Y-86607969D01*
X173679858Y-86595553D01*
X173688481Y-86583927D01*
X173698202Y-86573202D01*
X173708927Y-86563481D01*
X173720553Y-86554858D01*
X173732969Y-86547417D01*
X173746054Y-86541228D01*
X173759683Y-86536351D01*
X173773724Y-86532834D01*
X173788042Y-86530710D01*
X173802500Y-86530000D01*
X174097500Y-86530000D01*
X174111958Y-86530710D01*
X174111958Y-86530710D01*
G37*
D13*
X173950000Y-86850000D03*
D12*
G36*
X173141958Y-86530710D02*
X173156276Y-86532834D01*
X173170317Y-86536351D01*
X173183946Y-86541228D01*
X173197031Y-86547417D01*
X173209447Y-86554858D01*
X173221073Y-86563481D01*
X173231798Y-86573202D01*
X173241519Y-86583927D01*
X173250142Y-86595553D01*
X173257583Y-86607969D01*
X173263772Y-86621054D01*
X173268649Y-86634683D01*
X173272166Y-86648724D01*
X173274290Y-86663042D01*
X173275000Y-86677500D01*
X173275000Y-87022500D01*
X173274290Y-87036958D01*
X173272166Y-87051276D01*
X173268649Y-87065317D01*
X173263772Y-87078946D01*
X173257583Y-87092031D01*
X173250142Y-87104447D01*
X173241519Y-87116073D01*
X173231798Y-87126798D01*
X173221073Y-87136519D01*
X173209447Y-87145142D01*
X173197031Y-87152583D01*
X173183946Y-87158772D01*
X173170317Y-87163649D01*
X173156276Y-87167166D01*
X173141958Y-87169290D01*
X173127500Y-87170000D01*
X172832500Y-87170000D01*
X172818042Y-87169290D01*
X172803724Y-87167166D01*
X172789683Y-87163649D01*
X172776054Y-87158772D01*
X172762969Y-87152583D01*
X172750553Y-87145142D01*
X172738927Y-87136519D01*
X172728202Y-87126798D01*
X172718481Y-87116073D01*
X172709858Y-87104447D01*
X172702417Y-87092031D01*
X172696228Y-87078946D01*
X172691351Y-87065317D01*
X172687834Y-87051276D01*
X172685710Y-87036958D01*
X172685000Y-87022500D01*
X172685000Y-86677500D01*
X172685710Y-86663042D01*
X172687834Y-86648724D01*
X172691351Y-86634683D01*
X172696228Y-86621054D01*
X172702417Y-86607969D01*
X172709858Y-86595553D01*
X172718481Y-86583927D01*
X172728202Y-86573202D01*
X172738927Y-86563481D01*
X172750553Y-86554858D01*
X172762969Y-86547417D01*
X172776054Y-86541228D01*
X172789683Y-86536351D01*
X172803724Y-86532834D01*
X172818042Y-86530710D01*
X172832500Y-86530000D01*
X173127500Y-86530000D01*
X173141958Y-86530710D01*
X173141958Y-86530710D01*
G37*
D13*
X172980000Y-86850000D03*
G04 #@! TD*
D12*
G04 #@! TO.C,C6*
G36*
X175086958Y-86605710D02*
X175101276Y-86607834D01*
X175115317Y-86611351D01*
X175128946Y-86616228D01*
X175142031Y-86622417D01*
X175154447Y-86629858D01*
X175166073Y-86638481D01*
X175176798Y-86648202D01*
X175186519Y-86658927D01*
X175195142Y-86670553D01*
X175202583Y-86682969D01*
X175208772Y-86696054D01*
X175213649Y-86709683D01*
X175217166Y-86723724D01*
X175219290Y-86738042D01*
X175220000Y-86752500D01*
X175220000Y-87047500D01*
X175219290Y-87061958D01*
X175217166Y-87076276D01*
X175213649Y-87090317D01*
X175208772Y-87103946D01*
X175202583Y-87117031D01*
X175195142Y-87129447D01*
X175186519Y-87141073D01*
X175176798Y-87151798D01*
X175166073Y-87161519D01*
X175154447Y-87170142D01*
X175142031Y-87177583D01*
X175128946Y-87183772D01*
X175115317Y-87188649D01*
X175101276Y-87192166D01*
X175086958Y-87194290D01*
X175072500Y-87195000D01*
X174727500Y-87195000D01*
X174713042Y-87194290D01*
X174698724Y-87192166D01*
X174684683Y-87188649D01*
X174671054Y-87183772D01*
X174657969Y-87177583D01*
X174645553Y-87170142D01*
X174633927Y-87161519D01*
X174623202Y-87151798D01*
X174613481Y-87141073D01*
X174604858Y-87129447D01*
X174597417Y-87117031D01*
X174591228Y-87103946D01*
X174586351Y-87090317D01*
X174582834Y-87076276D01*
X174580710Y-87061958D01*
X174580000Y-87047500D01*
X174580000Y-86752500D01*
X174580710Y-86738042D01*
X174582834Y-86723724D01*
X174586351Y-86709683D01*
X174591228Y-86696054D01*
X174597417Y-86682969D01*
X174604858Y-86670553D01*
X174613481Y-86658927D01*
X174623202Y-86648202D01*
X174633927Y-86638481D01*
X174645553Y-86629858D01*
X174657969Y-86622417D01*
X174671054Y-86616228D01*
X174684683Y-86611351D01*
X174698724Y-86607834D01*
X174713042Y-86605710D01*
X174727500Y-86605000D01*
X175072500Y-86605000D01*
X175086958Y-86605710D01*
X175086958Y-86605710D01*
G37*
D13*
X174900000Y-86900000D03*
D12*
G36*
X175086958Y-85635710D02*
X175101276Y-85637834D01*
X175115317Y-85641351D01*
X175128946Y-85646228D01*
X175142031Y-85652417D01*
X175154447Y-85659858D01*
X175166073Y-85668481D01*
X175176798Y-85678202D01*
X175186519Y-85688927D01*
X175195142Y-85700553D01*
X175202583Y-85712969D01*
X175208772Y-85726054D01*
X175213649Y-85739683D01*
X175217166Y-85753724D01*
X175219290Y-85768042D01*
X175220000Y-85782500D01*
X175220000Y-86077500D01*
X175219290Y-86091958D01*
X175217166Y-86106276D01*
X175213649Y-86120317D01*
X175208772Y-86133946D01*
X175202583Y-86147031D01*
X175195142Y-86159447D01*
X175186519Y-86171073D01*
X175176798Y-86181798D01*
X175166073Y-86191519D01*
X175154447Y-86200142D01*
X175142031Y-86207583D01*
X175128946Y-86213772D01*
X175115317Y-86218649D01*
X175101276Y-86222166D01*
X175086958Y-86224290D01*
X175072500Y-86225000D01*
X174727500Y-86225000D01*
X174713042Y-86224290D01*
X174698724Y-86222166D01*
X174684683Y-86218649D01*
X174671054Y-86213772D01*
X174657969Y-86207583D01*
X174645553Y-86200142D01*
X174633927Y-86191519D01*
X174623202Y-86181798D01*
X174613481Y-86171073D01*
X174604858Y-86159447D01*
X174597417Y-86147031D01*
X174591228Y-86133946D01*
X174586351Y-86120317D01*
X174582834Y-86106276D01*
X174580710Y-86091958D01*
X174580000Y-86077500D01*
X174580000Y-85782500D01*
X174580710Y-85768042D01*
X174582834Y-85753724D01*
X174586351Y-85739683D01*
X174591228Y-85726054D01*
X174597417Y-85712969D01*
X174604858Y-85700553D01*
X174613481Y-85688927D01*
X174623202Y-85678202D01*
X174633927Y-85668481D01*
X174645553Y-85659858D01*
X174657969Y-85652417D01*
X174671054Y-85646228D01*
X174684683Y-85641351D01*
X174698724Y-85637834D01*
X174713042Y-85635710D01*
X174727500Y-85635000D01*
X175072500Y-85635000D01*
X175086958Y-85635710D01*
X175086958Y-85635710D01*
G37*
D13*
X174900000Y-85930000D03*
G04 #@! TD*
D12*
G04 #@! TO.C,R1*
G36*
X175861958Y-68830710D02*
X175876276Y-68832834D01*
X175890317Y-68836351D01*
X175903946Y-68841228D01*
X175917031Y-68847417D01*
X175929447Y-68854858D01*
X175941073Y-68863481D01*
X175951798Y-68873202D01*
X175961519Y-68883927D01*
X175970142Y-68895553D01*
X175977583Y-68907969D01*
X175983772Y-68921054D01*
X175988649Y-68934683D01*
X175992166Y-68948724D01*
X175994290Y-68963042D01*
X175995000Y-68977500D01*
X175995000Y-69322500D01*
X175994290Y-69336958D01*
X175992166Y-69351276D01*
X175988649Y-69365317D01*
X175983772Y-69378946D01*
X175977583Y-69392031D01*
X175970142Y-69404447D01*
X175961519Y-69416073D01*
X175951798Y-69426798D01*
X175941073Y-69436519D01*
X175929447Y-69445142D01*
X175917031Y-69452583D01*
X175903946Y-69458772D01*
X175890317Y-69463649D01*
X175876276Y-69467166D01*
X175861958Y-69469290D01*
X175847500Y-69470000D01*
X175552500Y-69470000D01*
X175538042Y-69469290D01*
X175523724Y-69467166D01*
X175509683Y-69463649D01*
X175496054Y-69458772D01*
X175482969Y-69452583D01*
X175470553Y-69445142D01*
X175458927Y-69436519D01*
X175448202Y-69426798D01*
X175438481Y-69416073D01*
X175429858Y-69404447D01*
X175422417Y-69392031D01*
X175416228Y-69378946D01*
X175411351Y-69365317D01*
X175407834Y-69351276D01*
X175405710Y-69336958D01*
X175405000Y-69322500D01*
X175405000Y-68977500D01*
X175405710Y-68963042D01*
X175407834Y-68948724D01*
X175411351Y-68934683D01*
X175416228Y-68921054D01*
X175422417Y-68907969D01*
X175429858Y-68895553D01*
X175438481Y-68883927D01*
X175448202Y-68873202D01*
X175458927Y-68863481D01*
X175470553Y-68854858D01*
X175482969Y-68847417D01*
X175496054Y-68841228D01*
X175509683Y-68836351D01*
X175523724Y-68832834D01*
X175538042Y-68830710D01*
X175552500Y-68830000D01*
X175847500Y-68830000D01*
X175861958Y-68830710D01*
X175861958Y-68830710D01*
G37*
D13*
X175700000Y-69150000D03*
D12*
G36*
X174891958Y-68830710D02*
X174906276Y-68832834D01*
X174920317Y-68836351D01*
X174933946Y-68841228D01*
X174947031Y-68847417D01*
X174959447Y-68854858D01*
X174971073Y-68863481D01*
X174981798Y-68873202D01*
X174991519Y-68883927D01*
X175000142Y-68895553D01*
X175007583Y-68907969D01*
X175013772Y-68921054D01*
X175018649Y-68934683D01*
X175022166Y-68948724D01*
X175024290Y-68963042D01*
X175025000Y-68977500D01*
X175025000Y-69322500D01*
X175024290Y-69336958D01*
X175022166Y-69351276D01*
X175018649Y-69365317D01*
X175013772Y-69378946D01*
X175007583Y-69392031D01*
X175000142Y-69404447D01*
X174991519Y-69416073D01*
X174981798Y-69426798D01*
X174971073Y-69436519D01*
X174959447Y-69445142D01*
X174947031Y-69452583D01*
X174933946Y-69458772D01*
X174920317Y-69463649D01*
X174906276Y-69467166D01*
X174891958Y-69469290D01*
X174877500Y-69470000D01*
X174582500Y-69470000D01*
X174568042Y-69469290D01*
X174553724Y-69467166D01*
X174539683Y-69463649D01*
X174526054Y-69458772D01*
X174512969Y-69452583D01*
X174500553Y-69445142D01*
X174488927Y-69436519D01*
X174478202Y-69426798D01*
X174468481Y-69416073D01*
X174459858Y-69404447D01*
X174452417Y-69392031D01*
X174446228Y-69378946D01*
X174441351Y-69365317D01*
X174437834Y-69351276D01*
X174435710Y-69336958D01*
X174435000Y-69322500D01*
X174435000Y-68977500D01*
X174435710Y-68963042D01*
X174437834Y-68948724D01*
X174441351Y-68934683D01*
X174446228Y-68921054D01*
X174452417Y-68907969D01*
X174459858Y-68895553D01*
X174468481Y-68883927D01*
X174478202Y-68873202D01*
X174488927Y-68863481D01*
X174500553Y-68854858D01*
X174512969Y-68847417D01*
X174526054Y-68841228D01*
X174539683Y-68836351D01*
X174553724Y-68832834D01*
X174568042Y-68830710D01*
X174582500Y-68830000D01*
X174877500Y-68830000D01*
X174891958Y-68830710D01*
X174891958Y-68830710D01*
G37*
D13*
X174730000Y-69150000D03*
G04 #@! TD*
D12*
G04 #@! TO.C,R2*
G36*
X174961958Y-71880710D02*
X174976276Y-71882834D01*
X174990317Y-71886351D01*
X175003946Y-71891228D01*
X175017031Y-71897417D01*
X175029447Y-71904858D01*
X175041073Y-71913481D01*
X175051798Y-71923202D01*
X175061519Y-71933927D01*
X175070142Y-71945553D01*
X175077583Y-71957969D01*
X175083772Y-71971054D01*
X175088649Y-71984683D01*
X175092166Y-71998724D01*
X175094290Y-72013042D01*
X175095000Y-72027500D01*
X175095000Y-72372500D01*
X175094290Y-72386958D01*
X175092166Y-72401276D01*
X175088649Y-72415317D01*
X175083772Y-72428946D01*
X175077583Y-72442031D01*
X175070142Y-72454447D01*
X175061519Y-72466073D01*
X175051798Y-72476798D01*
X175041073Y-72486519D01*
X175029447Y-72495142D01*
X175017031Y-72502583D01*
X175003946Y-72508772D01*
X174990317Y-72513649D01*
X174976276Y-72517166D01*
X174961958Y-72519290D01*
X174947500Y-72520000D01*
X174652500Y-72520000D01*
X174638042Y-72519290D01*
X174623724Y-72517166D01*
X174609683Y-72513649D01*
X174596054Y-72508772D01*
X174582969Y-72502583D01*
X174570553Y-72495142D01*
X174558927Y-72486519D01*
X174548202Y-72476798D01*
X174538481Y-72466073D01*
X174529858Y-72454447D01*
X174522417Y-72442031D01*
X174516228Y-72428946D01*
X174511351Y-72415317D01*
X174507834Y-72401276D01*
X174505710Y-72386958D01*
X174505000Y-72372500D01*
X174505000Y-72027500D01*
X174505710Y-72013042D01*
X174507834Y-71998724D01*
X174511351Y-71984683D01*
X174516228Y-71971054D01*
X174522417Y-71957969D01*
X174529858Y-71945553D01*
X174538481Y-71933927D01*
X174548202Y-71923202D01*
X174558927Y-71913481D01*
X174570553Y-71904858D01*
X174582969Y-71897417D01*
X174596054Y-71891228D01*
X174609683Y-71886351D01*
X174623724Y-71882834D01*
X174638042Y-71880710D01*
X174652500Y-71880000D01*
X174947500Y-71880000D01*
X174961958Y-71880710D01*
X174961958Y-71880710D01*
G37*
D13*
X174800000Y-72200000D03*
D12*
G36*
X175931958Y-71880710D02*
X175946276Y-71882834D01*
X175960317Y-71886351D01*
X175973946Y-71891228D01*
X175987031Y-71897417D01*
X175999447Y-71904858D01*
X176011073Y-71913481D01*
X176021798Y-71923202D01*
X176031519Y-71933927D01*
X176040142Y-71945553D01*
X176047583Y-71957969D01*
X176053772Y-71971054D01*
X176058649Y-71984683D01*
X176062166Y-71998724D01*
X176064290Y-72013042D01*
X176065000Y-72027500D01*
X176065000Y-72372500D01*
X176064290Y-72386958D01*
X176062166Y-72401276D01*
X176058649Y-72415317D01*
X176053772Y-72428946D01*
X176047583Y-72442031D01*
X176040142Y-72454447D01*
X176031519Y-72466073D01*
X176021798Y-72476798D01*
X176011073Y-72486519D01*
X175999447Y-72495142D01*
X175987031Y-72502583D01*
X175973946Y-72508772D01*
X175960317Y-72513649D01*
X175946276Y-72517166D01*
X175931958Y-72519290D01*
X175917500Y-72520000D01*
X175622500Y-72520000D01*
X175608042Y-72519290D01*
X175593724Y-72517166D01*
X175579683Y-72513649D01*
X175566054Y-72508772D01*
X175552969Y-72502583D01*
X175540553Y-72495142D01*
X175528927Y-72486519D01*
X175518202Y-72476798D01*
X175508481Y-72466073D01*
X175499858Y-72454447D01*
X175492417Y-72442031D01*
X175486228Y-72428946D01*
X175481351Y-72415317D01*
X175477834Y-72401276D01*
X175475710Y-72386958D01*
X175475000Y-72372500D01*
X175475000Y-72027500D01*
X175475710Y-72013042D01*
X175477834Y-71998724D01*
X175481351Y-71984683D01*
X175486228Y-71971054D01*
X175492417Y-71957969D01*
X175499858Y-71945553D01*
X175508481Y-71933927D01*
X175518202Y-71923202D01*
X175528927Y-71913481D01*
X175540553Y-71904858D01*
X175552969Y-71897417D01*
X175566054Y-71891228D01*
X175579683Y-71886351D01*
X175593724Y-71882834D01*
X175608042Y-71880710D01*
X175622500Y-71880000D01*
X175917500Y-71880000D01*
X175931958Y-71880710D01*
X175931958Y-71880710D01*
G37*
D13*
X175770000Y-72200000D03*
G04 #@! TD*
D14*
G04 #@! TO.C,RN1*
X175400000Y-74400000D03*
D15*
X174900000Y-74400000D03*
D14*
X173900000Y-74400000D03*
D15*
X174400000Y-74400000D03*
D14*
X175400000Y-75400000D03*
D15*
X174400000Y-75400000D03*
X174900000Y-75400000D03*
D14*
X173900000Y-75400000D03*
G04 #@! TD*
D12*
G04 #@! TO.C,C7*
G36*
X169899505Y-72801204D02*
X169923773Y-72804804D01*
X169947572Y-72810765D01*
X169970671Y-72819030D01*
X169992850Y-72829520D01*
X170013893Y-72842132D01*
X170033599Y-72856747D01*
X170051777Y-72873223D01*
X170068253Y-72891401D01*
X170082868Y-72911107D01*
X170095480Y-72932150D01*
X170105970Y-72954329D01*
X170114235Y-72977428D01*
X170120196Y-73001227D01*
X170123796Y-73025495D01*
X170125000Y-73049999D01*
X170125000Y-73950001D01*
X170123796Y-73974505D01*
X170120196Y-73998773D01*
X170114235Y-74022572D01*
X170105970Y-74045671D01*
X170095480Y-74067850D01*
X170082868Y-74088893D01*
X170068253Y-74108599D01*
X170051777Y-74126777D01*
X170033599Y-74143253D01*
X170013893Y-74157868D01*
X169992850Y-74170480D01*
X169970671Y-74180970D01*
X169947572Y-74189235D01*
X169923773Y-74195196D01*
X169899505Y-74198796D01*
X169875001Y-74200000D01*
X169224999Y-74200000D01*
X169200495Y-74198796D01*
X169176227Y-74195196D01*
X169152428Y-74189235D01*
X169129329Y-74180970D01*
X169107150Y-74170480D01*
X169086107Y-74157868D01*
X169066401Y-74143253D01*
X169048223Y-74126777D01*
X169031747Y-74108599D01*
X169017132Y-74088893D01*
X169004520Y-74067850D01*
X168994030Y-74045671D01*
X168985765Y-74022572D01*
X168979804Y-73998773D01*
X168976204Y-73974505D01*
X168975000Y-73950001D01*
X168975000Y-73049999D01*
X168976204Y-73025495D01*
X168979804Y-73001227D01*
X168985765Y-72977428D01*
X168994030Y-72954329D01*
X169004520Y-72932150D01*
X169017132Y-72911107D01*
X169031747Y-72891401D01*
X169048223Y-72873223D01*
X169066401Y-72856747D01*
X169086107Y-72842132D01*
X169107150Y-72829520D01*
X169129329Y-72819030D01*
X169152428Y-72810765D01*
X169176227Y-72804804D01*
X169200495Y-72801204D01*
X169224999Y-72800000D01*
X169875001Y-72800000D01*
X169899505Y-72801204D01*
X169899505Y-72801204D01*
G37*
D16*
X169550000Y-73500000D03*
D12*
G36*
X171949505Y-72801204D02*
X171973773Y-72804804D01*
X171997572Y-72810765D01*
X172020671Y-72819030D01*
X172042850Y-72829520D01*
X172063893Y-72842132D01*
X172083599Y-72856747D01*
X172101777Y-72873223D01*
X172118253Y-72891401D01*
X172132868Y-72911107D01*
X172145480Y-72932150D01*
X172155970Y-72954329D01*
X172164235Y-72977428D01*
X172170196Y-73001227D01*
X172173796Y-73025495D01*
X172175000Y-73049999D01*
X172175000Y-73950001D01*
X172173796Y-73974505D01*
X172170196Y-73998773D01*
X172164235Y-74022572D01*
X172155970Y-74045671D01*
X172145480Y-74067850D01*
X172132868Y-74088893D01*
X172118253Y-74108599D01*
X172101777Y-74126777D01*
X172083599Y-74143253D01*
X172063893Y-74157868D01*
X172042850Y-74170480D01*
X172020671Y-74180970D01*
X171997572Y-74189235D01*
X171973773Y-74195196D01*
X171949505Y-74198796D01*
X171925001Y-74200000D01*
X171274999Y-74200000D01*
X171250495Y-74198796D01*
X171226227Y-74195196D01*
X171202428Y-74189235D01*
X171179329Y-74180970D01*
X171157150Y-74170480D01*
X171136107Y-74157868D01*
X171116401Y-74143253D01*
X171098223Y-74126777D01*
X171081747Y-74108599D01*
X171067132Y-74088893D01*
X171054520Y-74067850D01*
X171044030Y-74045671D01*
X171035765Y-74022572D01*
X171029804Y-73998773D01*
X171026204Y-73974505D01*
X171025000Y-73950001D01*
X171025000Y-73049999D01*
X171026204Y-73025495D01*
X171029804Y-73001227D01*
X171035765Y-72977428D01*
X171044030Y-72954329D01*
X171054520Y-72932150D01*
X171067132Y-72911107D01*
X171081747Y-72891401D01*
X171098223Y-72873223D01*
X171116401Y-72856747D01*
X171136107Y-72842132D01*
X171157150Y-72829520D01*
X171179329Y-72819030D01*
X171202428Y-72810765D01*
X171226227Y-72804804D01*
X171250495Y-72801204D01*
X171274999Y-72800000D01*
X171925001Y-72800000D01*
X171949505Y-72801204D01*
X171949505Y-72801204D01*
G37*
D16*
X171600000Y-73500000D03*
G04 #@! TD*
D17*
G04 #@! TO.C,D1*
X173550000Y-70700000D03*
X175650000Y-70700000D03*
G04 #@! TD*
D18*
G04 #@! TO.C,U1*
X171400000Y-71500000D03*
X171400000Y-71000000D03*
X171400000Y-70500000D03*
X171400000Y-70000000D03*
X171400000Y-69500000D03*
X167000000Y-69500000D03*
X167000000Y-70000000D03*
X167000000Y-70500000D03*
X167000000Y-71000000D03*
X167000000Y-71500000D03*
G04 #@! TD*
D19*
G04 #@! TO.C,U2*
X166344365Y-77894975D03*
D12*
G36*
X166185266Y-78266206D02*
X165973134Y-78054074D01*
X166503464Y-77523744D01*
X166715596Y-77735876D01*
X166185266Y-78266206D01*
X166185266Y-78266206D01*
G37*
D19*
X166697918Y-78248528D03*
D12*
G36*
X166538819Y-78619759D02*
X166326687Y-78407627D01*
X166857017Y-77877297D01*
X167069149Y-78089429D01*
X166538819Y-78619759D01*
X166538819Y-78619759D01*
G37*
D19*
X167051472Y-78602082D03*
D12*
G36*
X166892373Y-78973313D02*
X166680241Y-78761181D01*
X167210571Y-78230851D01*
X167422703Y-78442983D01*
X166892373Y-78973313D01*
X166892373Y-78973313D01*
G37*
D19*
X167405025Y-78955635D03*
D12*
G36*
X167245926Y-79326866D02*
X167033794Y-79114734D01*
X167564124Y-78584404D01*
X167776256Y-78796536D01*
X167245926Y-79326866D01*
X167245926Y-79326866D01*
G37*
D19*
X169455635Y-76905025D03*
D12*
G36*
X169296536Y-77276256D02*
X169084404Y-77064124D01*
X169614734Y-76533794D01*
X169826866Y-76745926D01*
X169296536Y-77276256D01*
X169296536Y-77276256D01*
G37*
D19*
X169102082Y-76551472D03*
D12*
G36*
X168942983Y-76922703D02*
X168730851Y-76710571D01*
X169261181Y-76180241D01*
X169473313Y-76392373D01*
X168942983Y-76922703D01*
X168942983Y-76922703D01*
G37*
D19*
X168748528Y-76197918D03*
D12*
G36*
X168589429Y-76569149D02*
X168377297Y-76357017D01*
X168907627Y-75826687D01*
X169119759Y-76038819D01*
X168589429Y-76569149D01*
X168589429Y-76569149D01*
G37*
D19*
X168394975Y-75844365D03*
D12*
G36*
X168235876Y-76215596D02*
X168023744Y-76003464D01*
X168554074Y-75473134D01*
X168766206Y-75685266D01*
X168235876Y-76215596D01*
X168235876Y-76215596D01*
G37*
D20*
X167846967Y-77965685D03*
D12*
G36*
X167801005Y-78421769D02*
X167390883Y-78011647D01*
X167892929Y-77509601D01*
X168303051Y-77919723D01*
X167801005Y-78421769D01*
X167801005Y-78421769D01*
G37*
D20*
X168465685Y-77346967D03*
D12*
G36*
X168419723Y-77803051D02*
X168009601Y-77392929D01*
X168511647Y-76890883D01*
X168921769Y-77301005D01*
X168419723Y-77803051D01*
X168419723Y-77803051D01*
G37*
D20*
X167953033Y-76834315D03*
D12*
G36*
X167907071Y-77290399D02*
X167496949Y-76880277D01*
X167998995Y-76378231D01*
X168409117Y-76788353D01*
X167907071Y-77290399D01*
X167907071Y-77290399D01*
G37*
D20*
X167334315Y-77453033D03*
D12*
G36*
X167288353Y-77909117D02*
X166878231Y-77498995D01*
X167380277Y-76996949D01*
X167790399Y-77407071D01*
X167288353Y-77909117D01*
X167288353Y-77909117D01*
G37*
G04 #@! TD*
G04 #@! TO.C,U3*
G36*
X171372789Y-82366161D02*
X171395358Y-82369508D01*
X171417491Y-82375052D01*
X171438974Y-82382739D01*
X171459600Y-82392494D01*
X171479170Y-82404224D01*
X171497496Y-82417816D01*
X171514402Y-82433139D01*
X171843207Y-82761944D01*
X171858530Y-82778850D01*
X171872122Y-82797176D01*
X171883852Y-82816746D01*
X171893607Y-82837372D01*
X171901294Y-82858855D01*
X171906838Y-82880988D01*
X171910185Y-82903557D01*
X171911305Y-82926346D01*
X171910185Y-82949135D01*
X171906838Y-82971704D01*
X171901294Y-82993837D01*
X171893607Y-83015320D01*
X171883852Y-83035946D01*
X171872122Y-83055516D01*
X171858530Y-83073842D01*
X171843207Y-83090748D01*
X171514402Y-83419553D01*
X171497496Y-83434876D01*
X171479170Y-83448468D01*
X171459600Y-83460198D01*
X171438974Y-83469953D01*
X171417491Y-83477640D01*
X171395358Y-83483184D01*
X171372789Y-83486531D01*
X171350000Y-83487651D01*
X171327211Y-83486531D01*
X171304642Y-83483184D01*
X171282509Y-83477640D01*
X171261026Y-83469953D01*
X171240400Y-83460198D01*
X171220830Y-83448468D01*
X171202504Y-83434876D01*
X171185598Y-83419553D01*
X170856793Y-83090748D01*
X170841470Y-83073842D01*
X170827878Y-83055516D01*
X170816148Y-83035946D01*
X170806393Y-83015320D01*
X170798706Y-82993837D01*
X170793162Y-82971704D01*
X170789815Y-82949135D01*
X170788695Y-82926346D01*
X170789815Y-82903557D01*
X170793162Y-82880988D01*
X170798706Y-82858855D01*
X170806393Y-82837372D01*
X170816148Y-82816746D01*
X170827878Y-82797176D01*
X170841470Y-82778850D01*
X170856793Y-82761944D01*
X171185598Y-82433139D01*
X171202504Y-82417816D01*
X171220830Y-82404224D01*
X171240400Y-82392494D01*
X171261026Y-82382739D01*
X171282509Y-82375052D01*
X171304642Y-82369508D01*
X171327211Y-82366161D01*
X171350000Y-82365041D01*
X171372789Y-82366161D01*
X171372789Y-82366161D01*
G37*
D21*
X171350000Y-82926346D03*
D12*
G36*
X172185962Y-81552988D02*
X172208531Y-81556335D01*
X172230664Y-81561879D01*
X172252147Y-81569566D01*
X172272773Y-81579321D01*
X172292343Y-81591051D01*
X172310669Y-81604643D01*
X172327575Y-81619966D01*
X172656380Y-81948771D01*
X172671703Y-81965677D01*
X172685295Y-81984003D01*
X172697025Y-82003573D01*
X172706780Y-82024199D01*
X172714467Y-82045682D01*
X172720011Y-82067815D01*
X172723358Y-82090384D01*
X172724478Y-82113173D01*
X172723358Y-82135962D01*
X172720011Y-82158531D01*
X172714467Y-82180664D01*
X172706780Y-82202147D01*
X172697025Y-82222773D01*
X172685295Y-82242343D01*
X172671703Y-82260669D01*
X172656380Y-82277575D01*
X172327575Y-82606380D01*
X172310669Y-82621703D01*
X172292343Y-82635295D01*
X172272773Y-82647025D01*
X172252147Y-82656780D01*
X172230664Y-82664467D01*
X172208531Y-82670011D01*
X172185962Y-82673358D01*
X172163173Y-82674478D01*
X172140384Y-82673358D01*
X172117815Y-82670011D01*
X172095682Y-82664467D01*
X172074199Y-82656780D01*
X172053573Y-82647025D01*
X172034003Y-82635295D01*
X172015677Y-82621703D01*
X171998771Y-82606380D01*
X171669966Y-82277575D01*
X171654643Y-82260669D01*
X171641051Y-82242343D01*
X171629321Y-82222773D01*
X171619566Y-82202147D01*
X171611879Y-82180664D01*
X171606335Y-82158531D01*
X171602988Y-82135962D01*
X171601868Y-82113173D01*
X171602988Y-82090384D01*
X171606335Y-82067815D01*
X171611879Y-82045682D01*
X171619566Y-82024199D01*
X171629321Y-82003573D01*
X171641051Y-81984003D01*
X171654643Y-81965677D01*
X171669966Y-81948771D01*
X171998771Y-81619966D01*
X172015677Y-81604643D01*
X172034003Y-81591051D01*
X172053573Y-81579321D01*
X172074199Y-81569566D01*
X172095682Y-81561879D01*
X172117815Y-81556335D01*
X172140384Y-81552988D01*
X172163173Y-81551868D01*
X172185962Y-81552988D01*
X172185962Y-81552988D01*
G37*
D21*
X172163173Y-82113173D03*
D12*
G36*
X172999135Y-80739815D02*
X173021704Y-80743162D01*
X173043837Y-80748706D01*
X173065320Y-80756393D01*
X173085946Y-80766148D01*
X173105516Y-80777878D01*
X173123842Y-80791470D01*
X173140748Y-80806793D01*
X173469553Y-81135598D01*
X173484876Y-81152504D01*
X173498468Y-81170830D01*
X173510198Y-81190400D01*
X173519953Y-81211026D01*
X173527640Y-81232509D01*
X173533184Y-81254642D01*
X173536531Y-81277211D01*
X173537651Y-81300000D01*
X173536531Y-81322789D01*
X173533184Y-81345358D01*
X173527640Y-81367491D01*
X173519953Y-81388974D01*
X173510198Y-81409600D01*
X173498468Y-81429170D01*
X173484876Y-81447496D01*
X173469553Y-81464402D01*
X173140748Y-81793207D01*
X173123842Y-81808530D01*
X173105516Y-81822122D01*
X173085946Y-81833852D01*
X173065320Y-81843607D01*
X173043837Y-81851294D01*
X173021704Y-81856838D01*
X172999135Y-81860185D01*
X172976346Y-81861305D01*
X172953557Y-81860185D01*
X172930988Y-81856838D01*
X172908855Y-81851294D01*
X172887372Y-81843607D01*
X172866746Y-81833852D01*
X172847176Y-81822122D01*
X172828850Y-81808530D01*
X172811944Y-81793207D01*
X172483139Y-81464402D01*
X172467816Y-81447496D01*
X172454224Y-81429170D01*
X172442494Y-81409600D01*
X172432739Y-81388974D01*
X172425052Y-81367491D01*
X172419508Y-81345358D01*
X172416161Y-81322789D01*
X172415041Y-81300000D01*
X172416161Y-81277211D01*
X172419508Y-81254642D01*
X172425052Y-81232509D01*
X172432739Y-81211026D01*
X172442494Y-81190400D01*
X172454224Y-81170830D01*
X172467816Y-81152504D01*
X172483139Y-81135598D01*
X172811944Y-80806793D01*
X172828850Y-80791470D01*
X172847176Y-80777878D01*
X172866746Y-80766148D01*
X172887372Y-80756393D01*
X172908855Y-80748706D01*
X172930988Y-80743162D01*
X172953557Y-80739815D01*
X172976346Y-80738695D01*
X172999135Y-80739815D01*
X172999135Y-80739815D01*
G37*
D21*
X172976346Y-81300000D03*
D12*
G36*
X170559616Y-81552988D02*
X170582185Y-81556335D01*
X170604318Y-81561879D01*
X170625801Y-81569566D01*
X170646427Y-81579321D01*
X170665997Y-81591051D01*
X170684323Y-81604643D01*
X170701229Y-81619966D01*
X171030034Y-81948771D01*
X171045357Y-81965677D01*
X171058949Y-81984003D01*
X171070679Y-82003573D01*
X171080434Y-82024199D01*
X171088121Y-82045682D01*
X171093665Y-82067815D01*
X171097012Y-82090384D01*
X171098132Y-82113173D01*
X171097012Y-82135962D01*
X171093665Y-82158531D01*
X171088121Y-82180664D01*
X171080434Y-82202147D01*
X171070679Y-82222773D01*
X171058949Y-82242343D01*
X171045357Y-82260669D01*
X171030034Y-82277575D01*
X170701229Y-82606380D01*
X170684323Y-82621703D01*
X170665997Y-82635295D01*
X170646427Y-82647025D01*
X170625801Y-82656780D01*
X170604318Y-82664467D01*
X170582185Y-82670011D01*
X170559616Y-82673358D01*
X170536827Y-82674478D01*
X170514038Y-82673358D01*
X170491469Y-82670011D01*
X170469336Y-82664467D01*
X170447853Y-82656780D01*
X170427227Y-82647025D01*
X170407657Y-82635295D01*
X170389331Y-82621703D01*
X170372425Y-82606380D01*
X170043620Y-82277575D01*
X170028297Y-82260669D01*
X170014705Y-82242343D01*
X170002975Y-82222773D01*
X169993220Y-82202147D01*
X169985533Y-82180664D01*
X169979989Y-82158531D01*
X169976642Y-82135962D01*
X169975522Y-82113173D01*
X169976642Y-82090384D01*
X169979989Y-82067815D01*
X169985533Y-82045682D01*
X169993220Y-82024199D01*
X170002975Y-82003573D01*
X170014705Y-81984003D01*
X170028297Y-81965677D01*
X170043620Y-81948771D01*
X170372425Y-81619966D01*
X170389331Y-81604643D01*
X170407657Y-81591051D01*
X170427227Y-81579321D01*
X170447853Y-81569566D01*
X170469336Y-81561879D01*
X170491469Y-81556335D01*
X170514038Y-81552988D01*
X170536827Y-81551868D01*
X170559616Y-81552988D01*
X170559616Y-81552988D01*
G37*
D21*
X170536827Y-82113173D03*
D12*
G36*
X171372789Y-80739815D02*
X171395358Y-80743162D01*
X171417491Y-80748706D01*
X171438974Y-80756393D01*
X171459600Y-80766148D01*
X171479170Y-80777878D01*
X171497496Y-80791470D01*
X171514402Y-80806793D01*
X171843207Y-81135598D01*
X171858530Y-81152504D01*
X171872122Y-81170830D01*
X171883852Y-81190400D01*
X171893607Y-81211026D01*
X171901294Y-81232509D01*
X171906838Y-81254642D01*
X171910185Y-81277211D01*
X171911305Y-81300000D01*
X171910185Y-81322789D01*
X171906838Y-81345358D01*
X171901294Y-81367491D01*
X171893607Y-81388974D01*
X171883852Y-81409600D01*
X171872122Y-81429170D01*
X171858530Y-81447496D01*
X171843207Y-81464402D01*
X171514402Y-81793207D01*
X171497496Y-81808530D01*
X171479170Y-81822122D01*
X171459600Y-81833852D01*
X171438974Y-81843607D01*
X171417491Y-81851294D01*
X171395358Y-81856838D01*
X171372789Y-81860185D01*
X171350000Y-81861305D01*
X171327211Y-81860185D01*
X171304642Y-81856838D01*
X171282509Y-81851294D01*
X171261026Y-81843607D01*
X171240400Y-81833852D01*
X171220830Y-81822122D01*
X171202504Y-81808530D01*
X171185598Y-81793207D01*
X170856793Y-81464402D01*
X170841470Y-81447496D01*
X170827878Y-81429170D01*
X170816148Y-81409600D01*
X170806393Y-81388974D01*
X170798706Y-81367491D01*
X170793162Y-81345358D01*
X170789815Y-81322789D01*
X170788695Y-81300000D01*
X170789815Y-81277211D01*
X170793162Y-81254642D01*
X170798706Y-81232509D01*
X170806393Y-81211026D01*
X170816148Y-81190400D01*
X170827878Y-81170830D01*
X170841470Y-81152504D01*
X170856793Y-81135598D01*
X171185598Y-80806793D01*
X171202504Y-80791470D01*
X171220830Y-80777878D01*
X171240400Y-80766148D01*
X171261026Y-80756393D01*
X171282509Y-80748706D01*
X171304642Y-80743162D01*
X171327211Y-80739815D01*
X171350000Y-80738695D01*
X171372789Y-80739815D01*
X171372789Y-80739815D01*
G37*
D21*
X171350000Y-81300000D03*
D12*
G36*
X172185962Y-79926642D02*
X172208531Y-79929989D01*
X172230664Y-79935533D01*
X172252147Y-79943220D01*
X172272773Y-79952975D01*
X172292343Y-79964705D01*
X172310669Y-79978297D01*
X172327575Y-79993620D01*
X172656380Y-80322425D01*
X172671703Y-80339331D01*
X172685295Y-80357657D01*
X172697025Y-80377227D01*
X172706780Y-80397853D01*
X172714467Y-80419336D01*
X172720011Y-80441469D01*
X172723358Y-80464038D01*
X172724478Y-80486827D01*
X172723358Y-80509616D01*
X172720011Y-80532185D01*
X172714467Y-80554318D01*
X172706780Y-80575801D01*
X172697025Y-80596427D01*
X172685295Y-80615997D01*
X172671703Y-80634323D01*
X172656380Y-80651229D01*
X172327575Y-80980034D01*
X172310669Y-80995357D01*
X172292343Y-81008949D01*
X172272773Y-81020679D01*
X172252147Y-81030434D01*
X172230664Y-81038121D01*
X172208531Y-81043665D01*
X172185962Y-81047012D01*
X172163173Y-81048132D01*
X172140384Y-81047012D01*
X172117815Y-81043665D01*
X172095682Y-81038121D01*
X172074199Y-81030434D01*
X172053573Y-81020679D01*
X172034003Y-81008949D01*
X172015677Y-80995357D01*
X171998771Y-80980034D01*
X171669966Y-80651229D01*
X171654643Y-80634323D01*
X171641051Y-80615997D01*
X171629321Y-80596427D01*
X171619566Y-80575801D01*
X171611879Y-80554318D01*
X171606335Y-80532185D01*
X171602988Y-80509616D01*
X171601868Y-80486827D01*
X171602988Y-80464038D01*
X171606335Y-80441469D01*
X171611879Y-80419336D01*
X171619566Y-80397853D01*
X171629321Y-80377227D01*
X171641051Y-80357657D01*
X171654643Y-80339331D01*
X171669966Y-80322425D01*
X171998771Y-79993620D01*
X172015677Y-79978297D01*
X172034003Y-79964705D01*
X172053573Y-79952975D01*
X172074199Y-79943220D01*
X172095682Y-79935533D01*
X172117815Y-79929989D01*
X172140384Y-79926642D01*
X172163173Y-79925522D01*
X172185962Y-79926642D01*
X172185962Y-79926642D01*
G37*
D21*
X172163173Y-80486827D03*
D12*
G36*
X169746443Y-80739815D02*
X169769012Y-80743162D01*
X169791145Y-80748706D01*
X169812628Y-80756393D01*
X169833254Y-80766148D01*
X169852824Y-80777878D01*
X169871150Y-80791470D01*
X169888056Y-80806793D01*
X170216861Y-81135598D01*
X170232184Y-81152504D01*
X170245776Y-81170830D01*
X170257506Y-81190400D01*
X170267261Y-81211026D01*
X170274948Y-81232509D01*
X170280492Y-81254642D01*
X170283839Y-81277211D01*
X170284959Y-81300000D01*
X170283839Y-81322789D01*
X170280492Y-81345358D01*
X170274948Y-81367491D01*
X170267261Y-81388974D01*
X170257506Y-81409600D01*
X170245776Y-81429170D01*
X170232184Y-81447496D01*
X170216861Y-81464402D01*
X169888056Y-81793207D01*
X169871150Y-81808530D01*
X169852824Y-81822122D01*
X169833254Y-81833852D01*
X169812628Y-81843607D01*
X169791145Y-81851294D01*
X169769012Y-81856838D01*
X169746443Y-81860185D01*
X169723654Y-81861305D01*
X169700865Y-81860185D01*
X169678296Y-81856838D01*
X169656163Y-81851294D01*
X169634680Y-81843607D01*
X169614054Y-81833852D01*
X169594484Y-81822122D01*
X169576158Y-81808530D01*
X169559252Y-81793207D01*
X169230447Y-81464402D01*
X169215124Y-81447496D01*
X169201532Y-81429170D01*
X169189802Y-81409600D01*
X169180047Y-81388974D01*
X169172360Y-81367491D01*
X169166816Y-81345358D01*
X169163469Y-81322789D01*
X169162349Y-81300000D01*
X169163469Y-81277211D01*
X169166816Y-81254642D01*
X169172360Y-81232509D01*
X169180047Y-81211026D01*
X169189802Y-81190400D01*
X169201532Y-81170830D01*
X169215124Y-81152504D01*
X169230447Y-81135598D01*
X169559252Y-80806793D01*
X169576158Y-80791470D01*
X169594484Y-80777878D01*
X169614054Y-80766148D01*
X169634680Y-80756393D01*
X169656163Y-80748706D01*
X169678296Y-80743162D01*
X169700865Y-80739815D01*
X169723654Y-80738695D01*
X169746443Y-80739815D01*
X169746443Y-80739815D01*
G37*
D21*
X169723654Y-81300000D03*
D12*
G36*
X170559616Y-79926642D02*
X170582185Y-79929989D01*
X170604318Y-79935533D01*
X170625801Y-79943220D01*
X170646427Y-79952975D01*
X170665997Y-79964705D01*
X170684323Y-79978297D01*
X170701229Y-79993620D01*
X171030034Y-80322425D01*
X171045357Y-80339331D01*
X171058949Y-80357657D01*
X171070679Y-80377227D01*
X171080434Y-80397853D01*
X171088121Y-80419336D01*
X171093665Y-80441469D01*
X171097012Y-80464038D01*
X171098132Y-80486827D01*
X171097012Y-80509616D01*
X171093665Y-80532185D01*
X171088121Y-80554318D01*
X171080434Y-80575801D01*
X171070679Y-80596427D01*
X171058949Y-80615997D01*
X171045357Y-80634323D01*
X171030034Y-80651229D01*
X170701229Y-80980034D01*
X170684323Y-80995357D01*
X170665997Y-81008949D01*
X170646427Y-81020679D01*
X170625801Y-81030434D01*
X170604318Y-81038121D01*
X170582185Y-81043665D01*
X170559616Y-81047012D01*
X170536827Y-81048132D01*
X170514038Y-81047012D01*
X170491469Y-81043665D01*
X170469336Y-81038121D01*
X170447853Y-81030434D01*
X170427227Y-81020679D01*
X170407657Y-81008949D01*
X170389331Y-80995357D01*
X170372425Y-80980034D01*
X170043620Y-80651229D01*
X170028297Y-80634323D01*
X170014705Y-80615997D01*
X170002975Y-80596427D01*
X169993220Y-80575801D01*
X169985533Y-80554318D01*
X169979989Y-80532185D01*
X169976642Y-80509616D01*
X169975522Y-80486827D01*
X169976642Y-80464038D01*
X169979989Y-80441469D01*
X169985533Y-80419336D01*
X169993220Y-80397853D01*
X170002975Y-80377227D01*
X170014705Y-80357657D01*
X170028297Y-80339331D01*
X170043620Y-80322425D01*
X170372425Y-79993620D01*
X170389331Y-79978297D01*
X170407657Y-79964705D01*
X170427227Y-79952975D01*
X170447853Y-79943220D01*
X170469336Y-79935533D01*
X170491469Y-79929989D01*
X170514038Y-79926642D01*
X170536827Y-79925522D01*
X170559616Y-79926642D01*
X170559616Y-79926642D01*
G37*
D21*
X170536827Y-80486827D03*
D12*
G36*
X171372789Y-79113469D02*
X171395358Y-79116816D01*
X171417491Y-79122360D01*
X171438974Y-79130047D01*
X171459600Y-79139802D01*
X171479170Y-79151532D01*
X171497496Y-79165124D01*
X171514402Y-79180447D01*
X171843207Y-79509252D01*
X171858530Y-79526158D01*
X171872122Y-79544484D01*
X171883852Y-79564054D01*
X171893607Y-79584680D01*
X171901294Y-79606163D01*
X171906838Y-79628296D01*
X171910185Y-79650865D01*
X171911305Y-79673654D01*
X171910185Y-79696443D01*
X171906838Y-79719012D01*
X171901294Y-79741145D01*
X171893607Y-79762628D01*
X171883852Y-79783254D01*
X171872122Y-79802824D01*
X171858530Y-79821150D01*
X171843207Y-79838056D01*
X171514402Y-80166861D01*
X171497496Y-80182184D01*
X171479170Y-80195776D01*
X171459600Y-80207506D01*
X171438974Y-80217261D01*
X171417491Y-80224948D01*
X171395358Y-80230492D01*
X171372789Y-80233839D01*
X171350000Y-80234959D01*
X171327211Y-80233839D01*
X171304642Y-80230492D01*
X171282509Y-80224948D01*
X171261026Y-80217261D01*
X171240400Y-80207506D01*
X171220830Y-80195776D01*
X171202504Y-80182184D01*
X171185598Y-80166861D01*
X170856793Y-79838056D01*
X170841470Y-79821150D01*
X170827878Y-79802824D01*
X170816148Y-79783254D01*
X170806393Y-79762628D01*
X170798706Y-79741145D01*
X170793162Y-79719012D01*
X170789815Y-79696443D01*
X170788695Y-79673654D01*
X170789815Y-79650865D01*
X170793162Y-79628296D01*
X170798706Y-79606163D01*
X170806393Y-79584680D01*
X170816148Y-79564054D01*
X170827878Y-79544484D01*
X170841470Y-79526158D01*
X170856793Y-79509252D01*
X171185598Y-79180447D01*
X171202504Y-79165124D01*
X171220830Y-79151532D01*
X171240400Y-79139802D01*
X171261026Y-79130047D01*
X171282509Y-79122360D01*
X171304642Y-79116816D01*
X171327211Y-79113469D01*
X171350000Y-79112349D01*
X171372789Y-79113469D01*
X171372789Y-79113469D01*
G37*
D21*
X171350000Y-79673654D03*
D12*
G36*
X171621291Y-83889452D02*
X171627358Y-83890352D01*
X171633308Y-83891842D01*
X171639083Y-83893909D01*
X171644627Y-83896531D01*
X171649888Y-83899684D01*
X171654815Y-83903338D01*
X171659359Y-83907457D01*
X172189689Y-84437787D01*
X172193808Y-84442331D01*
X172197462Y-84447258D01*
X172200615Y-84452519D01*
X172203237Y-84458063D01*
X172205304Y-84463838D01*
X172206794Y-84469788D01*
X172207694Y-84475855D01*
X172207995Y-84481981D01*
X172207694Y-84488107D01*
X172206794Y-84494174D01*
X172205304Y-84500124D01*
X172203237Y-84505899D01*
X172200615Y-84511443D01*
X172197462Y-84516704D01*
X172193808Y-84521631D01*
X172189689Y-84526175D01*
X172101301Y-84614563D01*
X172096757Y-84618682D01*
X172091830Y-84622336D01*
X172086569Y-84625489D01*
X172081025Y-84628111D01*
X172075250Y-84630178D01*
X172069300Y-84631668D01*
X172063233Y-84632568D01*
X172057107Y-84632869D01*
X172050981Y-84632568D01*
X172044914Y-84631668D01*
X172038964Y-84630178D01*
X172033189Y-84628111D01*
X172027645Y-84625489D01*
X172022384Y-84622336D01*
X172017457Y-84618682D01*
X172012913Y-84614563D01*
X171482583Y-84084233D01*
X171478464Y-84079689D01*
X171474810Y-84074762D01*
X171471657Y-84069501D01*
X171469035Y-84063957D01*
X171466968Y-84058182D01*
X171465478Y-84052232D01*
X171464578Y-84046165D01*
X171464277Y-84040039D01*
X171464578Y-84033913D01*
X171465478Y-84027846D01*
X171466968Y-84021896D01*
X171469035Y-84016121D01*
X171471657Y-84010577D01*
X171474810Y-84005316D01*
X171478464Y-84000389D01*
X171482583Y-83995845D01*
X171570971Y-83907457D01*
X171575515Y-83903338D01*
X171580442Y-83899684D01*
X171585703Y-83896531D01*
X171591247Y-83893909D01*
X171597022Y-83891842D01*
X171602972Y-83890352D01*
X171609039Y-83889452D01*
X171615165Y-83889151D01*
X171621291Y-83889452D01*
X171621291Y-83889452D01*
G37*
D22*
X171836136Y-84261010D03*
D12*
G36*
X171974844Y-83535898D02*
X171980911Y-83536798D01*
X171986861Y-83538288D01*
X171992636Y-83540355D01*
X171998180Y-83542977D01*
X172003441Y-83546130D01*
X172008368Y-83549784D01*
X172012912Y-83553903D01*
X172543242Y-84084233D01*
X172547361Y-84088777D01*
X172551015Y-84093704D01*
X172554168Y-84098965D01*
X172556790Y-84104509D01*
X172558857Y-84110284D01*
X172560347Y-84116234D01*
X172561247Y-84122301D01*
X172561548Y-84128427D01*
X172561247Y-84134553D01*
X172560347Y-84140620D01*
X172558857Y-84146570D01*
X172556790Y-84152345D01*
X172554168Y-84157889D01*
X172551015Y-84163150D01*
X172547361Y-84168077D01*
X172543242Y-84172621D01*
X172454854Y-84261009D01*
X172450310Y-84265128D01*
X172445383Y-84268782D01*
X172440122Y-84271935D01*
X172434578Y-84274557D01*
X172428803Y-84276624D01*
X172422853Y-84278114D01*
X172416786Y-84279014D01*
X172410660Y-84279315D01*
X172404534Y-84279014D01*
X172398467Y-84278114D01*
X172392517Y-84276624D01*
X172386742Y-84274557D01*
X172381198Y-84271935D01*
X172375937Y-84268782D01*
X172371010Y-84265128D01*
X172366466Y-84261009D01*
X171836136Y-83730679D01*
X171832017Y-83726135D01*
X171828363Y-83721208D01*
X171825210Y-83715947D01*
X171822588Y-83710403D01*
X171820521Y-83704628D01*
X171819031Y-83698678D01*
X171818131Y-83692611D01*
X171817830Y-83686485D01*
X171818131Y-83680359D01*
X171819031Y-83674292D01*
X171820521Y-83668342D01*
X171822588Y-83662567D01*
X171825210Y-83657023D01*
X171828363Y-83651762D01*
X171832017Y-83646835D01*
X171836136Y-83642291D01*
X171924524Y-83553903D01*
X171929068Y-83549784D01*
X171933995Y-83546130D01*
X171939256Y-83542977D01*
X171944800Y-83540355D01*
X171950575Y-83538288D01*
X171956525Y-83536798D01*
X171962592Y-83535898D01*
X171968718Y-83535597D01*
X171974844Y-83535898D01*
X171974844Y-83535898D01*
G37*
D22*
X172189689Y-83907456D03*
D12*
G36*
X172328398Y-83182345D02*
X172334465Y-83183245D01*
X172340415Y-83184735D01*
X172346190Y-83186802D01*
X172351734Y-83189424D01*
X172356995Y-83192577D01*
X172361922Y-83196231D01*
X172366466Y-83200350D01*
X172896796Y-83730680D01*
X172900915Y-83735224D01*
X172904569Y-83740151D01*
X172907722Y-83745412D01*
X172910344Y-83750956D01*
X172912411Y-83756731D01*
X172913901Y-83762681D01*
X172914801Y-83768748D01*
X172915102Y-83774874D01*
X172914801Y-83781000D01*
X172913901Y-83787067D01*
X172912411Y-83793017D01*
X172910344Y-83798792D01*
X172907722Y-83804336D01*
X172904569Y-83809597D01*
X172900915Y-83814524D01*
X172896796Y-83819068D01*
X172808408Y-83907456D01*
X172803864Y-83911575D01*
X172798937Y-83915229D01*
X172793676Y-83918382D01*
X172788132Y-83921004D01*
X172782357Y-83923071D01*
X172776407Y-83924561D01*
X172770340Y-83925461D01*
X172764214Y-83925762D01*
X172758088Y-83925461D01*
X172752021Y-83924561D01*
X172746071Y-83923071D01*
X172740296Y-83921004D01*
X172734752Y-83918382D01*
X172729491Y-83915229D01*
X172724564Y-83911575D01*
X172720020Y-83907456D01*
X172189690Y-83377126D01*
X172185571Y-83372582D01*
X172181917Y-83367655D01*
X172178764Y-83362394D01*
X172176142Y-83356850D01*
X172174075Y-83351075D01*
X172172585Y-83345125D01*
X172171685Y-83339058D01*
X172171384Y-83332932D01*
X172171685Y-83326806D01*
X172172585Y-83320739D01*
X172174075Y-83314789D01*
X172176142Y-83309014D01*
X172178764Y-83303470D01*
X172181917Y-83298209D01*
X172185571Y-83293282D01*
X172189690Y-83288738D01*
X172278078Y-83200350D01*
X172282622Y-83196231D01*
X172287549Y-83192577D01*
X172292810Y-83189424D01*
X172298354Y-83186802D01*
X172304129Y-83184735D01*
X172310079Y-83183245D01*
X172316146Y-83182345D01*
X172322272Y-83182044D01*
X172328398Y-83182345D01*
X172328398Y-83182345D01*
G37*
D22*
X172543243Y-83553903D03*
D12*
G36*
X172681951Y-82828791D02*
X172688018Y-82829691D01*
X172693968Y-82831181D01*
X172699743Y-82833248D01*
X172705287Y-82835870D01*
X172710548Y-82839023D01*
X172715475Y-82842677D01*
X172720019Y-82846796D01*
X173250349Y-83377126D01*
X173254468Y-83381670D01*
X173258122Y-83386597D01*
X173261275Y-83391858D01*
X173263897Y-83397402D01*
X173265964Y-83403177D01*
X173267454Y-83409127D01*
X173268354Y-83415194D01*
X173268655Y-83421320D01*
X173268354Y-83427446D01*
X173267454Y-83433513D01*
X173265964Y-83439463D01*
X173263897Y-83445238D01*
X173261275Y-83450782D01*
X173258122Y-83456043D01*
X173254468Y-83460970D01*
X173250349Y-83465514D01*
X173161961Y-83553902D01*
X173157417Y-83558021D01*
X173152490Y-83561675D01*
X173147229Y-83564828D01*
X173141685Y-83567450D01*
X173135910Y-83569517D01*
X173129960Y-83571007D01*
X173123893Y-83571907D01*
X173117767Y-83572208D01*
X173111641Y-83571907D01*
X173105574Y-83571007D01*
X173099624Y-83569517D01*
X173093849Y-83567450D01*
X173088305Y-83564828D01*
X173083044Y-83561675D01*
X173078117Y-83558021D01*
X173073573Y-83553902D01*
X172543243Y-83023572D01*
X172539124Y-83019028D01*
X172535470Y-83014101D01*
X172532317Y-83008840D01*
X172529695Y-83003296D01*
X172527628Y-82997521D01*
X172526138Y-82991571D01*
X172525238Y-82985504D01*
X172524937Y-82979378D01*
X172525238Y-82973252D01*
X172526138Y-82967185D01*
X172527628Y-82961235D01*
X172529695Y-82955460D01*
X172532317Y-82949916D01*
X172535470Y-82944655D01*
X172539124Y-82939728D01*
X172543243Y-82935184D01*
X172631631Y-82846796D01*
X172636175Y-82842677D01*
X172641102Y-82839023D01*
X172646363Y-82835870D01*
X172651907Y-82833248D01*
X172657682Y-82831181D01*
X172663632Y-82829691D01*
X172669699Y-82828791D01*
X172675825Y-82828490D01*
X172681951Y-82828791D01*
X172681951Y-82828791D01*
G37*
D22*
X172896796Y-83200349D03*
D12*
G36*
X173035504Y-82475238D02*
X173041571Y-82476138D01*
X173047521Y-82477628D01*
X173053296Y-82479695D01*
X173058840Y-82482317D01*
X173064101Y-82485470D01*
X173069028Y-82489124D01*
X173073572Y-82493243D01*
X173603902Y-83023573D01*
X173608021Y-83028117D01*
X173611675Y-83033044D01*
X173614828Y-83038305D01*
X173617450Y-83043849D01*
X173619517Y-83049624D01*
X173621007Y-83055574D01*
X173621907Y-83061641D01*
X173622208Y-83067767D01*
X173621907Y-83073893D01*
X173621007Y-83079960D01*
X173619517Y-83085910D01*
X173617450Y-83091685D01*
X173614828Y-83097229D01*
X173611675Y-83102490D01*
X173608021Y-83107417D01*
X173603902Y-83111961D01*
X173515514Y-83200349D01*
X173510970Y-83204468D01*
X173506043Y-83208122D01*
X173500782Y-83211275D01*
X173495238Y-83213897D01*
X173489463Y-83215964D01*
X173483513Y-83217454D01*
X173477446Y-83218354D01*
X173471320Y-83218655D01*
X173465194Y-83218354D01*
X173459127Y-83217454D01*
X173453177Y-83215964D01*
X173447402Y-83213897D01*
X173441858Y-83211275D01*
X173436597Y-83208122D01*
X173431670Y-83204468D01*
X173427126Y-83200349D01*
X172896796Y-82670019D01*
X172892677Y-82665475D01*
X172889023Y-82660548D01*
X172885870Y-82655287D01*
X172883248Y-82649743D01*
X172881181Y-82643968D01*
X172879691Y-82638018D01*
X172878791Y-82631951D01*
X172878490Y-82625825D01*
X172878791Y-82619699D01*
X172879691Y-82613632D01*
X172881181Y-82607682D01*
X172883248Y-82601907D01*
X172885870Y-82596363D01*
X172889023Y-82591102D01*
X172892677Y-82586175D01*
X172896796Y-82581631D01*
X172985184Y-82493243D01*
X172989728Y-82489124D01*
X172994655Y-82485470D01*
X172999916Y-82482317D01*
X173005460Y-82479695D01*
X173011235Y-82477628D01*
X173017185Y-82476138D01*
X173023252Y-82475238D01*
X173029378Y-82474937D01*
X173035504Y-82475238D01*
X173035504Y-82475238D01*
G37*
D22*
X173250349Y-82846796D03*
D12*
G36*
X173389058Y-82121685D02*
X173395125Y-82122585D01*
X173401075Y-82124075D01*
X173406850Y-82126142D01*
X173412394Y-82128764D01*
X173417655Y-82131917D01*
X173422582Y-82135571D01*
X173427126Y-82139690D01*
X173957456Y-82670020D01*
X173961575Y-82674564D01*
X173965229Y-82679491D01*
X173968382Y-82684752D01*
X173971004Y-82690296D01*
X173973071Y-82696071D01*
X173974561Y-82702021D01*
X173975461Y-82708088D01*
X173975762Y-82714214D01*
X173975461Y-82720340D01*
X173974561Y-82726407D01*
X173973071Y-82732357D01*
X173971004Y-82738132D01*
X173968382Y-82743676D01*
X173965229Y-82748937D01*
X173961575Y-82753864D01*
X173957456Y-82758408D01*
X173869068Y-82846796D01*
X173864524Y-82850915D01*
X173859597Y-82854569D01*
X173854336Y-82857722D01*
X173848792Y-82860344D01*
X173843017Y-82862411D01*
X173837067Y-82863901D01*
X173831000Y-82864801D01*
X173824874Y-82865102D01*
X173818748Y-82864801D01*
X173812681Y-82863901D01*
X173806731Y-82862411D01*
X173800956Y-82860344D01*
X173795412Y-82857722D01*
X173790151Y-82854569D01*
X173785224Y-82850915D01*
X173780680Y-82846796D01*
X173250350Y-82316466D01*
X173246231Y-82311922D01*
X173242577Y-82306995D01*
X173239424Y-82301734D01*
X173236802Y-82296190D01*
X173234735Y-82290415D01*
X173233245Y-82284465D01*
X173232345Y-82278398D01*
X173232044Y-82272272D01*
X173232345Y-82266146D01*
X173233245Y-82260079D01*
X173234735Y-82254129D01*
X173236802Y-82248354D01*
X173239424Y-82242810D01*
X173242577Y-82237549D01*
X173246231Y-82232622D01*
X173250350Y-82228078D01*
X173338738Y-82139690D01*
X173343282Y-82135571D01*
X173348209Y-82131917D01*
X173353470Y-82128764D01*
X173359014Y-82126142D01*
X173364789Y-82124075D01*
X173370739Y-82122585D01*
X173376806Y-82121685D01*
X173382932Y-82121384D01*
X173389058Y-82121685D01*
X173389058Y-82121685D01*
G37*
D22*
X173603903Y-82493243D03*
D12*
G36*
X173742611Y-81768131D02*
X173748678Y-81769031D01*
X173754628Y-81770521D01*
X173760403Y-81772588D01*
X173765947Y-81775210D01*
X173771208Y-81778363D01*
X173776135Y-81782017D01*
X173780679Y-81786136D01*
X174311009Y-82316466D01*
X174315128Y-82321010D01*
X174318782Y-82325937D01*
X174321935Y-82331198D01*
X174324557Y-82336742D01*
X174326624Y-82342517D01*
X174328114Y-82348467D01*
X174329014Y-82354534D01*
X174329315Y-82360660D01*
X174329014Y-82366786D01*
X174328114Y-82372853D01*
X174326624Y-82378803D01*
X174324557Y-82384578D01*
X174321935Y-82390122D01*
X174318782Y-82395383D01*
X174315128Y-82400310D01*
X174311009Y-82404854D01*
X174222621Y-82493242D01*
X174218077Y-82497361D01*
X174213150Y-82501015D01*
X174207889Y-82504168D01*
X174202345Y-82506790D01*
X174196570Y-82508857D01*
X174190620Y-82510347D01*
X174184553Y-82511247D01*
X174178427Y-82511548D01*
X174172301Y-82511247D01*
X174166234Y-82510347D01*
X174160284Y-82508857D01*
X174154509Y-82506790D01*
X174148965Y-82504168D01*
X174143704Y-82501015D01*
X174138777Y-82497361D01*
X174134233Y-82493242D01*
X173603903Y-81962912D01*
X173599784Y-81958368D01*
X173596130Y-81953441D01*
X173592977Y-81948180D01*
X173590355Y-81942636D01*
X173588288Y-81936861D01*
X173586798Y-81930911D01*
X173585898Y-81924844D01*
X173585597Y-81918718D01*
X173585898Y-81912592D01*
X173586798Y-81906525D01*
X173588288Y-81900575D01*
X173590355Y-81894800D01*
X173592977Y-81889256D01*
X173596130Y-81883995D01*
X173599784Y-81879068D01*
X173603903Y-81874524D01*
X173692291Y-81786136D01*
X173696835Y-81782017D01*
X173701762Y-81778363D01*
X173707023Y-81775210D01*
X173712567Y-81772588D01*
X173718342Y-81770521D01*
X173724292Y-81769031D01*
X173730359Y-81768131D01*
X173736485Y-81767830D01*
X173742611Y-81768131D01*
X173742611Y-81768131D01*
G37*
D22*
X173957456Y-82139689D03*
D12*
G36*
X174096165Y-81414578D02*
X174102232Y-81415478D01*
X174108182Y-81416968D01*
X174113957Y-81419035D01*
X174119501Y-81421657D01*
X174124762Y-81424810D01*
X174129689Y-81428464D01*
X174134233Y-81432583D01*
X174664563Y-81962913D01*
X174668682Y-81967457D01*
X174672336Y-81972384D01*
X174675489Y-81977645D01*
X174678111Y-81983189D01*
X174680178Y-81988964D01*
X174681668Y-81994914D01*
X174682568Y-82000981D01*
X174682869Y-82007107D01*
X174682568Y-82013233D01*
X174681668Y-82019300D01*
X174680178Y-82025250D01*
X174678111Y-82031025D01*
X174675489Y-82036569D01*
X174672336Y-82041830D01*
X174668682Y-82046757D01*
X174664563Y-82051301D01*
X174576175Y-82139689D01*
X174571631Y-82143808D01*
X174566704Y-82147462D01*
X174561443Y-82150615D01*
X174555899Y-82153237D01*
X174550124Y-82155304D01*
X174544174Y-82156794D01*
X174538107Y-82157694D01*
X174531981Y-82157995D01*
X174525855Y-82157694D01*
X174519788Y-82156794D01*
X174513838Y-82155304D01*
X174508063Y-82153237D01*
X174502519Y-82150615D01*
X174497258Y-82147462D01*
X174492331Y-82143808D01*
X174487787Y-82139689D01*
X173957457Y-81609359D01*
X173953338Y-81604815D01*
X173949684Y-81599888D01*
X173946531Y-81594627D01*
X173943909Y-81589083D01*
X173941842Y-81583308D01*
X173940352Y-81577358D01*
X173939452Y-81571291D01*
X173939151Y-81565165D01*
X173939452Y-81559039D01*
X173940352Y-81552972D01*
X173941842Y-81547022D01*
X173943909Y-81541247D01*
X173946531Y-81535703D01*
X173949684Y-81530442D01*
X173953338Y-81525515D01*
X173957457Y-81520971D01*
X174045845Y-81432583D01*
X174050389Y-81428464D01*
X174055316Y-81424810D01*
X174060577Y-81421657D01*
X174066121Y-81419035D01*
X174071896Y-81416968D01*
X174077846Y-81415478D01*
X174083913Y-81414578D01*
X174090039Y-81414277D01*
X174096165Y-81414578D01*
X174096165Y-81414578D01*
G37*
D22*
X174311010Y-81786136D03*
D12*
G36*
X174538107Y-80442306D02*
X174544174Y-80443206D01*
X174550124Y-80444696D01*
X174555899Y-80446763D01*
X174561443Y-80449385D01*
X174566704Y-80452538D01*
X174571631Y-80456192D01*
X174576175Y-80460311D01*
X174664563Y-80548699D01*
X174668682Y-80553243D01*
X174672336Y-80558170D01*
X174675489Y-80563431D01*
X174678111Y-80568975D01*
X174680178Y-80574750D01*
X174681668Y-80580700D01*
X174682568Y-80586767D01*
X174682869Y-80592893D01*
X174682568Y-80599019D01*
X174681668Y-80605086D01*
X174680178Y-80611036D01*
X174678111Y-80616811D01*
X174675489Y-80622355D01*
X174672336Y-80627616D01*
X174668682Y-80632543D01*
X174664563Y-80637087D01*
X174134233Y-81167417D01*
X174129689Y-81171536D01*
X174124762Y-81175190D01*
X174119501Y-81178343D01*
X174113957Y-81180965D01*
X174108182Y-81183032D01*
X174102232Y-81184522D01*
X174096165Y-81185422D01*
X174090039Y-81185723D01*
X174083913Y-81185422D01*
X174077846Y-81184522D01*
X174071896Y-81183032D01*
X174066121Y-81180965D01*
X174060577Y-81178343D01*
X174055316Y-81175190D01*
X174050389Y-81171536D01*
X174045845Y-81167417D01*
X173957457Y-81079029D01*
X173953338Y-81074485D01*
X173949684Y-81069558D01*
X173946531Y-81064297D01*
X173943909Y-81058753D01*
X173941842Y-81052978D01*
X173940352Y-81047028D01*
X173939452Y-81040961D01*
X173939151Y-81034835D01*
X173939452Y-81028709D01*
X173940352Y-81022642D01*
X173941842Y-81016692D01*
X173943909Y-81010917D01*
X173946531Y-81005373D01*
X173949684Y-81000112D01*
X173953338Y-80995185D01*
X173957457Y-80990641D01*
X174487787Y-80460311D01*
X174492331Y-80456192D01*
X174497258Y-80452538D01*
X174502519Y-80449385D01*
X174508063Y-80446763D01*
X174513838Y-80444696D01*
X174519788Y-80443206D01*
X174525855Y-80442306D01*
X174531981Y-80442005D01*
X174538107Y-80442306D01*
X174538107Y-80442306D01*
G37*
D22*
X174311010Y-80813864D03*
D12*
G36*
X174184553Y-80088753D02*
X174190620Y-80089653D01*
X174196570Y-80091143D01*
X174202345Y-80093210D01*
X174207889Y-80095832D01*
X174213150Y-80098985D01*
X174218077Y-80102639D01*
X174222621Y-80106758D01*
X174311009Y-80195146D01*
X174315128Y-80199690D01*
X174318782Y-80204617D01*
X174321935Y-80209878D01*
X174324557Y-80215422D01*
X174326624Y-80221197D01*
X174328114Y-80227147D01*
X174329014Y-80233214D01*
X174329315Y-80239340D01*
X174329014Y-80245466D01*
X174328114Y-80251533D01*
X174326624Y-80257483D01*
X174324557Y-80263258D01*
X174321935Y-80268802D01*
X174318782Y-80274063D01*
X174315128Y-80278990D01*
X174311009Y-80283534D01*
X173780679Y-80813864D01*
X173776135Y-80817983D01*
X173771208Y-80821637D01*
X173765947Y-80824790D01*
X173760403Y-80827412D01*
X173754628Y-80829479D01*
X173748678Y-80830969D01*
X173742611Y-80831869D01*
X173736485Y-80832170D01*
X173730359Y-80831869D01*
X173724292Y-80830969D01*
X173718342Y-80829479D01*
X173712567Y-80827412D01*
X173707023Y-80824790D01*
X173701762Y-80821637D01*
X173696835Y-80817983D01*
X173692291Y-80813864D01*
X173603903Y-80725476D01*
X173599784Y-80720932D01*
X173596130Y-80716005D01*
X173592977Y-80710744D01*
X173590355Y-80705200D01*
X173588288Y-80699425D01*
X173586798Y-80693475D01*
X173585898Y-80687408D01*
X173585597Y-80681282D01*
X173585898Y-80675156D01*
X173586798Y-80669089D01*
X173588288Y-80663139D01*
X173590355Y-80657364D01*
X173592977Y-80651820D01*
X173596130Y-80646559D01*
X173599784Y-80641632D01*
X173603903Y-80637088D01*
X174134233Y-80106758D01*
X174138777Y-80102639D01*
X174143704Y-80098985D01*
X174148965Y-80095832D01*
X174154509Y-80093210D01*
X174160284Y-80091143D01*
X174166234Y-80089653D01*
X174172301Y-80088753D01*
X174178427Y-80088452D01*
X174184553Y-80088753D01*
X174184553Y-80088753D01*
G37*
D22*
X173957456Y-80460311D03*
D12*
G36*
X173831000Y-79735199D02*
X173837067Y-79736099D01*
X173843017Y-79737589D01*
X173848792Y-79739656D01*
X173854336Y-79742278D01*
X173859597Y-79745431D01*
X173864524Y-79749085D01*
X173869068Y-79753204D01*
X173957456Y-79841592D01*
X173961575Y-79846136D01*
X173965229Y-79851063D01*
X173968382Y-79856324D01*
X173971004Y-79861868D01*
X173973071Y-79867643D01*
X173974561Y-79873593D01*
X173975461Y-79879660D01*
X173975762Y-79885786D01*
X173975461Y-79891912D01*
X173974561Y-79897979D01*
X173973071Y-79903929D01*
X173971004Y-79909704D01*
X173968382Y-79915248D01*
X173965229Y-79920509D01*
X173961575Y-79925436D01*
X173957456Y-79929980D01*
X173427126Y-80460310D01*
X173422582Y-80464429D01*
X173417655Y-80468083D01*
X173412394Y-80471236D01*
X173406850Y-80473858D01*
X173401075Y-80475925D01*
X173395125Y-80477415D01*
X173389058Y-80478315D01*
X173382932Y-80478616D01*
X173376806Y-80478315D01*
X173370739Y-80477415D01*
X173364789Y-80475925D01*
X173359014Y-80473858D01*
X173353470Y-80471236D01*
X173348209Y-80468083D01*
X173343282Y-80464429D01*
X173338738Y-80460310D01*
X173250350Y-80371922D01*
X173246231Y-80367378D01*
X173242577Y-80362451D01*
X173239424Y-80357190D01*
X173236802Y-80351646D01*
X173234735Y-80345871D01*
X173233245Y-80339921D01*
X173232345Y-80333854D01*
X173232044Y-80327728D01*
X173232345Y-80321602D01*
X173233245Y-80315535D01*
X173234735Y-80309585D01*
X173236802Y-80303810D01*
X173239424Y-80298266D01*
X173242577Y-80293005D01*
X173246231Y-80288078D01*
X173250350Y-80283534D01*
X173780680Y-79753204D01*
X173785224Y-79749085D01*
X173790151Y-79745431D01*
X173795412Y-79742278D01*
X173800956Y-79739656D01*
X173806731Y-79737589D01*
X173812681Y-79736099D01*
X173818748Y-79735199D01*
X173824874Y-79734898D01*
X173831000Y-79735199D01*
X173831000Y-79735199D01*
G37*
D22*
X173603903Y-80106757D03*
D12*
G36*
X173477446Y-79381646D02*
X173483513Y-79382546D01*
X173489463Y-79384036D01*
X173495238Y-79386103D01*
X173500782Y-79388725D01*
X173506043Y-79391878D01*
X173510970Y-79395532D01*
X173515514Y-79399651D01*
X173603902Y-79488039D01*
X173608021Y-79492583D01*
X173611675Y-79497510D01*
X173614828Y-79502771D01*
X173617450Y-79508315D01*
X173619517Y-79514090D01*
X173621007Y-79520040D01*
X173621907Y-79526107D01*
X173622208Y-79532233D01*
X173621907Y-79538359D01*
X173621007Y-79544426D01*
X173619517Y-79550376D01*
X173617450Y-79556151D01*
X173614828Y-79561695D01*
X173611675Y-79566956D01*
X173608021Y-79571883D01*
X173603902Y-79576427D01*
X173073572Y-80106757D01*
X173069028Y-80110876D01*
X173064101Y-80114530D01*
X173058840Y-80117683D01*
X173053296Y-80120305D01*
X173047521Y-80122372D01*
X173041571Y-80123862D01*
X173035504Y-80124762D01*
X173029378Y-80125063D01*
X173023252Y-80124762D01*
X173017185Y-80123862D01*
X173011235Y-80122372D01*
X173005460Y-80120305D01*
X172999916Y-80117683D01*
X172994655Y-80114530D01*
X172989728Y-80110876D01*
X172985184Y-80106757D01*
X172896796Y-80018369D01*
X172892677Y-80013825D01*
X172889023Y-80008898D01*
X172885870Y-80003637D01*
X172883248Y-79998093D01*
X172881181Y-79992318D01*
X172879691Y-79986368D01*
X172878791Y-79980301D01*
X172878490Y-79974175D01*
X172878791Y-79968049D01*
X172879691Y-79961982D01*
X172881181Y-79956032D01*
X172883248Y-79950257D01*
X172885870Y-79944713D01*
X172889023Y-79939452D01*
X172892677Y-79934525D01*
X172896796Y-79929981D01*
X173427126Y-79399651D01*
X173431670Y-79395532D01*
X173436597Y-79391878D01*
X173441858Y-79388725D01*
X173447402Y-79386103D01*
X173453177Y-79384036D01*
X173459127Y-79382546D01*
X173465194Y-79381646D01*
X173471320Y-79381345D01*
X173477446Y-79381646D01*
X173477446Y-79381646D01*
G37*
D22*
X173250349Y-79753204D03*
D12*
G36*
X173123893Y-79028093D02*
X173129960Y-79028993D01*
X173135910Y-79030483D01*
X173141685Y-79032550D01*
X173147229Y-79035172D01*
X173152490Y-79038325D01*
X173157417Y-79041979D01*
X173161961Y-79046098D01*
X173250349Y-79134486D01*
X173254468Y-79139030D01*
X173258122Y-79143957D01*
X173261275Y-79149218D01*
X173263897Y-79154762D01*
X173265964Y-79160537D01*
X173267454Y-79166487D01*
X173268354Y-79172554D01*
X173268655Y-79178680D01*
X173268354Y-79184806D01*
X173267454Y-79190873D01*
X173265964Y-79196823D01*
X173263897Y-79202598D01*
X173261275Y-79208142D01*
X173258122Y-79213403D01*
X173254468Y-79218330D01*
X173250349Y-79222874D01*
X172720019Y-79753204D01*
X172715475Y-79757323D01*
X172710548Y-79760977D01*
X172705287Y-79764130D01*
X172699743Y-79766752D01*
X172693968Y-79768819D01*
X172688018Y-79770309D01*
X172681951Y-79771209D01*
X172675825Y-79771510D01*
X172669699Y-79771209D01*
X172663632Y-79770309D01*
X172657682Y-79768819D01*
X172651907Y-79766752D01*
X172646363Y-79764130D01*
X172641102Y-79760977D01*
X172636175Y-79757323D01*
X172631631Y-79753204D01*
X172543243Y-79664816D01*
X172539124Y-79660272D01*
X172535470Y-79655345D01*
X172532317Y-79650084D01*
X172529695Y-79644540D01*
X172527628Y-79638765D01*
X172526138Y-79632815D01*
X172525238Y-79626748D01*
X172524937Y-79620622D01*
X172525238Y-79614496D01*
X172526138Y-79608429D01*
X172527628Y-79602479D01*
X172529695Y-79596704D01*
X172532317Y-79591160D01*
X172535470Y-79585899D01*
X172539124Y-79580972D01*
X172543243Y-79576428D01*
X173073573Y-79046098D01*
X173078117Y-79041979D01*
X173083044Y-79038325D01*
X173088305Y-79035172D01*
X173093849Y-79032550D01*
X173099624Y-79030483D01*
X173105574Y-79028993D01*
X173111641Y-79028093D01*
X173117767Y-79027792D01*
X173123893Y-79028093D01*
X173123893Y-79028093D01*
G37*
D22*
X172896796Y-79399651D03*
D12*
G36*
X172770340Y-78674539D02*
X172776407Y-78675439D01*
X172782357Y-78676929D01*
X172788132Y-78678996D01*
X172793676Y-78681618D01*
X172798937Y-78684771D01*
X172803864Y-78688425D01*
X172808408Y-78692544D01*
X172896796Y-78780932D01*
X172900915Y-78785476D01*
X172904569Y-78790403D01*
X172907722Y-78795664D01*
X172910344Y-78801208D01*
X172912411Y-78806983D01*
X172913901Y-78812933D01*
X172914801Y-78819000D01*
X172915102Y-78825126D01*
X172914801Y-78831252D01*
X172913901Y-78837319D01*
X172912411Y-78843269D01*
X172910344Y-78849044D01*
X172907722Y-78854588D01*
X172904569Y-78859849D01*
X172900915Y-78864776D01*
X172896796Y-78869320D01*
X172366466Y-79399650D01*
X172361922Y-79403769D01*
X172356995Y-79407423D01*
X172351734Y-79410576D01*
X172346190Y-79413198D01*
X172340415Y-79415265D01*
X172334465Y-79416755D01*
X172328398Y-79417655D01*
X172322272Y-79417956D01*
X172316146Y-79417655D01*
X172310079Y-79416755D01*
X172304129Y-79415265D01*
X172298354Y-79413198D01*
X172292810Y-79410576D01*
X172287549Y-79407423D01*
X172282622Y-79403769D01*
X172278078Y-79399650D01*
X172189690Y-79311262D01*
X172185571Y-79306718D01*
X172181917Y-79301791D01*
X172178764Y-79296530D01*
X172176142Y-79290986D01*
X172174075Y-79285211D01*
X172172585Y-79279261D01*
X172171685Y-79273194D01*
X172171384Y-79267068D01*
X172171685Y-79260942D01*
X172172585Y-79254875D01*
X172174075Y-79248925D01*
X172176142Y-79243150D01*
X172178764Y-79237606D01*
X172181917Y-79232345D01*
X172185571Y-79227418D01*
X172189690Y-79222874D01*
X172720020Y-78692544D01*
X172724564Y-78688425D01*
X172729491Y-78684771D01*
X172734752Y-78681618D01*
X172740296Y-78678996D01*
X172746071Y-78676929D01*
X172752021Y-78675439D01*
X172758088Y-78674539D01*
X172764214Y-78674238D01*
X172770340Y-78674539D01*
X172770340Y-78674539D01*
G37*
D22*
X172543243Y-79046097D03*
D12*
G36*
X172416786Y-78320986D02*
X172422853Y-78321886D01*
X172428803Y-78323376D01*
X172434578Y-78325443D01*
X172440122Y-78328065D01*
X172445383Y-78331218D01*
X172450310Y-78334872D01*
X172454854Y-78338991D01*
X172543242Y-78427379D01*
X172547361Y-78431923D01*
X172551015Y-78436850D01*
X172554168Y-78442111D01*
X172556790Y-78447655D01*
X172558857Y-78453430D01*
X172560347Y-78459380D01*
X172561247Y-78465447D01*
X172561548Y-78471573D01*
X172561247Y-78477699D01*
X172560347Y-78483766D01*
X172558857Y-78489716D01*
X172556790Y-78495491D01*
X172554168Y-78501035D01*
X172551015Y-78506296D01*
X172547361Y-78511223D01*
X172543242Y-78515767D01*
X172012912Y-79046097D01*
X172008368Y-79050216D01*
X172003441Y-79053870D01*
X171998180Y-79057023D01*
X171992636Y-79059645D01*
X171986861Y-79061712D01*
X171980911Y-79063202D01*
X171974844Y-79064102D01*
X171968718Y-79064403D01*
X171962592Y-79064102D01*
X171956525Y-79063202D01*
X171950575Y-79061712D01*
X171944800Y-79059645D01*
X171939256Y-79057023D01*
X171933995Y-79053870D01*
X171929068Y-79050216D01*
X171924524Y-79046097D01*
X171836136Y-78957709D01*
X171832017Y-78953165D01*
X171828363Y-78948238D01*
X171825210Y-78942977D01*
X171822588Y-78937433D01*
X171820521Y-78931658D01*
X171819031Y-78925708D01*
X171818131Y-78919641D01*
X171817830Y-78913515D01*
X171818131Y-78907389D01*
X171819031Y-78901322D01*
X171820521Y-78895372D01*
X171822588Y-78889597D01*
X171825210Y-78884053D01*
X171828363Y-78878792D01*
X171832017Y-78873865D01*
X171836136Y-78869321D01*
X172366466Y-78338991D01*
X172371010Y-78334872D01*
X172375937Y-78331218D01*
X172381198Y-78328065D01*
X172386742Y-78325443D01*
X172392517Y-78323376D01*
X172398467Y-78321886D01*
X172404534Y-78320986D01*
X172410660Y-78320685D01*
X172416786Y-78320986D01*
X172416786Y-78320986D01*
G37*
D22*
X172189689Y-78692544D03*
D12*
G36*
X172063233Y-77967432D02*
X172069300Y-77968332D01*
X172075250Y-77969822D01*
X172081025Y-77971889D01*
X172086569Y-77974511D01*
X172091830Y-77977664D01*
X172096757Y-77981318D01*
X172101301Y-77985437D01*
X172189689Y-78073825D01*
X172193808Y-78078369D01*
X172197462Y-78083296D01*
X172200615Y-78088557D01*
X172203237Y-78094101D01*
X172205304Y-78099876D01*
X172206794Y-78105826D01*
X172207694Y-78111893D01*
X172207995Y-78118019D01*
X172207694Y-78124145D01*
X172206794Y-78130212D01*
X172205304Y-78136162D01*
X172203237Y-78141937D01*
X172200615Y-78147481D01*
X172197462Y-78152742D01*
X172193808Y-78157669D01*
X172189689Y-78162213D01*
X171659359Y-78692543D01*
X171654815Y-78696662D01*
X171649888Y-78700316D01*
X171644627Y-78703469D01*
X171639083Y-78706091D01*
X171633308Y-78708158D01*
X171627358Y-78709648D01*
X171621291Y-78710548D01*
X171615165Y-78710849D01*
X171609039Y-78710548D01*
X171602972Y-78709648D01*
X171597022Y-78708158D01*
X171591247Y-78706091D01*
X171585703Y-78703469D01*
X171580442Y-78700316D01*
X171575515Y-78696662D01*
X171570971Y-78692543D01*
X171482583Y-78604155D01*
X171478464Y-78599611D01*
X171474810Y-78594684D01*
X171471657Y-78589423D01*
X171469035Y-78583879D01*
X171466968Y-78578104D01*
X171465478Y-78572154D01*
X171464578Y-78566087D01*
X171464277Y-78559961D01*
X171464578Y-78553835D01*
X171465478Y-78547768D01*
X171466968Y-78541818D01*
X171469035Y-78536043D01*
X171471657Y-78530499D01*
X171474810Y-78525238D01*
X171478464Y-78520311D01*
X171482583Y-78515767D01*
X172012913Y-77985437D01*
X172017457Y-77981318D01*
X172022384Y-77977664D01*
X172027645Y-77974511D01*
X172033189Y-77971889D01*
X172038964Y-77969822D01*
X172044914Y-77968332D01*
X172050981Y-77967432D01*
X172057107Y-77967131D01*
X172063233Y-77967432D01*
X172063233Y-77967432D01*
G37*
D22*
X171836136Y-78338990D03*
D12*
G36*
X170649019Y-77967432D02*
X170655086Y-77968332D01*
X170661036Y-77969822D01*
X170666811Y-77971889D01*
X170672355Y-77974511D01*
X170677616Y-77977664D01*
X170682543Y-77981318D01*
X170687087Y-77985437D01*
X171217417Y-78515767D01*
X171221536Y-78520311D01*
X171225190Y-78525238D01*
X171228343Y-78530499D01*
X171230965Y-78536043D01*
X171233032Y-78541818D01*
X171234522Y-78547768D01*
X171235422Y-78553835D01*
X171235723Y-78559961D01*
X171235422Y-78566087D01*
X171234522Y-78572154D01*
X171233032Y-78578104D01*
X171230965Y-78583879D01*
X171228343Y-78589423D01*
X171225190Y-78594684D01*
X171221536Y-78599611D01*
X171217417Y-78604155D01*
X171129029Y-78692543D01*
X171124485Y-78696662D01*
X171119558Y-78700316D01*
X171114297Y-78703469D01*
X171108753Y-78706091D01*
X171102978Y-78708158D01*
X171097028Y-78709648D01*
X171090961Y-78710548D01*
X171084835Y-78710849D01*
X171078709Y-78710548D01*
X171072642Y-78709648D01*
X171066692Y-78708158D01*
X171060917Y-78706091D01*
X171055373Y-78703469D01*
X171050112Y-78700316D01*
X171045185Y-78696662D01*
X171040641Y-78692543D01*
X170510311Y-78162213D01*
X170506192Y-78157669D01*
X170502538Y-78152742D01*
X170499385Y-78147481D01*
X170496763Y-78141937D01*
X170494696Y-78136162D01*
X170493206Y-78130212D01*
X170492306Y-78124145D01*
X170492005Y-78118019D01*
X170492306Y-78111893D01*
X170493206Y-78105826D01*
X170494696Y-78099876D01*
X170496763Y-78094101D01*
X170499385Y-78088557D01*
X170502538Y-78083296D01*
X170506192Y-78078369D01*
X170510311Y-78073825D01*
X170598699Y-77985437D01*
X170603243Y-77981318D01*
X170608170Y-77977664D01*
X170613431Y-77974511D01*
X170618975Y-77971889D01*
X170624750Y-77969822D01*
X170630700Y-77968332D01*
X170636767Y-77967432D01*
X170642893Y-77967131D01*
X170649019Y-77967432D01*
X170649019Y-77967432D01*
G37*
D22*
X170863864Y-78338990D03*
D12*
G36*
X170295466Y-78320986D02*
X170301533Y-78321886D01*
X170307483Y-78323376D01*
X170313258Y-78325443D01*
X170318802Y-78328065D01*
X170324063Y-78331218D01*
X170328990Y-78334872D01*
X170333534Y-78338991D01*
X170863864Y-78869321D01*
X170867983Y-78873865D01*
X170871637Y-78878792D01*
X170874790Y-78884053D01*
X170877412Y-78889597D01*
X170879479Y-78895372D01*
X170880969Y-78901322D01*
X170881869Y-78907389D01*
X170882170Y-78913515D01*
X170881869Y-78919641D01*
X170880969Y-78925708D01*
X170879479Y-78931658D01*
X170877412Y-78937433D01*
X170874790Y-78942977D01*
X170871637Y-78948238D01*
X170867983Y-78953165D01*
X170863864Y-78957709D01*
X170775476Y-79046097D01*
X170770932Y-79050216D01*
X170766005Y-79053870D01*
X170760744Y-79057023D01*
X170755200Y-79059645D01*
X170749425Y-79061712D01*
X170743475Y-79063202D01*
X170737408Y-79064102D01*
X170731282Y-79064403D01*
X170725156Y-79064102D01*
X170719089Y-79063202D01*
X170713139Y-79061712D01*
X170707364Y-79059645D01*
X170701820Y-79057023D01*
X170696559Y-79053870D01*
X170691632Y-79050216D01*
X170687088Y-79046097D01*
X170156758Y-78515767D01*
X170152639Y-78511223D01*
X170148985Y-78506296D01*
X170145832Y-78501035D01*
X170143210Y-78495491D01*
X170141143Y-78489716D01*
X170139653Y-78483766D01*
X170138753Y-78477699D01*
X170138452Y-78471573D01*
X170138753Y-78465447D01*
X170139653Y-78459380D01*
X170141143Y-78453430D01*
X170143210Y-78447655D01*
X170145832Y-78442111D01*
X170148985Y-78436850D01*
X170152639Y-78431923D01*
X170156758Y-78427379D01*
X170245146Y-78338991D01*
X170249690Y-78334872D01*
X170254617Y-78331218D01*
X170259878Y-78328065D01*
X170265422Y-78325443D01*
X170271197Y-78323376D01*
X170277147Y-78321886D01*
X170283214Y-78320986D01*
X170289340Y-78320685D01*
X170295466Y-78320986D01*
X170295466Y-78320986D01*
G37*
D22*
X170510311Y-78692544D03*
D12*
G36*
X169941912Y-78674539D02*
X169947979Y-78675439D01*
X169953929Y-78676929D01*
X169959704Y-78678996D01*
X169965248Y-78681618D01*
X169970509Y-78684771D01*
X169975436Y-78688425D01*
X169979980Y-78692544D01*
X170510310Y-79222874D01*
X170514429Y-79227418D01*
X170518083Y-79232345D01*
X170521236Y-79237606D01*
X170523858Y-79243150D01*
X170525925Y-79248925D01*
X170527415Y-79254875D01*
X170528315Y-79260942D01*
X170528616Y-79267068D01*
X170528315Y-79273194D01*
X170527415Y-79279261D01*
X170525925Y-79285211D01*
X170523858Y-79290986D01*
X170521236Y-79296530D01*
X170518083Y-79301791D01*
X170514429Y-79306718D01*
X170510310Y-79311262D01*
X170421922Y-79399650D01*
X170417378Y-79403769D01*
X170412451Y-79407423D01*
X170407190Y-79410576D01*
X170401646Y-79413198D01*
X170395871Y-79415265D01*
X170389921Y-79416755D01*
X170383854Y-79417655D01*
X170377728Y-79417956D01*
X170371602Y-79417655D01*
X170365535Y-79416755D01*
X170359585Y-79415265D01*
X170353810Y-79413198D01*
X170348266Y-79410576D01*
X170343005Y-79407423D01*
X170338078Y-79403769D01*
X170333534Y-79399650D01*
X169803204Y-78869320D01*
X169799085Y-78864776D01*
X169795431Y-78859849D01*
X169792278Y-78854588D01*
X169789656Y-78849044D01*
X169787589Y-78843269D01*
X169786099Y-78837319D01*
X169785199Y-78831252D01*
X169784898Y-78825126D01*
X169785199Y-78819000D01*
X169786099Y-78812933D01*
X169787589Y-78806983D01*
X169789656Y-78801208D01*
X169792278Y-78795664D01*
X169795431Y-78790403D01*
X169799085Y-78785476D01*
X169803204Y-78780932D01*
X169891592Y-78692544D01*
X169896136Y-78688425D01*
X169901063Y-78684771D01*
X169906324Y-78681618D01*
X169911868Y-78678996D01*
X169917643Y-78676929D01*
X169923593Y-78675439D01*
X169929660Y-78674539D01*
X169935786Y-78674238D01*
X169941912Y-78674539D01*
X169941912Y-78674539D01*
G37*
D22*
X170156757Y-79046097D03*
D12*
G36*
X169588359Y-79028093D02*
X169594426Y-79028993D01*
X169600376Y-79030483D01*
X169606151Y-79032550D01*
X169611695Y-79035172D01*
X169616956Y-79038325D01*
X169621883Y-79041979D01*
X169626427Y-79046098D01*
X170156757Y-79576428D01*
X170160876Y-79580972D01*
X170164530Y-79585899D01*
X170167683Y-79591160D01*
X170170305Y-79596704D01*
X170172372Y-79602479D01*
X170173862Y-79608429D01*
X170174762Y-79614496D01*
X170175063Y-79620622D01*
X170174762Y-79626748D01*
X170173862Y-79632815D01*
X170172372Y-79638765D01*
X170170305Y-79644540D01*
X170167683Y-79650084D01*
X170164530Y-79655345D01*
X170160876Y-79660272D01*
X170156757Y-79664816D01*
X170068369Y-79753204D01*
X170063825Y-79757323D01*
X170058898Y-79760977D01*
X170053637Y-79764130D01*
X170048093Y-79766752D01*
X170042318Y-79768819D01*
X170036368Y-79770309D01*
X170030301Y-79771209D01*
X170024175Y-79771510D01*
X170018049Y-79771209D01*
X170011982Y-79770309D01*
X170006032Y-79768819D01*
X170000257Y-79766752D01*
X169994713Y-79764130D01*
X169989452Y-79760977D01*
X169984525Y-79757323D01*
X169979981Y-79753204D01*
X169449651Y-79222874D01*
X169445532Y-79218330D01*
X169441878Y-79213403D01*
X169438725Y-79208142D01*
X169436103Y-79202598D01*
X169434036Y-79196823D01*
X169432546Y-79190873D01*
X169431646Y-79184806D01*
X169431345Y-79178680D01*
X169431646Y-79172554D01*
X169432546Y-79166487D01*
X169434036Y-79160537D01*
X169436103Y-79154762D01*
X169438725Y-79149218D01*
X169441878Y-79143957D01*
X169445532Y-79139030D01*
X169449651Y-79134486D01*
X169538039Y-79046098D01*
X169542583Y-79041979D01*
X169547510Y-79038325D01*
X169552771Y-79035172D01*
X169558315Y-79032550D01*
X169564090Y-79030483D01*
X169570040Y-79028993D01*
X169576107Y-79028093D01*
X169582233Y-79027792D01*
X169588359Y-79028093D01*
X169588359Y-79028093D01*
G37*
D22*
X169803204Y-79399651D03*
D12*
G36*
X169234806Y-79381646D02*
X169240873Y-79382546D01*
X169246823Y-79384036D01*
X169252598Y-79386103D01*
X169258142Y-79388725D01*
X169263403Y-79391878D01*
X169268330Y-79395532D01*
X169272874Y-79399651D01*
X169803204Y-79929981D01*
X169807323Y-79934525D01*
X169810977Y-79939452D01*
X169814130Y-79944713D01*
X169816752Y-79950257D01*
X169818819Y-79956032D01*
X169820309Y-79961982D01*
X169821209Y-79968049D01*
X169821510Y-79974175D01*
X169821209Y-79980301D01*
X169820309Y-79986368D01*
X169818819Y-79992318D01*
X169816752Y-79998093D01*
X169814130Y-80003637D01*
X169810977Y-80008898D01*
X169807323Y-80013825D01*
X169803204Y-80018369D01*
X169714816Y-80106757D01*
X169710272Y-80110876D01*
X169705345Y-80114530D01*
X169700084Y-80117683D01*
X169694540Y-80120305D01*
X169688765Y-80122372D01*
X169682815Y-80123862D01*
X169676748Y-80124762D01*
X169670622Y-80125063D01*
X169664496Y-80124762D01*
X169658429Y-80123862D01*
X169652479Y-80122372D01*
X169646704Y-80120305D01*
X169641160Y-80117683D01*
X169635899Y-80114530D01*
X169630972Y-80110876D01*
X169626428Y-80106757D01*
X169096098Y-79576427D01*
X169091979Y-79571883D01*
X169088325Y-79566956D01*
X169085172Y-79561695D01*
X169082550Y-79556151D01*
X169080483Y-79550376D01*
X169078993Y-79544426D01*
X169078093Y-79538359D01*
X169077792Y-79532233D01*
X169078093Y-79526107D01*
X169078993Y-79520040D01*
X169080483Y-79514090D01*
X169082550Y-79508315D01*
X169085172Y-79502771D01*
X169088325Y-79497510D01*
X169091979Y-79492583D01*
X169096098Y-79488039D01*
X169184486Y-79399651D01*
X169189030Y-79395532D01*
X169193957Y-79391878D01*
X169199218Y-79388725D01*
X169204762Y-79386103D01*
X169210537Y-79384036D01*
X169216487Y-79382546D01*
X169222554Y-79381646D01*
X169228680Y-79381345D01*
X169234806Y-79381646D01*
X169234806Y-79381646D01*
G37*
D22*
X169449651Y-79753204D03*
D12*
G36*
X168881252Y-79735199D02*
X168887319Y-79736099D01*
X168893269Y-79737589D01*
X168899044Y-79739656D01*
X168904588Y-79742278D01*
X168909849Y-79745431D01*
X168914776Y-79749085D01*
X168919320Y-79753204D01*
X169449650Y-80283534D01*
X169453769Y-80288078D01*
X169457423Y-80293005D01*
X169460576Y-80298266D01*
X169463198Y-80303810D01*
X169465265Y-80309585D01*
X169466755Y-80315535D01*
X169467655Y-80321602D01*
X169467956Y-80327728D01*
X169467655Y-80333854D01*
X169466755Y-80339921D01*
X169465265Y-80345871D01*
X169463198Y-80351646D01*
X169460576Y-80357190D01*
X169457423Y-80362451D01*
X169453769Y-80367378D01*
X169449650Y-80371922D01*
X169361262Y-80460310D01*
X169356718Y-80464429D01*
X169351791Y-80468083D01*
X169346530Y-80471236D01*
X169340986Y-80473858D01*
X169335211Y-80475925D01*
X169329261Y-80477415D01*
X169323194Y-80478315D01*
X169317068Y-80478616D01*
X169310942Y-80478315D01*
X169304875Y-80477415D01*
X169298925Y-80475925D01*
X169293150Y-80473858D01*
X169287606Y-80471236D01*
X169282345Y-80468083D01*
X169277418Y-80464429D01*
X169272874Y-80460310D01*
X168742544Y-79929980D01*
X168738425Y-79925436D01*
X168734771Y-79920509D01*
X168731618Y-79915248D01*
X168728996Y-79909704D01*
X168726929Y-79903929D01*
X168725439Y-79897979D01*
X168724539Y-79891912D01*
X168724238Y-79885786D01*
X168724539Y-79879660D01*
X168725439Y-79873593D01*
X168726929Y-79867643D01*
X168728996Y-79861868D01*
X168731618Y-79856324D01*
X168734771Y-79851063D01*
X168738425Y-79846136D01*
X168742544Y-79841592D01*
X168830932Y-79753204D01*
X168835476Y-79749085D01*
X168840403Y-79745431D01*
X168845664Y-79742278D01*
X168851208Y-79739656D01*
X168856983Y-79737589D01*
X168862933Y-79736099D01*
X168869000Y-79735199D01*
X168875126Y-79734898D01*
X168881252Y-79735199D01*
X168881252Y-79735199D01*
G37*
D22*
X169096097Y-80106757D03*
D12*
G36*
X168527699Y-80088753D02*
X168533766Y-80089653D01*
X168539716Y-80091143D01*
X168545491Y-80093210D01*
X168551035Y-80095832D01*
X168556296Y-80098985D01*
X168561223Y-80102639D01*
X168565767Y-80106758D01*
X169096097Y-80637088D01*
X169100216Y-80641632D01*
X169103870Y-80646559D01*
X169107023Y-80651820D01*
X169109645Y-80657364D01*
X169111712Y-80663139D01*
X169113202Y-80669089D01*
X169114102Y-80675156D01*
X169114403Y-80681282D01*
X169114102Y-80687408D01*
X169113202Y-80693475D01*
X169111712Y-80699425D01*
X169109645Y-80705200D01*
X169107023Y-80710744D01*
X169103870Y-80716005D01*
X169100216Y-80720932D01*
X169096097Y-80725476D01*
X169007709Y-80813864D01*
X169003165Y-80817983D01*
X168998238Y-80821637D01*
X168992977Y-80824790D01*
X168987433Y-80827412D01*
X168981658Y-80829479D01*
X168975708Y-80830969D01*
X168969641Y-80831869D01*
X168963515Y-80832170D01*
X168957389Y-80831869D01*
X168951322Y-80830969D01*
X168945372Y-80829479D01*
X168939597Y-80827412D01*
X168934053Y-80824790D01*
X168928792Y-80821637D01*
X168923865Y-80817983D01*
X168919321Y-80813864D01*
X168388991Y-80283534D01*
X168384872Y-80278990D01*
X168381218Y-80274063D01*
X168378065Y-80268802D01*
X168375443Y-80263258D01*
X168373376Y-80257483D01*
X168371886Y-80251533D01*
X168370986Y-80245466D01*
X168370685Y-80239340D01*
X168370986Y-80233214D01*
X168371886Y-80227147D01*
X168373376Y-80221197D01*
X168375443Y-80215422D01*
X168378065Y-80209878D01*
X168381218Y-80204617D01*
X168384872Y-80199690D01*
X168388991Y-80195146D01*
X168477379Y-80106758D01*
X168481923Y-80102639D01*
X168486850Y-80098985D01*
X168492111Y-80095832D01*
X168497655Y-80093210D01*
X168503430Y-80091143D01*
X168509380Y-80089653D01*
X168515447Y-80088753D01*
X168521573Y-80088452D01*
X168527699Y-80088753D01*
X168527699Y-80088753D01*
G37*
D22*
X168742544Y-80460311D03*
D12*
G36*
X168174145Y-80442306D02*
X168180212Y-80443206D01*
X168186162Y-80444696D01*
X168191937Y-80446763D01*
X168197481Y-80449385D01*
X168202742Y-80452538D01*
X168207669Y-80456192D01*
X168212213Y-80460311D01*
X168742543Y-80990641D01*
X168746662Y-80995185D01*
X168750316Y-81000112D01*
X168753469Y-81005373D01*
X168756091Y-81010917D01*
X168758158Y-81016692D01*
X168759648Y-81022642D01*
X168760548Y-81028709D01*
X168760849Y-81034835D01*
X168760548Y-81040961D01*
X168759648Y-81047028D01*
X168758158Y-81052978D01*
X168756091Y-81058753D01*
X168753469Y-81064297D01*
X168750316Y-81069558D01*
X168746662Y-81074485D01*
X168742543Y-81079029D01*
X168654155Y-81167417D01*
X168649611Y-81171536D01*
X168644684Y-81175190D01*
X168639423Y-81178343D01*
X168633879Y-81180965D01*
X168628104Y-81183032D01*
X168622154Y-81184522D01*
X168616087Y-81185422D01*
X168609961Y-81185723D01*
X168603835Y-81185422D01*
X168597768Y-81184522D01*
X168591818Y-81183032D01*
X168586043Y-81180965D01*
X168580499Y-81178343D01*
X168575238Y-81175190D01*
X168570311Y-81171536D01*
X168565767Y-81167417D01*
X168035437Y-80637087D01*
X168031318Y-80632543D01*
X168027664Y-80627616D01*
X168024511Y-80622355D01*
X168021889Y-80616811D01*
X168019822Y-80611036D01*
X168018332Y-80605086D01*
X168017432Y-80599019D01*
X168017131Y-80592893D01*
X168017432Y-80586767D01*
X168018332Y-80580700D01*
X168019822Y-80574750D01*
X168021889Y-80568975D01*
X168024511Y-80563431D01*
X168027664Y-80558170D01*
X168031318Y-80553243D01*
X168035437Y-80548699D01*
X168123825Y-80460311D01*
X168128369Y-80456192D01*
X168133296Y-80452538D01*
X168138557Y-80449385D01*
X168144101Y-80446763D01*
X168149876Y-80444696D01*
X168155826Y-80443206D01*
X168161893Y-80442306D01*
X168168019Y-80442005D01*
X168174145Y-80442306D01*
X168174145Y-80442306D01*
G37*
D22*
X168388990Y-80813864D03*
D12*
G36*
X168616087Y-81414578D02*
X168622154Y-81415478D01*
X168628104Y-81416968D01*
X168633879Y-81419035D01*
X168639423Y-81421657D01*
X168644684Y-81424810D01*
X168649611Y-81428464D01*
X168654155Y-81432583D01*
X168742543Y-81520971D01*
X168746662Y-81525515D01*
X168750316Y-81530442D01*
X168753469Y-81535703D01*
X168756091Y-81541247D01*
X168758158Y-81547022D01*
X168759648Y-81552972D01*
X168760548Y-81559039D01*
X168760849Y-81565165D01*
X168760548Y-81571291D01*
X168759648Y-81577358D01*
X168758158Y-81583308D01*
X168756091Y-81589083D01*
X168753469Y-81594627D01*
X168750316Y-81599888D01*
X168746662Y-81604815D01*
X168742543Y-81609359D01*
X168212213Y-82139689D01*
X168207669Y-82143808D01*
X168202742Y-82147462D01*
X168197481Y-82150615D01*
X168191937Y-82153237D01*
X168186162Y-82155304D01*
X168180212Y-82156794D01*
X168174145Y-82157694D01*
X168168019Y-82157995D01*
X168161893Y-82157694D01*
X168155826Y-82156794D01*
X168149876Y-82155304D01*
X168144101Y-82153237D01*
X168138557Y-82150615D01*
X168133296Y-82147462D01*
X168128369Y-82143808D01*
X168123825Y-82139689D01*
X168035437Y-82051301D01*
X168031318Y-82046757D01*
X168027664Y-82041830D01*
X168024511Y-82036569D01*
X168021889Y-82031025D01*
X168019822Y-82025250D01*
X168018332Y-82019300D01*
X168017432Y-82013233D01*
X168017131Y-82007107D01*
X168017432Y-82000981D01*
X168018332Y-81994914D01*
X168019822Y-81988964D01*
X168021889Y-81983189D01*
X168024511Y-81977645D01*
X168027664Y-81972384D01*
X168031318Y-81967457D01*
X168035437Y-81962913D01*
X168565767Y-81432583D01*
X168570311Y-81428464D01*
X168575238Y-81424810D01*
X168580499Y-81421657D01*
X168586043Y-81419035D01*
X168591818Y-81416968D01*
X168597768Y-81415478D01*
X168603835Y-81414578D01*
X168609961Y-81414277D01*
X168616087Y-81414578D01*
X168616087Y-81414578D01*
G37*
D22*
X168388990Y-81786136D03*
D12*
G36*
X168969641Y-81768131D02*
X168975708Y-81769031D01*
X168981658Y-81770521D01*
X168987433Y-81772588D01*
X168992977Y-81775210D01*
X168998238Y-81778363D01*
X169003165Y-81782017D01*
X169007709Y-81786136D01*
X169096097Y-81874524D01*
X169100216Y-81879068D01*
X169103870Y-81883995D01*
X169107023Y-81889256D01*
X169109645Y-81894800D01*
X169111712Y-81900575D01*
X169113202Y-81906525D01*
X169114102Y-81912592D01*
X169114403Y-81918718D01*
X169114102Y-81924844D01*
X169113202Y-81930911D01*
X169111712Y-81936861D01*
X169109645Y-81942636D01*
X169107023Y-81948180D01*
X169103870Y-81953441D01*
X169100216Y-81958368D01*
X169096097Y-81962912D01*
X168565767Y-82493242D01*
X168561223Y-82497361D01*
X168556296Y-82501015D01*
X168551035Y-82504168D01*
X168545491Y-82506790D01*
X168539716Y-82508857D01*
X168533766Y-82510347D01*
X168527699Y-82511247D01*
X168521573Y-82511548D01*
X168515447Y-82511247D01*
X168509380Y-82510347D01*
X168503430Y-82508857D01*
X168497655Y-82506790D01*
X168492111Y-82504168D01*
X168486850Y-82501015D01*
X168481923Y-82497361D01*
X168477379Y-82493242D01*
X168388991Y-82404854D01*
X168384872Y-82400310D01*
X168381218Y-82395383D01*
X168378065Y-82390122D01*
X168375443Y-82384578D01*
X168373376Y-82378803D01*
X168371886Y-82372853D01*
X168370986Y-82366786D01*
X168370685Y-82360660D01*
X168370986Y-82354534D01*
X168371886Y-82348467D01*
X168373376Y-82342517D01*
X168375443Y-82336742D01*
X168378065Y-82331198D01*
X168381218Y-82325937D01*
X168384872Y-82321010D01*
X168388991Y-82316466D01*
X168919321Y-81786136D01*
X168923865Y-81782017D01*
X168928792Y-81778363D01*
X168934053Y-81775210D01*
X168939597Y-81772588D01*
X168945372Y-81770521D01*
X168951322Y-81769031D01*
X168957389Y-81768131D01*
X168963515Y-81767830D01*
X168969641Y-81768131D01*
X168969641Y-81768131D01*
G37*
D22*
X168742544Y-82139689D03*
D12*
G36*
X169323194Y-82121685D02*
X169329261Y-82122585D01*
X169335211Y-82124075D01*
X169340986Y-82126142D01*
X169346530Y-82128764D01*
X169351791Y-82131917D01*
X169356718Y-82135571D01*
X169361262Y-82139690D01*
X169449650Y-82228078D01*
X169453769Y-82232622D01*
X169457423Y-82237549D01*
X169460576Y-82242810D01*
X169463198Y-82248354D01*
X169465265Y-82254129D01*
X169466755Y-82260079D01*
X169467655Y-82266146D01*
X169467956Y-82272272D01*
X169467655Y-82278398D01*
X169466755Y-82284465D01*
X169465265Y-82290415D01*
X169463198Y-82296190D01*
X169460576Y-82301734D01*
X169457423Y-82306995D01*
X169453769Y-82311922D01*
X169449650Y-82316466D01*
X168919320Y-82846796D01*
X168914776Y-82850915D01*
X168909849Y-82854569D01*
X168904588Y-82857722D01*
X168899044Y-82860344D01*
X168893269Y-82862411D01*
X168887319Y-82863901D01*
X168881252Y-82864801D01*
X168875126Y-82865102D01*
X168869000Y-82864801D01*
X168862933Y-82863901D01*
X168856983Y-82862411D01*
X168851208Y-82860344D01*
X168845664Y-82857722D01*
X168840403Y-82854569D01*
X168835476Y-82850915D01*
X168830932Y-82846796D01*
X168742544Y-82758408D01*
X168738425Y-82753864D01*
X168734771Y-82748937D01*
X168731618Y-82743676D01*
X168728996Y-82738132D01*
X168726929Y-82732357D01*
X168725439Y-82726407D01*
X168724539Y-82720340D01*
X168724238Y-82714214D01*
X168724539Y-82708088D01*
X168725439Y-82702021D01*
X168726929Y-82696071D01*
X168728996Y-82690296D01*
X168731618Y-82684752D01*
X168734771Y-82679491D01*
X168738425Y-82674564D01*
X168742544Y-82670020D01*
X169272874Y-82139690D01*
X169277418Y-82135571D01*
X169282345Y-82131917D01*
X169287606Y-82128764D01*
X169293150Y-82126142D01*
X169298925Y-82124075D01*
X169304875Y-82122585D01*
X169310942Y-82121685D01*
X169317068Y-82121384D01*
X169323194Y-82121685D01*
X169323194Y-82121685D01*
G37*
D22*
X169096097Y-82493243D03*
D12*
G36*
X169676748Y-82475238D02*
X169682815Y-82476138D01*
X169688765Y-82477628D01*
X169694540Y-82479695D01*
X169700084Y-82482317D01*
X169705345Y-82485470D01*
X169710272Y-82489124D01*
X169714816Y-82493243D01*
X169803204Y-82581631D01*
X169807323Y-82586175D01*
X169810977Y-82591102D01*
X169814130Y-82596363D01*
X169816752Y-82601907D01*
X169818819Y-82607682D01*
X169820309Y-82613632D01*
X169821209Y-82619699D01*
X169821510Y-82625825D01*
X169821209Y-82631951D01*
X169820309Y-82638018D01*
X169818819Y-82643968D01*
X169816752Y-82649743D01*
X169814130Y-82655287D01*
X169810977Y-82660548D01*
X169807323Y-82665475D01*
X169803204Y-82670019D01*
X169272874Y-83200349D01*
X169268330Y-83204468D01*
X169263403Y-83208122D01*
X169258142Y-83211275D01*
X169252598Y-83213897D01*
X169246823Y-83215964D01*
X169240873Y-83217454D01*
X169234806Y-83218354D01*
X169228680Y-83218655D01*
X169222554Y-83218354D01*
X169216487Y-83217454D01*
X169210537Y-83215964D01*
X169204762Y-83213897D01*
X169199218Y-83211275D01*
X169193957Y-83208122D01*
X169189030Y-83204468D01*
X169184486Y-83200349D01*
X169096098Y-83111961D01*
X169091979Y-83107417D01*
X169088325Y-83102490D01*
X169085172Y-83097229D01*
X169082550Y-83091685D01*
X169080483Y-83085910D01*
X169078993Y-83079960D01*
X169078093Y-83073893D01*
X169077792Y-83067767D01*
X169078093Y-83061641D01*
X169078993Y-83055574D01*
X169080483Y-83049624D01*
X169082550Y-83043849D01*
X169085172Y-83038305D01*
X169088325Y-83033044D01*
X169091979Y-83028117D01*
X169096098Y-83023573D01*
X169626428Y-82493243D01*
X169630972Y-82489124D01*
X169635899Y-82485470D01*
X169641160Y-82482317D01*
X169646704Y-82479695D01*
X169652479Y-82477628D01*
X169658429Y-82476138D01*
X169664496Y-82475238D01*
X169670622Y-82474937D01*
X169676748Y-82475238D01*
X169676748Y-82475238D01*
G37*
D22*
X169449651Y-82846796D03*
D12*
G36*
X170030301Y-82828791D02*
X170036368Y-82829691D01*
X170042318Y-82831181D01*
X170048093Y-82833248D01*
X170053637Y-82835870D01*
X170058898Y-82839023D01*
X170063825Y-82842677D01*
X170068369Y-82846796D01*
X170156757Y-82935184D01*
X170160876Y-82939728D01*
X170164530Y-82944655D01*
X170167683Y-82949916D01*
X170170305Y-82955460D01*
X170172372Y-82961235D01*
X170173862Y-82967185D01*
X170174762Y-82973252D01*
X170175063Y-82979378D01*
X170174762Y-82985504D01*
X170173862Y-82991571D01*
X170172372Y-82997521D01*
X170170305Y-83003296D01*
X170167683Y-83008840D01*
X170164530Y-83014101D01*
X170160876Y-83019028D01*
X170156757Y-83023572D01*
X169626427Y-83553902D01*
X169621883Y-83558021D01*
X169616956Y-83561675D01*
X169611695Y-83564828D01*
X169606151Y-83567450D01*
X169600376Y-83569517D01*
X169594426Y-83571007D01*
X169588359Y-83571907D01*
X169582233Y-83572208D01*
X169576107Y-83571907D01*
X169570040Y-83571007D01*
X169564090Y-83569517D01*
X169558315Y-83567450D01*
X169552771Y-83564828D01*
X169547510Y-83561675D01*
X169542583Y-83558021D01*
X169538039Y-83553902D01*
X169449651Y-83465514D01*
X169445532Y-83460970D01*
X169441878Y-83456043D01*
X169438725Y-83450782D01*
X169436103Y-83445238D01*
X169434036Y-83439463D01*
X169432546Y-83433513D01*
X169431646Y-83427446D01*
X169431345Y-83421320D01*
X169431646Y-83415194D01*
X169432546Y-83409127D01*
X169434036Y-83403177D01*
X169436103Y-83397402D01*
X169438725Y-83391858D01*
X169441878Y-83386597D01*
X169445532Y-83381670D01*
X169449651Y-83377126D01*
X169979981Y-82846796D01*
X169984525Y-82842677D01*
X169989452Y-82839023D01*
X169994713Y-82835870D01*
X170000257Y-82833248D01*
X170006032Y-82831181D01*
X170011982Y-82829691D01*
X170018049Y-82828791D01*
X170024175Y-82828490D01*
X170030301Y-82828791D01*
X170030301Y-82828791D01*
G37*
D22*
X169803204Y-83200349D03*
D12*
G36*
X170383854Y-83182345D02*
X170389921Y-83183245D01*
X170395871Y-83184735D01*
X170401646Y-83186802D01*
X170407190Y-83189424D01*
X170412451Y-83192577D01*
X170417378Y-83196231D01*
X170421922Y-83200350D01*
X170510310Y-83288738D01*
X170514429Y-83293282D01*
X170518083Y-83298209D01*
X170521236Y-83303470D01*
X170523858Y-83309014D01*
X170525925Y-83314789D01*
X170527415Y-83320739D01*
X170528315Y-83326806D01*
X170528616Y-83332932D01*
X170528315Y-83339058D01*
X170527415Y-83345125D01*
X170525925Y-83351075D01*
X170523858Y-83356850D01*
X170521236Y-83362394D01*
X170518083Y-83367655D01*
X170514429Y-83372582D01*
X170510310Y-83377126D01*
X169979980Y-83907456D01*
X169975436Y-83911575D01*
X169970509Y-83915229D01*
X169965248Y-83918382D01*
X169959704Y-83921004D01*
X169953929Y-83923071D01*
X169947979Y-83924561D01*
X169941912Y-83925461D01*
X169935786Y-83925762D01*
X169929660Y-83925461D01*
X169923593Y-83924561D01*
X169917643Y-83923071D01*
X169911868Y-83921004D01*
X169906324Y-83918382D01*
X169901063Y-83915229D01*
X169896136Y-83911575D01*
X169891592Y-83907456D01*
X169803204Y-83819068D01*
X169799085Y-83814524D01*
X169795431Y-83809597D01*
X169792278Y-83804336D01*
X169789656Y-83798792D01*
X169787589Y-83793017D01*
X169786099Y-83787067D01*
X169785199Y-83781000D01*
X169784898Y-83774874D01*
X169785199Y-83768748D01*
X169786099Y-83762681D01*
X169787589Y-83756731D01*
X169789656Y-83750956D01*
X169792278Y-83745412D01*
X169795431Y-83740151D01*
X169799085Y-83735224D01*
X169803204Y-83730680D01*
X170333534Y-83200350D01*
X170338078Y-83196231D01*
X170343005Y-83192577D01*
X170348266Y-83189424D01*
X170353810Y-83186802D01*
X170359585Y-83184735D01*
X170365535Y-83183245D01*
X170371602Y-83182345D01*
X170377728Y-83182044D01*
X170383854Y-83182345D01*
X170383854Y-83182345D01*
G37*
D22*
X170156757Y-83553903D03*
D12*
G36*
X170737408Y-83535898D02*
X170743475Y-83536798D01*
X170749425Y-83538288D01*
X170755200Y-83540355D01*
X170760744Y-83542977D01*
X170766005Y-83546130D01*
X170770932Y-83549784D01*
X170775476Y-83553903D01*
X170863864Y-83642291D01*
X170867983Y-83646835D01*
X170871637Y-83651762D01*
X170874790Y-83657023D01*
X170877412Y-83662567D01*
X170879479Y-83668342D01*
X170880969Y-83674292D01*
X170881869Y-83680359D01*
X170882170Y-83686485D01*
X170881869Y-83692611D01*
X170880969Y-83698678D01*
X170879479Y-83704628D01*
X170877412Y-83710403D01*
X170874790Y-83715947D01*
X170871637Y-83721208D01*
X170867983Y-83726135D01*
X170863864Y-83730679D01*
X170333534Y-84261009D01*
X170328990Y-84265128D01*
X170324063Y-84268782D01*
X170318802Y-84271935D01*
X170313258Y-84274557D01*
X170307483Y-84276624D01*
X170301533Y-84278114D01*
X170295466Y-84279014D01*
X170289340Y-84279315D01*
X170283214Y-84279014D01*
X170277147Y-84278114D01*
X170271197Y-84276624D01*
X170265422Y-84274557D01*
X170259878Y-84271935D01*
X170254617Y-84268782D01*
X170249690Y-84265128D01*
X170245146Y-84261009D01*
X170156758Y-84172621D01*
X170152639Y-84168077D01*
X170148985Y-84163150D01*
X170145832Y-84157889D01*
X170143210Y-84152345D01*
X170141143Y-84146570D01*
X170139653Y-84140620D01*
X170138753Y-84134553D01*
X170138452Y-84128427D01*
X170138753Y-84122301D01*
X170139653Y-84116234D01*
X170141143Y-84110284D01*
X170143210Y-84104509D01*
X170145832Y-84098965D01*
X170148985Y-84093704D01*
X170152639Y-84088777D01*
X170156758Y-84084233D01*
X170687088Y-83553903D01*
X170691632Y-83549784D01*
X170696559Y-83546130D01*
X170701820Y-83542977D01*
X170707364Y-83540355D01*
X170713139Y-83538288D01*
X170719089Y-83536798D01*
X170725156Y-83535898D01*
X170731282Y-83535597D01*
X170737408Y-83535898D01*
X170737408Y-83535898D01*
G37*
D22*
X170510311Y-83907456D03*
D12*
G36*
X171090961Y-83889452D02*
X171097028Y-83890352D01*
X171102978Y-83891842D01*
X171108753Y-83893909D01*
X171114297Y-83896531D01*
X171119558Y-83899684D01*
X171124485Y-83903338D01*
X171129029Y-83907457D01*
X171217417Y-83995845D01*
X171221536Y-84000389D01*
X171225190Y-84005316D01*
X171228343Y-84010577D01*
X171230965Y-84016121D01*
X171233032Y-84021896D01*
X171234522Y-84027846D01*
X171235422Y-84033913D01*
X171235723Y-84040039D01*
X171235422Y-84046165D01*
X171234522Y-84052232D01*
X171233032Y-84058182D01*
X171230965Y-84063957D01*
X171228343Y-84069501D01*
X171225190Y-84074762D01*
X171221536Y-84079689D01*
X171217417Y-84084233D01*
X170687087Y-84614563D01*
X170682543Y-84618682D01*
X170677616Y-84622336D01*
X170672355Y-84625489D01*
X170666811Y-84628111D01*
X170661036Y-84630178D01*
X170655086Y-84631668D01*
X170649019Y-84632568D01*
X170642893Y-84632869D01*
X170636767Y-84632568D01*
X170630700Y-84631668D01*
X170624750Y-84630178D01*
X170618975Y-84628111D01*
X170613431Y-84625489D01*
X170608170Y-84622336D01*
X170603243Y-84618682D01*
X170598699Y-84614563D01*
X170510311Y-84526175D01*
X170506192Y-84521631D01*
X170502538Y-84516704D01*
X170499385Y-84511443D01*
X170496763Y-84505899D01*
X170494696Y-84500124D01*
X170493206Y-84494174D01*
X170492306Y-84488107D01*
X170492005Y-84481981D01*
X170492306Y-84475855D01*
X170493206Y-84469788D01*
X170494696Y-84463838D01*
X170496763Y-84458063D01*
X170499385Y-84452519D01*
X170502538Y-84447258D01*
X170506192Y-84442331D01*
X170510311Y-84437787D01*
X171040641Y-83907457D01*
X171045185Y-83903338D01*
X171050112Y-83899684D01*
X171055373Y-83896531D01*
X171060917Y-83893909D01*
X171066692Y-83891842D01*
X171072642Y-83890352D01*
X171078709Y-83889452D01*
X171084835Y-83889151D01*
X171090961Y-83889452D01*
X171090961Y-83889452D01*
G37*
D22*
X170863864Y-84261010D03*
G04 #@! TD*
D23*
G04 #@! TO.C,Y1*
X166949695Y-85233579D03*
D12*
G36*
X166985050Y-85834620D02*
X166348654Y-85198224D01*
X166914340Y-84632538D01*
X167550736Y-85268934D01*
X166985050Y-85834620D01*
X166985050Y-85834620D01*
G37*
D23*
X169000305Y-85516421D03*
D12*
G36*
X169035660Y-86117462D02*
X168399264Y-85481066D01*
X168964950Y-84915380D01*
X169601346Y-85551776D01*
X169035660Y-86117462D01*
X169035660Y-86117462D01*
G37*
D23*
X168116421Y-86400305D03*
D12*
G36*
X168151776Y-87001346D02*
X167515380Y-86364950D01*
X168081066Y-85799264D01*
X168717462Y-86435660D01*
X168151776Y-87001346D01*
X168151776Y-87001346D01*
G37*
D23*
X167833579Y-84349695D03*
D12*
G36*
X167868934Y-84950736D02*
X167232538Y-84314340D01*
X167798224Y-83748654D01*
X168434620Y-84385050D01*
X167868934Y-84950736D01*
X167868934Y-84950736D01*
G37*
G04 #@! TD*
M02*
