G04 #@! TF.GenerationSoftware,KiCad,Pcbnew,(5.1.2-1)-1*
G04 #@! TF.CreationDate,2020-12-18T00:06:06+00:00*
G04 #@! TF.ProjectId,ESPV-BUG,45535056-2d42-4554-972e-6b696361645f,rev?*
G04 #@! TF.SameCoordinates,Original*
G04 #@! TF.FileFunction,Soldermask,Bot*
G04 #@! TF.FilePolarity,Negative*
%FSLAX46Y46*%
G04 Gerber Fmt 4.6, Leading zero omitted, Abs format (unit mm)*
G04 Created by KiCad (PCBNEW (5.1.2-1)-1) date 2020-12-18 00:06:06*
%MOMM*%
%LPD*%
G04 APERTURE LIST*
%ADD10C,0.100000*%
G04 APERTURE END LIST*
D10*
G36*
X179651000Y-89951000D02*
G01*
X177494298Y-89951000D01*
X177493447Y-89950302D01*
X177471836Y-89938751D01*
X177448390Y-89931638D01*
X177439278Y-89929825D01*
X177339005Y-89888291D01*
X177264173Y-89838290D01*
X177248758Y-89827990D01*
X177172010Y-89751242D01*
X177111710Y-89660996D01*
X177111709Y-89660995D01*
X177070174Y-89560721D01*
X177049000Y-89454270D01*
X177049000Y-89345730D01*
X177070174Y-89239279D01*
X177111709Y-89139005D01*
X177172009Y-89048760D01*
X177172010Y-89048758D01*
X177248758Y-88972010D01*
X177339004Y-88911710D01*
X177339005Y-88911709D01*
X177439278Y-88870175D01*
X177448390Y-88868362D01*
X177471838Y-88861248D01*
X177493449Y-88849696D01*
X177494297Y-88849000D01*
X179651000Y-88849000D01*
X179651000Y-89951000D01*
X179651000Y-89951000D01*
G37*
G36*
X164656553Y-88799698D02*
G01*
X164678164Y-88811249D01*
X164701610Y-88818362D01*
X164710722Y-88820175D01*
X164810995Y-88861709D01*
X164823665Y-88870175D01*
X164901242Y-88922010D01*
X164977990Y-88998758D01*
X164977991Y-88998760D01*
X165038291Y-89089005D01*
X165079826Y-89189279D01*
X165101000Y-89295730D01*
X165101000Y-89404270D01*
X165079826Y-89510721D01*
X165038291Y-89610995D01*
X165038290Y-89610996D01*
X164977990Y-89701242D01*
X164901242Y-89777990D01*
X164855812Y-89808345D01*
X164810995Y-89838291D01*
X164710722Y-89879825D01*
X164701610Y-89881638D01*
X164678162Y-89888752D01*
X164656551Y-89900304D01*
X164655703Y-89901000D01*
X162499000Y-89901000D01*
X162499000Y-88799000D01*
X164655702Y-88799000D01*
X164656553Y-88799698D01*
X164656553Y-88799698D01*
G37*
G36*
X179651000Y-87951000D02*
G01*
X177494298Y-87951000D01*
X177493447Y-87950302D01*
X177471836Y-87938751D01*
X177448390Y-87931638D01*
X177439278Y-87929825D01*
X177339005Y-87888291D01*
X177264173Y-87838290D01*
X177248758Y-87827990D01*
X177172010Y-87751242D01*
X177111710Y-87660996D01*
X177111709Y-87660995D01*
X177070174Y-87560721D01*
X177049000Y-87454270D01*
X177049000Y-87345730D01*
X177070174Y-87239279D01*
X177111709Y-87139005D01*
X177172009Y-87048760D01*
X177172010Y-87048758D01*
X177248758Y-86972010D01*
X177339004Y-86911710D01*
X177339005Y-86911709D01*
X177439278Y-86870175D01*
X177448390Y-86868362D01*
X177471838Y-86861248D01*
X177493449Y-86849696D01*
X177494297Y-86849000D01*
X179651000Y-86849000D01*
X179651000Y-87951000D01*
X179651000Y-87951000D01*
G37*
G36*
X164656553Y-86799698D02*
G01*
X164678164Y-86811249D01*
X164701610Y-86818362D01*
X164710722Y-86820175D01*
X164810995Y-86861709D01*
X164823665Y-86870175D01*
X164901242Y-86922010D01*
X164977990Y-86998758D01*
X164977991Y-86998760D01*
X165038291Y-87089005D01*
X165079826Y-87189279D01*
X165101000Y-87295730D01*
X165101000Y-87404270D01*
X165079826Y-87510721D01*
X165038291Y-87610995D01*
X165038290Y-87610996D01*
X164977990Y-87701242D01*
X164901242Y-87777990D01*
X164855812Y-87808345D01*
X164810995Y-87838291D01*
X164710722Y-87879825D01*
X164701610Y-87881638D01*
X164678162Y-87888752D01*
X164656551Y-87900304D01*
X164655703Y-87901000D01*
X162499000Y-87901000D01*
X162499000Y-86799000D01*
X164655702Y-86799000D01*
X164656553Y-86799698D01*
X164656553Y-86799698D01*
G37*
G36*
X179651000Y-85951000D02*
G01*
X177494298Y-85951000D01*
X177493447Y-85950302D01*
X177471836Y-85938751D01*
X177448390Y-85931638D01*
X177439278Y-85929825D01*
X177339005Y-85888291D01*
X177264173Y-85838290D01*
X177248758Y-85827990D01*
X177172010Y-85751242D01*
X177111710Y-85660996D01*
X177111709Y-85660995D01*
X177070174Y-85560721D01*
X177049000Y-85454270D01*
X177049000Y-85345730D01*
X177070174Y-85239279D01*
X177111709Y-85139005D01*
X177172009Y-85048760D01*
X177172010Y-85048758D01*
X177248758Y-84972010D01*
X177339004Y-84911710D01*
X177339005Y-84911709D01*
X177439278Y-84870175D01*
X177448390Y-84868362D01*
X177471838Y-84861248D01*
X177493449Y-84849696D01*
X177494297Y-84849000D01*
X179651000Y-84849000D01*
X179651000Y-85951000D01*
X179651000Y-85951000D01*
G37*
G36*
X164656553Y-84799698D02*
G01*
X164678164Y-84811249D01*
X164701610Y-84818362D01*
X164710722Y-84820175D01*
X164810995Y-84861709D01*
X164823665Y-84870175D01*
X164901242Y-84922010D01*
X164977990Y-84998758D01*
X164977991Y-84998760D01*
X165038291Y-85089005D01*
X165079826Y-85189279D01*
X165101000Y-85295730D01*
X165101000Y-85404270D01*
X165079826Y-85510721D01*
X165038291Y-85610995D01*
X165038290Y-85610996D01*
X164977990Y-85701242D01*
X164901242Y-85777990D01*
X164855812Y-85808345D01*
X164810995Y-85838291D01*
X164710722Y-85879825D01*
X164701610Y-85881638D01*
X164678162Y-85888752D01*
X164656551Y-85900304D01*
X164655703Y-85901000D01*
X162499000Y-85901000D01*
X162499000Y-84799000D01*
X164655702Y-84799000D01*
X164656553Y-84799698D01*
X164656553Y-84799698D01*
G37*
G36*
X179651000Y-83951000D02*
G01*
X177494298Y-83951000D01*
X177493447Y-83950302D01*
X177471836Y-83938751D01*
X177448390Y-83931638D01*
X177439278Y-83929825D01*
X177339005Y-83888291D01*
X177264173Y-83838290D01*
X177248758Y-83827990D01*
X177172010Y-83751242D01*
X177111710Y-83660996D01*
X177111709Y-83660995D01*
X177070174Y-83560721D01*
X177049000Y-83454270D01*
X177049000Y-83345730D01*
X177070174Y-83239279D01*
X177111709Y-83139005D01*
X177172009Y-83048760D01*
X177172010Y-83048758D01*
X177248758Y-82972010D01*
X177339004Y-82911710D01*
X177339005Y-82911709D01*
X177439278Y-82870175D01*
X177448390Y-82868362D01*
X177471838Y-82861248D01*
X177493449Y-82849696D01*
X177494297Y-82849000D01*
X179651000Y-82849000D01*
X179651000Y-83951000D01*
X179651000Y-83951000D01*
G37*
G36*
X164656553Y-82799698D02*
G01*
X164678164Y-82811249D01*
X164701610Y-82818362D01*
X164710722Y-82820175D01*
X164810995Y-82861709D01*
X164823665Y-82870175D01*
X164901242Y-82922010D01*
X164977990Y-82998758D01*
X164977991Y-82998760D01*
X165038291Y-83089005D01*
X165079826Y-83189279D01*
X165101000Y-83295730D01*
X165101000Y-83404270D01*
X165079826Y-83510721D01*
X165038291Y-83610995D01*
X165038290Y-83610996D01*
X164977990Y-83701242D01*
X164901242Y-83777990D01*
X164855812Y-83808345D01*
X164810995Y-83838291D01*
X164710722Y-83879825D01*
X164701610Y-83881638D01*
X164678162Y-83888752D01*
X164656551Y-83900304D01*
X164655703Y-83901000D01*
X162499000Y-83901000D01*
X162499000Y-82799000D01*
X164655702Y-82799000D01*
X164656553Y-82799698D01*
X164656553Y-82799698D01*
G37*
G36*
X179651000Y-81951000D02*
G01*
X177494298Y-81951000D01*
X177493447Y-81950302D01*
X177471836Y-81938751D01*
X177448390Y-81931638D01*
X177439278Y-81929825D01*
X177339005Y-81888291D01*
X177264173Y-81838290D01*
X177248758Y-81827990D01*
X177172010Y-81751242D01*
X177111710Y-81660996D01*
X177111709Y-81660995D01*
X177070174Y-81560721D01*
X177049000Y-81454270D01*
X177049000Y-81345730D01*
X177070174Y-81239279D01*
X177111709Y-81139005D01*
X177172009Y-81048760D01*
X177172010Y-81048758D01*
X177248758Y-80972010D01*
X177339004Y-80911710D01*
X177339005Y-80911709D01*
X177439278Y-80870175D01*
X177448390Y-80868362D01*
X177471838Y-80861248D01*
X177493449Y-80849696D01*
X177494297Y-80849000D01*
X179651000Y-80849000D01*
X179651000Y-81951000D01*
X179651000Y-81951000D01*
G37*
G36*
X164656553Y-80799698D02*
G01*
X164678164Y-80811249D01*
X164701610Y-80818362D01*
X164710722Y-80820175D01*
X164810995Y-80861709D01*
X164823665Y-80870175D01*
X164901242Y-80922010D01*
X164977990Y-80998758D01*
X164977991Y-80998760D01*
X165038291Y-81089005D01*
X165079826Y-81189279D01*
X165101000Y-81295730D01*
X165101000Y-81404270D01*
X165079826Y-81510721D01*
X165038291Y-81610995D01*
X165038290Y-81610996D01*
X164977990Y-81701242D01*
X164901242Y-81777990D01*
X164855812Y-81808345D01*
X164810995Y-81838291D01*
X164710722Y-81879825D01*
X164701610Y-81881638D01*
X164678162Y-81888752D01*
X164656551Y-81900304D01*
X164655703Y-81901000D01*
X162499000Y-81901000D01*
X162499000Y-80799000D01*
X164655702Y-80799000D01*
X164656553Y-80799698D01*
X164656553Y-80799698D01*
G37*
G36*
X179651000Y-79951000D02*
G01*
X177494298Y-79951000D01*
X177493447Y-79950302D01*
X177471836Y-79938751D01*
X177448390Y-79931638D01*
X177439278Y-79929825D01*
X177339005Y-79888291D01*
X177264173Y-79838290D01*
X177248758Y-79827990D01*
X177172010Y-79751242D01*
X177111710Y-79660996D01*
X177111709Y-79660995D01*
X177070174Y-79560721D01*
X177049000Y-79454270D01*
X177049000Y-79345730D01*
X177070174Y-79239279D01*
X177111709Y-79139005D01*
X177172009Y-79048760D01*
X177172010Y-79048758D01*
X177248758Y-78972010D01*
X177339004Y-78911710D01*
X177339005Y-78911709D01*
X177439278Y-78870175D01*
X177448390Y-78868362D01*
X177471838Y-78861248D01*
X177493449Y-78849696D01*
X177494297Y-78849000D01*
X179651000Y-78849000D01*
X179651000Y-79951000D01*
X179651000Y-79951000D01*
G37*
G36*
X164656553Y-78799698D02*
G01*
X164678164Y-78811249D01*
X164701610Y-78818362D01*
X164710722Y-78820175D01*
X164810995Y-78861709D01*
X164823665Y-78870175D01*
X164901242Y-78922010D01*
X164977990Y-78998758D01*
X164977991Y-78998760D01*
X165038291Y-79089005D01*
X165079826Y-79189279D01*
X165101000Y-79295730D01*
X165101000Y-79404270D01*
X165079826Y-79510721D01*
X165038291Y-79610995D01*
X165038290Y-79610996D01*
X164977990Y-79701242D01*
X164901242Y-79777990D01*
X164855812Y-79808345D01*
X164810995Y-79838291D01*
X164710722Y-79879825D01*
X164701610Y-79881638D01*
X164678162Y-79888752D01*
X164656551Y-79900304D01*
X164655703Y-79901000D01*
X162499000Y-79901000D01*
X162499000Y-78799000D01*
X164655702Y-78799000D01*
X164656553Y-78799698D01*
X164656553Y-78799698D01*
G37*
G36*
X179651000Y-77951000D02*
G01*
X177494298Y-77951000D01*
X177493447Y-77950302D01*
X177471836Y-77938751D01*
X177448390Y-77931638D01*
X177439278Y-77929825D01*
X177339005Y-77888291D01*
X177264173Y-77838290D01*
X177248758Y-77827990D01*
X177172010Y-77751242D01*
X177111710Y-77660996D01*
X177111709Y-77660995D01*
X177070174Y-77560721D01*
X177049000Y-77454270D01*
X177049000Y-77345730D01*
X177070174Y-77239279D01*
X177111709Y-77139005D01*
X177172009Y-77048760D01*
X177172010Y-77048758D01*
X177248758Y-76972010D01*
X177339004Y-76911710D01*
X177339005Y-76911709D01*
X177439278Y-76870175D01*
X177448390Y-76868362D01*
X177471838Y-76861248D01*
X177493449Y-76849696D01*
X177494297Y-76849000D01*
X179651000Y-76849000D01*
X179651000Y-77951000D01*
X179651000Y-77951000D01*
G37*
G36*
X164656553Y-76799698D02*
G01*
X164678164Y-76811249D01*
X164701610Y-76818362D01*
X164710722Y-76820175D01*
X164810995Y-76861709D01*
X164823665Y-76870175D01*
X164901242Y-76922010D01*
X164977990Y-76998758D01*
X164977991Y-76998760D01*
X165038291Y-77089005D01*
X165079826Y-77189279D01*
X165101000Y-77295730D01*
X165101000Y-77404270D01*
X165079826Y-77510721D01*
X165038291Y-77610995D01*
X165038290Y-77610996D01*
X164977990Y-77701242D01*
X164901242Y-77777990D01*
X164855812Y-77808345D01*
X164810995Y-77838291D01*
X164710722Y-77879825D01*
X164701610Y-77881638D01*
X164678162Y-77888752D01*
X164656551Y-77900304D01*
X164655703Y-77901000D01*
X162499000Y-77901000D01*
X162499000Y-76799000D01*
X164655702Y-76799000D01*
X164656553Y-76799698D01*
X164656553Y-76799698D01*
G37*
G36*
X179651000Y-75951000D02*
G01*
X177494298Y-75951000D01*
X177493447Y-75950302D01*
X177471836Y-75938751D01*
X177448390Y-75931638D01*
X177439278Y-75929825D01*
X177339005Y-75888291D01*
X177264173Y-75838290D01*
X177248758Y-75827990D01*
X177172010Y-75751242D01*
X177111710Y-75660996D01*
X177111709Y-75660995D01*
X177070174Y-75560721D01*
X177049000Y-75454270D01*
X177049000Y-75345730D01*
X177070174Y-75239279D01*
X177111709Y-75139005D01*
X177172009Y-75048760D01*
X177172010Y-75048758D01*
X177248758Y-74972010D01*
X177339004Y-74911710D01*
X177339005Y-74911709D01*
X177439278Y-74870175D01*
X177448390Y-74868362D01*
X177471838Y-74861248D01*
X177493449Y-74849696D01*
X177494297Y-74849000D01*
X179651000Y-74849000D01*
X179651000Y-75951000D01*
X179651000Y-75951000D01*
G37*
G36*
X164656553Y-74799698D02*
G01*
X164678164Y-74811249D01*
X164701610Y-74818362D01*
X164710722Y-74820175D01*
X164810995Y-74861709D01*
X164823665Y-74870175D01*
X164901242Y-74922010D01*
X164977990Y-74998758D01*
X164977991Y-74998760D01*
X165038291Y-75089005D01*
X165079826Y-75189279D01*
X165101000Y-75295730D01*
X165101000Y-75404270D01*
X165079826Y-75510721D01*
X165038291Y-75610995D01*
X165038290Y-75610996D01*
X164977990Y-75701242D01*
X164901242Y-75777990D01*
X164855812Y-75808345D01*
X164810995Y-75838291D01*
X164710722Y-75879825D01*
X164701610Y-75881638D01*
X164678162Y-75888752D01*
X164656551Y-75900304D01*
X164655703Y-75901000D01*
X162499000Y-75901000D01*
X162499000Y-74799000D01*
X164655702Y-74799000D01*
X164656553Y-74799698D01*
X164656553Y-74799698D01*
G37*
G36*
X179651000Y-73951000D02*
G01*
X177494298Y-73951000D01*
X177493447Y-73950302D01*
X177471836Y-73938751D01*
X177448390Y-73931638D01*
X177439278Y-73929825D01*
X177339005Y-73888291D01*
X177264173Y-73838290D01*
X177248758Y-73827990D01*
X177172010Y-73751242D01*
X177111710Y-73660996D01*
X177111709Y-73660995D01*
X177070174Y-73560721D01*
X177049000Y-73454270D01*
X177049000Y-73345730D01*
X177070174Y-73239279D01*
X177111709Y-73139005D01*
X177172009Y-73048760D01*
X177172010Y-73048758D01*
X177248758Y-72972010D01*
X177339004Y-72911710D01*
X177339005Y-72911709D01*
X177439278Y-72870175D01*
X177448390Y-72868362D01*
X177471838Y-72861248D01*
X177493449Y-72849696D01*
X177494297Y-72849000D01*
X179651000Y-72849000D01*
X179651000Y-73951000D01*
X179651000Y-73951000D01*
G37*
G36*
X164656553Y-72799698D02*
G01*
X164678164Y-72811249D01*
X164701610Y-72818362D01*
X164710722Y-72820175D01*
X164810995Y-72861709D01*
X164823665Y-72870175D01*
X164901242Y-72922010D01*
X164977990Y-72998758D01*
X164977991Y-72998760D01*
X165038291Y-73089005D01*
X165079826Y-73189279D01*
X165101000Y-73295730D01*
X165101000Y-73404270D01*
X165079826Y-73510721D01*
X165038291Y-73610995D01*
X165038290Y-73610996D01*
X164977990Y-73701242D01*
X164901242Y-73777990D01*
X164855812Y-73808345D01*
X164810995Y-73838291D01*
X164710722Y-73879825D01*
X164701610Y-73881638D01*
X164678162Y-73888752D01*
X164656551Y-73900304D01*
X164655703Y-73901000D01*
X162499000Y-73901000D01*
X162499000Y-72799000D01*
X164655702Y-72799000D01*
X164656553Y-72799698D01*
X164656553Y-72799698D01*
G37*
G36*
X179651000Y-71951000D02*
G01*
X177494298Y-71951000D01*
X177493447Y-71950302D01*
X177471836Y-71938751D01*
X177448390Y-71931638D01*
X177439278Y-71929825D01*
X177339005Y-71888291D01*
X177264173Y-71838290D01*
X177248758Y-71827990D01*
X177172010Y-71751242D01*
X177111710Y-71660996D01*
X177111709Y-71660995D01*
X177070174Y-71560721D01*
X177049000Y-71454270D01*
X177049000Y-71345730D01*
X177070174Y-71239279D01*
X177111709Y-71139005D01*
X177172009Y-71048760D01*
X177172010Y-71048758D01*
X177248758Y-70972010D01*
X177339004Y-70911710D01*
X177339005Y-70911709D01*
X177439278Y-70870175D01*
X177448390Y-70868362D01*
X177471838Y-70861248D01*
X177493449Y-70849696D01*
X177494297Y-70849000D01*
X179651000Y-70849000D01*
X179651000Y-71951000D01*
X179651000Y-71951000D01*
G37*
G36*
X164656553Y-70799698D02*
G01*
X164678164Y-70811249D01*
X164701610Y-70818362D01*
X164710722Y-70820175D01*
X164810995Y-70861709D01*
X164823665Y-70870175D01*
X164901242Y-70922010D01*
X164977990Y-70998758D01*
X164977991Y-70998760D01*
X165038291Y-71089005D01*
X165079826Y-71189279D01*
X165101000Y-71295730D01*
X165101000Y-71404270D01*
X165079826Y-71510721D01*
X165038291Y-71610995D01*
X165038290Y-71610996D01*
X164977990Y-71701242D01*
X164901242Y-71777990D01*
X164855812Y-71808345D01*
X164810995Y-71838291D01*
X164710722Y-71879825D01*
X164701610Y-71881638D01*
X164678162Y-71888752D01*
X164656551Y-71900304D01*
X164655703Y-71901000D01*
X162499000Y-71901000D01*
X162499000Y-70799000D01*
X164655702Y-70799000D01*
X164656553Y-70799698D01*
X164656553Y-70799698D01*
G37*
G36*
X179651000Y-69951000D02*
G01*
X177494298Y-69951000D01*
X177493447Y-69950302D01*
X177471836Y-69938751D01*
X177448390Y-69931638D01*
X177439278Y-69929825D01*
X177339005Y-69888291D01*
X177264173Y-69838290D01*
X177248758Y-69827990D01*
X177172010Y-69751242D01*
X177111710Y-69660996D01*
X177111709Y-69660995D01*
X177070174Y-69560721D01*
X177049000Y-69454270D01*
X177049000Y-69345730D01*
X177070174Y-69239279D01*
X177111709Y-69139005D01*
X177172009Y-69048760D01*
X177172010Y-69048758D01*
X177248758Y-68972010D01*
X177339004Y-68911710D01*
X177339005Y-68911709D01*
X177439278Y-68870175D01*
X177448390Y-68868362D01*
X177471838Y-68861248D01*
X177493449Y-68849696D01*
X177494297Y-68849000D01*
X179651000Y-68849000D01*
X179651000Y-69951000D01*
X179651000Y-69951000D01*
G37*
G36*
X164656553Y-68799698D02*
G01*
X164678164Y-68811249D01*
X164701610Y-68818362D01*
X164710722Y-68820175D01*
X164810995Y-68861709D01*
X164823665Y-68870175D01*
X164901242Y-68922010D01*
X164977990Y-68998758D01*
X164977991Y-68998760D01*
X165038291Y-69089005D01*
X165079826Y-69189279D01*
X165101000Y-69295730D01*
X165101000Y-69404270D01*
X165079826Y-69510721D01*
X165038291Y-69610995D01*
X165038290Y-69610996D01*
X164977990Y-69701242D01*
X164901242Y-69777990D01*
X164855812Y-69808345D01*
X164810995Y-69838291D01*
X164710722Y-69879825D01*
X164701610Y-69881638D01*
X164678162Y-69888752D01*
X164656551Y-69900304D01*
X164655703Y-69901000D01*
X162499000Y-69901000D01*
X162499000Y-68799000D01*
X164655702Y-68799000D01*
X164656553Y-68799698D01*
X164656553Y-68799698D01*
G37*
G36*
X179651000Y-67951000D02*
G01*
X177494298Y-67951000D01*
X177493447Y-67950302D01*
X177471836Y-67938751D01*
X177448390Y-67931638D01*
X177439278Y-67929825D01*
X177339005Y-67888291D01*
X177264173Y-67838290D01*
X177248758Y-67827990D01*
X177172010Y-67751242D01*
X177111710Y-67660996D01*
X177111709Y-67660995D01*
X177070174Y-67560721D01*
X177049000Y-67454270D01*
X177049000Y-67345730D01*
X177070174Y-67239279D01*
X177111709Y-67139005D01*
X177172009Y-67048760D01*
X177172010Y-67048758D01*
X177248758Y-66972010D01*
X177339004Y-66911710D01*
X177339005Y-66911709D01*
X177439278Y-66870175D01*
X177448390Y-66868362D01*
X177471838Y-66861248D01*
X177493449Y-66849696D01*
X177494297Y-66849000D01*
X179651000Y-66849000D01*
X179651000Y-67951000D01*
X179651000Y-67951000D01*
G37*
G36*
X164656553Y-66799698D02*
G01*
X164678164Y-66811249D01*
X164701610Y-66818362D01*
X164710722Y-66820175D01*
X164810995Y-66861709D01*
X164823665Y-66870175D01*
X164901242Y-66922010D01*
X164977990Y-66998758D01*
X164977991Y-66998760D01*
X165038291Y-67089005D01*
X165079826Y-67189279D01*
X165101000Y-67295730D01*
X165101000Y-67404270D01*
X165079826Y-67510721D01*
X165038291Y-67610995D01*
X165038290Y-67610996D01*
X164977990Y-67701242D01*
X164901242Y-67777990D01*
X164855812Y-67808345D01*
X164810995Y-67838291D01*
X164710722Y-67879825D01*
X164701610Y-67881638D01*
X164678162Y-67888752D01*
X164656551Y-67900304D01*
X164655703Y-67901000D01*
X162499000Y-67901000D01*
X162499000Y-66799000D01*
X164655702Y-66799000D01*
X164656553Y-66799698D01*
X164656553Y-66799698D01*
G37*
G36*
X167501000Y-67105702D02*
G01*
X167500302Y-67106553D01*
X167488751Y-67128164D01*
X167481638Y-67151610D01*
X167479825Y-67160722D01*
X167438291Y-67260995D01*
X167438290Y-67260996D01*
X167377990Y-67351242D01*
X167301242Y-67427990D01*
X167261912Y-67454269D01*
X167210995Y-67488291D01*
X167110721Y-67529826D01*
X167004270Y-67551000D01*
X166895730Y-67551000D01*
X166789279Y-67529826D01*
X166689005Y-67488291D01*
X166638088Y-67454269D01*
X166598758Y-67427990D01*
X166522010Y-67351242D01*
X166461710Y-67260996D01*
X166461709Y-67260995D01*
X166420175Y-67160722D01*
X166418362Y-67151610D01*
X166411248Y-67128162D01*
X166399696Y-67106551D01*
X166399000Y-67105703D01*
X166399000Y-64949000D01*
X167501000Y-64949000D01*
X167501000Y-67105702D01*
X167501000Y-67105702D01*
G37*
G36*
X169501000Y-67105702D02*
G01*
X169500302Y-67106553D01*
X169488751Y-67128164D01*
X169481638Y-67151610D01*
X169479825Y-67160722D01*
X169438291Y-67260995D01*
X169438290Y-67260996D01*
X169377990Y-67351242D01*
X169301242Y-67427990D01*
X169261912Y-67454269D01*
X169210995Y-67488291D01*
X169110721Y-67529826D01*
X169004270Y-67551000D01*
X168895730Y-67551000D01*
X168789279Y-67529826D01*
X168689005Y-67488291D01*
X168638088Y-67454269D01*
X168598758Y-67427990D01*
X168522010Y-67351242D01*
X168461710Y-67260996D01*
X168461709Y-67260995D01*
X168420175Y-67160722D01*
X168418362Y-67151610D01*
X168411248Y-67128162D01*
X168399696Y-67106551D01*
X168399000Y-67105703D01*
X168399000Y-64949000D01*
X169501000Y-64949000D01*
X169501000Y-67105702D01*
X169501000Y-67105702D01*
G37*
G36*
X171501000Y-67105702D02*
G01*
X171500302Y-67106553D01*
X171488751Y-67128164D01*
X171481638Y-67151610D01*
X171479825Y-67160722D01*
X171438291Y-67260995D01*
X171438290Y-67260996D01*
X171377990Y-67351242D01*
X171301242Y-67427990D01*
X171261912Y-67454269D01*
X171210995Y-67488291D01*
X171110721Y-67529826D01*
X171004270Y-67551000D01*
X170895730Y-67551000D01*
X170789279Y-67529826D01*
X170689005Y-67488291D01*
X170638088Y-67454269D01*
X170598758Y-67427990D01*
X170522010Y-67351242D01*
X170461710Y-67260996D01*
X170461709Y-67260995D01*
X170420175Y-67160722D01*
X170418362Y-67151610D01*
X170411248Y-67128162D01*
X170399696Y-67106551D01*
X170399000Y-67105703D01*
X170399000Y-64949000D01*
X171501000Y-64949000D01*
X171501000Y-67105702D01*
X171501000Y-67105702D01*
G37*
G36*
X173501000Y-67105702D02*
G01*
X173500302Y-67106553D01*
X173488751Y-67128164D01*
X173481638Y-67151610D01*
X173479825Y-67160722D01*
X173438291Y-67260995D01*
X173438290Y-67260996D01*
X173377990Y-67351242D01*
X173301242Y-67427990D01*
X173261912Y-67454269D01*
X173210995Y-67488291D01*
X173110721Y-67529826D01*
X173004270Y-67551000D01*
X172895730Y-67551000D01*
X172789279Y-67529826D01*
X172689005Y-67488291D01*
X172638088Y-67454269D01*
X172598758Y-67427990D01*
X172522010Y-67351242D01*
X172461710Y-67260996D01*
X172461709Y-67260995D01*
X172420175Y-67160722D01*
X172418362Y-67151610D01*
X172411248Y-67128162D01*
X172399696Y-67106551D01*
X172399000Y-67105703D01*
X172399000Y-64949000D01*
X173501000Y-64949000D01*
X173501000Y-67105702D01*
X173501000Y-67105702D01*
G37*
G36*
X175501000Y-67105702D02*
G01*
X175500302Y-67106553D01*
X175488751Y-67128164D01*
X175481638Y-67151610D01*
X175479825Y-67160722D01*
X175438291Y-67260995D01*
X175438290Y-67260996D01*
X175377990Y-67351242D01*
X175301242Y-67427990D01*
X175261912Y-67454269D01*
X175210995Y-67488291D01*
X175110721Y-67529826D01*
X175004270Y-67551000D01*
X174895730Y-67551000D01*
X174789279Y-67529826D01*
X174689005Y-67488291D01*
X174638088Y-67454269D01*
X174598758Y-67427990D01*
X174522010Y-67351242D01*
X174461710Y-67260996D01*
X174461709Y-67260995D01*
X174420175Y-67160722D01*
X174418362Y-67151610D01*
X174411248Y-67128162D01*
X174399696Y-67106551D01*
X174399000Y-67105703D01*
X174399000Y-64949000D01*
X175501000Y-64949000D01*
X175501000Y-67105702D01*
X175501000Y-67105702D01*
G37*
M02*
