G04 #@! TF.GenerationSoftware,KiCad,Pcbnew,(5.0.0)*
G04 #@! TF.CreationDate,2021-02-11T08:38:10+00:00*
G04 #@! TF.ProjectId,ESPV-BUG,455350562D4255472E6B696361645F70,rev?*
G04 #@! TF.SameCoordinates,Original*
G04 #@! TF.FileFunction,Copper,L2,Bot,Signal*
G04 #@! TF.FilePolarity,Positive*
%FSLAX46Y46*%
G04 Gerber Fmt 4.6, Leading zero omitted, Abs format (unit mm)*
G04 Created by KiCad (PCBNEW (5.0.0)) date 02/11/21 08:38:10*
%MOMM*%
%LPD*%
G01*
G04 APERTURE LIST*
G04 #@! TA.AperFunction,ComponentPad*
%ADD10C,1.000000*%
G04 #@! TD*
G04 #@! TA.AperFunction,ComponentPad*
%ADD11R,2.000000X1.000000*%
G04 #@! TD*
G04 #@! TA.AperFunction,ComponentPad*
%ADD12R,1.000000X2.000000*%
G04 #@! TD*
G04 #@! TA.AperFunction,ViaPad*
%ADD13C,0.800000*%
G04 #@! TD*
G04 #@! TA.AperFunction,ViaPad*
%ADD14C,0.650000*%
G04 #@! TD*
G04 #@! TA.AperFunction,Conductor*
%ADD15C,0.200000*%
G04 #@! TD*
G04 #@! TA.AperFunction,Conductor*
%ADD16C,0.150000*%
G04 #@! TD*
G04 APERTURE END LIST*
D10*
G04 #@! TO.P,J2,12*
G04 #@! TO.N,GND*
X164550000Y-89350000D03*
D11*
G04 #@! TO.P,J2,11*
X163550000Y-87350000D03*
D10*
X164550000Y-87350000D03*
D11*
G04 #@! TO.P,J2,12*
X163550000Y-89350000D03*
D10*
G04 #@! TO.P,J2,7*
G04 #@! TO.N,/ESPUSB-*
X164550000Y-79350000D03*
D11*
G04 #@! TO.P,J2,8*
G04 #@! TO.N,/ESPUSB+*
X163550000Y-81350000D03*
D10*
G04 #@! TO.P,J2,9*
G04 #@! TO.N,/ESP_RX*
X164550000Y-83350000D03*
D11*
G04 #@! TO.P,J2,6*
G04 #@! TO.N,/GP10*
X163550000Y-77350000D03*
D10*
G04 #@! TO.P,J2,8*
G04 #@! TO.N,/ESPUSB+*
X164550000Y-81350000D03*
G04 #@! TO.P,J2,6*
G04 #@! TO.N,/GP10*
X164550000Y-77350000D03*
G04 #@! TO.P,J2,10*
G04 #@! TO.N,/ESP_TX*
X164550000Y-85350000D03*
D11*
G04 #@! TO.P,J2,9*
G04 #@! TO.N,/ESP_RX*
X163550000Y-83350000D03*
G04 #@! TO.P,J2,10*
G04 #@! TO.N,/ESP_TX*
X163550000Y-85350000D03*
G04 #@! TO.P,J2,7*
G04 #@! TO.N,/ESPUSB-*
X163550000Y-79350000D03*
G04 #@! TO.P,J2,1*
G04 #@! TO.N,+3V3*
X163550000Y-67350000D03*
D10*
X164550000Y-67350000D03*
D11*
G04 #@! TO.P,J2,5*
G04 #@! TO.N,/BLSEL*
X163550000Y-75350000D03*
D10*
X164550000Y-75350000D03*
D11*
G04 #@! TO.P,J2,4*
G04 #@! TO.N,/GP08*
X163550000Y-73350000D03*
D10*
X164550000Y-73350000D03*
D11*
G04 #@! TO.P,J2,2*
G04 #@! TO.N,/ESP_RESET*
X163550000Y-69350000D03*
D10*
X164550000Y-69350000D03*
G04 #@! TO.P,J2,3*
G04 #@! TO.N,/GP07*
X164550000Y-71350000D03*
D11*
X163550000Y-71350000D03*
G04 #@! TD*
D10*
G04 #@! TO.P,J1,12*
G04 #@! TO.N,+3.3VA*
X177600000Y-67400000D03*
D11*
G04 #@! TO.P,J1,11*
G04 #@! TO.N,+3V3*
X178600000Y-69400000D03*
D10*
X177600000Y-69400000D03*
D11*
G04 #@! TO.P,J1,12*
G04 #@! TO.N,+3.3VA*
X178600000Y-67400000D03*
D10*
G04 #@! TO.P,J1,7*
G04 #@! TO.N,/GP03*
X177600000Y-77400000D03*
D11*
G04 #@! TO.P,J1,8*
G04 #@! TO.N,/GP04*
X178600000Y-75400000D03*
D10*
G04 #@! TO.P,J1,9*
G04 #@! TO.N,/GP05*
X177600000Y-73400000D03*
D11*
G04 #@! TO.P,J1,6*
G04 #@! TO.N,/GP02*
X178600000Y-79400000D03*
D10*
G04 #@! TO.P,J1,8*
G04 #@! TO.N,/GP04*
X177600000Y-75400000D03*
G04 #@! TO.P,J1,6*
G04 #@! TO.N,/GP02*
X177600000Y-79400000D03*
G04 #@! TO.P,J1,10*
G04 #@! TO.N,/GP06*
X177600000Y-71400000D03*
D11*
G04 #@! TO.P,J1,9*
G04 #@! TO.N,/GP05*
X178600000Y-73400000D03*
G04 #@! TO.P,J1,10*
G04 #@! TO.N,/GP06*
X178600000Y-71400000D03*
G04 #@! TO.P,J1,7*
G04 #@! TO.N,/GP03*
X178600000Y-77400000D03*
G04 #@! TO.P,J1,1*
G04 #@! TO.N,GND*
X178600000Y-89400000D03*
D10*
X177600000Y-89400000D03*
D11*
G04 #@! TO.P,J1,5*
G04 #@! TO.N,/GP01*
X178600000Y-81400000D03*
D10*
X177600000Y-81400000D03*
D11*
G04 #@! TO.P,J1,4*
G04 #@! TO.N,/GP00*
X178600000Y-83400000D03*
D10*
X177600000Y-83400000D03*
D11*
G04 #@! TO.P,J1,2*
G04 #@! TO.N,GND*
X178600000Y-87400000D03*
D10*
X177600000Y-87400000D03*
G04 #@! TO.P,J1,3*
G04 #@! TO.N,/ESP_ENABLE*
X177600000Y-85400000D03*
D11*
X178600000Y-85400000D03*
G04 #@! TD*
D12*
G04 #@! TO.P,J3,3*
G04 #@! TO.N,/CHUSB+*
X170950000Y-66000000D03*
D10*
X170950000Y-67000000D03*
G04 #@! TO.P,J3,2*
G04 #@! TO.N,/CHBL*
X172950000Y-67000000D03*
D12*
X172950000Y-66000000D03*
D10*
G04 #@! TO.P,J3,4*
G04 #@! TO.N,/CHUSB-*
X168950000Y-67000000D03*
D12*
X168950000Y-66000000D03*
D10*
G04 #@! TO.P,J3,5*
G04 #@! TO.N,GND*
X166950000Y-67000000D03*
D12*
X166950000Y-66000000D03*
D10*
G04 #@! TO.P,J3,1*
G04 #@! TO.N,/CHVP*
X174950000Y-67000000D03*
D12*
X174950000Y-66000000D03*
G04 #@! TD*
D13*
G04 #@! TO.N,+3.3VA*
X170950000Y-85300000D03*
X176900000Y-84400000D03*
X173600000Y-85050000D03*
D14*
G04 #@! TO.N,GND*
X176600000Y-88400000D03*
X176600000Y-87600000D03*
X175800000Y-87600000D03*
X175000000Y-87600000D03*
X174300000Y-87600000D03*
X176600000Y-89200000D03*
X176600000Y-90000000D03*
X165600000Y-90000000D03*
X165600000Y-89200000D03*
X165600000Y-88400000D03*
X166400000Y-87600000D03*
X167200000Y-87600000D03*
X168000000Y-87600000D03*
X168800000Y-87600000D03*
X169500000Y-87600000D03*
X170200000Y-87600000D03*
X170900000Y-87600000D03*
X171400000Y-81300000D03*
X168700000Y-69800000D03*
X176400000Y-66900000D03*
X165450000Y-66350000D03*
X167950000Y-77400000D03*
X168800000Y-73500000D03*
X165800000Y-75350000D03*
X173650000Y-84100000D03*
X173950000Y-85950000D03*
X175850000Y-73150000D03*
X176450000Y-68050000D03*
X171375000Y-80225000D03*
X170350000Y-81325000D03*
X172525000Y-81275000D03*
X171375000Y-82375000D03*
X165650000Y-68400000D03*
X170800000Y-72350000D03*
X172650000Y-70600000D03*
X176150000Y-69950000D03*
X173000000Y-74100000D03*
X165800000Y-86200000D03*
G04 #@! TO.N,/CHVP*
X174749984Y-70000016D03*
X173900000Y-68450009D03*
D13*
G04 #@! TO.N,+3V3*
X171550000Y-77550000D03*
X175069969Y-79612034D03*
X175600000Y-68650000D03*
D14*
G04 #@! TO.N,/GP08*
X166950000Y-74150000D03*
X173394670Y-78194670D03*
G04 #@! TO.N,/BLSEL*
X173000000Y-72100000D03*
X174400000Y-76150000D03*
G04 #@! TO.N,/GP10*
X166150021Y-77100000D03*
X172587563Y-77370599D03*
G04 #@! TO.N,/GP07*
X174800000Y-78199978D03*
X174800000Y-78199978D03*
X167400000Y-73400000D03*
G04 #@! TO.N,/ESP_ENABLE*
X175990952Y-81301288D03*
X175512155Y-76185414D03*
G04 #@! TO.N,/ESP_RESET*
X168801620Y-71101620D03*
G04 #@! TO.N,/GP14*
X168869220Y-79210188D03*
X166200000Y-80125000D03*
G04 #@! TO.N,/GP16*
X167635207Y-80214026D03*
X170409935Y-76300000D03*
G04 #@! TO.N,/GP15*
X168191901Y-79635932D03*
X169623377Y-75995451D03*
G04 #@! TO.N,/ESP_TX*
X168700000Y-83449998D03*
X170057948Y-70457188D03*
G04 #@! TO.N,/ESP_RX*
X166400000Y-82200000D03*
X170062166Y-69612166D03*
G04 #@! TO.N,/CHUSB+*
X169450000Y-68500000D03*
X166700000Y-68800000D03*
G04 #@! TO.N,/CHBL*
X175450000Y-71450000D03*
X172950000Y-68450010D03*
G04 #@! TO.N,/CHUSB-*
X174553240Y-71254573D03*
X168300000Y-69050000D03*
G04 #@! TD*
D15*
G04 #@! TO.N,+3.3VA*
X177600000Y-68107106D02*
X177600000Y-67400000D01*
X177492894Y-68107106D02*
X177600000Y-68107106D01*
X176800000Y-68800000D02*
X177492894Y-68107106D01*
X176900000Y-83834315D02*
X176800000Y-83734315D01*
X176800000Y-83734315D02*
X176800000Y-68800000D01*
X176900000Y-84400000D02*
X176900000Y-83834315D01*
X172050000Y-84200000D02*
X170950000Y-85300000D01*
X172750000Y-84200000D02*
X172050000Y-84200000D01*
X173600000Y-85050000D02*
X172750000Y-84200000D01*
D16*
G04 #@! TO.N,/CHVP*
X174950000Y-69800000D02*
X174749984Y-70000016D01*
X174749984Y-69299993D02*
X173900000Y-68450009D01*
X174749984Y-70000016D02*
X174749984Y-69299993D01*
G04 #@! TO.N,+3V3*
X171769698Y-77550000D02*
X171550000Y-77550000D01*
X173831732Y-79612034D02*
X171769698Y-77550000D01*
X175069969Y-79612034D02*
X173831732Y-79612034D01*
X175600000Y-68650000D02*
X174725001Y-67775001D01*
X174725001Y-67775001D02*
X165682107Y-67775001D01*
X165682107Y-67775001D02*
X165257106Y-67350000D01*
X165257106Y-67350000D02*
X164550000Y-67350000D01*
G04 #@! TO.N,/GP08*
X167350000Y-74550000D02*
X166950000Y-74150000D01*
X170700000Y-74550000D02*
X167350000Y-74550000D01*
X173394670Y-77244670D02*
X170700000Y-74550000D01*
X173394670Y-78194670D02*
X173394670Y-77244670D01*
G04 #@! TO.N,/BLSEL*
X174400000Y-73500000D02*
X173000000Y-72100000D01*
X174400000Y-76150000D02*
X174400000Y-73500000D01*
G04 #@! TO.N,/GP10*
X166475020Y-76775001D02*
X166150021Y-77100000D01*
X170544059Y-74850000D02*
X168400021Y-74850000D01*
X172587563Y-76893504D02*
X170544059Y-74850000D01*
X168400021Y-74850000D02*
X166475020Y-76775001D01*
X172587563Y-77370599D02*
X172587563Y-76893504D01*
G04 #@! TO.N,/GP07*
X174199978Y-78199978D02*
X174800000Y-78199978D01*
X173700000Y-77700000D02*
X174199978Y-78199978D01*
X170850000Y-74250000D02*
X173700000Y-77100000D01*
X173700000Y-77100000D02*
X173700000Y-77700000D01*
X168250000Y-74250000D02*
X170850000Y-74250000D01*
X167400000Y-73400000D02*
X168250000Y-74250000D01*
G04 #@! TO.N,/ESP_ENABLE*
X175800000Y-81951859D02*
X175990952Y-81760907D01*
X175800000Y-84500000D02*
X175800000Y-81951859D01*
X175990952Y-81760907D02*
X175990952Y-81301288D01*
X176700000Y-85400000D02*
X175800000Y-84500000D01*
X177600000Y-85400000D02*
X176700000Y-85400000D01*
X175998712Y-81301288D02*
X175990952Y-81301288D01*
X176350000Y-80950000D02*
X175998712Y-81301288D01*
X175512155Y-76185414D02*
X176350000Y-77023259D01*
X176350000Y-77023259D02*
X176350000Y-80950000D01*
G04 #@! TO.N,/GP14*
X167451972Y-78885189D02*
X168544221Y-78885189D01*
X168544221Y-78885189D02*
X168869220Y-79210188D01*
X166200000Y-80125000D02*
X166212161Y-80125000D01*
X166212161Y-80125000D02*
X167451972Y-78885189D01*
G04 #@! TO.N,/GP16*
X170409935Y-76759619D02*
X170409935Y-76300000D01*
X169285974Y-80214026D02*
X170409935Y-79090065D01*
X167635207Y-80214026D02*
X169285974Y-80214026D01*
X170409935Y-79090065D02*
X170409935Y-76759619D01*
G04 #@! TO.N,/GP15*
X168191901Y-79635932D02*
X168455958Y-79899989D01*
X169623377Y-79452345D02*
X169623377Y-76455070D01*
X169175733Y-79899989D02*
X169623377Y-79452345D01*
X168455958Y-79899989D02*
X169175733Y-79899989D01*
X169623377Y-76455070D02*
X169623377Y-75995451D01*
G04 #@! TO.N,/ESP_TX*
X168200002Y-83449998D02*
X168240381Y-83449998D01*
X168240381Y-83449998D02*
X168700000Y-83449998D01*
X166450002Y-83449998D02*
X164550000Y-85350000D01*
X168700000Y-83449998D02*
X166450002Y-83449998D01*
X169100000Y-72400000D02*
X170057948Y-71442052D01*
X167200000Y-72400000D02*
X169100000Y-72400000D01*
X166350000Y-73250000D02*
X167200000Y-72400000D01*
X166350000Y-74450000D02*
X166350000Y-73250000D01*
X170057948Y-71442052D02*
X170057948Y-70457188D01*
X166450000Y-74550000D02*
X166750000Y-74850000D01*
X166450000Y-74550000D02*
X166350000Y-74450000D01*
X166800000Y-74900000D02*
X166450000Y-74550000D01*
X166800000Y-76025743D02*
X166800000Y-74900000D01*
X166350743Y-76475000D02*
X166800000Y-76025743D01*
X165975000Y-76475000D02*
X166350743Y-76475000D01*
X165600011Y-76849989D02*
X165975000Y-76475000D01*
X165600011Y-80900011D02*
X165600011Y-76849989D01*
X166350000Y-81650000D02*
X165600011Y-80900011D01*
X166900002Y-81650000D02*
X166350000Y-81650000D01*
X168700000Y-83449998D02*
X166900002Y-81650000D01*
G04 #@! TO.N,/ESP_RX*
X165940381Y-82200000D02*
X166400000Y-82200000D01*
X164600000Y-83350000D02*
X165750000Y-82200000D01*
X165750000Y-82200000D02*
X165940381Y-82200000D01*
X164550000Y-83350000D02*
X164600000Y-83350000D01*
X165300000Y-81100000D02*
X166400000Y-82200000D01*
X165300000Y-76700000D02*
X165300000Y-81100000D01*
X168900000Y-72100000D02*
X167050000Y-72100000D01*
X169450000Y-71550000D02*
X168900000Y-72100000D01*
X170062166Y-69612166D02*
X169450000Y-70224332D01*
X169450000Y-70224332D02*
X169450000Y-71550000D01*
X167050000Y-72100000D02*
X166050000Y-73100000D01*
X166500000Y-75100000D02*
X166050000Y-74650000D01*
X166050000Y-73100000D02*
X166050000Y-74650000D01*
X165875000Y-76125000D02*
X166276465Y-76125000D01*
X165875000Y-76125000D02*
X165300000Y-76700000D01*
X166500000Y-75901465D02*
X166500000Y-75100000D01*
X166276465Y-76125000D02*
X166500000Y-75901465D01*
G04 #@! TO.N,/CHUSB+*
X167000000Y-68500000D02*
X169450000Y-68500000D01*
X166700000Y-68800000D02*
X167000000Y-68500000D01*
G04 #@! TO.N,/CHBL*
X172950000Y-69125721D02*
X172950000Y-68607106D01*
X175450000Y-70990381D02*
X175028972Y-70569353D01*
X175450000Y-71450000D02*
X175450000Y-70990381D01*
X174393632Y-70569353D02*
X172950000Y-69125721D01*
X175028972Y-70569353D02*
X174393632Y-70569353D01*
X172950000Y-68607106D02*
X172950000Y-68450010D01*
G04 #@! TO.N,/CHUSB-*
X174553240Y-71254573D02*
X174553240Y-71153240D01*
X172348667Y-69050000D02*
X174553240Y-71254573D01*
X168300000Y-69050000D02*
X172348667Y-69050000D01*
G04 #@! TD*
G04 #@! TO.N,GND*
G36*
X178850001Y-66623670D02*
X177600000Y-66623670D01*
X177586497Y-66625000D01*
X177523669Y-66625000D01*
X177373941Y-66654783D01*
X177232900Y-66713204D01*
X177105966Y-66798018D01*
X176998018Y-66905966D01*
X176913204Y-67032900D01*
X176854783Y-67173941D01*
X176825000Y-67323669D01*
X176825000Y-67476331D01*
X176854783Y-67626059D01*
X176913204Y-67767100D01*
X176998018Y-67894034D01*
X177086827Y-67982843D01*
X176547862Y-68521809D01*
X176533553Y-68533552D01*
X176521811Y-68547860D01*
X176486691Y-68590654D01*
X176463208Y-68634588D01*
X176451870Y-68655800D01*
X176430855Y-68725078D01*
X176430427Y-68726488D01*
X176423186Y-68800000D01*
X176425001Y-68818426D01*
X176425000Y-76603285D01*
X176104534Y-76282820D01*
X176112155Y-76244509D01*
X176112155Y-76126319D01*
X176089097Y-76010400D01*
X176043868Y-75901207D01*
X175978205Y-75802936D01*
X175894633Y-75719364D01*
X175796362Y-75653701D01*
X175687169Y-75608472D01*
X175571250Y-75585414D01*
X175453060Y-75585414D01*
X175337141Y-75608472D01*
X175227948Y-75653701D01*
X175129677Y-75719364D01*
X175046105Y-75802936D01*
X174980442Y-75901207D01*
X174963412Y-75942321D01*
X174931713Y-75865793D01*
X174866050Y-75767522D01*
X174782478Y-75683950D01*
X174750000Y-75662249D01*
X174750000Y-73517188D01*
X174751693Y-73500000D01*
X174744935Y-73431388D01*
X174742973Y-73424921D01*
X174724922Y-73365413D01*
X174692422Y-73304610D01*
X174648685Y-73251315D01*
X174635325Y-73240351D01*
X173592379Y-72197406D01*
X173600000Y-72159095D01*
X173600000Y-72040905D01*
X173576942Y-71924986D01*
X173531713Y-71815793D01*
X173466050Y-71717522D01*
X173382478Y-71633950D01*
X173284207Y-71568287D01*
X173175014Y-71523058D01*
X173059095Y-71500000D01*
X172940905Y-71500000D01*
X172824986Y-71523058D01*
X172715793Y-71568287D01*
X172617522Y-71633950D01*
X172533950Y-71717522D01*
X172468287Y-71815793D01*
X172423058Y-71924986D01*
X172400000Y-72040905D01*
X172400000Y-72159095D01*
X172423058Y-72275014D01*
X172468287Y-72384207D01*
X172533950Y-72482478D01*
X172617522Y-72566050D01*
X172715793Y-72631713D01*
X172824986Y-72676942D01*
X172940905Y-72700000D01*
X173059095Y-72700000D01*
X173097406Y-72692379D01*
X174050001Y-73644975D01*
X174050000Y-75662249D01*
X174017522Y-75683950D01*
X173933950Y-75767522D01*
X173868287Y-75865793D01*
X173823058Y-75974986D01*
X173800000Y-76090905D01*
X173800000Y-76209095D01*
X173823058Y-76325014D01*
X173868287Y-76434207D01*
X173933950Y-76532478D01*
X174017522Y-76616050D01*
X174115793Y-76681713D01*
X174224986Y-76726942D01*
X174340905Y-76750000D01*
X174459095Y-76750000D01*
X174575014Y-76726942D01*
X174684207Y-76681713D01*
X174782478Y-76616050D01*
X174866050Y-76532478D01*
X174931713Y-76434207D01*
X174948743Y-76393093D01*
X174980442Y-76469621D01*
X175046105Y-76567892D01*
X175129677Y-76651464D01*
X175227948Y-76717127D01*
X175337141Y-76762356D01*
X175453060Y-76785414D01*
X175571250Y-76785414D01*
X175609561Y-76777793D01*
X176000000Y-77168234D01*
X176000001Y-80701288D01*
X175931857Y-80701288D01*
X175815938Y-80724346D01*
X175706745Y-80769575D01*
X175608474Y-80835238D01*
X175524902Y-80918810D01*
X175459239Y-81017081D01*
X175414010Y-81126274D01*
X175390952Y-81242193D01*
X175390952Y-81360383D01*
X175414010Y-81476302D01*
X175459239Y-81585495D01*
X175524902Y-81683766D01*
X175548158Y-81707022D01*
X175507579Y-81756469D01*
X175496020Y-81778095D01*
X175475079Y-81817272D01*
X175455065Y-81883248D01*
X175448307Y-81951859D01*
X175450001Y-81969057D01*
X175450000Y-84482812D01*
X175448307Y-84500000D01*
X175450000Y-84517188D01*
X175455065Y-84568611D01*
X175475078Y-84634586D01*
X175507578Y-84695389D01*
X175551315Y-84748684D01*
X175564676Y-84759649D01*
X176440355Y-85635330D01*
X176451315Y-85648685D01*
X176504610Y-85692422D01*
X176565413Y-85724922D01*
X176611374Y-85738864D01*
X176631387Y-85744935D01*
X176699999Y-85751693D01*
X176717188Y-85750000D01*
X176906121Y-85750000D01*
X176913204Y-85767100D01*
X176998018Y-85894034D01*
X177105966Y-86001982D01*
X177232900Y-86086796D01*
X177373941Y-86145217D01*
X177523669Y-86175000D01*
X177586497Y-86175000D01*
X177600000Y-86176330D01*
X178850000Y-86176330D01*
X178850000Y-86625000D01*
X178847750Y-86625000D01*
X178779000Y-86693750D01*
X178779000Y-87221000D01*
X178799000Y-87221000D01*
X178799000Y-87579000D01*
X178779000Y-87579000D01*
X178779000Y-88106250D01*
X178847750Y-88175000D01*
X178850000Y-88175000D01*
X178850000Y-88625000D01*
X178847750Y-88625000D01*
X178779000Y-88693750D01*
X178779000Y-89221000D01*
X178799000Y-89221000D01*
X178799000Y-89579000D01*
X178779000Y-89579000D01*
X178779000Y-90106250D01*
X178847750Y-90175000D01*
X178850000Y-90175000D01*
X178850000Y-90350000D01*
X176325000Y-90350000D01*
X176325000Y-89397126D01*
X176821255Y-89397126D01*
X176835658Y-89549107D01*
X176879433Y-89695358D01*
X176881633Y-89700667D01*
X176987600Y-89759256D01*
X177325000Y-89421856D01*
X177325000Y-89579002D01*
X177393748Y-89579002D01*
X177325000Y-89647750D01*
X177325000Y-89927085D01*
X177325176Y-89927968D01*
X177240744Y-90012400D01*
X177299333Y-90118367D01*
X177445256Y-90163221D01*
X177597126Y-90178745D01*
X177636643Y-90175000D01*
X178352250Y-90175000D01*
X178421000Y-90106250D01*
X178421000Y-89579000D01*
X178401000Y-89579000D01*
X178401000Y-89221000D01*
X178421000Y-89221000D01*
X178421000Y-88693750D01*
X178352250Y-88625000D01*
X177639511Y-88625000D01*
X177602874Y-88621255D01*
X177450893Y-88635658D01*
X177304642Y-88679433D01*
X177299333Y-88681633D01*
X177240744Y-88787600D01*
X177325176Y-88872032D01*
X177325000Y-88872915D01*
X177325000Y-89152250D01*
X177393748Y-89220998D01*
X177325000Y-89220998D01*
X177325000Y-89378144D01*
X176987600Y-89040744D01*
X176881633Y-89099333D01*
X176836779Y-89245256D01*
X176821255Y-89397126D01*
X176325000Y-89397126D01*
X176325000Y-87700000D01*
X176323559Y-87685368D01*
X176319291Y-87671299D01*
X176312360Y-87658332D01*
X176303033Y-87646967D01*
X176291668Y-87637640D01*
X176278701Y-87630709D01*
X176264632Y-87626441D01*
X176250000Y-87625000D01*
X166000000Y-87625000D01*
X165985368Y-87626441D01*
X165971299Y-87630709D01*
X165958332Y-87637640D01*
X165946967Y-87646967D01*
X165937640Y-87658332D01*
X165930709Y-87671299D01*
X165926441Y-87685368D01*
X165925000Y-87700000D01*
X165925000Y-90350000D01*
X163250000Y-90350000D01*
X163250000Y-90125000D01*
X163302250Y-90125000D01*
X163371000Y-90056250D01*
X163371000Y-89529000D01*
X163351000Y-89529000D01*
X163351000Y-89171000D01*
X163371000Y-89171000D01*
X163371000Y-88643750D01*
X163729000Y-88643750D01*
X163729000Y-89171000D01*
X163749000Y-89171000D01*
X163749000Y-89529000D01*
X163729000Y-89529000D01*
X163729000Y-90056250D01*
X163797750Y-90125000D01*
X164510489Y-90125000D01*
X164547126Y-90128745D01*
X164699107Y-90114342D01*
X164845358Y-90070567D01*
X164850667Y-90068367D01*
X164909256Y-89962400D01*
X164824824Y-89877968D01*
X164825000Y-89877085D01*
X164825000Y-89597750D01*
X164756252Y-89529002D01*
X164825000Y-89529002D01*
X164825000Y-89371856D01*
X165162400Y-89709256D01*
X165268367Y-89650667D01*
X165313221Y-89504744D01*
X165328745Y-89352874D01*
X165314342Y-89200893D01*
X165270567Y-89054642D01*
X165268367Y-89049333D01*
X165162400Y-88990744D01*
X164825000Y-89328144D01*
X164825000Y-89170998D01*
X164756252Y-89170998D01*
X164825000Y-89102250D01*
X164825000Y-88822915D01*
X164824824Y-88822032D01*
X164909256Y-88737600D01*
X164850667Y-88631633D01*
X164704744Y-88586779D01*
X164552874Y-88571255D01*
X164513357Y-88575000D01*
X163797750Y-88575000D01*
X163729000Y-88643750D01*
X163371000Y-88643750D01*
X163302250Y-88575000D01*
X163250000Y-88575000D01*
X163250000Y-88125000D01*
X163302250Y-88125000D01*
X163371000Y-88056250D01*
X163371000Y-87529000D01*
X163351000Y-87529000D01*
X163351000Y-87171000D01*
X163371000Y-87171000D01*
X163371000Y-86643750D01*
X163729000Y-86643750D01*
X163729000Y-87171000D01*
X163749000Y-87171000D01*
X163749000Y-87529000D01*
X163729000Y-87529000D01*
X163729000Y-88056250D01*
X163797750Y-88125000D01*
X164510489Y-88125000D01*
X164547126Y-88128745D01*
X164699107Y-88114342D01*
X164845358Y-88070567D01*
X164850667Y-88068367D01*
X164909256Y-87962400D01*
X164824824Y-87877968D01*
X164825000Y-87877085D01*
X164825000Y-87597750D01*
X164756252Y-87529002D01*
X164825000Y-87529002D01*
X164825000Y-87371856D01*
X165162400Y-87709256D01*
X165268367Y-87650667D01*
X165313221Y-87504744D01*
X165324221Y-87397126D01*
X176821255Y-87397126D01*
X176835658Y-87549107D01*
X176879433Y-87695358D01*
X176881633Y-87700667D01*
X176987600Y-87759256D01*
X177325000Y-87421856D01*
X177325000Y-87579002D01*
X177393748Y-87579002D01*
X177325000Y-87647750D01*
X177325000Y-87927085D01*
X177325176Y-87927968D01*
X177240744Y-88012400D01*
X177299333Y-88118367D01*
X177445256Y-88163221D01*
X177597126Y-88178745D01*
X177636643Y-88175000D01*
X178352250Y-88175000D01*
X178421000Y-88106250D01*
X178421000Y-87579000D01*
X178401000Y-87579000D01*
X178401000Y-87221000D01*
X178421000Y-87221000D01*
X178421000Y-86693750D01*
X178352250Y-86625000D01*
X177639511Y-86625000D01*
X177602874Y-86621255D01*
X177450893Y-86635658D01*
X177304642Y-86679433D01*
X177299333Y-86681633D01*
X177240744Y-86787600D01*
X177325176Y-86872032D01*
X177325000Y-86872915D01*
X177325000Y-87152250D01*
X177393748Y-87220998D01*
X177325000Y-87220998D01*
X177325000Y-87378144D01*
X176987600Y-87040744D01*
X176881633Y-87099333D01*
X176836779Y-87245256D01*
X176821255Y-87397126D01*
X165324221Y-87397126D01*
X165328745Y-87352874D01*
X165314342Y-87200893D01*
X165270567Y-87054642D01*
X165268367Y-87049333D01*
X165162400Y-86990744D01*
X164825000Y-87328144D01*
X164825000Y-87170998D01*
X164756252Y-87170998D01*
X164825000Y-87102250D01*
X164825000Y-86822915D01*
X164824824Y-86822032D01*
X164909256Y-86737600D01*
X164850667Y-86631633D01*
X164704744Y-86586779D01*
X164552874Y-86571255D01*
X164513357Y-86575000D01*
X163797750Y-86575000D01*
X163729000Y-86643750D01*
X163371000Y-86643750D01*
X163302250Y-86575000D01*
X163250000Y-86575000D01*
X163250000Y-86126330D01*
X164550000Y-86126330D01*
X164563503Y-86125000D01*
X164626331Y-86125000D01*
X164776059Y-86095217D01*
X164917100Y-86036796D01*
X165044034Y-85951982D01*
X165151982Y-85844034D01*
X165236796Y-85717100D01*
X165295217Y-85576059D01*
X165325000Y-85426331D01*
X165325000Y-85273669D01*
X165317014Y-85233518D01*
X170275000Y-85233518D01*
X170275000Y-85366482D01*
X170300940Y-85496890D01*
X170351823Y-85619732D01*
X170425693Y-85730287D01*
X170519713Y-85824307D01*
X170630268Y-85898177D01*
X170753110Y-85949060D01*
X170883518Y-85975000D01*
X171016482Y-85975000D01*
X171146890Y-85949060D01*
X171269732Y-85898177D01*
X171380287Y-85824307D01*
X171474307Y-85730287D01*
X171548177Y-85619732D01*
X171599060Y-85496890D01*
X171625000Y-85366482D01*
X171625000Y-85233518D01*
X171612028Y-85168302D01*
X172205330Y-84575000D01*
X172594671Y-84575000D01*
X172937972Y-84918302D01*
X172925000Y-84983518D01*
X172925000Y-85116482D01*
X172950940Y-85246890D01*
X173001823Y-85369732D01*
X173075693Y-85480287D01*
X173169713Y-85574307D01*
X173280268Y-85648177D01*
X173403110Y-85699060D01*
X173533518Y-85725000D01*
X173666482Y-85725000D01*
X173796890Y-85699060D01*
X173919732Y-85648177D01*
X174030287Y-85574307D01*
X174124307Y-85480287D01*
X174198177Y-85369732D01*
X174249060Y-85246890D01*
X174275000Y-85116482D01*
X174275000Y-84983518D01*
X174249060Y-84853110D01*
X174198177Y-84730268D01*
X174124307Y-84619713D01*
X174030287Y-84525693D01*
X173919732Y-84451823D01*
X173796890Y-84400940D01*
X173666482Y-84375000D01*
X173533518Y-84375000D01*
X173468302Y-84387972D01*
X173028195Y-83947866D01*
X173016448Y-83933552D01*
X172959347Y-83886691D01*
X172894200Y-83851869D01*
X172823513Y-83830426D01*
X172768419Y-83825000D01*
X172768416Y-83825000D01*
X172750000Y-83823186D01*
X172731584Y-83825000D01*
X172068416Y-83825000D01*
X172050000Y-83823186D01*
X172031584Y-83825000D01*
X172031581Y-83825000D01*
X171976487Y-83830426D01*
X171905800Y-83851869D01*
X171840653Y-83886691D01*
X171783552Y-83933552D01*
X171771809Y-83947861D01*
X171081698Y-84637972D01*
X171016482Y-84625000D01*
X170883518Y-84625000D01*
X170753110Y-84650940D01*
X170630268Y-84701823D01*
X170519713Y-84775693D01*
X170425693Y-84869713D01*
X170351823Y-84980268D01*
X170300940Y-85103110D01*
X170275000Y-85233518D01*
X165317014Y-85233518D01*
X165295217Y-85123941D01*
X165288134Y-85106840D01*
X166594977Y-83799998D01*
X168212249Y-83799998D01*
X168233950Y-83832476D01*
X168317522Y-83916048D01*
X168415793Y-83981711D01*
X168524986Y-84026940D01*
X168640905Y-84049998D01*
X168759095Y-84049998D01*
X168875014Y-84026940D01*
X168984207Y-83981711D01*
X169082478Y-83916048D01*
X169166050Y-83832476D01*
X169231713Y-83734205D01*
X169276942Y-83625012D01*
X169300000Y-83509093D01*
X169300000Y-83390903D01*
X169276942Y-83274984D01*
X169231713Y-83165791D01*
X169166050Y-83067520D01*
X169082478Y-82983948D01*
X168984207Y-82918285D01*
X168875014Y-82873056D01*
X168759095Y-82849998D01*
X168640905Y-82849998D01*
X168602595Y-82857618D01*
X167159655Y-81414680D01*
X167148687Y-81401315D01*
X167095392Y-81357578D01*
X167034589Y-81325078D01*
X166968614Y-81305065D01*
X166917191Y-81300000D01*
X166917190Y-81300000D01*
X166900002Y-81298307D01*
X166882814Y-81300000D01*
X166494975Y-81300000D01*
X165950011Y-80755038D01*
X165950011Y-80670886D01*
X166024986Y-80701942D01*
X166140905Y-80725000D01*
X166259095Y-80725000D01*
X166375014Y-80701942D01*
X166484207Y-80656713D01*
X166582478Y-80591050D01*
X166666050Y-80507478D01*
X166731713Y-80409207D01*
X166776942Y-80300014D01*
X166800000Y-80184095D01*
X166800000Y-80065905D01*
X166794397Y-80037737D01*
X167596947Y-79235189D01*
X167744116Y-79235189D01*
X167725851Y-79253454D01*
X167660188Y-79351725D01*
X167614959Y-79460918D01*
X167591901Y-79576837D01*
X167591901Y-79614026D01*
X167576112Y-79614026D01*
X167460193Y-79637084D01*
X167351000Y-79682313D01*
X167252729Y-79747976D01*
X167169157Y-79831548D01*
X167103494Y-79929819D01*
X167058265Y-80039012D01*
X167035207Y-80154931D01*
X167035207Y-80273121D01*
X167058265Y-80389040D01*
X167103494Y-80498233D01*
X167169157Y-80596504D01*
X167252729Y-80680076D01*
X167351000Y-80745739D01*
X167460193Y-80790968D01*
X167576112Y-80814026D01*
X167694302Y-80814026D01*
X167810221Y-80790968D01*
X167919414Y-80745739D01*
X168017685Y-80680076D01*
X168101257Y-80596504D01*
X168122958Y-80564026D01*
X169268786Y-80564026D01*
X169285974Y-80565719D01*
X169303162Y-80564026D01*
X169303163Y-80564026D01*
X169354586Y-80558961D01*
X169420561Y-80538948D01*
X169481364Y-80506448D01*
X169534659Y-80462711D01*
X169545627Y-80449346D01*
X170645264Y-79349710D01*
X170658619Y-79338750D01*
X170702357Y-79285455D01*
X170729225Y-79235189D01*
X170734857Y-79224653D01*
X170754870Y-79158677D01*
X170761628Y-79090065D01*
X170759935Y-79072876D01*
X170759935Y-76787751D01*
X170792413Y-76766050D01*
X170875985Y-76682478D01*
X170941648Y-76584207D01*
X170986877Y-76475014D01*
X171009935Y-76359095D01*
X171009935Y-76240905D01*
X170986877Y-76124986D01*
X170941648Y-76015793D01*
X170875985Y-75917522D01*
X170792413Y-75833950D01*
X170694142Y-75768287D01*
X170584949Y-75723058D01*
X170469030Y-75700000D01*
X170350840Y-75700000D01*
X170234921Y-75723058D01*
X170170958Y-75749552D01*
X170155090Y-75711244D01*
X170089427Y-75612973D01*
X170005855Y-75529401D01*
X169907584Y-75463738D01*
X169798391Y-75418509D01*
X169682472Y-75395451D01*
X169564282Y-75395451D01*
X169448363Y-75418509D01*
X169339170Y-75463738D01*
X169240899Y-75529401D01*
X169157327Y-75612973D01*
X169091664Y-75711244D01*
X169046435Y-75820437D01*
X169023377Y-75936356D01*
X169023377Y-76054546D01*
X169046435Y-76170465D01*
X169091664Y-76279658D01*
X169157327Y-76377929D01*
X169240899Y-76461501D01*
X169273378Y-76483203D01*
X169273377Y-78765817D01*
X169251698Y-78744138D01*
X169153427Y-78678475D01*
X169044234Y-78633246D01*
X168928315Y-78610188D01*
X168810125Y-78610188D01*
X168770455Y-78618079D01*
X168739611Y-78592767D01*
X168678808Y-78560267D01*
X168612833Y-78540254D01*
X168561410Y-78535189D01*
X168561409Y-78535189D01*
X168544221Y-78533496D01*
X168527033Y-78535189D01*
X167469168Y-78535189D01*
X167451972Y-78533495D01*
X167383360Y-78540254D01*
X167317385Y-78560267D01*
X167256582Y-78592767D01*
X167203287Y-78636504D01*
X167192327Y-78649859D01*
X166307549Y-79534638D01*
X166259095Y-79525000D01*
X166140905Y-79525000D01*
X166024986Y-79548058D01*
X165950011Y-79579114D01*
X165950011Y-77666588D01*
X165975007Y-77676942D01*
X166090926Y-77700000D01*
X166209116Y-77700000D01*
X166325035Y-77676942D01*
X166434228Y-77631713D01*
X166532499Y-77566050D01*
X166616071Y-77482478D01*
X166681734Y-77384207D01*
X166726963Y-77275014D01*
X166750021Y-77159095D01*
X166750021Y-77040905D01*
X166742400Y-77002594D01*
X168544996Y-75200000D01*
X170399086Y-75200000D01*
X172154360Y-76955274D01*
X172121513Y-76988121D01*
X172055850Y-77086392D01*
X172051496Y-77096902D01*
X171980287Y-77025693D01*
X171869732Y-76951823D01*
X171746890Y-76900940D01*
X171616482Y-76875000D01*
X171483518Y-76875000D01*
X171353110Y-76900940D01*
X171230268Y-76951823D01*
X171119713Y-77025693D01*
X171025693Y-77119713D01*
X170951823Y-77230268D01*
X170900940Y-77353110D01*
X170875000Y-77483518D01*
X170875000Y-77616482D01*
X170900940Y-77746890D01*
X170951823Y-77869732D01*
X171025693Y-77980287D01*
X171119713Y-78074307D01*
X171230268Y-78148177D01*
X171353110Y-78199060D01*
X171483518Y-78225000D01*
X171616482Y-78225000D01*
X171746890Y-78199060D01*
X171869732Y-78148177D01*
X171871632Y-78146907D01*
X173572087Y-79847364D01*
X173583047Y-79860719D01*
X173636342Y-79904456D01*
X173697145Y-79936956D01*
X173763120Y-79956969D01*
X173814543Y-79962034D01*
X173814545Y-79962034D01*
X173831731Y-79963727D01*
X173848917Y-79962034D01*
X174492016Y-79962034D01*
X174545662Y-80042321D01*
X174639682Y-80136341D01*
X174750237Y-80210211D01*
X174873079Y-80261094D01*
X175003487Y-80287034D01*
X175136451Y-80287034D01*
X175266859Y-80261094D01*
X175389701Y-80210211D01*
X175500256Y-80136341D01*
X175594276Y-80042321D01*
X175668146Y-79931766D01*
X175719029Y-79808924D01*
X175744969Y-79678516D01*
X175744969Y-79545552D01*
X175719029Y-79415144D01*
X175668146Y-79292302D01*
X175594276Y-79181747D01*
X175500256Y-79087727D01*
X175389701Y-79013857D01*
X175266859Y-78962974D01*
X175136451Y-78937034D01*
X175003487Y-78937034D01*
X174873079Y-78962974D01*
X174750237Y-79013857D01*
X174639682Y-79087727D01*
X174545662Y-79181747D01*
X174492016Y-79262034D01*
X173976707Y-79262034D01*
X173500121Y-78785449D01*
X173569684Y-78771612D01*
X173678877Y-78726383D01*
X173777148Y-78660720D01*
X173860720Y-78577148D01*
X173926383Y-78478877D01*
X173943056Y-78438625D01*
X173951293Y-78448663D01*
X173988110Y-78478877D01*
X174004588Y-78492400D01*
X174065391Y-78524900D01*
X174131366Y-78544913D01*
X174199978Y-78551671D01*
X174217167Y-78549978D01*
X174312249Y-78549978D01*
X174333950Y-78582456D01*
X174417522Y-78666028D01*
X174515793Y-78731691D01*
X174624986Y-78776920D01*
X174740905Y-78799978D01*
X174859095Y-78799978D01*
X174975014Y-78776920D01*
X175084207Y-78731691D01*
X175182478Y-78666028D01*
X175266050Y-78582456D01*
X175331713Y-78484185D01*
X175376942Y-78374992D01*
X175400000Y-78259073D01*
X175400000Y-78140883D01*
X175376942Y-78024964D01*
X175331713Y-77915771D01*
X175266050Y-77817500D01*
X175182478Y-77733928D01*
X175084207Y-77668265D01*
X174975014Y-77623036D01*
X174859095Y-77599978D01*
X174740905Y-77599978D01*
X174624986Y-77623036D01*
X174515793Y-77668265D01*
X174417522Y-77733928D01*
X174333950Y-77817500D01*
X174325348Y-77830374D01*
X174050000Y-77555027D01*
X174050000Y-77117189D01*
X174051693Y-77100000D01*
X174044935Y-77031388D01*
X174024922Y-76965413D01*
X173992422Y-76904610D01*
X173959642Y-76864667D01*
X173959640Y-76864665D01*
X173948684Y-76851315D01*
X173935335Y-76840360D01*
X171109653Y-74014680D01*
X171098685Y-74001315D01*
X171045390Y-73957578D01*
X170984587Y-73925078D01*
X170918612Y-73905065D01*
X170867189Y-73900000D01*
X170867188Y-73900000D01*
X170850000Y-73898307D01*
X170832812Y-73900000D01*
X168394975Y-73900000D01*
X167992379Y-73497406D01*
X168000000Y-73459095D01*
X168000000Y-73340905D01*
X167976942Y-73224986D01*
X167931713Y-73115793D01*
X167866050Y-73017522D01*
X167782478Y-72933950D01*
X167684207Y-72868287D01*
X167575014Y-72823058D01*
X167459095Y-72800000D01*
X167340905Y-72800000D01*
X167283570Y-72811405D01*
X167344975Y-72750000D01*
X169082812Y-72750000D01*
X169100000Y-72751693D01*
X169117188Y-72750000D01*
X169117189Y-72750000D01*
X169168612Y-72744935D01*
X169234587Y-72724922D01*
X169295390Y-72692422D01*
X169348685Y-72648685D01*
X169359653Y-72635320D01*
X170293277Y-71701697D01*
X170306632Y-71690737D01*
X170350370Y-71637442D01*
X170382870Y-71576639D01*
X170400472Y-71518612D01*
X170402883Y-71510665D01*
X170409641Y-71442053D01*
X170407948Y-71424864D01*
X170407948Y-70944939D01*
X170440426Y-70923238D01*
X170523998Y-70839666D01*
X170589661Y-70741395D01*
X170634890Y-70632202D01*
X170657948Y-70516283D01*
X170657948Y-70398093D01*
X170634890Y-70282174D01*
X170589661Y-70172981D01*
X170523998Y-70074710D01*
X170486074Y-70036786D01*
X170528216Y-69994644D01*
X170593879Y-69896373D01*
X170639108Y-69787180D01*
X170662166Y-69671261D01*
X170662166Y-69553071D01*
X170639108Y-69437152D01*
X170623719Y-69400000D01*
X172203694Y-69400000D01*
X173960861Y-71157167D01*
X173953240Y-71195478D01*
X173953240Y-71313668D01*
X173976298Y-71429587D01*
X174021527Y-71538780D01*
X174087190Y-71637051D01*
X174170762Y-71720623D01*
X174269033Y-71786286D01*
X174378226Y-71831515D01*
X174494145Y-71854573D01*
X174612335Y-71854573D01*
X174728254Y-71831515D01*
X174837447Y-71786286D01*
X174917659Y-71732690D01*
X174918287Y-71734207D01*
X174983950Y-71832478D01*
X175067522Y-71916050D01*
X175165793Y-71981713D01*
X175274986Y-72026942D01*
X175390905Y-72050000D01*
X175509095Y-72050000D01*
X175625014Y-72026942D01*
X175734207Y-71981713D01*
X175832478Y-71916050D01*
X175916050Y-71832478D01*
X175981713Y-71734207D01*
X176026942Y-71625014D01*
X176050000Y-71509095D01*
X176050000Y-71390905D01*
X176026942Y-71274986D01*
X175981713Y-71165793D01*
X175916050Y-71067522D01*
X175832478Y-70983950D01*
X175798847Y-70961478D01*
X175794935Y-70921769D01*
X175774922Y-70855794D01*
X175742422Y-70794991D01*
X175737114Y-70788523D01*
X175698685Y-70741696D01*
X175685330Y-70730736D01*
X175288625Y-70334033D01*
X175277657Y-70320668D01*
X175264539Y-70309902D01*
X175281697Y-70284223D01*
X175326926Y-70175030D01*
X175349984Y-70059111D01*
X175349984Y-69940921D01*
X175326926Y-69825002D01*
X175297051Y-69752876D01*
X175294934Y-69731389D01*
X175274921Y-69665414D01*
X175242421Y-69604611D01*
X175198684Y-69551316D01*
X175145389Y-69507579D01*
X175099984Y-69483309D01*
X175099984Y-69317182D01*
X175101677Y-69299993D01*
X175094919Y-69231381D01*
X175074906Y-69165405D01*
X175062881Y-69142909D01*
X175042406Y-69104603D01*
X174998669Y-69051308D01*
X174985309Y-69040344D01*
X174492379Y-68547415D01*
X174500000Y-68509104D01*
X174500000Y-68390914D01*
X174476942Y-68274995D01*
X174431713Y-68165802D01*
X174404450Y-68125001D01*
X174580028Y-68125001D01*
X174943838Y-68488812D01*
X174925000Y-68583518D01*
X174925000Y-68716482D01*
X174950940Y-68846890D01*
X175001823Y-68969732D01*
X175075693Y-69080287D01*
X175169713Y-69174307D01*
X175280268Y-69248177D01*
X175403110Y-69299060D01*
X175533518Y-69325000D01*
X175666482Y-69325000D01*
X175796890Y-69299060D01*
X175919732Y-69248177D01*
X176030287Y-69174307D01*
X176124307Y-69080287D01*
X176198177Y-68969732D01*
X176249060Y-68846890D01*
X176275000Y-68716482D01*
X176275000Y-68583518D01*
X176249060Y-68453110D01*
X176198177Y-68330268D01*
X176124307Y-68219713D01*
X176030287Y-68125693D01*
X175919732Y-68051823D01*
X175796890Y-68000940D01*
X175666482Y-67975000D01*
X175533518Y-67975000D01*
X175438812Y-67993838D01*
X175186051Y-67741078D01*
X175317100Y-67686796D01*
X175444034Y-67601982D01*
X175551982Y-67494034D01*
X175636796Y-67367100D01*
X175695217Y-67226059D01*
X175725000Y-67076331D01*
X175725000Y-67013503D01*
X175726330Y-67000000D01*
X175726330Y-65750000D01*
X178850001Y-65750000D01*
X178850001Y-66623670D01*
X178850001Y-66623670D01*
G37*
X178850001Y-66623670D02*
X177600000Y-66623670D01*
X177586497Y-66625000D01*
X177523669Y-66625000D01*
X177373941Y-66654783D01*
X177232900Y-66713204D01*
X177105966Y-66798018D01*
X176998018Y-66905966D01*
X176913204Y-67032900D01*
X176854783Y-67173941D01*
X176825000Y-67323669D01*
X176825000Y-67476331D01*
X176854783Y-67626059D01*
X176913204Y-67767100D01*
X176998018Y-67894034D01*
X177086827Y-67982843D01*
X176547862Y-68521809D01*
X176533553Y-68533552D01*
X176521811Y-68547860D01*
X176486691Y-68590654D01*
X176463208Y-68634588D01*
X176451870Y-68655800D01*
X176430855Y-68725078D01*
X176430427Y-68726488D01*
X176423186Y-68800000D01*
X176425001Y-68818426D01*
X176425000Y-76603285D01*
X176104534Y-76282820D01*
X176112155Y-76244509D01*
X176112155Y-76126319D01*
X176089097Y-76010400D01*
X176043868Y-75901207D01*
X175978205Y-75802936D01*
X175894633Y-75719364D01*
X175796362Y-75653701D01*
X175687169Y-75608472D01*
X175571250Y-75585414D01*
X175453060Y-75585414D01*
X175337141Y-75608472D01*
X175227948Y-75653701D01*
X175129677Y-75719364D01*
X175046105Y-75802936D01*
X174980442Y-75901207D01*
X174963412Y-75942321D01*
X174931713Y-75865793D01*
X174866050Y-75767522D01*
X174782478Y-75683950D01*
X174750000Y-75662249D01*
X174750000Y-73517188D01*
X174751693Y-73500000D01*
X174744935Y-73431388D01*
X174742973Y-73424921D01*
X174724922Y-73365413D01*
X174692422Y-73304610D01*
X174648685Y-73251315D01*
X174635325Y-73240351D01*
X173592379Y-72197406D01*
X173600000Y-72159095D01*
X173600000Y-72040905D01*
X173576942Y-71924986D01*
X173531713Y-71815793D01*
X173466050Y-71717522D01*
X173382478Y-71633950D01*
X173284207Y-71568287D01*
X173175014Y-71523058D01*
X173059095Y-71500000D01*
X172940905Y-71500000D01*
X172824986Y-71523058D01*
X172715793Y-71568287D01*
X172617522Y-71633950D01*
X172533950Y-71717522D01*
X172468287Y-71815793D01*
X172423058Y-71924986D01*
X172400000Y-72040905D01*
X172400000Y-72159095D01*
X172423058Y-72275014D01*
X172468287Y-72384207D01*
X172533950Y-72482478D01*
X172617522Y-72566050D01*
X172715793Y-72631713D01*
X172824986Y-72676942D01*
X172940905Y-72700000D01*
X173059095Y-72700000D01*
X173097406Y-72692379D01*
X174050001Y-73644975D01*
X174050000Y-75662249D01*
X174017522Y-75683950D01*
X173933950Y-75767522D01*
X173868287Y-75865793D01*
X173823058Y-75974986D01*
X173800000Y-76090905D01*
X173800000Y-76209095D01*
X173823058Y-76325014D01*
X173868287Y-76434207D01*
X173933950Y-76532478D01*
X174017522Y-76616050D01*
X174115793Y-76681713D01*
X174224986Y-76726942D01*
X174340905Y-76750000D01*
X174459095Y-76750000D01*
X174575014Y-76726942D01*
X174684207Y-76681713D01*
X174782478Y-76616050D01*
X174866050Y-76532478D01*
X174931713Y-76434207D01*
X174948743Y-76393093D01*
X174980442Y-76469621D01*
X175046105Y-76567892D01*
X175129677Y-76651464D01*
X175227948Y-76717127D01*
X175337141Y-76762356D01*
X175453060Y-76785414D01*
X175571250Y-76785414D01*
X175609561Y-76777793D01*
X176000000Y-77168234D01*
X176000001Y-80701288D01*
X175931857Y-80701288D01*
X175815938Y-80724346D01*
X175706745Y-80769575D01*
X175608474Y-80835238D01*
X175524902Y-80918810D01*
X175459239Y-81017081D01*
X175414010Y-81126274D01*
X175390952Y-81242193D01*
X175390952Y-81360383D01*
X175414010Y-81476302D01*
X175459239Y-81585495D01*
X175524902Y-81683766D01*
X175548158Y-81707022D01*
X175507579Y-81756469D01*
X175496020Y-81778095D01*
X175475079Y-81817272D01*
X175455065Y-81883248D01*
X175448307Y-81951859D01*
X175450001Y-81969057D01*
X175450000Y-84482812D01*
X175448307Y-84500000D01*
X175450000Y-84517188D01*
X175455065Y-84568611D01*
X175475078Y-84634586D01*
X175507578Y-84695389D01*
X175551315Y-84748684D01*
X175564676Y-84759649D01*
X176440355Y-85635330D01*
X176451315Y-85648685D01*
X176504610Y-85692422D01*
X176565413Y-85724922D01*
X176611374Y-85738864D01*
X176631387Y-85744935D01*
X176699999Y-85751693D01*
X176717188Y-85750000D01*
X176906121Y-85750000D01*
X176913204Y-85767100D01*
X176998018Y-85894034D01*
X177105966Y-86001982D01*
X177232900Y-86086796D01*
X177373941Y-86145217D01*
X177523669Y-86175000D01*
X177586497Y-86175000D01*
X177600000Y-86176330D01*
X178850000Y-86176330D01*
X178850000Y-86625000D01*
X178847750Y-86625000D01*
X178779000Y-86693750D01*
X178779000Y-87221000D01*
X178799000Y-87221000D01*
X178799000Y-87579000D01*
X178779000Y-87579000D01*
X178779000Y-88106250D01*
X178847750Y-88175000D01*
X178850000Y-88175000D01*
X178850000Y-88625000D01*
X178847750Y-88625000D01*
X178779000Y-88693750D01*
X178779000Y-89221000D01*
X178799000Y-89221000D01*
X178799000Y-89579000D01*
X178779000Y-89579000D01*
X178779000Y-90106250D01*
X178847750Y-90175000D01*
X178850000Y-90175000D01*
X178850000Y-90350000D01*
X176325000Y-90350000D01*
X176325000Y-89397126D01*
X176821255Y-89397126D01*
X176835658Y-89549107D01*
X176879433Y-89695358D01*
X176881633Y-89700667D01*
X176987600Y-89759256D01*
X177325000Y-89421856D01*
X177325000Y-89579002D01*
X177393748Y-89579002D01*
X177325000Y-89647750D01*
X177325000Y-89927085D01*
X177325176Y-89927968D01*
X177240744Y-90012400D01*
X177299333Y-90118367D01*
X177445256Y-90163221D01*
X177597126Y-90178745D01*
X177636643Y-90175000D01*
X178352250Y-90175000D01*
X178421000Y-90106250D01*
X178421000Y-89579000D01*
X178401000Y-89579000D01*
X178401000Y-89221000D01*
X178421000Y-89221000D01*
X178421000Y-88693750D01*
X178352250Y-88625000D01*
X177639511Y-88625000D01*
X177602874Y-88621255D01*
X177450893Y-88635658D01*
X177304642Y-88679433D01*
X177299333Y-88681633D01*
X177240744Y-88787600D01*
X177325176Y-88872032D01*
X177325000Y-88872915D01*
X177325000Y-89152250D01*
X177393748Y-89220998D01*
X177325000Y-89220998D01*
X177325000Y-89378144D01*
X176987600Y-89040744D01*
X176881633Y-89099333D01*
X176836779Y-89245256D01*
X176821255Y-89397126D01*
X176325000Y-89397126D01*
X176325000Y-87700000D01*
X176323559Y-87685368D01*
X176319291Y-87671299D01*
X176312360Y-87658332D01*
X176303033Y-87646967D01*
X176291668Y-87637640D01*
X176278701Y-87630709D01*
X176264632Y-87626441D01*
X176250000Y-87625000D01*
X166000000Y-87625000D01*
X165985368Y-87626441D01*
X165971299Y-87630709D01*
X165958332Y-87637640D01*
X165946967Y-87646967D01*
X165937640Y-87658332D01*
X165930709Y-87671299D01*
X165926441Y-87685368D01*
X165925000Y-87700000D01*
X165925000Y-90350000D01*
X163250000Y-90350000D01*
X163250000Y-90125000D01*
X163302250Y-90125000D01*
X163371000Y-90056250D01*
X163371000Y-89529000D01*
X163351000Y-89529000D01*
X163351000Y-89171000D01*
X163371000Y-89171000D01*
X163371000Y-88643750D01*
X163729000Y-88643750D01*
X163729000Y-89171000D01*
X163749000Y-89171000D01*
X163749000Y-89529000D01*
X163729000Y-89529000D01*
X163729000Y-90056250D01*
X163797750Y-90125000D01*
X164510489Y-90125000D01*
X164547126Y-90128745D01*
X164699107Y-90114342D01*
X164845358Y-90070567D01*
X164850667Y-90068367D01*
X164909256Y-89962400D01*
X164824824Y-89877968D01*
X164825000Y-89877085D01*
X164825000Y-89597750D01*
X164756252Y-89529002D01*
X164825000Y-89529002D01*
X164825000Y-89371856D01*
X165162400Y-89709256D01*
X165268367Y-89650667D01*
X165313221Y-89504744D01*
X165328745Y-89352874D01*
X165314342Y-89200893D01*
X165270567Y-89054642D01*
X165268367Y-89049333D01*
X165162400Y-88990744D01*
X164825000Y-89328144D01*
X164825000Y-89170998D01*
X164756252Y-89170998D01*
X164825000Y-89102250D01*
X164825000Y-88822915D01*
X164824824Y-88822032D01*
X164909256Y-88737600D01*
X164850667Y-88631633D01*
X164704744Y-88586779D01*
X164552874Y-88571255D01*
X164513357Y-88575000D01*
X163797750Y-88575000D01*
X163729000Y-88643750D01*
X163371000Y-88643750D01*
X163302250Y-88575000D01*
X163250000Y-88575000D01*
X163250000Y-88125000D01*
X163302250Y-88125000D01*
X163371000Y-88056250D01*
X163371000Y-87529000D01*
X163351000Y-87529000D01*
X163351000Y-87171000D01*
X163371000Y-87171000D01*
X163371000Y-86643750D01*
X163729000Y-86643750D01*
X163729000Y-87171000D01*
X163749000Y-87171000D01*
X163749000Y-87529000D01*
X163729000Y-87529000D01*
X163729000Y-88056250D01*
X163797750Y-88125000D01*
X164510489Y-88125000D01*
X164547126Y-88128745D01*
X164699107Y-88114342D01*
X164845358Y-88070567D01*
X164850667Y-88068367D01*
X164909256Y-87962400D01*
X164824824Y-87877968D01*
X164825000Y-87877085D01*
X164825000Y-87597750D01*
X164756252Y-87529002D01*
X164825000Y-87529002D01*
X164825000Y-87371856D01*
X165162400Y-87709256D01*
X165268367Y-87650667D01*
X165313221Y-87504744D01*
X165324221Y-87397126D01*
X176821255Y-87397126D01*
X176835658Y-87549107D01*
X176879433Y-87695358D01*
X176881633Y-87700667D01*
X176987600Y-87759256D01*
X177325000Y-87421856D01*
X177325000Y-87579002D01*
X177393748Y-87579002D01*
X177325000Y-87647750D01*
X177325000Y-87927085D01*
X177325176Y-87927968D01*
X177240744Y-88012400D01*
X177299333Y-88118367D01*
X177445256Y-88163221D01*
X177597126Y-88178745D01*
X177636643Y-88175000D01*
X178352250Y-88175000D01*
X178421000Y-88106250D01*
X178421000Y-87579000D01*
X178401000Y-87579000D01*
X178401000Y-87221000D01*
X178421000Y-87221000D01*
X178421000Y-86693750D01*
X178352250Y-86625000D01*
X177639511Y-86625000D01*
X177602874Y-86621255D01*
X177450893Y-86635658D01*
X177304642Y-86679433D01*
X177299333Y-86681633D01*
X177240744Y-86787600D01*
X177325176Y-86872032D01*
X177325000Y-86872915D01*
X177325000Y-87152250D01*
X177393748Y-87220998D01*
X177325000Y-87220998D01*
X177325000Y-87378144D01*
X176987600Y-87040744D01*
X176881633Y-87099333D01*
X176836779Y-87245256D01*
X176821255Y-87397126D01*
X165324221Y-87397126D01*
X165328745Y-87352874D01*
X165314342Y-87200893D01*
X165270567Y-87054642D01*
X165268367Y-87049333D01*
X165162400Y-86990744D01*
X164825000Y-87328144D01*
X164825000Y-87170998D01*
X164756252Y-87170998D01*
X164825000Y-87102250D01*
X164825000Y-86822915D01*
X164824824Y-86822032D01*
X164909256Y-86737600D01*
X164850667Y-86631633D01*
X164704744Y-86586779D01*
X164552874Y-86571255D01*
X164513357Y-86575000D01*
X163797750Y-86575000D01*
X163729000Y-86643750D01*
X163371000Y-86643750D01*
X163302250Y-86575000D01*
X163250000Y-86575000D01*
X163250000Y-86126330D01*
X164550000Y-86126330D01*
X164563503Y-86125000D01*
X164626331Y-86125000D01*
X164776059Y-86095217D01*
X164917100Y-86036796D01*
X165044034Y-85951982D01*
X165151982Y-85844034D01*
X165236796Y-85717100D01*
X165295217Y-85576059D01*
X165325000Y-85426331D01*
X165325000Y-85273669D01*
X165317014Y-85233518D01*
X170275000Y-85233518D01*
X170275000Y-85366482D01*
X170300940Y-85496890D01*
X170351823Y-85619732D01*
X170425693Y-85730287D01*
X170519713Y-85824307D01*
X170630268Y-85898177D01*
X170753110Y-85949060D01*
X170883518Y-85975000D01*
X171016482Y-85975000D01*
X171146890Y-85949060D01*
X171269732Y-85898177D01*
X171380287Y-85824307D01*
X171474307Y-85730287D01*
X171548177Y-85619732D01*
X171599060Y-85496890D01*
X171625000Y-85366482D01*
X171625000Y-85233518D01*
X171612028Y-85168302D01*
X172205330Y-84575000D01*
X172594671Y-84575000D01*
X172937972Y-84918302D01*
X172925000Y-84983518D01*
X172925000Y-85116482D01*
X172950940Y-85246890D01*
X173001823Y-85369732D01*
X173075693Y-85480287D01*
X173169713Y-85574307D01*
X173280268Y-85648177D01*
X173403110Y-85699060D01*
X173533518Y-85725000D01*
X173666482Y-85725000D01*
X173796890Y-85699060D01*
X173919732Y-85648177D01*
X174030287Y-85574307D01*
X174124307Y-85480287D01*
X174198177Y-85369732D01*
X174249060Y-85246890D01*
X174275000Y-85116482D01*
X174275000Y-84983518D01*
X174249060Y-84853110D01*
X174198177Y-84730268D01*
X174124307Y-84619713D01*
X174030287Y-84525693D01*
X173919732Y-84451823D01*
X173796890Y-84400940D01*
X173666482Y-84375000D01*
X173533518Y-84375000D01*
X173468302Y-84387972D01*
X173028195Y-83947866D01*
X173016448Y-83933552D01*
X172959347Y-83886691D01*
X172894200Y-83851869D01*
X172823513Y-83830426D01*
X172768419Y-83825000D01*
X172768416Y-83825000D01*
X172750000Y-83823186D01*
X172731584Y-83825000D01*
X172068416Y-83825000D01*
X172050000Y-83823186D01*
X172031584Y-83825000D01*
X172031581Y-83825000D01*
X171976487Y-83830426D01*
X171905800Y-83851869D01*
X171840653Y-83886691D01*
X171783552Y-83933552D01*
X171771809Y-83947861D01*
X171081698Y-84637972D01*
X171016482Y-84625000D01*
X170883518Y-84625000D01*
X170753110Y-84650940D01*
X170630268Y-84701823D01*
X170519713Y-84775693D01*
X170425693Y-84869713D01*
X170351823Y-84980268D01*
X170300940Y-85103110D01*
X170275000Y-85233518D01*
X165317014Y-85233518D01*
X165295217Y-85123941D01*
X165288134Y-85106840D01*
X166594977Y-83799998D01*
X168212249Y-83799998D01*
X168233950Y-83832476D01*
X168317522Y-83916048D01*
X168415793Y-83981711D01*
X168524986Y-84026940D01*
X168640905Y-84049998D01*
X168759095Y-84049998D01*
X168875014Y-84026940D01*
X168984207Y-83981711D01*
X169082478Y-83916048D01*
X169166050Y-83832476D01*
X169231713Y-83734205D01*
X169276942Y-83625012D01*
X169300000Y-83509093D01*
X169300000Y-83390903D01*
X169276942Y-83274984D01*
X169231713Y-83165791D01*
X169166050Y-83067520D01*
X169082478Y-82983948D01*
X168984207Y-82918285D01*
X168875014Y-82873056D01*
X168759095Y-82849998D01*
X168640905Y-82849998D01*
X168602595Y-82857618D01*
X167159655Y-81414680D01*
X167148687Y-81401315D01*
X167095392Y-81357578D01*
X167034589Y-81325078D01*
X166968614Y-81305065D01*
X166917191Y-81300000D01*
X166917190Y-81300000D01*
X166900002Y-81298307D01*
X166882814Y-81300000D01*
X166494975Y-81300000D01*
X165950011Y-80755038D01*
X165950011Y-80670886D01*
X166024986Y-80701942D01*
X166140905Y-80725000D01*
X166259095Y-80725000D01*
X166375014Y-80701942D01*
X166484207Y-80656713D01*
X166582478Y-80591050D01*
X166666050Y-80507478D01*
X166731713Y-80409207D01*
X166776942Y-80300014D01*
X166800000Y-80184095D01*
X166800000Y-80065905D01*
X166794397Y-80037737D01*
X167596947Y-79235189D01*
X167744116Y-79235189D01*
X167725851Y-79253454D01*
X167660188Y-79351725D01*
X167614959Y-79460918D01*
X167591901Y-79576837D01*
X167591901Y-79614026D01*
X167576112Y-79614026D01*
X167460193Y-79637084D01*
X167351000Y-79682313D01*
X167252729Y-79747976D01*
X167169157Y-79831548D01*
X167103494Y-79929819D01*
X167058265Y-80039012D01*
X167035207Y-80154931D01*
X167035207Y-80273121D01*
X167058265Y-80389040D01*
X167103494Y-80498233D01*
X167169157Y-80596504D01*
X167252729Y-80680076D01*
X167351000Y-80745739D01*
X167460193Y-80790968D01*
X167576112Y-80814026D01*
X167694302Y-80814026D01*
X167810221Y-80790968D01*
X167919414Y-80745739D01*
X168017685Y-80680076D01*
X168101257Y-80596504D01*
X168122958Y-80564026D01*
X169268786Y-80564026D01*
X169285974Y-80565719D01*
X169303162Y-80564026D01*
X169303163Y-80564026D01*
X169354586Y-80558961D01*
X169420561Y-80538948D01*
X169481364Y-80506448D01*
X169534659Y-80462711D01*
X169545627Y-80449346D01*
X170645264Y-79349710D01*
X170658619Y-79338750D01*
X170702357Y-79285455D01*
X170729225Y-79235189D01*
X170734857Y-79224653D01*
X170754870Y-79158677D01*
X170761628Y-79090065D01*
X170759935Y-79072876D01*
X170759935Y-76787751D01*
X170792413Y-76766050D01*
X170875985Y-76682478D01*
X170941648Y-76584207D01*
X170986877Y-76475014D01*
X171009935Y-76359095D01*
X171009935Y-76240905D01*
X170986877Y-76124986D01*
X170941648Y-76015793D01*
X170875985Y-75917522D01*
X170792413Y-75833950D01*
X170694142Y-75768287D01*
X170584949Y-75723058D01*
X170469030Y-75700000D01*
X170350840Y-75700000D01*
X170234921Y-75723058D01*
X170170958Y-75749552D01*
X170155090Y-75711244D01*
X170089427Y-75612973D01*
X170005855Y-75529401D01*
X169907584Y-75463738D01*
X169798391Y-75418509D01*
X169682472Y-75395451D01*
X169564282Y-75395451D01*
X169448363Y-75418509D01*
X169339170Y-75463738D01*
X169240899Y-75529401D01*
X169157327Y-75612973D01*
X169091664Y-75711244D01*
X169046435Y-75820437D01*
X169023377Y-75936356D01*
X169023377Y-76054546D01*
X169046435Y-76170465D01*
X169091664Y-76279658D01*
X169157327Y-76377929D01*
X169240899Y-76461501D01*
X169273378Y-76483203D01*
X169273377Y-78765817D01*
X169251698Y-78744138D01*
X169153427Y-78678475D01*
X169044234Y-78633246D01*
X168928315Y-78610188D01*
X168810125Y-78610188D01*
X168770455Y-78618079D01*
X168739611Y-78592767D01*
X168678808Y-78560267D01*
X168612833Y-78540254D01*
X168561410Y-78535189D01*
X168561409Y-78535189D01*
X168544221Y-78533496D01*
X168527033Y-78535189D01*
X167469168Y-78535189D01*
X167451972Y-78533495D01*
X167383360Y-78540254D01*
X167317385Y-78560267D01*
X167256582Y-78592767D01*
X167203287Y-78636504D01*
X167192327Y-78649859D01*
X166307549Y-79534638D01*
X166259095Y-79525000D01*
X166140905Y-79525000D01*
X166024986Y-79548058D01*
X165950011Y-79579114D01*
X165950011Y-77666588D01*
X165975007Y-77676942D01*
X166090926Y-77700000D01*
X166209116Y-77700000D01*
X166325035Y-77676942D01*
X166434228Y-77631713D01*
X166532499Y-77566050D01*
X166616071Y-77482478D01*
X166681734Y-77384207D01*
X166726963Y-77275014D01*
X166750021Y-77159095D01*
X166750021Y-77040905D01*
X166742400Y-77002594D01*
X168544996Y-75200000D01*
X170399086Y-75200000D01*
X172154360Y-76955274D01*
X172121513Y-76988121D01*
X172055850Y-77086392D01*
X172051496Y-77096902D01*
X171980287Y-77025693D01*
X171869732Y-76951823D01*
X171746890Y-76900940D01*
X171616482Y-76875000D01*
X171483518Y-76875000D01*
X171353110Y-76900940D01*
X171230268Y-76951823D01*
X171119713Y-77025693D01*
X171025693Y-77119713D01*
X170951823Y-77230268D01*
X170900940Y-77353110D01*
X170875000Y-77483518D01*
X170875000Y-77616482D01*
X170900940Y-77746890D01*
X170951823Y-77869732D01*
X171025693Y-77980287D01*
X171119713Y-78074307D01*
X171230268Y-78148177D01*
X171353110Y-78199060D01*
X171483518Y-78225000D01*
X171616482Y-78225000D01*
X171746890Y-78199060D01*
X171869732Y-78148177D01*
X171871632Y-78146907D01*
X173572087Y-79847364D01*
X173583047Y-79860719D01*
X173636342Y-79904456D01*
X173697145Y-79936956D01*
X173763120Y-79956969D01*
X173814543Y-79962034D01*
X173814545Y-79962034D01*
X173831731Y-79963727D01*
X173848917Y-79962034D01*
X174492016Y-79962034D01*
X174545662Y-80042321D01*
X174639682Y-80136341D01*
X174750237Y-80210211D01*
X174873079Y-80261094D01*
X175003487Y-80287034D01*
X175136451Y-80287034D01*
X175266859Y-80261094D01*
X175389701Y-80210211D01*
X175500256Y-80136341D01*
X175594276Y-80042321D01*
X175668146Y-79931766D01*
X175719029Y-79808924D01*
X175744969Y-79678516D01*
X175744969Y-79545552D01*
X175719029Y-79415144D01*
X175668146Y-79292302D01*
X175594276Y-79181747D01*
X175500256Y-79087727D01*
X175389701Y-79013857D01*
X175266859Y-78962974D01*
X175136451Y-78937034D01*
X175003487Y-78937034D01*
X174873079Y-78962974D01*
X174750237Y-79013857D01*
X174639682Y-79087727D01*
X174545662Y-79181747D01*
X174492016Y-79262034D01*
X173976707Y-79262034D01*
X173500121Y-78785449D01*
X173569684Y-78771612D01*
X173678877Y-78726383D01*
X173777148Y-78660720D01*
X173860720Y-78577148D01*
X173926383Y-78478877D01*
X173943056Y-78438625D01*
X173951293Y-78448663D01*
X173988110Y-78478877D01*
X174004588Y-78492400D01*
X174065391Y-78524900D01*
X174131366Y-78544913D01*
X174199978Y-78551671D01*
X174217167Y-78549978D01*
X174312249Y-78549978D01*
X174333950Y-78582456D01*
X174417522Y-78666028D01*
X174515793Y-78731691D01*
X174624986Y-78776920D01*
X174740905Y-78799978D01*
X174859095Y-78799978D01*
X174975014Y-78776920D01*
X175084207Y-78731691D01*
X175182478Y-78666028D01*
X175266050Y-78582456D01*
X175331713Y-78484185D01*
X175376942Y-78374992D01*
X175400000Y-78259073D01*
X175400000Y-78140883D01*
X175376942Y-78024964D01*
X175331713Y-77915771D01*
X175266050Y-77817500D01*
X175182478Y-77733928D01*
X175084207Y-77668265D01*
X174975014Y-77623036D01*
X174859095Y-77599978D01*
X174740905Y-77599978D01*
X174624986Y-77623036D01*
X174515793Y-77668265D01*
X174417522Y-77733928D01*
X174333950Y-77817500D01*
X174325348Y-77830374D01*
X174050000Y-77555027D01*
X174050000Y-77117189D01*
X174051693Y-77100000D01*
X174044935Y-77031388D01*
X174024922Y-76965413D01*
X173992422Y-76904610D01*
X173959642Y-76864667D01*
X173959640Y-76864665D01*
X173948684Y-76851315D01*
X173935335Y-76840360D01*
X171109653Y-74014680D01*
X171098685Y-74001315D01*
X171045390Y-73957578D01*
X170984587Y-73925078D01*
X170918612Y-73905065D01*
X170867189Y-73900000D01*
X170867188Y-73900000D01*
X170850000Y-73898307D01*
X170832812Y-73900000D01*
X168394975Y-73900000D01*
X167992379Y-73497406D01*
X168000000Y-73459095D01*
X168000000Y-73340905D01*
X167976942Y-73224986D01*
X167931713Y-73115793D01*
X167866050Y-73017522D01*
X167782478Y-72933950D01*
X167684207Y-72868287D01*
X167575014Y-72823058D01*
X167459095Y-72800000D01*
X167340905Y-72800000D01*
X167283570Y-72811405D01*
X167344975Y-72750000D01*
X169082812Y-72750000D01*
X169100000Y-72751693D01*
X169117188Y-72750000D01*
X169117189Y-72750000D01*
X169168612Y-72744935D01*
X169234587Y-72724922D01*
X169295390Y-72692422D01*
X169348685Y-72648685D01*
X169359653Y-72635320D01*
X170293277Y-71701697D01*
X170306632Y-71690737D01*
X170350370Y-71637442D01*
X170382870Y-71576639D01*
X170400472Y-71518612D01*
X170402883Y-71510665D01*
X170409641Y-71442053D01*
X170407948Y-71424864D01*
X170407948Y-70944939D01*
X170440426Y-70923238D01*
X170523998Y-70839666D01*
X170589661Y-70741395D01*
X170634890Y-70632202D01*
X170657948Y-70516283D01*
X170657948Y-70398093D01*
X170634890Y-70282174D01*
X170589661Y-70172981D01*
X170523998Y-70074710D01*
X170486074Y-70036786D01*
X170528216Y-69994644D01*
X170593879Y-69896373D01*
X170639108Y-69787180D01*
X170662166Y-69671261D01*
X170662166Y-69553071D01*
X170639108Y-69437152D01*
X170623719Y-69400000D01*
X172203694Y-69400000D01*
X173960861Y-71157167D01*
X173953240Y-71195478D01*
X173953240Y-71313668D01*
X173976298Y-71429587D01*
X174021527Y-71538780D01*
X174087190Y-71637051D01*
X174170762Y-71720623D01*
X174269033Y-71786286D01*
X174378226Y-71831515D01*
X174494145Y-71854573D01*
X174612335Y-71854573D01*
X174728254Y-71831515D01*
X174837447Y-71786286D01*
X174917659Y-71732690D01*
X174918287Y-71734207D01*
X174983950Y-71832478D01*
X175067522Y-71916050D01*
X175165793Y-71981713D01*
X175274986Y-72026942D01*
X175390905Y-72050000D01*
X175509095Y-72050000D01*
X175625014Y-72026942D01*
X175734207Y-71981713D01*
X175832478Y-71916050D01*
X175916050Y-71832478D01*
X175981713Y-71734207D01*
X176026942Y-71625014D01*
X176050000Y-71509095D01*
X176050000Y-71390905D01*
X176026942Y-71274986D01*
X175981713Y-71165793D01*
X175916050Y-71067522D01*
X175832478Y-70983950D01*
X175798847Y-70961478D01*
X175794935Y-70921769D01*
X175774922Y-70855794D01*
X175742422Y-70794991D01*
X175737114Y-70788523D01*
X175698685Y-70741696D01*
X175685330Y-70730736D01*
X175288625Y-70334033D01*
X175277657Y-70320668D01*
X175264539Y-70309902D01*
X175281697Y-70284223D01*
X175326926Y-70175030D01*
X175349984Y-70059111D01*
X175349984Y-69940921D01*
X175326926Y-69825002D01*
X175297051Y-69752876D01*
X175294934Y-69731389D01*
X175274921Y-69665414D01*
X175242421Y-69604611D01*
X175198684Y-69551316D01*
X175145389Y-69507579D01*
X175099984Y-69483309D01*
X175099984Y-69317182D01*
X175101677Y-69299993D01*
X175094919Y-69231381D01*
X175074906Y-69165405D01*
X175062881Y-69142909D01*
X175042406Y-69104603D01*
X174998669Y-69051308D01*
X174985309Y-69040344D01*
X174492379Y-68547415D01*
X174500000Y-68509104D01*
X174500000Y-68390914D01*
X174476942Y-68274995D01*
X174431713Y-68165802D01*
X174404450Y-68125001D01*
X174580028Y-68125001D01*
X174943838Y-68488812D01*
X174925000Y-68583518D01*
X174925000Y-68716482D01*
X174950940Y-68846890D01*
X175001823Y-68969732D01*
X175075693Y-69080287D01*
X175169713Y-69174307D01*
X175280268Y-69248177D01*
X175403110Y-69299060D01*
X175533518Y-69325000D01*
X175666482Y-69325000D01*
X175796890Y-69299060D01*
X175919732Y-69248177D01*
X176030287Y-69174307D01*
X176124307Y-69080287D01*
X176198177Y-68969732D01*
X176249060Y-68846890D01*
X176275000Y-68716482D01*
X176275000Y-68583518D01*
X176249060Y-68453110D01*
X176198177Y-68330268D01*
X176124307Y-68219713D01*
X176030287Y-68125693D01*
X175919732Y-68051823D01*
X175796890Y-68000940D01*
X175666482Y-67975000D01*
X175533518Y-67975000D01*
X175438812Y-67993838D01*
X175186051Y-67741078D01*
X175317100Y-67686796D01*
X175444034Y-67601982D01*
X175551982Y-67494034D01*
X175636796Y-67367100D01*
X175695217Y-67226059D01*
X175725000Y-67076331D01*
X175725000Y-67013503D01*
X175726330Y-67000000D01*
X175726330Y-65750000D01*
X178850001Y-65750000D01*
X178850001Y-66623670D01*
G36*
X165422462Y-68010331D02*
X165433422Y-68023686D01*
X165486717Y-68067423D01*
X165547520Y-68099923D01*
X165593481Y-68113865D01*
X165613494Y-68119936D01*
X165682106Y-68126694D01*
X165699295Y-68125001D01*
X168978953Y-68125001D01*
X168962249Y-68150000D01*
X167017188Y-68150000D01*
X166999999Y-68148307D01*
X166931387Y-68155065D01*
X166911374Y-68161136D01*
X166865413Y-68175078D01*
X166804610Y-68207578D01*
X166803163Y-68208766D01*
X166759095Y-68200000D01*
X166640905Y-68200000D01*
X166524986Y-68223058D01*
X166415793Y-68268287D01*
X166317522Y-68333950D01*
X166233950Y-68417522D01*
X166168287Y-68515793D01*
X166123058Y-68624986D01*
X166100000Y-68740905D01*
X166100000Y-68859095D01*
X166123058Y-68975014D01*
X166168287Y-69084207D01*
X166233950Y-69182478D01*
X166317522Y-69266050D01*
X166415793Y-69331713D01*
X166524986Y-69376942D01*
X166640905Y-69400000D01*
X166759095Y-69400000D01*
X166875014Y-69376942D01*
X166984207Y-69331713D01*
X167082478Y-69266050D01*
X167166050Y-69182478D01*
X167231713Y-69084207D01*
X167276942Y-68975014D01*
X167300000Y-68859095D01*
X167300000Y-68850000D01*
X167733407Y-68850000D01*
X167723058Y-68874986D01*
X167700000Y-68990905D01*
X167700000Y-69109095D01*
X167723058Y-69225014D01*
X167768287Y-69334207D01*
X167833950Y-69432478D01*
X167917522Y-69516050D01*
X168015793Y-69581713D01*
X168124986Y-69626942D01*
X168240905Y-69650000D01*
X168359095Y-69650000D01*
X168475014Y-69626942D01*
X168584207Y-69581713D01*
X168682478Y-69516050D01*
X168766050Y-69432478D01*
X168787751Y-69400000D01*
X169500613Y-69400000D01*
X169485224Y-69437152D01*
X169462166Y-69553071D01*
X169462166Y-69671261D01*
X169469787Y-69709572D01*
X169214676Y-69964683D01*
X169201315Y-69975648D01*
X169157578Y-70028943D01*
X169125078Y-70089746D01*
X169111471Y-70134603D01*
X169105065Y-70155721D01*
X169098307Y-70224332D01*
X169100000Y-70241521D01*
X169100000Y-70579377D01*
X169085827Y-70569907D01*
X168976634Y-70524678D01*
X168860715Y-70501620D01*
X168742525Y-70501620D01*
X168626606Y-70524678D01*
X168517413Y-70569907D01*
X168419142Y-70635570D01*
X168335570Y-70719142D01*
X168269907Y-70817413D01*
X168224678Y-70926606D01*
X168201620Y-71042525D01*
X168201620Y-71160715D01*
X168224678Y-71276634D01*
X168269907Y-71385827D01*
X168335570Y-71484098D01*
X168419142Y-71567670D01*
X168517413Y-71633333D01*
X168626606Y-71678562D01*
X168742525Y-71701620D01*
X168803406Y-71701620D01*
X168755027Y-71750000D01*
X167067196Y-71750000D01*
X167050000Y-71748306D01*
X166981388Y-71755065D01*
X166915413Y-71775078D01*
X166854610Y-71807578D01*
X166801315Y-71851315D01*
X166790357Y-71864668D01*
X165814676Y-72840351D01*
X165801315Y-72851316D01*
X165757578Y-72904611D01*
X165725078Y-72965414D01*
X165705065Y-73031388D01*
X165705065Y-73031389D01*
X165698307Y-73100000D01*
X165700000Y-73117189D01*
X165700001Y-74632802D01*
X165698307Y-74650000D01*
X165705065Y-74718611D01*
X165724108Y-74781387D01*
X165725079Y-74784587D01*
X165757579Y-74845390D01*
X165801316Y-74898685D01*
X165814676Y-74909649D01*
X166150001Y-75244975D01*
X166150000Y-75756491D01*
X166131492Y-75775000D01*
X165892189Y-75775000D01*
X165875000Y-75773307D01*
X165806388Y-75780065D01*
X165740412Y-75800078D01*
X165702324Y-75820437D01*
X165679610Y-75832578D01*
X165626315Y-75876315D01*
X165615351Y-75889675D01*
X165064676Y-76440351D01*
X165051315Y-76451316D01*
X165007578Y-76504611D01*
X164975078Y-76565414D01*
X164957003Y-76625000D01*
X164955065Y-76631389D01*
X164949780Y-76685040D01*
X164917100Y-76663204D01*
X164776059Y-76604783D01*
X164626331Y-76575000D01*
X164563503Y-76575000D01*
X164550000Y-76573670D01*
X163250000Y-76573670D01*
X163250000Y-76126330D01*
X164550000Y-76126330D01*
X164563503Y-76125000D01*
X164626331Y-76125000D01*
X164776059Y-76095217D01*
X164917100Y-76036796D01*
X165044034Y-75951982D01*
X165151982Y-75844034D01*
X165236796Y-75717100D01*
X165295217Y-75576059D01*
X165325000Y-75426331D01*
X165325000Y-75273669D01*
X165295217Y-75123941D01*
X165236796Y-74982900D01*
X165151982Y-74855966D01*
X165044034Y-74748018D01*
X164917100Y-74663204D01*
X164776059Y-74604783D01*
X164626331Y-74575000D01*
X164563503Y-74575000D01*
X164550000Y-74573670D01*
X163250000Y-74573670D01*
X163250000Y-74126330D01*
X164550000Y-74126330D01*
X164563503Y-74125000D01*
X164626331Y-74125000D01*
X164776059Y-74095217D01*
X164917100Y-74036796D01*
X165044034Y-73951982D01*
X165151982Y-73844034D01*
X165236796Y-73717100D01*
X165295217Y-73576059D01*
X165325000Y-73426331D01*
X165325000Y-73273669D01*
X165295217Y-73123941D01*
X165236796Y-72982900D01*
X165151982Y-72855966D01*
X165044034Y-72748018D01*
X164917100Y-72663204D01*
X164776059Y-72604783D01*
X164626331Y-72575000D01*
X164563503Y-72575000D01*
X164550000Y-72573670D01*
X163250000Y-72573670D01*
X163250000Y-72126330D01*
X164550000Y-72126330D01*
X164563503Y-72125000D01*
X164626331Y-72125000D01*
X164776059Y-72095217D01*
X164917100Y-72036796D01*
X165044034Y-71951982D01*
X165151982Y-71844034D01*
X165236796Y-71717100D01*
X165295217Y-71576059D01*
X165325000Y-71426331D01*
X165325000Y-71273669D01*
X165295217Y-71123941D01*
X165236796Y-70982900D01*
X165151982Y-70855966D01*
X165044034Y-70748018D01*
X164917100Y-70663204D01*
X164776059Y-70604783D01*
X164626331Y-70575000D01*
X164563503Y-70575000D01*
X164550000Y-70573670D01*
X163250000Y-70573670D01*
X163250000Y-70126330D01*
X164550000Y-70126330D01*
X164563503Y-70125000D01*
X164626331Y-70125000D01*
X164776059Y-70095217D01*
X164917100Y-70036796D01*
X165044034Y-69951982D01*
X165151982Y-69844034D01*
X165236796Y-69717100D01*
X165295217Y-69576059D01*
X165325000Y-69426331D01*
X165325000Y-69273669D01*
X165295217Y-69123941D01*
X165236796Y-68982900D01*
X165151982Y-68855966D01*
X165044034Y-68748018D01*
X164917100Y-68663204D01*
X164776059Y-68604783D01*
X164626331Y-68575000D01*
X164563503Y-68575000D01*
X164550000Y-68573670D01*
X163250000Y-68573670D01*
X163250000Y-68126330D01*
X164550000Y-68126330D01*
X164563503Y-68125000D01*
X164626331Y-68125000D01*
X164776059Y-68095217D01*
X164917100Y-68036796D01*
X165044034Y-67951982D01*
X165151982Y-67844034D01*
X165193712Y-67781580D01*
X165422462Y-68010331D01*
X165422462Y-68010331D01*
G37*
X165422462Y-68010331D02*
X165433422Y-68023686D01*
X165486717Y-68067423D01*
X165547520Y-68099923D01*
X165593481Y-68113865D01*
X165613494Y-68119936D01*
X165682106Y-68126694D01*
X165699295Y-68125001D01*
X168978953Y-68125001D01*
X168962249Y-68150000D01*
X167017188Y-68150000D01*
X166999999Y-68148307D01*
X166931387Y-68155065D01*
X166911374Y-68161136D01*
X166865413Y-68175078D01*
X166804610Y-68207578D01*
X166803163Y-68208766D01*
X166759095Y-68200000D01*
X166640905Y-68200000D01*
X166524986Y-68223058D01*
X166415793Y-68268287D01*
X166317522Y-68333950D01*
X166233950Y-68417522D01*
X166168287Y-68515793D01*
X166123058Y-68624986D01*
X166100000Y-68740905D01*
X166100000Y-68859095D01*
X166123058Y-68975014D01*
X166168287Y-69084207D01*
X166233950Y-69182478D01*
X166317522Y-69266050D01*
X166415793Y-69331713D01*
X166524986Y-69376942D01*
X166640905Y-69400000D01*
X166759095Y-69400000D01*
X166875014Y-69376942D01*
X166984207Y-69331713D01*
X167082478Y-69266050D01*
X167166050Y-69182478D01*
X167231713Y-69084207D01*
X167276942Y-68975014D01*
X167300000Y-68859095D01*
X167300000Y-68850000D01*
X167733407Y-68850000D01*
X167723058Y-68874986D01*
X167700000Y-68990905D01*
X167700000Y-69109095D01*
X167723058Y-69225014D01*
X167768287Y-69334207D01*
X167833950Y-69432478D01*
X167917522Y-69516050D01*
X168015793Y-69581713D01*
X168124986Y-69626942D01*
X168240905Y-69650000D01*
X168359095Y-69650000D01*
X168475014Y-69626942D01*
X168584207Y-69581713D01*
X168682478Y-69516050D01*
X168766050Y-69432478D01*
X168787751Y-69400000D01*
X169500613Y-69400000D01*
X169485224Y-69437152D01*
X169462166Y-69553071D01*
X169462166Y-69671261D01*
X169469787Y-69709572D01*
X169214676Y-69964683D01*
X169201315Y-69975648D01*
X169157578Y-70028943D01*
X169125078Y-70089746D01*
X169111471Y-70134603D01*
X169105065Y-70155721D01*
X169098307Y-70224332D01*
X169100000Y-70241521D01*
X169100000Y-70579377D01*
X169085827Y-70569907D01*
X168976634Y-70524678D01*
X168860715Y-70501620D01*
X168742525Y-70501620D01*
X168626606Y-70524678D01*
X168517413Y-70569907D01*
X168419142Y-70635570D01*
X168335570Y-70719142D01*
X168269907Y-70817413D01*
X168224678Y-70926606D01*
X168201620Y-71042525D01*
X168201620Y-71160715D01*
X168224678Y-71276634D01*
X168269907Y-71385827D01*
X168335570Y-71484098D01*
X168419142Y-71567670D01*
X168517413Y-71633333D01*
X168626606Y-71678562D01*
X168742525Y-71701620D01*
X168803406Y-71701620D01*
X168755027Y-71750000D01*
X167067196Y-71750000D01*
X167050000Y-71748306D01*
X166981388Y-71755065D01*
X166915413Y-71775078D01*
X166854610Y-71807578D01*
X166801315Y-71851315D01*
X166790357Y-71864668D01*
X165814676Y-72840351D01*
X165801315Y-72851316D01*
X165757578Y-72904611D01*
X165725078Y-72965414D01*
X165705065Y-73031388D01*
X165705065Y-73031389D01*
X165698307Y-73100000D01*
X165700000Y-73117189D01*
X165700001Y-74632802D01*
X165698307Y-74650000D01*
X165705065Y-74718611D01*
X165724108Y-74781387D01*
X165725079Y-74784587D01*
X165757579Y-74845390D01*
X165801316Y-74898685D01*
X165814676Y-74909649D01*
X166150001Y-75244975D01*
X166150000Y-75756491D01*
X166131492Y-75775000D01*
X165892189Y-75775000D01*
X165875000Y-75773307D01*
X165806388Y-75780065D01*
X165740412Y-75800078D01*
X165702324Y-75820437D01*
X165679610Y-75832578D01*
X165626315Y-75876315D01*
X165615351Y-75889675D01*
X165064676Y-76440351D01*
X165051315Y-76451316D01*
X165007578Y-76504611D01*
X164975078Y-76565414D01*
X164957003Y-76625000D01*
X164955065Y-76631389D01*
X164949780Y-76685040D01*
X164917100Y-76663204D01*
X164776059Y-76604783D01*
X164626331Y-76575000D01*
X164563503Y-76575000D01*
X164550000Y-76573670D01*
X163250000Y-76573670D01*
X163250000Y-76126330D01*
X164550000Y-76126330D01*
X164563503Y-76125000D01*
X164626331Y-76125000D01*
X164776059Y-76095217D01*
X164917100Y-76036796D01*
X165044034Y-75951982D01*
X165151982Y-75844034D01*
X165236796Y-75717100D01*
X165295217Y-75576059D01*
X165325000Y-75426331D01*
X165325000Y-75273669D01*
X165295217Y-75123941D01*
X165236796Y-74982900D01*
X165151982Y-74855966D01*
X165044034Y-74748018D01*
X164917100Y-74663204D01*
X164776059Y-74604783D01*
X164626331Y-74575000D01*
X164563503Y-74575000D01*
X164550000Y-74573670D01*
X163250000Y-74573670D01*
X163250000Y-74126330D01*
X164550000Y-74126330D01*
X164563503Y-74125000D01*
X164626331Y-74125000D01*
X164776059Y-74095217D01*
X164917100Y-74036796D01*
X165044034Y-73951982D01*
X165151982Y-73844034D01*
X165236796Y-73717100D01*
X165295217Y-73576059D01*
X165325000Y-73426331D01*
X165325000Y-73273669D01*
X165295217Y-73123941D01*
X165236796Y-72982900D01*
X165151982Y-72855966D01*
X165044034Y-72748018D01*
X164917100Y-72663204D01*
X164776059Y-72604783D01*
X164626331Y-72575000D01*
X164563503Y-72575000D01*
X164550000Y-72573670D01*
X163250000Y-72573670D01*
X163250000Y-72126330D01*
X164550000Y-72126330D01*
X164563503Y-72125000D01*
X164626331Y-72125000D01*
X164776059Y-72095217D01*
X164917100Y-72036796D01*
X165044034Y-71951982D01*
X165151982Y-71844034D01*
X165236796Y-71717100D01*
X165295217Y-71576059D01*
X165325000Y-71426331D01*
X165325000Y-71273669D01*
X165295217Y-71123941D01*
X165236796Y-70982900D01*
X165151982Y-70855966D01*
X165044034Y-70748018D01*
X164917100Y-70663204D01*
X164776059Y-70604783D01*
X164626331Y-70575000D01*
X164563503Y-70575000D01*
X164550000Y-70573670D01*
X163250000Y-70573670D01*
X163250000Y-70126330D01*
X164550000Y-70126330D01*
X164563503Y-70125000D01*
X164626331Y-70125000D01*
X164776059Y-70095217D01*
X164917100Y-70036796D01*
X165044034Y-69951982D01*
X165151982Y-69844034D01*
X165236796Y-69717100D01*
X165295217Y-69576059D01*
X165325000Y-69426331D01*
X165325000Y-69273669D01*
X165295217Y-69123941D01*
X165236796Y-68982900D01*
X165151982Y-68855966D01*
X165044034Y-68748018D01*
X164917100Y-68663204D01*
X164776059Y-68604783D01*
X164626331Y-68575000D01*
X164563503Y-68575000D01*
X164550000Y-68573670D01*
X163250000Y-68573670D01*
X163250000Y-68126330D01*
X164550000Y-68126330D01*
X164563503Y-68125000D01*
X164626331Y-68125000D01*
X164776059Y-68095217D01*
X164917100Y-68036796D01*
X165044034Y-67951982D01*
X165151982Y-67844034D01*
X165193712Y-67781580D01*
X165422462Y-68010331D01*
G36*
X166175000Y-65752250D02*
X166243750Y-65821000D01*
X166771000Y-65821000D01*
X166771000Y-65801000D01*
X167129000Y-65801000D01*
X167129000Y-65821000D01*
X167656250Y-65821000D01*
X167725000Y-65752250D01*
X167725000Y-65750000D01*
X168173670Y-65750000D01*
X168173670Y-67000000D01*
X168175000Y-67013503D01*
X168175000Y-67076331D01*
X168204783Y-67226059D01*
X168263204Y-67367100D01*
X168301892Y-67425001D01*
X167625804Y-67425001D01*
X167626976Y-67423829D01*
X167562402Y-67359255D01*
X167668367Y-67300667D01*
X167713221Y-67154744D01*
X167728745Y-67002874D01*
X167725000Y-66963357D01*
X167725000Y-66247750D01*
X167656250Y-66179000D01*
X167129000Y-66179000D01*
X167129000Y-66199000D01*
X166771000Y-66199000D01*
X166771000Y-66179000D01*
X166243750Y-66179000D01*
X166175000Y-66247750D01*
X166175000Y-66960489D01*
X166171255Y-66997126D01*
X166185658Y-67149107D01*
X166229433Y-67295358D01*
X166231633Y-67300667D01*
X166337598Y-67359255D01*
X166273024Y-67423829D01*
X166274196Y-67425001D01*
X165827081Y-67425001D01*
X165516759Y-67114680D01*
X165505791Y-67101315D01*
X165452496Y-67057578D01*
X165391693Y-67025078D01*
X165325718Y-67005065D01*
X165274295Y-67000000D01*
X165274294Y-67000000D01*
X165257106Y-66998307D01*
X165243724Y-66999625D01*
X165236796Y-66982900D01*
X165151982Y-66855966D01*
X165044034Y-66748018D01*
X164917100Y-66663204D01*
X164776059Y-66604783D01*
X164626331Y-66575000D01*
X164563503Y-66575000D01*
X164550000Y-66573670D01*
X163250000Y-66573670D01*
X163250000Y-65750000D01*
X166175000Y-65750000D01*
X166175000Y-65752250D01*
X166175000Y-65752250D01*
G37*
X166175000Y-65752250D02*
X166243750Y-65821000D01*
X166771000Y-65821000D01*
X166771000Y-65801000D01*
X167129000Y-65801000D01*
X167129000Y-65821000D01*
X167656250Y-65821000D01*
X167725000Y-65752250D01*
X167725000Y-65750000D01*
X168173670Y-65750000D01*
X168173670Y-67000000D01*
X168175000Y-67013503D01*
X168175000Y-67076331D01*
X168204783Y-67226059D01*
X168263204Y-67367100D01*
X168301892Y-67425001D01*
X167625804Y-67425001D01*
X167626976Y-67423829D01*
X167562402Y-67359255D01*
X167668367Y-67300667D01*
X167713221Y-67154744D01*
X167728745Y-67002874D01*
X167725000Y-66963357D01*
X167725000Y-66247750D01*
X167656250Y-66179000D01*
X167129000Y-66179000D01*
X167129000Y-66199000D01*
X166771000Y-66199000D01*
X166771000Y-66179000D01*
X166243750Y-66179000D01*
X166175000Y-66247750D01*
X166175000Y-66960489D01*
X166171255Y-66997126D01*
X166185658Y-67149107D01*
X166229433Y-67295358D01*
X166231633Y-67300667D01*
X166337598Y-67359255D01*
X166273024Y-67423829D01*
X166274196Y-67425001D01*
X165827081Y-67425001D01*
X165516759Y-67114680D01*
X165505791Y-67101315D01*
X165452496Y-67057578D01*
X165391693Y-67025078D01*
X165325718Y-67005065D01*
X165274295Y-67000000D01*
X165274294Y-67000000D01*
X165257106Y-66998307D01*
X165243724Y-66999625D01*
X165236796Y-66982900D01*
X165151982Y-66855966D01*
X165044034Y-66748018D01*
X164917100Y-66663204D01*
X164776059Y-66604783D01*
X164626331Y-66575000D01*
X164563503Y-66575000D01*
X164550000Y-66573670D01*
X163250000Y-66573670D01*
X163250000Y-65750000D01*
X166175000Y-65750000D01*
X166175000Y-65752250D01*
G04 #@! TD*
M02*
